<?xml version="1.0" encoding="utf-8" standalone="no"?>
<!DOCTYPE svg PUBLIC "-//W3C//DTD SVG 1.1//EN"
  "http://www.w3.org/Graphics/SVG/1.1/DTD/svg11.dtd">
<!-- Created with matplotlib (http://matplotlib.org/) -->
<svg height="288pt" version="1.1" viewBox="0 0 432 288" width="432pt" xmlns="http://www.w3.org/2000/svg" xmlns:xlink="http://www.w3.org/1999/xlink">
 <defs>
  <style type="text/css">
*{stroke-linecap:butt;stroke-linejoin:round;}
  </style>
 </defs>
 <g id="figure_1">
  <g id="patch_1">
   <path d="M 0 288 
L 432 288 
L 432 0 
L 0 0 
z
" style="fill:#ffffff;"/>
  </g>
  <g id="axes_1">
   <g id="patch_2">
    <path d="M 24.175 107.6 
L 207.1 107.6 
L 207.1 14.3 
L 24.175 14.3 
z
" style="fill:#ffffff;"/>
   </g>
   <g id="patch_3">
    <path clip-path="url(#p92b5b4a3ca)" d="M 32.489773 107.6 
L 60.205682 107.6 
L 60.205682 48.361905 
L 32.489773 48.361905 
z
" style="fill:#b22222;opacity:0.4;"/>
   </g>
   <g id="patch_4">
    <path clip-path="url(#p92b5b4a3ca)" d="M 60.205682 107.6 
L 87.921591 107.6 
L 87.921591 18.742857 
L 60.205682 18.742857 
z
" style="fill:#b22222;opacity:0.4;"/>
   </g>
   <g id="patch_5">
    <path clip-path="url(#p92b5b4a3ca)" d="M 87.921591 107.6 
L 115.6375 107.6 
L 115.6375 63.171429 
L 87.921591 63.171429 
z
" style="fill:#b22222;opacity:0.4;"/>
   </g>
   <g id="patch_6">
    <path clip-path="url(#p92b5b4a3ca)" d="M 115.6375 107.6 
L 143.353409 107.6 
L 143.353409 107.6 
L 115.6375 107.6 
z
" style="fill:#b22222;opacity:0.4;"/>
   </g>
   <g id="patch_7">
    <path clip-path="url(#p92b5b4a3ca)" d="M 143.353409 107.6 
L 171.069318 107.6 
L 171.069318 107.6 
L 143.353409 107.6 
z
" style="fill:#b22222;opacity:0.4;"/>
   </g>
   <g id="patch_8">
    <path clip-path="url(#p92b5b4a3ca)" d="M 171.069318 107.6 
L 198.785227 107.6 
L 198.785227 92.790476 
L 171.069318 92.790476 
z
" style="fill:#b22222;opacity:0.4;"/>
   </g>
   <g id="matplotlib.axis_1">
    <g id="xtick_1">
     <g id="line2d_1">
      <defs>
       <path d="M 0 0 
L 0 3.5 
" id="mb0cdfcc376" style="stroke:#000000;stroke-width:0.8;"/>
      </defs>
      <g>
       <use style="stroke:#000000;stroke-width:0.8;" x="47.701101" xlink:href="#mb0cdfcc376" y="107.6"/>
      </g>
     </g>
     <g id="text_1">
      <!-- 10 -->
      <defs>
       <path d="M 12.40625 8.296875 
L 28.515625 8.296875 
L 28.515625 63.921875 
L 10.984375 60.40625 
L 10.984375 69.390625 
L 28.421875 72.90625 
L 38.28125 72.90625 
L 38.28125 8.296875 
L 54.390625 8.296875 
L 54.390625 0 
L 12.40625 0 
z
" id="DejaVuSans-31"/>
       <path d="M 31.78125 66.40625 
Q 24.171875 66.40625 20.328125 58.90625 
Q 16.5 51.421875 16.5 36.375 
Q 16.5 21.390625 20.328125 13.890625 
Q 24.171875 6.390625 31.78125 6.390625 
Q 39.453125 6.390625 43.28125 13.890625 
Q 47.125 21.390625 47.125 36.375 
Q 47.125 51.421875 43.28125 58.90625 
Q 39.453125 66.40625 31.78125 66.40625 
z
M 31.78125 74.21875 
Q 44.046875 74.21875 50.515625 64.515625 
Q 56.984375 54.828125 56.984375 36.375 
Q 56.984375 17.96875 50.515625 8.265625 
Q 44.046875 -1.421875 31.78125 -1.421875 
Q 19.53125 -1.421875 13.0625 8.265625 
Q 6.59375 17.96875 6.59375 36.375 
Q 6.59375 54.828125 13.0625 64.515625 
Q 19.53125 74.21875 31.78125 74.21875 
z
" id="DejaVuSans-30"/>
      </defs>
      <g transform="translate(41.338601 122.198437)scale(0.1 -0.1)">
       <use xlink:href="#DejaVuSans-31"/>
       <use x="63.623047" xlink:href="#DejaVuSans-30"/>
      </g>
     </g>
    </g>
    <g id="xtick_2">
     <g id="line2d_2">
      <g>
       <use style="stroke:#000000;stroke-width:0.8;" x="82.469852" xlink:href="#mb0cdfcc376" y="107.6"/>
      </g>
     </g>
     <g id="text_2">
      <!-- 20 -->
      <defs>
       <path d="M 19.1875 8.296875 
L 53.609375 8.296875 
L 53.609375 0 
L 7.328125 0 
L 7.328125 8.296875 
Q 12.9375 14.109375 22.625 23.890625 
Q 32.328125 33.6875 34.8125 36.53125 
Q 39.546875 41.84375 41.421875 45.53125 
Q 43.3125 49.21875 43.3125 52.78125 
Q 43.3125 58.59375 39.234375 62.25 
Q 35.15625 65.921875 28.609375 65.921875 
Q 23.96875 65.921875 18.8125 64.3125 
Q 13.671875 62.703125 7.8125 59.421875 
L 7.8125 69.390625 
Q 13.765625 71.78125 18.9375 73 
Q 24.125 74.21875 28.421875 74.21875 
Q 39.75 74.21875 46.484375 68.546875 
Q 53.21875 62.890625 53.21875 53.421875 
Q 53.21875 48.921875 51.53125 44.890625 
Q 49.859375 40.875 45.40625 35.40625 
Q 44.1875 33.984375 37.640625 27.21875 
Q 31.109375 20.453125 19.1875 8.296875 
z
" id="DejaVuSans-32"/>
      </defs>
      <g transform="translate(76.107352 122.198437)scale(0.1 -0.1)">
       <use xlink:href="#DejaVuSans-32"/>
       <use x="63.623047" xlink:href="#DejaVuSans-30"/>
      </g>
     </g>
    </g>
    <g id="xtick_3">
     <g id="line2d_3">
      <g>
       <use style="stroke:#000000;stroke-width:0.8;" x="117.238603" xlink:href="#mb0cdfcc376" y="107.6"/>
      </g>
     </g>
     <g id="text_3">
      <!-- 30 -->
      <defs>
       <path d="M 40.578125 39.3125 
Q 47.65625 37.796875 51.625 33 
Q 55.609375 28.21875 55.609375 21.1875 
Q 55.609375 10.40625 48.1875 4.484375 
Q 40.765625 -1.421875 27.09375 -1.421875 
Q 22.515625 -1.421875 17.65625 -0.515625 
Q 12.796875 0.390625 7.625 2.203125 
L 7.625 11.71875 
Q 11.71875 9.328125 16.59375 8.109375 
Q 21.484375 6.890625 26.8125 6.890625 
Q 36.078125 6.890625 40.9375 10.546875 
Q 45.796875 14.203125 45.796875 21.1875 
Q 45.796875 27.640625 41.28125 31.265625 
Q 36.765625 34.90625 28.71875 34.90625 
L 20.21875 34.90625 
L 20.21875 43.015625 
L 29.109375 43.015625 
Q 36.375 43.015625 40.234375 45.921875 
Q 44.09375 48.828125 44.09375 54.296875 
Q 44.09375 59.90625 40.109375 62.90625 
Q 36.140625 65.921875 28.71875 65.921875 
Q 24.65625 65.921875 20.015625 65.03125 
Q 15.375 64.15625 9.8125 62.3125 
L 9.8125 71.09375 
Q 15.4375 72.65625 20.34375 73.4375 
Q 25.25 74.21875 29.59375 74.21875 
Q 40.828125 74.21875 47.359375 69.109375 
Q 53.90625 64.015625 53.90625 55.328125 
Q 53.90625 49.265625 50.4375 45.09375 
Q 46.96875 40.921875 40.578125 39.3125 
z
" id="DejaVuSans-33"/>
      </defs>
      <g transform="translate(110.876103 122.198437)scale(0.1 -0.1)">
       <use xlink:href="#DejaVuSans-33"/>
       <use x="63.623047" xlink:href="#DejaVuSans-30"/>
      </g>
     </g>
    </g>
    <g id="xtick_4">
     <g id="line2d_4">
      <g>
       <use style="stroke:#000000;stroke-width:0.8;" x="152.007355" xlink:href="#mb0cdfcc376" y="107.6"/>
      </g>
     </g>
     <g id="text_4">
      <!-- 40 -->
      <defs>
       <path d="M 37.796875 64.3125 
L 12.890625 25.390625 
L 37.796875 25.390625 
z
M 35.203125 72.90625 
L 47.609375 72.90625 
L 47.609375 25.390625 
L 58.015625 25.390625 
L 58.015625 17.1875 
L 47.609375 17.1875 
L 47.609375 0 
L 37.796875 0 
L 37.796875 17.1875 
L 4.890625 17.1875 
L 4.890625 26.703125 
z
" id="DejaVuSans-34"/>
      </defs>
      <g transform="translate(145.644855 122.198437)scale(0.1 -0.1)">
       <use xlink:href="#DejaVuSans-34"/>
       <use x="63.623047" xlink:href="#DejaVuSans-30"/>
      </g>
     </g>
    </g>
    <g id="xtick_5">
     <g id="line2d_5">
      <g>
       <use style="stroke:#000000;stroke-width:0.8;" x="186.776106" xlink:href="#mb0cdfcc376" y="107.6"/>
      </g>
     </g>
     <g id="text_5">
      <!-- 50 -->
      <defs>
       <path d="M 10.796875 72.90625 
L 49.515625 72.90625 
L 49.515625 64.59375 
L 19.828125 64.59375 
L 19.828125 46.734375 
Q 21.96875 47.46875 24.109375 47.828125 
Q 26.265625 48.1875 28.421875 48.1875 
Q 40.625 48.1875 47.75 41.5 
Q 54.890625 34.8125 54.890625 23.390625 
Q 54.890625 11.625 47.5625 5.09375 
Q 40.234375 -1.421875 26.90625 -1.421875 
Q 22.3125 -1.421875 17.546875 -0.640625 
Q 12.796875 0.140625 7.71875 1.703125 
L 7.71875 11.625 
Q 12.109375 9.234375 16.796875 8.0625 
Q 21.484375 6.890625 26.703125 6.890625 
Q 35.15625 6.890625 40.078125 11.328125 
Q 45.015625 15.765625 45.015625 23.390625 
Q 45.015625 31 40.078125 35.4375 
Q 35.15625 39.890625 26.703125 39.890625 
Q 22.75 39.890625 18.8125 39.015625 
Q 14.890625 38.140625 10.796875 36.28125 
z
" id="DejaVuSans-35"/>
      </defs>
      <g transform="translate(180.413606 122.198437)scale(0.1 -0.1)">
       <use xlink:href="#DejaVuSans-35"/>
       <use x="63.623047" xlink:href="#DejaVuSans-30"/>
      </g>
     </g>
    </g>
    <g id="text_6">
     <!-- Female Employment -->
     <defs>
      <path d="M 9.8125 72.90625 
L 51.703125 72.90625 
L 51.703125 64.59375 
L 19.671875 64.59375 
L 19.671875 43.109375 
L 48.578125 43.109375 
L 48.578125 34.8125 
L 19.671875 34.8125 
L 19.671875 0 
L 9.8125 0 
z
" id="DejaVuSans-46"/>
      <path d="M 56.203125 29.59375 
L 56.203125 25.203125 
L 14.890625 25.203125 
Q 15.484375 15.921875 20.484375 11.0625 
Q 25.484375 6.203125 34.421875 6.203125 
Q 39.59375 6.203125 44.453125 7.46875 
Q 49.3125 8.734375 54.109375 11.28125 
L 54.109375 2.78125 
Q 49.265625 0.734375 44.1875 -0.34375 
Q 39.109375 -1.421875 33.890625 -1.421875 
Q 20.796875 -1.421875 13.15625 6.1875 
Q 5.515625 13.8125 5.515625 26.8125 
Q 5.515625 40.234375 12.765625 48.109375 
Q 20.015625 56 32.328125 56 
Q 43.359375 56 49.78125 48.890625 
Q 56.203125 41.796875 56.203125 29.59375 
z
M 47.21875 32.234375 
Q 47.125 39.59375 43.09375 43.984375 
Q 39.0625 48.390625 32.421875 48.390625 
Q 24.90625 48.390625 20.390625 44.140625 
Q 15.875 39.890625 15.1875 32.171875 
z
" id="DejaVuSans-65"/>
      <path d="M 52 44.1875 
Q 55.375 50.25 60.0625 53.125 
Q 64.75 56 71.09375 56 
Q 79.640625 56 84.28125 50.015625 
Q 88.921875 44.046875 88.921875 33.015625 
L 88.921875 0 
L 79.890625 0 
L 79.890625 32.71875 
Q 79.890625 40.578125 77.09375 44.375 
Q 74.3125 48.1875 68.609375 48.1875 
Q 61.625 48.1875 57.5625 43.546875 
Q 53.515625 38.921875 53.515625 30.90625 
L 53.515625 0 
L 44.484375 0 
L 44.484375 32.71875 
Q 44.484375 40.625 41.703125 44.40625 
Q 38.921875 48.1875 33.109375 48.1875 
Q 26.21875 48.1875 22.15625 43.53125 
Q 18.109375 38.875 18.109375 30.90625 
L 18.109375 0 
L 9.078125 0 
L 9.078125 54.6875 
L 18.109375 54.6875 
L 18.109375 46.1875 
Q 21.1875 51.21875 25.484375 53.609375 
Q 29.78125 56 35.6875 56 
Q 41.65625 56 45.828125 52.96875 
Q 50 49.953125 52 44.1875 
z
" id="DejaVuSans-6d"/>
      <path d="M 34.28125 27.484375 
Q 23.390625 27.484375 19.1875 25 
Q 14.984375 22.515625 14.984375 16.5 
Q 14.984375 11.71875 18.140625 8.90625 
Q 21.296875 6.109375 26.703125 6.109375 
Q 34.1875 6.109375 38.703125 11.40625 
Q 43.21875 16.703125 43.21875 25.484375 
L 43.21875 27.484375 
z
M 52.203125 31.203125 
L 52.203125 0 
L 43.21875 0 
L 43.21875 8.296875 
Q 40.140625 3.328125 35.546875 0.953125 
Q 30.953125 -1.421875 24.3125 -1.421875 
Q 15.921875 -1.421875 10.953125 3.296875 
Q 6 8.015625 6 15.921875 
Q 6 25.140625 12.171875 29.828125 
Q 18.359375 34.515625 30.609375 34.515625 
L 43.21875 34.515625 
L 43.21875 35.40625 
Q 43.21875 41.609375 39.140625 45 
Q 35.0625 48.390625 27.6875 48.390625 
Q 23 48.390625 18.546875 47.265625 
Q 14.109375 46.140625 10.015625 43.890625 
L 10.015625 52.203125 
Q 14.9375 54.109375 19.578125 55.046875 
Q 24.21875 56 28.609375 56 
Q 40.484375 56 46.34375 49.84375 
Q 52.203125 43.703125 52.203125 31.203125 
z
" id="DejaVuSans-61"/>
      <path d="M 9.421875 75.984375 
L 18.40625 75.984375 
L 18.40625 0 
L 9.421875 0 
z
" id="DejaVuSans-6c"/>
      <path id="DejaVuSans-20"/>
      <path d="M 9.8125 72.90625 
L 55.90625 72.90625 
L 55.90625 64.59375 
L 19.671875 64.59375 
L 19.671875 43.015625 
L 54.390625 43.015625 
L 54.390625 34.71875 
L 19.671875 34.71875 
L 19.671875 8.296875 
L 56.78125 8.296875 
L 56.78125 0 
L 9.8125 0 
z
" id="DejaVuSans-45"/>
      <path d="M 18.109375 8.203125 
L 18.109375 -20.796875 
L 9.078125 -20.796875 
L 9.078125 54.6875 
L 18.109375 54.6875 
L 18.109375 46.390625 
Q 20.953125 51.265625 25.265625 53.625 
Q 29.59375 56 35.59375 56 
Q 45.5625 56 51.78125 48.09375 
Q 58.015625 40.1875 58.015625 27.296875 
Q 58.015625 14.40625 51.78125 6.484375 
Q 45.5625 -1.421875 35.59375 -1.421875 
Q 29.59375 -1.421875 25.265625 0.953125 
Q 20.953125 3.328125 18.109375 8.203125 
z
M 48.6875 27.296875 
Q 48.6875 37.203125 44.609375 42.84375 
Q 40.53125 48.484375 33.40625 48.484375 
Q 26.265625 48.484375 22.1875 42.84375 
Q 18.109375 37.203125 18.109375 27.296875 
Q 18.109375 17.390625 22.1875 11.75 
Q 26.265625 6.109375 33.40625 6.109375 
Q 40.53125 6.109375 44.609375 11.75 
Q 48.6875 17.390625 48.6875 27.296875 
z
" id="DejaVuSans-70"/>
      <path d="M 30.609375 48.390625 
Q 23.390625 48.390625 19.1875 42.75 
Q 14.984375 37.109375 14.984375 27.296875 
Q 14.984375 17.484375 19.15625 11.84375 
Q 23.34375 6.203125 30.609375 6.203125 
Q 37.796875 6.203125 41.984375 11.859375 
Q 46.1875 17.53125 46.1875 27.296875 
Q 46.1875 37.015625 41.984375 42.703125 
Q 37.796875 48.390625 30.609375 48.390625 
z
M 30.609375 56 
Q 42.328125 56 49.015625 48.375 
Q 55.71875 40.765625 55.71875 27.296875 
Q 55.71875 13.875 49.015625 6.21875 
Q 42.328125 -1.421875 30.609375 -1.421875 
Q 18.84375 -1.421875 12.171875 6.21875 
Q 5.515625 13.875 5.515625 27.296875 
Q 5.515625 40.765625 12.171875 48.375 
Q 18.84375 56 30.609375 56 
z
" id="DejaVuSans-6f"/>
      <path d="M 32.171875 -5.078125 
Q 28.375 -14.84375 24.75 -17.8125 
Q 21.140625 -20.796875 15.09375 -20.796875 
L 7.90625 -20.796875 
L 7.90625 -13.28125 
L 13.1875 -13.28125 
Q 16.890625 -13.28125 18.9375 -11.515625 
Q 21 -9.765625 23.484375 -3.21875 
L 25.09375 0.875 
L 2.984375 54.6875 
L 12.5 54.6875 
L 29.59375 11.921875 
L 46.6875 54.6875 
L 56.203125 54.6875 
z
" id="DejaVuSans-79"/>
      <path d="M 54.890625 33.015625 
L 54.890625 0 
L 45.90625 0 
L 45.90625 32.71875 
Q 45.90625 40.484375 42.875 44.328125 
Q 39.84375 48.1875 33.796875 48.1875 
Q 26.515625 48.1875 22.3125 43.546875 
Q 18.109375 38.921875 18.109375 30.90625 
L 18.109375 0 
L 9.078125 0 
L 9.078125 54.6875 
L 18.109375 54.6875 
L 18.109375 46.1875 
Q 21.34375 51.125 25.703125 53.5625 
Q 30.078125 56 35.796875 56 
Q 45.21875 56 50.046875 50.171875 
Q 54.890625 44.34375 54.890625 33.015625 
z
" id="DejaVuSans-6e"/>
      <path d="M 18.3125 70.21875 
L 18.3125 54.6875 
L 36.8125 54.6875 
L 36.8125 47.703125 
L 18.3125 47.703125 
L 18.3125 18.015625 
Q 18.3125 11.328125 20.140625 9.421875 
Q 21.96875 7.515625 27.59375 7.515625 
L 36.8125 7.515625 
L 36.8125 0 
L 27.59375 0 
Q 17.1875 0 13.234375 3.875 
Q 9.28125 7.765625 9.28125 18.015625 
L 9.28125 47.703125 
L 2.6875 47.703125 
L 2.6875 54.6875 
L 9.28125 54.6875 
L 9.28125 70.21875 
z
" id="DejaVuSans-74"/>
     </defs>
     <g transform="translate(64.0125 135.876562)scale(0.1 -0.1)">
      <use xlink:href="#DejaVuSans-46"/>
      <use x="57.441406" xlink:href="#DejaVuSans-65"/>
      <use x="118.964844" xlink:href="#DejaVuSans-6d"/>
      <use x="216.376953" xlink:href="#DejaVuSans-61"/>
      <use x="277.65625" xlink:href="#DejaVuSans-6c"/>
      <use x="305.439453" xlink:href="#DejaVuSans-65"/>
      <use x="366.962891" xlink:href="#DejaVuSans-20"/>
      <use x="398.75" xlink:href="#DejaVuSans-45"/>
      <use x="461.933594" xlink:href="#DejaVuSans-6d"/>
      <use x="559.345703" xlink:href="#DejaVuSans-70"/>
      <use x="622.822266" xlink:href="#DejaVuSans-6c"/>
      <use x="650.605469" xlink:href="#DejaVuSans-6f"/>
      <use x="711.787109" xlink:href="#DejaVuSans-79"/>
      <use x="770.966797" xlink:href="#DejaVuSans-6d"/>
      <use x="868.378906" xlink:href="#DejaVuSans-65"/>
      <use x="929.902344" xlink:href="#DejaVuSans-6e"/>
      <use x="993.28125" xlink:href="#DejaVuSans-74"/>
     </g>
    </g>
   </g>
   <g id="matplotlib.axis_2">
    <g id="ytick_1">
     <g id="line2d_6">
      <defs>
       <path d="M 0 0 
L -3.5 0 
" id="m264f81576f" style="stroke:#000000;stroke-width:0.8;"/>
      </defs>
      <g>
       <use style="stroke:#000000;stroke-width:0.8;" x="24.175" xlink:href="#m264f81576f" y="107.6"/>
      </g>
     </g>
     <g id="text_7">
      <!-- 0 -->
      <g transform="translate(10.8125 111.399219)scale(0.1 -0.1)">
       <use xlink:href="#DejaVuSans-30"/>
      </g>
     </g>
    </g>
    <g id="ytick_2">
     <g id="line2d_7">
      <g>
       <use style="stroke:#000000;stroke-width:0.8;" x="24.175" xlink:href="#m264f81576f" y="77.980952"/>
      </g>
     </g>
     <g id="text_8">
      <!-- 2 -->
      <g transform="translate(10.8125 81.780171)scale(0.1 -0.1)">
       <use xlink:href="#DejaVuSans-32"/>
      </g>
     </g>
    </g>
    <g id="ytick_3">
     <g id="line2d_8">
      <g>
       <use style="stroke:#000000;stroke-width:0.8;" x="24.175" xlink:href="#m264f81576f" y="48.361905"/>
      </g>
     </g>
     <g id="text_9">
      <!-- 4 -->
      <g transform="translate(10.8125 52.161124)scale(0.1 -0.1)">
       <use xlink:href="#DejaVuSans-34"/>
      </g>
     </g>
    </g>
    <g id="ytick_4">
     <g id="line2d_9">
      <g>
       <use style="stroke:#000000;stroke-width:0.8;" x="24.175" xlink:href="#m264f81576f" y="18.742857"/>
      </g>
     </g>
     <g id="text_10">
      <!-- 6 -->
      <defs>
       <path d="M 33.015625 40.375 
Q 26.375 40.375 22.484375 35.828125 
Q 18.609375 31.296875 18.609375 23.390625 
Q 18.609375 15.53125 22.484375 10.953125 
Q 26.375 6.390625 33.015625 6.390625 
Q 39.65625 6.390625 43.53125 10.953125 
Q 47.40625 15.53125 47.40625 23.390625 
Q 47.40625 31.296875 43.53125 35.828125 
Q 39.65625 40.375 33.015625 40.375 
z
M 52.59375 71.296875 
L 52.59375 62.3125 
Q 48.875 64.0625 45.09375 64.984375 
Q 41.3125 65.921875 37.59375 65.921875 
Q 27.828125 65.921875 22.671875 59.328125 
Q 17.53125 52.734375 16.796875 39.40625 
Q 19.671875 43.65625 24.015625 45.921875 
Q 28.375 48.1875 33.59375 48.1875 
Q 44.578125 48.1875 50.953125 41.515625 
Q 57.328125 34.859375 57.328125 23.390625 
Q 57.328125 12.15625 50.6875 5.359375 
Q 44.046875 -1.421875 33.015625 -1.421875 
Q 20.359375 -1.421875 13.671875 8.265625 
Q 6.984375 17.96875 6.984375 36.375 
Q 6.984375 53.65625 15.1875 63.9375 
Q 23.390625 74.21875 37.203125 74.21875 
Q 40.921875 74.21875 44.703125 73.484375 
Q 48.484375 72.75 52.59375 71.296875 
z
" id="DejaVuSans-36"/>
      </defs>
      <g transform="translate(10.8125 22.542076)scale(0.1 -0.1)">
       <use xlink:href="#DejaVuSans-36"/>
      </g>
     </g>
    </g>
   </g>
   <g id="line2d_10">
    <path clip-path="url(#p92b5b4a3ca)" d="M 57.113001 107.6 
L 57.113001 102.935 
" style="fill:none;stroke:#b22222;stroke-linecap:square;"/>
   </g>
   <g id="line2d_11">
    <path clip-path="url(#p92b5b4a3ca)" d="M 78.645288 107.6 
L 78.645288 102.935 
" style="fill:none;stroke:#b22222;stroke-linecap:square;"/>
   </g>
   <g id="line2d_12">
    <path clip-path="url(#p92b5b4a3ca)" d="M 32.489773 107.6 
L 32.489773 102.935 
" style="fill:none;stroke:#b22222;stroke-linecap:square;"/>
   </g>
   <g id="line2d_13">
    <path clip-path="url(#p92b5b4a3ca)" d="M 57.363338 107.6 
L 57.363338 102.935 
" style="fill:none;stroke:#b22222;stroke-linecap:square;"/>
   </g>
   <g id="line2d_14">
    <path clip-path="url(#p92b5b4a3ca)" d="M 69.661044 107.6 
L 69.661044 102.935 
" style="fill:none;stroke:#b22222;stroke-linecap:square;"/>
   </g>
   <g id="line2d_15">
    <path clip-path="url(#p92b5b4a3ca)" d="M 81.600634 107.6 
L 81.600634 102.935 
" style="fill:none;stroke:#b22222;stroke-linecap:square;"/>
   </g>
   <g id="line2d_16">
    <path clip-path="url(#p92b5b4a3ca)" d="M 68.617985 107.6 
L 68.617985 102.935 
" style="fill:none;stroke:#b22222;stroke-linecap:square;"/>
   </g>
   <g id="line2d_17">
    <path clip-path="url(#p92b5b4a3ca)" d="M 73.019704 107.6 
L 73.019704 102.935 
" style="fill:none;stroke:#b22222;stroke-linecap:square;"/>
   </g>
   <g id="line2d_18">
    <path clip-path="url(#p92b5b4a3ca)" d="M 99.544784 107.6 
L 99.544784 102.935 
" style="fill:none;stroke:#b22222;stroke-linecap:square;"/>
   </g>
   <g id="line2d_19">
    <path clip-path="url(#p92b5b4a3ca)" d="M 78.989502 107.6 
L 78.989502 102.935 
" style="fill:none;stroke:#b22222;stroke-linecap:square;"/>
   </g>
   <g id="line2d_20">
    <path clip-path="url(#p92b5b4a3ca)" d="M 109.509512 107.6 
L 109.509512 102.935 
" style="fill:none;stroke:#b22222;stroke-linecap:square;"/>
   </g>
   <g id="line2d_21">
    <path clip-path="url(#p92b5b4a3ca)" d="M 198.785227 107.6 
L 198.785227 102.935 
" style="fill:none;stroke:#b22222;stroke-linecap:square;"/>
   </g>
   <g id="line2d_22">
    <path clip-path="url(#p92b5b4a3ca)" d="M 55.287643 107.6 
L 55.287643 102.935 
" style="fill:none;stroke:#b22222;stroke-linecap:square;"/>
   </g>
   <g id="line2d_23">
    <path clip-path="url(#p92b5b4a3ca)" d="M 103.734418 107.6 
L 103.734418 102.935 
" style="fill:none;stroke:#b22222;stroke-linecap:square;"/>
   </g>
   <g id="patch_9">
    <path d="M 24.175 107.6 
L 24.175 14.3 
" style="fill:none;stroke:#000000;stroke-linecap:square;stroke-linejoin:miter;stroke-width:0.8;"/>
   </g>
   <g id="patch_10">
    <path d="M 207.1 107.6 
L 207.1 14.3 
" style="fill:none;stroke:#000000;stroke-linecap:square;stroke-linejoin:miter;stroke-width:0.8;"/>
   </g>
   <g id="patch_11">
    <path d="M 24.175 107.6 
L 207.1 107.6 
" style="fill:none;stroke:#000000;stroke-linecap:square;stroke-linejoin:miter;stroke-width:0.8;"/>
   </g>
   <g id="patch_12">
    <path d="M 24.175 14.3 
L 207.1 14.3 
" style="fill:none;stroke:#000000;stroke-linecap:square;stroke-linejoin:miter;stroke-width:0.8;"/>
   </g>
  </g>
  <g id="axes_2">
   <g id="patch_13">
    <path d="M 234.775 107.6 
L 417.7 107.6 
L 417.7 14.3 
L 234.775 14.3 
z
" style="fill:#ffffff;"/>
   </g>
   <g id="patch_14">
    <path clip-path="url(#p1757fcdbb6)" d="M 243.089773 107.6 
L 270.805682 107.6 
L 270.805682 18.742857 
L 243.089773 18.742857 
z
" style="fill:#228b22;opacity:0.4;"/>
   </g>
   <g id="patch_15">
    <path clip-path="url(#p1757fcdbb6)" d="M 270.805682 107.6 
L 298.521591 107.6 
L 298.521591 33.552381 
L 270.805682 33.552381 
z
" style="fill:#228b22;opacity:0.4;"/>
   </g>
   <g id="patch_16">
    <path clip-path="url(#p1757fcdbb6)" d="M 298.521591 107.6 
L 326.2375 107.6 
L 326.2375 92.790476 
L 298.521591 92.790476 
z
" style="fill:#228b22;opacity:0.4;"/>
   </g>
   <g id="patch_17">
    <path clip-path="url(#p1757fcdbb6)" d="M 326.2375 107.6 
L 353.953409 107.6 
L 353.953409 92.790476 
L 326.2375 92.790476 
z
" style="fill:#228b22;opacity:0.4;"/>
   </g>
   <g id="patch_18">
    <path clip-path="url(#p1757fcdbb6)" d="M 353.953409 107.6 
L 381.669318 107.6 
L 381.669318 107.6 
L 353.953409 107.6 
z
" style="fill:#228b22;opacity:0.4;"/>
   </g>
   <g id="patch_19">
    <path clip-path="url(#p1757fcdbb6)" d="M 381.669318 107.6 
L 409.385227 107.6 
L 409.385227 92.790476 
L 381.669318 92.790476 
z
" style="fill:#228b22;opacity:0.4;"/>
   </g>
   <g id="matplotlib.axis_3">
    <g id="xtick_6">
     <g id="line2d_24">
      <g>
       <use style="stroke:#000000;stroke-width:0.8;" x="252.591087" xlink:href="#mb0cdfcc376" y="107.6"/>
      </g>
     </g>
     <g id="text_11">
      <!-- 5 -->
      <g transform="translate(249.409837 122.198437)scale(0.1 -0.1)">
       <use xlink:href="#DejaVuSans-35"/>
      </g>
     </g>
    </g>
    <g id="xtick_7">
     <g id="line2d_25">
      <g>
       <use style="stroke:#000000;stroke-width:0.8;" x="289.997839" xlink:href="#mb0cdfcc376" y="107.6"/>
      </g>
     </g>
     <g id="text_12">
      <!-- 10 -->
      <g transform="translate(283.635339 122.198437)scale(0.1 -0.1)">
       <use xlink:href="#DejaVuSans-31"/>
       <use x="63.623047" xlink:href="#DejaVuSans-30"/>
      </g>
     </g>
    </g>
    <g id="xtick_8">
     <g id="line2d_26">
      <g>
       <use style="stroke:#000000;stroke-width:0.8;" x="327.40459" xlink:href="#mb0cdfcc376" y="107.6"/>
      </g>
     </g>
     <g id="text_13">
      <!-- 15 -->
      <g transform="translate(321.04209 122.198437)scale(0.1 -0.1)">
       <use xlink:href="#DejaVuSans-31"/>
       <use x="63.623047" xlink:href="#DejaVuSans-35"/>
      </g>
     </g>
    </g>
    <g id="xtick_9">
     <g id="line2d_27">
      <g>
       <use style="stroke:#000000;stroke-width:0.8;" x="364.811341" xlink:href="#mb0cdfcc376" y="107.6"/>
      </g>
     </g>
     <g id="text_14">
      <!-- 20 -->
      <g transform="translate(358.448841 122.198437)scale(0.1 -0.1)">
       <use xlink:href="#DejaVuSans-32"/>
       <use x="63.623047" xlink:href="#DejaVuSans-30"/>
      </g>
     </g>
    </g>
    <g id="xtick_10">
     <g id="line2d_28">
      <g>
       <use style="stroke:#000000;stroke-width:0.8;" x="402.218092" xlink:href="#mb0cdfcc376" y="107.6"/>
      </g>
     </g>
     <g id="text_15">
      <!-- 25 -->
      <g transform="translate(395.855592 122.198437)scale(0.1 -0.1)">
       <use xlink:href="#DejaVuSans-32"/>
       <use x="63.623047" xlink:href="#DejaVuSans-35"/>
      </g>
     </g>
    </g>
    <g id="text_16">
     <!-- Male Employment -->
     <defs>
      <path d="M 9.8125 72.90625 
L 24.515625 72.90625 
L 43.109375 23.296875 
L 61.8125 72.90625 
L 76.515625 72.90625 
L 76.515625 0 
L 66.890625 0 
L 66.890625 64.015625 
L 48.09375 14.015625 
L 38.1875 14.015625 
L 19.390625 64.015625 
L 19.390625 0 
L 9.8125 0 
z
" id="DejaVuSans-4d"/>
     </defs>
     <g transform="translate(281.117187 135.876562)scale(0.1 -0.1)">
      <use xlink:href="#DejaVuSans-4d"/>
      <use x="86.279297" xlink:href="#DejaVuSans-61"/>
      <use x="147.558594" xlink:href="#DejaVuSans-6c"/>
      <use x="175.341797" xlink:href="#DejaVuSans-65"/>
      <use x="236.865234" xlink:href="#DejaVuSans-20"/>
      <use x="268.652344" xlink:href="#DejaVuSans-45"/>
      <use x="331.835938" xlink:href="#DejaVuSans-6d"/>
      <use x="429.248047" xlink:href="#DejaVuSans-70"/>
      <use x="492.724609" xlink:href="#DejaVuSans-6c"/>
      <use x="520.507812" xlink:href="#DejaVuSans-6f"/>
      <use x="581.689453" xlink:href="#DejaVuSans-79"/>
      <use x="640.869141" xlink:href="#DejaVuSans-6d"/>
      <use x="738.28125" xlink:href="#DejaVuSans-65"/>
      <use x="799.804688" xlink:href="#DejaVuSans-6e"/>
      <use x="863.183594" xlink:href="#DejaVuSans-74"/>
     </g>
    </g>
   </g>
   <g id="matplotlib.axis_4">
    <g id="ytick_5">
     <g id="line2d_29">
      <g>
       <use style="stroke:#000000;stroke-width:0.8;" x="234.775" xlink:href="#m264f81576f" y="107.6"/>
      </g>
     </g>
     <g id="text_17">
      <!-- 0 -->
      <g transform="translate(221.4125 111.399219)scale(0.1 -0.1)">
       <use xlink:href="#DejaVuSans-30"/>
      </g>
     </g>
    </g>
    <g id="ytick_6">
     <g id="line2d_30">
      <g>
       <use style="stroke:#000000;stroke-width:0.8;" x="234.775" xlink:href="#m264f81576f" y="77.980952"/>
      </g>
     </g>
     <g id="text_18">
      <!-- 2 -->
      <g transform="translate(221.4125 81.780171)scale(0.1 -0.1)">
       <use xlink:href="#DejaVuSans-32"/>
      </g>
     </g>
    </g>
    <g id="ytick_7">
     <g id="line2d_31">
      <g>
       <use style="stroke:#000000;stroke-width:0.8;" x="234.775" xlink:href="#m264f81576f" y="48.361905"/>
      </g>
     </g>
     <g id="text_19">
      <!-- 4 -->
      <g transform="translate(221.4125 52.161124)scale(0.1 -0.1)">
       <use xlink:href="#DejaVuSans-34"/>
      </g>
     </g>
    </g>
    <g id="ytick_8">
     <g id="line2d_32">
      <g>
       <use style="stroke:#000000;stroke-width:0.8;" x="234.775" xlink:href="#m264f81576f" y="18.742857"/>
      </g>
     </g>
     <g id="text_20">
      <!-- 6 -->
      <g transform="translate(221.4125 22.542076)scale(0.1 -0.1)">
       <use xlink:href="#DejaVuSans-36"/>
      </g>
     </g>
    </g>
   </g>
   <g id="line2d_33">
    <path clip-path="url(#p1757fcdbb6)" d="M 243.089773 107.6 
L 243.089773 102.935 
" style="fill:none;stroke:#228b22;stroke-linecap:square;"/>
   </g>
   <g id="line2d_34">
    <path clip-path="url(#p1757fcdbb6)" d="M 287.46914 107.6 
L 287.46914 102.935 
" style="fill:none;stroke:#228b22;stroke-linecap:square;"/>
   </g>
   <g id="line2d_35">
    <path clip-path="url(#p1757fcdbb6)" d="M 254.970156 107.6 
L 254.970156 102.935 
" style="fill:none;stroke:#228b22;stroke-linecap:square;"/>
   </g>
   <g id="line2d_36">
    <path clip-path="url(#p1757fcdbb6)" d="M 260.364211 107.6 
L 260.364211 102.935 
" style="fill:none;stroke:#228b22;stroke-linecap:square;"/>
   </g>
   <g id="line2d_37">
    <path clip-path="url(#p1757fcdbb6)" d="M 256.10732 107.6 
L 256.10732 102.935 
" style="fill:none;stroke:#228b22;stroke-linecap:square;"/>
   </g>
   <g id="line2d_38">
    <path clip-path="url(#p1757fcdbb6)" d="M 311.895751 107.6 
L 311.895751 102.935 
" style="fill:none;stroke:#228b22;stroke-linecap:square;"/>
   </g>
   <g id="line2d_39">
    <path clip-path="url(#p1757fcdbb6)" d="M 259.922811 107.6 
L 259.922811 102.935 
" style="fill:none;stroke:#228b22;stroke-linecap:square;"/>
   </g>
   <g id="line2d_40">
    <path clip-path="url(#p1757fcdbb6)" d="M 251.064892 107.6 
L 251.064892 102.935 
" style="fill:none;stroke:#228b22;stroke-linecap:square;"/>
   </g>
   <g id="line2d_41">
    <path clip-path="url(#p1757fcdbb6)" d="M 292.204838 107.6 
L 292.204838 102.935 
" style="fill:none;stroke:#228b22;stroke-linecap:square;"/>
   </g>
   <g id="line2d_42">
    <path clip-path="url(#p1757fcdbb6)" d="M 276.613706 107.6 
L 276.613706 102.935 
" style="fill:none;stroke:#228b22;stroke-linecap:square;"/>
   </g>
   <g id="line2d_43">
    <path clip-path="url(#p1757fcdbb6)" d="M 333.37471 107.6 
L 333.37471 102.935 
" style="fill:none;stroke:#228b22;stroke-linecap:square;"/>
   </g>
   <g id="line2d_44">
    <path clip-path="url(#p1757fcdbb6)" d="M 409.385227 107.6 
L 409.385227 102.935 
" style="fill:none;stroke:#228b22;stroke-linecap:square;"/>
   </g>
   <g id="line2d_45">
    <path clip-path="url(#p1757fcdbb6)" d="M 286.085094 107.6 
L 286.085094 102.935 
" style="fill:none;stroke:#228b22;stroke-linecap:square;"/>
   </g>
   <g id="line2d_46">
    <path clip-path="url(#p1757fcdbb6)" d="M 283.526472 107.6 
L 283.526472 102.935 
" style="fill:none;stroke:#228b22;stroke-linecap:square;"/>
   </g>
   <g id="patch_20">
    <path d="M 234.775 107.6 
L 234.775 14.3 
" style="fill:none;stroke:#000000;stroke-linecap:square;stroke-linejoin:miter;stroke-width:0.8;"/>
   </g>
   <g id="patch_21">
    <path d="M 417.7 107.6 
L 417.7 14.3 
" style="fill:none;stroke:#000000;stroke-linecap:square;stroke-linejoin:miter;stroke-width:0.8;"/>
   </g>
   <g id="patch_22">
    <path d="M 234.775 107.6 
L 417.7 107.6 
" style="fill:none;stroke:#000000;stroke-linecap:square;stroke-linejoin:miter;stroke-width:0.8;"/>
   </g>
   <g id="patch_23">
    <path d="M 234.775 14.3 
L 417.7 14.3 
" style="fill:none;stroke:#000000;stroke-linecap:square;stroke-linejoin:miter;stroke-width:0.8;"/>
   </g>
  </g>
  <g id="axes_3">
   <g id="patch_24">
    <path d="M 24.175 246.2 
L 207.1 246.2 
L 207.1 152.9 
L 24.175 152.9 
z
" style="fill:#ffffff;"/>
   </g>
   <g id="patch_25">
    <path clip-path="url(#p5aba1157a2)" d="M 32.489773 246.2 
L 74.063636 246.2 
L 74.063636 210.657143 
L 32.489773 210.657143 
z
" style="fill:#6495ed;opacity:0.4;"/>
   </g>
   <g id="patch_26">
    <path clip-path="url(#p5aba1157a2)" d="M 74.063636 246.2 
L 115.6375 246.2 
L 115.6375 157.342857 
L 74.063636 157.342857 
z
" style="fill:#6495ed;opacity:0.4;"/>
   </g>
   <g id="patch_27">
    <path clip-path="url(#p5aba1157a2)" d="M 115.6375 246.2 
L 157.211364 246.2 
L 157.211364 192.885714 
L 115.6375 192.885714 
z
" style="fill:#6495ed;opacity:0.4;"/>
   </g>
   <g id="patch_28">
    <path clip-path="url(#p5aba1157a2)" d="M 157.211364 246.2 
L 198.785227 246.2 
L 198.785227 175.114286 
L 157.211364 175.114286 
z
" style="fill:#6495ed;opacity:0.4;"/>
   </g>
   <g id="matplotlib.axis_5">
    <g id="xtick_11">
     <g id="line2d_47">
      <g>
       <use style="stroke:#000000;stroke-width:0.8;" x="46.042494" xlink:href="#mb0cdfcc376" y="246.2"/>
      </g>
     </g>
     <g id="text_21">
      <!-- 10 -->
      <g transform="translate(39.679994 260.798438)scale(0.1 -0.1)">
       <use xlink:href="#DejaVuSans-31"/>
       <use x="63.623047" xlink:href="#DejaVuSans-30"/>
      </g>
     </g>
    </g>
    <g id="xtick_12">
     <g id="line2d_48">
      <g>
       <use style="stroke:#000000;stroke-width:0.8;" x="83.152903" xlink:href="#mb0cdfcc376" y="246.2"/>
      </g>
     </g>
     <g id="text_22">
      <!-- 20 -->
      <g transform="translate(76.790403 260.798438)scale(0.1 -0.1)">
       <use xlink:href="#DejaVuSans-32"/>
       <use x="63.623047" xlink:href="#DejaVuSans-30"/>
      </g>
     </g>
    </g>
    <g id="xtick_13">
     <g id="line2d_49">
      <g>
       <use style="stroke:#000000;stroke-width:0.8;" x="120.263312" xlink:href="#mb0cdfcc376" y="246.2"/>
      </g>
     </g>
     <g id="text_23">
      <!-- 30 -->
      <g transform="translate(113.900812 260.798438)scale(0.1 -0.1)">
       <use xlink:href="#DejaVuSans-33"/>
       <use x="63.623047" xlink:href="#DejaVuSans-30"/>
      </g>
     </g>
    </g>
    <g id="xtick_14">
     <g id="line2d_50">
      <g>
       <use style="stroke:#000000;stroke-width:0.8;" x="157.373721" xlink:href="#mb0cdfcc376" y="246.2"/>
      </g>
     </g>
     <g id="text_24">
      <!-- 40 -->
      <g transform="translate(151.011221 260.798438)scale(0.1 -0.1)">
       <use xlink:href="#DejaVuSans-34"/>
       <use x="63.623047" xlink:href="#DejaVuSans-30"/>
      </g>
     </g>
    </g>
    <g id="xtick_15">
     <g id="line2d_51">
      <g>
       <use style="stroke:#000000;stroke-width:0.8;" x="194.484129" xlink:href="#mb0cdfcc376" y="246.2"/>
      </g>
     </g>
     <g id="text_25">
      <!-- 50 -->
      <g transform="translate(188.121629 260.798438)scale(0.1 -0.1)">
       <use xlink:href="#DejaVuSans-35"/>
       <use x="63.623047" xlink:href="#DejaVuSans-30"/>
      </g>
     </g>
    </g>
    <g id="text_26">
     <!-- Services Employment -->
     <defs>
      <path d="M 53.515625 70.515625 
L 53.515625 60.890625 
Q 47.90625 63.578125 42.921875 64.890625 
Q 37.9375 66.21875 33.296875 66.21875 
Q 25.25 66.21875 20.875 63.09375 
Q 16.5 59.96875 16.5 54.203125 
Q 16.5 49.359375 19.40625 46.890625 
Q 22.3125 44.4375 30.421875 42.921875 
L 36.375 41.703125 
Q 47.40625 39.59375 52.65625 34.296875 
Q 57.90625 29 57.90625 20.125 
Q 57.90625 9.515625 50.796875 4.046875 
Q 43.703125 -1.421875 29.984375 -1.421875 
Q 24.8125 -1.421875 18.96875 -0.25 
Q 13.140625 0.921875 6.890625 3.21875 
L 6.890625 13.375 
Q 12.890625 10.015625 18.65625 8.296875 
Q 24.421875 6.59375 29.984375 6.59375 
Q 38.421875 6.59375 43.015625 9.90625 
Q 47.609375 13.234375 47.609375 19.390625 
Q 47.609375 24.75 44.3125 27.78125 
Q 41.015625 30.8125 33.5 32.328125 
L 27.484375 33.5 
Q 16.453125 35.6875 11.515625 40.375 
Q 6.59375 45.0625 6.59375 53.421875 
Q 6.59375 63.09375 13.40625 68.65625 
Q 20.21875 74.21875 32.171875 74.21875 
Q 37.3125 74.21875 42.625 73.28125 
Q 47.953125 72.359375 53.515625 70.515625 
z
" id="DejaVuSans-53"/>
      <path d="M 41.109375 46.296875 
Q 39.59375 47.171875 37.8125 47.578125 
Q 36.03125 48 33.890625 48 
Q 26.265625 48 22.1875 43.046875 
Q 18.109375 38.09375 18.109375 28.8125 
L 18.109375 0 
L 9.078125 0 
L 9.078125 54.6875 
L 18.109375 54.6875 
L 18.109375 46.1875 
Q 20.953125 51.171875 25.484375 53.578125 
Q 30.03125 56 36.53125 56 
Q 37.453125 56 38.578125 55.875 
Q 39.703125 55.765625 41.0625 55.515625 
z
" id="DejaVuSans-72"/>
      <path d="M 2.984375 54.6875 
L 12.5 54.6875 
L 29.59375 8.796875 
L 46.6875 54.6875 
L 56.203125 54.6875 
L 35.6875 0 
L 23.484375 0 
z
" id="DejaVuSans-76"/>
      <path d="M 9.421875 54.6875 
L 18.40625 54.6875 
L 18.40625 0 
L 9.421875 0 
z
M 9.421875 75.984375 
L 18.40625 75.984375 
L 18.40625 64.59375 
L 9.421875 64.59375 
z
" id="DejaVuSans-69"/>
      <path d="M 48.78125 52.59375 
L 48.78125 44.1875 
Q 44.96875 46.296875 41.140625 47.34375 
Q 37.3125 48.390625 33.40625 48.390625 
Q 24.65625 48.390625 19.8125 42.84375 
Q 14.984375 37.3125 14.984375 27.296875 
Q 14.984375 17.28125 19.8125 11.734375 
Q 24.65625 6.203125 33.40625 6.203125 
Q 37.3125 6.203125 41.140625 7.25 
Q 44.96875 8.296875 48.78125 10.40625 
L 48.78125 2.09375 
Q 45.015625 0.34375 40.984375 -0.53125 
Q 36.96875 -1.421875 32.421875 -1.421875 
Q 20.0625 -1.421875 12.78125 6.34375 
Q 5.515625 14.109375 5.515625 27.296875 
Q 5.515625 40.671875 12.859375 48.328125 
Q 20.21875 56 33.015625 56 
Q 37.15625 56 41.109375 55.140625 
Q 45.0625 54.296875 48.78125 52.59375 
z
" id="DejaVuSans-63"/>
      <path d="M 44.28125 53.078125 
L 44.28125 44.578125 
Q 40.484375 46.53125 36.375 47.5 
Q 32.28125 48.484375 27.875 48.484375 
Q 21.1875 48.484375 17.84375 46.4375 
Q 14.5 44.390625 14.5 40.28125 
Q 14.5 37.15625 16.890625 35.375 
Q 19.28125 33.59375 26.515625 31.984375 
L 29.59375 31.296875 
Q 39.15625 29.25 43.1875 25.515625 
Q 47.21875 21.78125 47.21875 15.09375 
Q 47.21875 7.46875 41.1875 3.015625 
Q 35.15625 -1.421875 24.609375 -1.421875 
Q 20.21875 -1.421875 15.453125 -0.5625 
Q 10.6875 0.296875 5.421875 2 
L 5.421875 11.28125 
Q 10.40625 8.6875 15.234375 7.390625 
Q 20.0625 6.109375 24.8125 6.109375 
Q 31.15625 6.109375 34.5625 8.28125 
Q 37.984375 10.453125 37.984375 14.40625 
Q 37.984375 18.0625 35.515625 20.015625 
Q 33.0625 21.96875 24.703125 23.78125 
L 21.578125 24.515625 
Q 13.234375 26.265625 9.515625 29.90625 
Q 5.8125 33.546875 5.8125 39.890625 
Q 5.8125 47.609375 11.28125 51.796875 
Q 16.75 56 26.8125 56 
Q 31.78125 56 36.171875 55.265625 
Q 40.578125 54.546875 44.28125 53.078125 
z
" id="DejaVuSans-73"/>
     </defs>
     <g transform="translate(61.275781 274.476562)scale(0.1 -0.1)">
      <use xlink:href="#DejaVuSans-53"/>
      <use x="63.476562" xlink:href="#DejaVuSans-65"/>
      <use x="125" xlink:href="#DejaVuSans-72"/>
      <use x="166.113281" xlink:href="#DejaVuSans-76"/>
      <use x="225.292969" xlink:href="#DejaVuSans-69"/>
      <use x="253.076172" xlink:href="#DejaVuSans-63"/>
      <use x="308.056641" xlink:href="#DejaVuSans-65"/>
      <use x="369.580078" xlink:href="#DejaVuSans-73"/>
      <use x="421.679688" xlink:href="#DejaVuSans-20"/>
      <use x="453.466797" xlink:href="#DejaVuSans-45"/>
      <use x="516.650391" xlink:href="#DejaVuSans-6d"/>
      <use x="614.0625" xlink:href="#DejaVuSans-70"/>
      <use x="677.539062" xlink:href="#DejaVuSans-6c"/>
      <use x="705.322266" xlink:href="#DejaVuSans-6f"/>
      <use x="766.503906" xlink:href="#DejaVuSans-79"/>
      <use x="825.683594" xlink:href="#DejaVuSans-6d"/>
      <use x="923.095703" xlink:href="#DejaVuSans-65"/>
      <use x="984.619141" xlink:href="#DejaVuSans-6e"/>
      <use x="1047.998047" xlink:href="#DejaVuSans-74"/>
     </g>
    </g>
   </g>
   <g id="matplotlib.axis_6">
    <g id="ytick_9">
     <g id="line2d_52">
      <g>
       <use style="stroke:#000000;stroke-width:0.8;" x="24.175" xlink:href="#m264f81576f" y="246.2"/>
      </g>
     </g>
     <g id="text_27">
      <!-- 0 -->
      <g transform="translate(10.8125 249.999219)scale(0.1 -0.1)">
       <use xlink:href="#DejaVuSans-30"/>
      </g>
     </g>
    </g>
    <g id="ytick_10">
     <g id="line2d_53">
      <g>
       <use style="stroke:#000000;stroke-width:0.8;" x="24.175" xlink:href="#m264f81576f" y="210.657143"/>
      </g>
     </g>
     <g id="text_28">
      <!-- 2 -->
      <g transform="translate(10.8125 214.456362)scale(0.1 -0.1)">
       <use xlink:href="#DejaVuSans-32"/>
      </g>
     </g>
    </g>
    <g id="ytick_11">
     <g id="line2d_54">
      <g>
       <use style="stroke:#000000;stroke-width:0.8;" x="24.175" xlink:href="#m264f81576f" y="175.114286"/>
      </g>
     </g>
     <g id="text_29">
      <!-- 4 -->
      <g transform="translate(10.8125 178.913504)scale(0.1 -0.1)">
       <use xlink:href="#DejaVuSans-34"/>
      </g>
     </g>
    </g>
   </g>
   <g id="line2d_55">
    <path clip-path="url(#p5aba1157a2)" d="M 32.489773 246.2 
L 32.489773 241.535 
" style="fill:none;stroke:#6495ed;stroke-linecap:square;"/>
   </g>
   <g id="line2d_56">
    <path clip-path="url(#p5aba1157a2)" d="M 118.18884 246.2 
L 118.18884 241.535 
" style="fill:none;stroke:#6495ed;stroke-linecap:square;"/>
   </g>
   <g id="line2d_57">
    <path clip-path="url(#p5aba1157a2)" d="M 145.390769 246.2 
L 145.390769 241.535 
" style="fill:none;stroke:#6495ed;stroke-linecap:square;"/>
   </g>
   <g id="line2d_58">
    <path clip-path="url(#p5aba1157a2)" d="M 96.638828 246.2 
L 96.638828 241.535 
" style="fill:none;stroke:#6495ed;stroke-linecap:square;"/>
   </g>
   <g id="line2d_59">
    <path clip-path="url(#p5aba1157a2)" d="M 105.868185 246.2 
L 105.868185 241.535 
" style="fill:none;stroke:#6495ed;stroke-linecap:square;"/>
   </g>
   <g id="line2d_60">
    <path clip-path="url(#p5aba1157a2)" d="M 88.960684 246.2 
L 88.960684 241.535 
" style="fill:none;stroke:#6495ed;stroke-linecap:square;"/>
   </g>
   <g id="line2d_61">
    <path clip-path="url(#p5aba1157a2)" d="M 145.498387 246.2 
L 145.498387 241.535 
" style="fill:none;stroke:#6495ed;stroke-linecap:square;"/>
   </g>
   <g id="line2d_62">
    <path clip-path="url(#p5aba1157a2)" d="M 99.563129 246.2 
L 99.563129 241.535 
" style="fill:none;stroke:#6495ed;stroke-linecap:square;"/>
   </g>
   <g id="line2d_63">
    <path clip-path="url(#p5aba1157a2)" d="M 32.857166 246.2 
L 32.857166 241.535 
" style="fill:none;stroke:#6495ed;stroke-linecap:square;"/>
   </g>
   <g id="line2d_64">
    <path clip-path="url(#p5aba1157a2)" d="M 170.881907 246.2 
L 170.881907 241.535 
" style="fill:none;stroke:#6495ed;stroke-linecap:square;"/>
   </g>
   <g id="line2d_65">
    <path clip-path="url(#p5aba1157a2)" d="M 161.726773 246.2 
L 161.726773 241.535 
" style="fill:none;stroke:#6495ed;stroke-linecap:square;"/>
   </g>
   <g id="line2d_66">
    <path clip-path="url(#p5aba1157a2)" d="M 185.054373 246.2 
L 185.054373 241.535 
" style="fill:none;stroke:#6495ed;stroke-linecap:square;"/>
   </g>
   <g id="line2d_67">
    <path clip-path="url(#p5aba1157a2)" d="M 198.785227 246.2 
L 198.785227 241.535 
" style="fill:none;stroke:#6495ed;stroke-linecap:square;"/>
   </g>
   <g id="line2d_68">
    <path clip-path="url(#p5aba1157a2)" d="M 112.13613 246.2 
L 112.13613 241.535 
" style="fill:none;stroke:#6495ed;stroke-linecap:square;"/>
   </g>
   <g id="patch_29">
    <path d="M 24.175 246.2 
L 24.175 152.9 
" style="fill:none;stroke:#000000;stroke-linecap:square;stroke-linejoin:miter;stroke-width:0.8;"/>
   </g>
   <g id="patch_30">
    <path d="M 207.1 246.2 
L 207.1 152.9 
" style="fill:none;stroke:#000000;stroke-linecap:square;stroke-linejoin:miter;stroke-width:0.8;"/>
   </g>
   <g id="patch_31">
    <path d="M 24.175 246.2 
L 207.1 246.2 
" style="fill:none;stroke:#000000;stroke-linecap:square;stroke-linejoin:miter;stroke-width:0.8;"/>
   </g>
   <g id="patch_32">
    <path d="M 24.175 152.9 
L 207.1 152.9 
" style="fill:none;stroke:#000000;stroke-linecap:square;stroke-linejoin:miter;stroke-width:0.8;"/>
   </g>
  </g>
 </g>
 <defs>
  <clipPath id="p92b5b4a3ca">
   <rect height="93.3" width="182.925" x="24.175" y="14.3"/>
  </clipPath>
  <clipPath id="p1757fcdbb6">
   <rect height="93.3" width="182.925" x="234.775" y="14.3"/>
  </clipPath>
  <clipPath id="p5aba1157a2">
   <rect height="93.3" width="182.925" x="24.175" y="152.9"/>
  </clipPath>
 </defs>
</svg>
