<?xml version="1.0" encoding="utf-8" standalone="no"?>
<!DOCTYPE svg PUBLIC "-//W3C//DTD SVG 1.1//EN"
  "http://www.w3.org/Graphics/SVG/1.1/DTD/svg11.dtd">
<!-- Created with matplotlib (http://matplotlib.org/) -->
<svg height="288pt" version="1.1" viewBox="0 0 432 288" width="432pt" xmlns="http://www.w3.org/2000/svg" xmlns:xlink="http://www.w3.org/1999/xlink">
 <defs>
  <style type="text/css">
*{stroke-linecap:butt;stroke-linejoin:round;}
  </style>
 </defs>
 <g id="figure_1">
  <g id="patch_1">
   <path d="M 0 288 
L 432 288 
L 432 0 
L 0 0 
z
" style="fill:#ffffff;"/>
  </g>
  <g id="axes_1">
   <g id="patch_2">
    <path d="M 33.8 107.6 
L 205.770455 107.6 
L 205.770455 14.3 
L 33.8 14.3 
z
" style="fill:#ffffff;"/>
   </g>
   <g id="patch_3">
    <path clip-path="url(#p802b68da7e)" d="M 41.616839 107.6 
L 57.250517 107.6 
L 57.250517 18.742857 
L 41.616839 18.742857 
z
" style="fill:#5f9ea0;opacity:0.4;"/>
   </g>
   <g id="patch_4">
    <path clip-path="url(#p802b68da7e)" d="M 57.250517 107.6 
L 72.884194 107.6 
L 72.884194 74.278571 
L 57.250517 74.278571 
z
" style="fill:#5f9ea0;opacity:0.4;"/>
   </g>
   <g id="patch_5">
    <path clip-path="url(#p802b68da7e)" d="M 72.884194 107.6 
L 88.517872 107.6 
L 88.517872 85.385714 
L 72.884194 85.385714 
z
" style="fill:#5f9ea0;opacity:0.4;"/>
   </g>
   <g id="patch_6">
    <path clip-path="url(#p802b68da7e)" d="M 88.517872 107.6 
L 104.15155 107.6 
L 104.15155 107.6 
L 88.517872 107.6 
z
" style="fill:#5f9ea0;opacity:0.4;"/>
   </g>
   <g id="patch_7">
    <path clip-path="url(#p802b68da7e)" d="M 104.15155 107.6 
L 119.785227 107.6 
L 119.785227 107.6 
L 104.15155 107.6 
z
" style="fill:#5f9ea0;opacity:0.4;"/>
   </g>
   <g id="patch_8">
    <path clip-path="url(#p802b68da7e)" d="M 119.785227 107.6 
L 135.418905 107.6 
L 135.418905 107.6 
L 119.785227 107.6 
z
" style="fill:#5f9ea0;opacity:0.4;"/>
   </g>
   <g id="patch_9">
    <path clip-path="url(#p802b68da7e)" d="M 135.418905 107.6 
L 151.052583 107.6 
L 151.052583 107.6 
L 135.418905 107.6 
z
" style="fill:#5f9ea0;opacity:0.4;"/>
   </g>
   <g id="patch_10">
    <path clip-path="url(#p802b68da7e)" d="M 151.052583 107.6 
L 166.68626 107.6 
L 166.68626 107.6 
L 151.052583 107.6 
z
" style="fill:#5f9ea0;opacity:0.4;"/>
   </g>
   <g id="patch_11">
    <path clip-path="url(#p802b68da7e)" d="M 166.68626 107.6 
L 182.319938 107.6 
L 182.319938 107.6 
L 166.68626 107.6 
z
" style="fill:#5f9ea0;opacity:0.4;"/>
   </g>
   <g id="patch_12">
    <path clip-path="url(#p802b68da7e)" d="M 182.319938 107.6 
L 197.953616 107.6 
L 197.953616 96.492857 
L 182.319938 96.492857 
z
" style="fill:#5f9ea0;opacity:0.4;"/>
   </g>
   <g id="matplotlib.axis_1">
    <g id="xtick_1">
     <g id="line2d_1">
      <defs>
       <path d="M 0 0 
L 0 3.5 
" id="m82e7d4978d" style="stroke:#000000;stroke-width:0.8;"/>
      </defs>
      <g>
       <use style="stroke:#000000;stroke-width:0.8;" x="38.088616" xlink:href="#m82e7d4978d" y="107.6"/>
      </g>
     </g>
     <g id="text_1">
      <!-- 0 -->
      <defs>
       <path d="M 31.78125 66.40625 
Q 24.171875 66.40625 20.328125 58.90625 
Q 16.5 51.421875 16.5 36.375 
Q 16.5 21.390625 20.328125 13.890625 
Q 24.171875 6.390625 31.78125 6.390625 
Q 39.453125 6.390625 43.28125 13.890625 
Q 47.125 21.390625 47.125 36.375 
Q 47.125 51.421875 43.28125 58.90625 
Q 39.453125 66.40625 31.78125 66.40625 
z
M 31.78125 74.21875 
Q 44.046875 74.21875 50.515625 64.515625 
Q 56.984375 54.828125 56.984375 36.375 
Q 56.984375 17.96875 50.515625 8.265625 
Q 44.046875 -1.421875 31.78125 -1.421875 
Q 19.53125 -1.421875 13.0625 8.265625 
Q 6.59375 17.96875 6.59375 36.375 
Q 6.59375 54.828125 13.0625 64.515625 
Q 19.53125 74.21875 31.78125 74.21875 
z
" id="DejaVuSans-30"/>
      </defs>
      <g transform="translate(34.907366 122.198437)scale(0.1 -0.1)">
       <use xlink:href="#DejaVuSans-30"/>
      </g>
     </g>
    </g>
    <g id="xtick_2">
     <g id="line2d_2">
      <g>
       <use style="stroke:#000000;stroke-width:0.8;" x="98.920047" xlink:href="#m82e7d4978d" y="107.6"/>
      </g>
     </g>
     <g id="text_2">
      <!-- 5000 -->
      <defs>
       <path d="M 10.796875 72.90625 
L 49.515625 72.90625 
L 49.515625 64.59375 
L 19.828125 64.59375 
L 19.828125 46.734375 
Q 21.96875 47.46875 24.109375 47.828125 
Q 26.265625 48.1875 28.421875 48.1875 
Q 40.625 48.1875 47.75 41.5 
Q 54.890625 34.8125 54.890625 23.390625 
Q 54.890625 11.625 47.5625 5.09375 
Q 40.234375 -1.421875 26.90625 -1.421875 
Q 22.3125 -1.421875 17.546875 -0.640625 
Q 12.796875 0.140625 7.71875 1.703125 
L 7.71875 11.625 
Q 12.109375 9.234375 16.796875 8.0625 
Q 21.484375 6.890625 26.703125 6.890625 
Q 35.15625 6.890625 40.078125 11.328125 
Q 45.015625 15.765625 45.015625 23.390625 
Q 45.015625 31 40.078125 35.4375 
Q 35.15625 39.890625 26.703125 39.890625 
Q 22.75 39.890625 18.8125 39.015625 
Q 14.890625 38.140625 10.796875 36.28125 
z
" id="DejaVuSans-35"/>
      </defs>
      <g transform="translate(86.195047 122.198437)scale(0.1 -0.1)">
       <use xlink:href="#DejaVuSans-35"/>
       <use x="63.623047" xlink:href="#DejaVuSans-30"/>
       <use x="127.246094" xlink:href="#DejaVuSans-30"/>
       <use x="190.869141" xlink:href="#DejaVuSans-30"/>
      </g>
     </g>
    </g>
    <g id="xtick_3">
     <g id="line2d_3">
      <g>
       <use style="stroke:#000000;stroke-width:0.8;" x="159.751477" xlink:href="#m82e7d4978d" y="107.6"/>
      </g>
     </g>
     <g id="text_3">
      <!-- 10000 -->
      <defs>
       <path d="M 12.40625 8.296875 
L 28.515625 8.296875 
L 28.515625 63.921875 
L 10.984375 60.40625 
L 10.984375 69.390625 
L 28.421875 72.90625 
L 38.28125 72.90625 
L 38.28125 8.296875 
L 54.390625 8.296875 
L 54.390625 0 
L 12.40625 0 
z
" id="DejaVuSans-31"/>
      </defs>
      <g transform="translate(143.845227 122.198437)scale(0.1 -0.1)">
       <use xlink:href="#DejaVuSans-31"/>
       <use x="63.623047" xlink:href="#DejaVuSans-30"/>
       <use x="127.246094" xlink:href="#DejaVuSans-30"/>
       <use x="190.869141" xlink:href="#DejaVuSans-30"/>
       <use x="254.492188" xlink:href="#DejaVuSans-30"/>
      </g>
     </g>
    </g>
    <g id="text_4">
     <!-- Gross National Income ($ per capita) -->
     <defs>
      <path d="M 59.515625 10.40625 
L 59.515625 29.984375 
L 43.40625 29.984375 
L 43.40625 38.09375 
L 69.28125 38.09375 
L 69.28125 6.78125 
Q 63.578125 2.734375 56.6875 0.65625 
Q 49.8125 -1.421875 42 -1.421875 
Q 24.90625 -1.421875 15.25 8.5625 
Q 5.609375 18.5625 5.609375 36.375 
Q 5.609375 54.25 15.25 64.234375 
Q 24.90625 74.21875 42 74.21875 
Q 49.125 74.21875 55.546875 72.453125 
Q 61.96875 70.703125 67.390625 67.28125 
L 67.390625 56.78125 
Q 61.921875 61.421875 55.765625 63.765625 
Q 49.609375 66.109375 42.828125 66.109375 
Q 29.4375 66.109375 22.71875 58.640625 
Q 16.015625 51.171875 16.015625 36.375 
Q 16.015625 21.625 22.71875 14.15625 
Q 29.4375 6.6875 42.828125 6.6875 
Q 48.046875 6.6875 52.140625 7.59375 
Q 56.25 8.5 59.515625 10.40625 
z
" id="DejaVuSans-47"/>
      <path d="M 41.109375 46.296875 
Q 39.59375 47.171875 37.8125 47.578125 
Q 36.03125 48 33.890625 48 
Q 26.265625 48 22.1875 43.046875 
Q 18.109375 38.09375 18.109375 28.8125 
L 18.109375 0 
L 9.078125 0 
L 9.078125 54.6875 
L 18.109375 54.6875 
L 18.109375 46.1875 
Q 20.953125 51.171875 25.484375 53.578125 
Q 30.03125 56 36.53125 56 
Q 37.453125 56 38.578125 55.875 
Q 39.703125 55.765625 41.0625 55.515625 
z
" id="DejaVuSans-72"/>
      <path d="M 30.609375 48.390625 
Q 23.390625 48.390625 19.1875 42.75 
Q 14.984375 37.109375 14.984375 27.296875 
Q 14.984375 17.484375 19.15625 11.84375 
Q 23.34375 6.203125 30.609375 6.203125 
Q 37.796875 6.203125 41.984375 11.859375 
Q 46.1875 17.53125 46.1875 27.296875 
Q 46.1875 37.015625 41.984375 42.703125 
Q 37.796875 48.390625 30.609375 48.390625 
z
M 30.609375 56 
Q 42.328125 56 49.015625 48.375 
Q 55.71875 40.765625 55.71875 27.296875 
Q 55.71875 13.875 49.015625 6.21875 
Q 42.328125 -1.421875 30.609375 -1.421875 
Q 18.84375 -1.421875 12.171875 6.21875 
Q 5.515625 13.875 5.515625 27.296875 
Q 5.515625 40.765625 12.171875 48.375 
Q 18.84375 56 30.609375 56 
z
" id="DejaVuSans-6f"/>
      <path d="M 44.28125 53.078125 
L 44.28125 44.578125 
Q 40.484375 46.53125 36.375 47.5 
Q 32.28125 48.484375 27.875 48.484375 
Q 21.1875 48.484375 17.84375 46.4375 
Q 14.5 44.390625 14.5 40.28125 
Q 14.5 37.15625 16.890625 35.375 
Q 19.28125 33.59375 26.515625 31.984375 
L 29.59375 31.296875 
Q 39.15625 29.25 43.1875 25.515625 
Q 47.21875 21.78125 47.21875 15.09375 
Q 47.21875 7.46875 41.1875 3.015625 
Q 35.15625 -1.421875 24.609375 -1.421875 
Q 20.21875 -1.421875 15.453125 -0.5625 
Q 10.6875 0.296875 5.421875 2 
L 5.421875 11.28125 
Q 10.40625 8.6875 15.234375 7.390625 
Q 20.0625 6.109375 24.8125 6.109375 
Q 31.15625 6.109375 34.5625 8.28125 
Q 37.984375 10.453125 37.984375 14.40625 
Q 37.984375 18.0625 35.515625 20.015625 
Q 33.0625 21.96875 24.703125 23.78125 
L 21.578125 24.515625 
Q 13.234375 26.265625 9.515625 29.90625 
Q 5.8125 33.546875 5.8125 39.890625 
Q 5.8125 47.609375 11.28125 51.796875 
Q 16.75 56 26.8125 56 
Q 31.78125 56 36.171875 55.265625 
Q 40.578125 54.546875 44.28125 53.078125 
z
" id="DejaVuSans-73"/>
      <path id="DejaVuSans-20"/>
      <path d="M 9.8125 72.90625 
L 23.09375 72.90625 
L 55.421875 11.921875 
L 55.421875 72.90625 
L 64.984375 72.90625 
L 64.984375 0 
L 51.703125 0 
L 19.390625 60.984375 
L 19.390625 0 
L 9.8125 0 
z
" id="DejaVuSans-4e"/>
      <path d="M 34.28125 27.484375 
Q 23.390625 27.484375 19.1875 25 
Q 14.984375 22.515625 14.984375 16.5 
Q 14.984375 11.71875 18.140625 8.90625 
Q 21.296875 6.109375 26.703125 6.109375 
Q 34.1875 6.109375 38.703125 11.40625 
Q 43.21875 16.703125 43.21875 25.484375 
L 43.21875 27.484375 
z
M 52.203125 31.203125 
L 52.203125 0 
L 43.21875 0 
L 43.21875 8.296875 
Q 40.140625 3.328125 35.546875 0.953125 
Q 30.953125 -1.421875 24.3125 -1.421875 
Q 15.921875 -1.421875 10.953125 3.296875 
Q 6 8.015625 6 15.921875 
Q 6 25.140625 12.171875 29.828125 
Q 18.359375 34.515625 30.609375 34.515625 
L 43.21875 34.515625 
L 43.21875 35.40625 
Q 43.21875 41.609375 39.140625 45 
Q 35.0625 48.390625 27.6875 48.390625 
Q 23 48.390625 18.546875 47.265625 
Q 14.109375 46.140625 10.015625 43.890625 
L 10.015625 52.203125 
Q 14.9375 54.109375 19.578125 55.046875 
Q 24.21875 56 28.609375 56 
Q 40.484375 56 46.34375 49.84375 
Q 52.203125 43.703125 52.203125 31.203125 
z
" id="DejaVuSans-61"/>
      <path d="M 18.3125 70.21875 
L 18.3125 54.6875 
L 36.8125 54.6875 
L 36.8125 47.703125 
L 18.3125 47.703125 
L 18.3125 18.015625 
Q 18.3125 11.328125 20.140625 9.421875 
Q 21.96875 7.515625 27.59375 7.515625 
L 36.8125 7.515625 
L 36.8125 0 
L 27.59375 0 
Q 17.1875 0 13.234375 3.875 
Q 9.28125 7.765625 9.28125 18.015625 
L 9.28125 47.703125 
L 2.6875 47.703125 
L 2.6875 54.6875 
L 9.28125 54.6875 
L 9.28125 70.21875 
z
" id="DejaVuSans-74"/>
      <path d="M 9.421875 54.6875 
L 18.40625 54.6875 
L 18.40625 0 
L 9.421875 0 
z
M 9.421875 75.984375 
L 18.40625 75.984375 
L 18.40625 64.59375 
L 9.421875 64.59375 
z
" id="DejaVuSans-69"/>
      <path d="M 54.890625 33.015625 
L 54.890625 0 
L 45.90625 0 
L 45.90625 32.71875 
Q 45.90625 40.484375 42.875 44.328125 
Q 39.84375 48.1875 33.796875 48.1875 
Q 26.515625 48.1875 22.3125 43.546875 
Q 18.109375 38.921875 18.109375 30.90625 
L 18.109375 0 
L 9.078125 0 
L 9.078125 54.6875 
L 18.109375 54.6875 
L 18.109375 46.1875 
Q 21.34375 51.125 25.703125 53.5625 
Q 30.078125 56 35.796875 56 
Q 45.21875 56 50.046875 50.171875 
Q 54.890625 44.34375 54.890625 33.015625 
z
" id="DejaVuSans-6e"/>
      <path d="M 9.421875 75.984375 
L 18.40625 75.984375 
L 18.40625 0 
L 9.421875 0 
z
" id="DejaVuSans-6c"/>
      <path d="M 9.8125 72.90625 
L 19.671875 72.90625 
L 19.671875 0 
L 9.8125 0 
z
" id="DejaVuSans-49"/>
      <path d="M 48.78125 52.59375 
L 48.78125 44.1875 
Q 44.96875 46.296875 41.140625 47.34375 
Q 37.3125 48.390625 33.40625 48.390625 
Q 24.65625 48.390625 19.8125 42.84375 
Q 14.984375 37.3125 14.984375 27.296875 
Q 14.984375 17.28125 19.8125 11.734375 
Q 24.65625 6.203125 33.40625 6.203125 
Q 37.3125 6.203125 41.140625 7.25 
Q 44.96875 8.296875 48.78125 10.40625 
L 48.78125 2.09375 
Q 45.015625 0.34375 40.984375 -0.53125 
Q 36.96875 -1.421875 32.421875 -1.421875 
Q 20.0625 -1.421875 12.78125 6.34375 
Q 5.515625 14.109375 5.515625 27.296875 
Q 5.515625 40.671875 12.859375 48.328125 
Q 20.21875 56 33.015625 56 
Q 37.15625 56 41.109375 55.140625 
Q 45.0625 54.296875 48.78125 52.59375 
z
" id="DejaVuSans-63"/>
      <path d="M 52 44.1875 
Q 55.375 50.25 60.0625 53.125 
Q 64.75 56 71.09375 56 
Q 79.640625 56 84.28125 50.015625 
Q 88.921875 44.046875 88.921875 33.015625 
L 88.921875 0 
L 79.890625 0 
L 79.890625 32.71875 
Q 79.890625 40.578125 77.09375 44.375 
Q 74.3125 48.1875 68.609375 48.1875 
Q 61.625 48.1875 57.5625 43.546875 
Q 53.515625 38.921875 53.515625 30.90625 
L 53.515625 0 
L 44.484375 0 
L 44.484375 32.71875 
Q 44.484375 40.625 41.703125 44.40625 
Q 38.921875 48.1875 33.109375 48.1875 
Q 26.21875 48.1875 22.15625 43.53125 
Q 18.109375 38.875 18.109375 30.90625 
L 18.109375 0 
L 9.078125 0 
L 9.078125 54.6875 
L 18.109375 54.6875 
L 18.109375 46.1875 
Q 21.1875 51.21875 25.484375 53.609375 
Q 29.78125 56 35.6875 56 
Q 41.65625 56 45.828125 52.96875 
Q 50 49.953125 52 44.1875 
z
" id="DejaVuSans-6d"/>
      <path d="M 56.203125 29.59375 
L 56.203125 25.203125 
L 14.890625 25.203125 
Q 15.484375 15.921875 20.484375 11.0625 
Q 25.484375 6.203125 34.421875 6.203125 
Q 39.59375 6.203125 44.453125 7.46875 
Q 49.3125 8.734375 54.109375 11.28125 
L 54.109375 2.78125 
Q 49.265625 0.734375 44.1875 -0.34375 
Q 39.109375 -1.421875 33.890625 -1.421875 
Q 20.796875 -1.421875 13.15625 6.1875 
Q 5.515625 13.8125 5.515625 26.8125 
Q 5.515625 40.234375 12.765625 48.109375 
Q 20.015625 56 32.328125 56 
Q 43.359375 56 49.78125 48.890625 
Q 56.203125 41.796875 56.203125 29.59375 
z
M 47.21875 32.234375 
Q 47.125 39.59375 43.09375 43.984375 
Q 39.0625 48.390625 32.421875 48.390625 
Q 24.90625 48.390625 20.390625 44.140625 
Q 15.875 39.890625 15.1875 32.171875 
z
" id="DejaVuSans-65"/>
      <path d="M 31 75.875 
Q 24.46875 64.65625 21.28125 53.65625 
Q 18.109375 42.671875 18.109375 31.390625 
Q 18.109375 20.125 21.3125 9.0625 
Q 24.515625 -2 31 -13.1875 
L 23.1875 -13.1875 
Q 15.875 -1.703125 12.234375 9.375 
Q 8.59375 20.453125 8.59375 31.390625 
Q 8.59375 42.28125 12.203125 53.3125 
Q 15.828125 64.359375 23.1875 75.875 
z
" id="DejaVuSans-28"/>
      <path d="M 33.796875 -14.703125 
L 28.90625 -14.703125 
L 28.859375 0 
Q 23.734375 0.09375 18.609375 1.1875 
Q 13.484375 2.296875 8.296875 4.5 
L 8.296875 13.28125 
Q 13.28125 10.15625 18.375 8.5625 
Q 23.484375 6.984375 28.90625 6.9375 
L 28.90625 29.203125 
Q 18.109375 30.953125 13.203125 35.15625 
Q 8.296875 39.359375 8.296875 46.6875 
Q 8.296875 54.640625 13.625 59.21875 
Q 18.953125 63.8125 28.90625 64.5 
L 28.90625 75.984375 
L 33.796875 75.984375 
L 33.796875 64.65625 
Q 38.328125 64.453125 42.578125 63.6875 
Q 46.828125 62.9375 50.875 61.625 
L 50.875 53.078125 
Q 46.828125 55.125 42.546875 56.25 
Q 38.28125 57.375 33.796875 57.5625 
L 33.796875 36.71875 
Q 44.875 35.015625 50.09375 30.609375 
Q 55.328125 26.21875 55.328125 18.609375 
Q 55.328125 10.359375 49.78125 5.59375 
Q 44.234375 0.828125 33.796875 0.09375 
z
M 28.90625 37.59375 
L 28.90625 57.625 
Q 23.25 56.984375 20.265625 54.390625 
Q 17.28125 51.8125 17.28125 47.515625 
Q 17.28125 43.3125 20.03125 40.96875 
Q 22.796875 38.625 28.90625 37.59375 
z
M 33.796875 28.21875 
L 33.796875 7.078125 
Q 39.984375 7.90625 43.140625 10.59375 
Q 46.296875 13.28125 46.296875 17.671875 
Q 46.296875 21.96875 43.28125 24.5 
Q 40.28125 27.046875 33.796875 28.21875 
z
" id="DejaVuSans-24"/>
      <path d="M 18.109375 8.203125 
L 18.109375 -20.796875 
L 9.078125 -20.796875 
L 9.078125 54.6875 
L 18.109375 54.6875 
L 18.109375 46.390625 
Q 20.953125 51.265625 25.265625 53.625 
Q 29.59375 56 35.59375 56 
Q 45.5625 56 51.78125 48.09375 
Q 58.015625 40.1875 58.015625 27.296875 
Q 58.015625 14.40625 51.78125 6.484375 
Q 45.5625 -1.421875 35.59375 -1.421875 
Q 29.59375 -1.421875 25.265625 0.953125 
Q 20.953125 3.328125 18.109375 8.203125 
z
M 48.6875 27.296875 
Q 48.6875 37.203125 44.609375 42.84375 
Q 40.53125 48.484375 33.40625 48.484375 
Q 26.265625 48.484375 22.1875 42.84375 
Q 18.109375 37.203125 18.109375 27.296875 
Q 18.109375 17.390625 22.1875 11.75 
Q 26.265625 6.109375 33.40625 6.109375 
Q 40.53125 6.109375 44.609375 11.75 
Q 48.6875 17.390625 48.6875 27.296875 
z
" id="DejaVuSans-70"/>
      <path d="M 8.015625 75.875 
L 15.828125 75.875 
Q 23.140625 64.359375 26.78125 53.3125 
Q 30.421875 42.28125 30.421875 31.390625 
Q 30.421875 20.453125 26.78125 9.375 
Q 23.140625 -1.703125 15.828125 -13.1875 
L 8.015625 -13.1875 
Q 14.5 -2 17.703125 9.0625 
Q 20.90625 20.125 20.90625 31.390625 
Q 20.90625 42.671875 17.703125 53.65625 
Q 14.5 64.65625 8.015625 75.875 
z
" id="DejaVuSans-29"/>
     </defs>
     <g transform="translate(27.618821 135.876562)scale(0.1 -0.1)">
      <use xlink:href="#DejaVuSans-47"/>
      <use x="77.490234" xlink:href="#DejaVuSans-72"/>
      <use x="118.572266" xlink:href="#DejaVuSans-6f"/>
      <use x="179.753906" xlink:href="#DejaVuSans-73"/>
      <use x="231.853516" xlink:href="#DejaVuSans-73"/>
      <use x="283.953125" xlink:href="#DejaVuSans-20"/>
      <use x="315.740234" xlink:href="#DejaVuSans-4e"/>
      <use x="390.544922" xlink:href="#DejaVuSans-61"/>
      <use x="451.824219" xlink:href="#DejaVuSans-74"/>
      <use x="491.033203" xlink:href="#DejaVuSans-69"/>
      <use x="518.816406" xlink:href="#DejaVuSans-6f"/>
      <use x="579.998047" xlink:href="#DejaVuSans-6e"/>
      <use x="643.376953" xlink:href="#DejaVuSans-61"/>
      <use x="704.65625" xlink:href="#DejaVuSans-6c"/>
      <use x="732.439453" xlink:href="#DejaVuSans-20"/>
      <use x="764.226562" xlink:href="#DejaVuSans-49"/>
      <use x="793.71875" xlink:href="#DejaVuSans-6e"/>
      <use x="857.097656" xlink:href="#DejaVuSans-63"/>
      <use x="912.078125" xlink:href="#DejaVuSans-6f"/>
      <use x="973.259766" xlink:href="#DejaVuSans-6d"/>
      <use x="1070.671875" xlink:href="#DejaVuSans-65"/>
      <use x="1132.195312" xlink:href="#DejaVuSans-20"/>
      <use x="1163.982422" xlink:href="#DejaVuSans-28"/>
      <use x="1202.996094" xlink:href="#DejaVuSans-24"/>
      <use x="1266.619141" xlink:href="#DejaVuSans-20"/>
      <use x="1298.40625" xlink:href="#DejaVuSans-70"/>
      <use x="1361.882812" xlink:href="#DejaVuSans-65"/>
      <use x="1423.40625" xlink:href="#DejaVuSans-72"/>
      <use x="1464.519531" xlink:href="#DejaVuSans-20"/>
      <use x="1496.306641" xlink:href="#DejaVuSans-63"/>
      <use x="1551.287109" xlink:href="#DejaVuSans-61"/>
      <use x="1612.566406" xlink:href="#DejaVuSans-70"/>
      <use x="1676.042969" xlink:href="#DejaVuSans-69"/>
      <use x="1703.826172" xlink:href="#DejaVuSans-74"/>
      <use x="1743.035156" xlink:href="#DejaVuSans-61"/>
      <use x="1804.314453" xlink:href="#DejaVuSans-29"/>
     </g>
    </g>
   </g>
   <g id="matplotlib.axis_2">
    <g id="ytick_1">
     <g id="line2d_4">
      <defs>
       <path d="M 0 0 
L -3.5 0 
" id="m48dda4c9a7" style="stroke:#000000;stroke-width:0.8;"/>
      </defs>
      <g>
       <use style="stroke:#000000;stroke-width:0.8;" x="33.8" xlink:href="#m48dda4c9a7" y="107.6"/>
      </g>
     </g>
     <g id="text_5">
      <!-- 0.0 -->
      <defs>
       <path d="M 10.6875 12.40625 
L 21 12.40625 
L 21 0 
L 10.6875 0 
z
" id="DejaVuSans-2e"/>
      </defs>
      <g transform="translate(10.896875 111.399219)scale(0.1 -0.1)">
       <use xlink:href="#DejaVuSans-30"/>
       <use x="63.623047" xlink:href="#DejaVuSans-2e"/>
       <use x="95.410156" xlink:href="#DejaVuSans-30"/>
      </g>
     </g>
    </g>
    <g id="ytick_2">
     <g id="line2d_5">
      <g>
       <use style="stroke:#000000;stroke-width:0.8;" x="33.8" xlink:href="#m48dda4c9a7" y="79.832143"/>
      </g>
     </g>
     <g id="text_6">
      <!-- 2.5 -->
      <defs>
       <path d="M 19.1875 8.296875 
L 53.609375 8.296875 
L 53.609375 0 
L 7.328125 0 
L 7.328125 8.296875 
Q 12.9375 14.109375 22.625 23.890625 
Q 32.328125 33.6875 34.8125 36.53125 
Q 39.546875 41.84375 41.421875 45.53125 
Q 43.3125 49.21875 43.3125 52.78125 
Q 43.3125 58.59375 39.234375 62.25 
Q 35.15625 65.921875 28.609375 65.921875 
Q 23.96875 65.921875 18.8125 64.3125 
Q 13.671875 62.703125 7.8125 59.421875 
L 7.8125 69.390625 
Q 13.765625 71.78125 18.9375 73 
Q 24.125 74.21875 28.421875 74.21875 
Q 39.75 74.21875 46.484375 68.546875 
Q 53.21875 62.890625 53.21875 53.421875 
Q 53.21875 48.921875 51.53125 44.890625 
Q 49.859375 40.875 45.40625 35.40625 
Q 44.1875 33.984375 37.640625 27.21875 
Q 31.109375 20.453125 19.1875 8.296875 
z
" id="DejaVuSans-32"/>
      </defs>
      <g transform="translate(10.896875 83.631362)scale(0.1 -0.1)">
       <use xlink:href="#DejaVuSans-32"/>
       <use x="63.623047" xlink:href="#DejaVuSans-2e"/>
       <use x="95.410156" xlink:href="#DejaVuSans-35"/>
      </g>
     </g>
    </g>
    <g id="ytick_3">
     <g id="line2d_6">
      <g>
       <use style="stroke:#000000;stroke-width:0.8;" x="33.8" xlink:href="#m48dda4c9a7" y="52.064286"/>
      </g>
     </g>
     <g id="text_7">
      <!-- 5.0 -->
      <g transform="translate(10.896875 55.863504)scale(0.1 -0.1)">
       <use xlink:href="#DejaVuSans-35"/>
       <use x="63.623047" xlink:href="#DejaVuSans-2e"/>
       <use x="95.410156" xlink:href="#DejaVuSans-30"/>
      </g>
     </g>
    </g>
    <g id="ytick_4">
     <g id="line2d_7">
      <g>
       <use style="stroke:#000000;stroke-width:0.8;" x="33.8" xlink:href="#m48dda4c9a7" y="24.296429"/>
      </g>
     </g>
     <g id="text_8">
      <!-- 7.5 -->
      <defs>
       <path d="M 8.203125 72.90625 
L 55.078125 72.90625 
L 55.078125 68.703125 
L 28.609375 0 
L 18.3125 0 
L 43.21875 64.59375 
L 8.203125 64.59375 
z
" id="DejaVuSans-37"/>
      </defs>
      <g transform="translate(10.896875 28.095647)scale(0.1 -0.1)">
       <use xlink:href="#DejaVuSans-37"/>
       <use x="63.623047" xlink:href="#DejaVuSans-2e"/>
       <use x="95.410156" xlink:href="#DejaVuSans-35"/>
      </g>
     </g>
    </g>
   </g>
   <g id="line2d_8">
    <path clip-path="url(#p802b68da7e)" d="M 41.616839 107.6 
L 41.616839 102.935 
" style="fill:none;stroke:#5f9ea0;stroke-linecap:square;"/>
   </g>
   <g id="line2d_9">
    <path clip-path="url(#p802b68da7e)" d="M 48.186633 107.6 
L 48.186633 102.935 
" style="fill:none;stroke:#5f9ea0;stroke-linecap:square;"/>
   </g>
   <g id="line2d_10">
    <path clip-path="url(#p802b68da7e)" d="M 68.747657 107.6 
L 68.747657 102.935 
" style="fill:none;stroke:#5f9ea0;stroke-linecap:square;"/>
   </g>
   <g id="line2d_11">
    <path clip-path="url(#p802b68da7e)" d="M 46.605016 107.6 
L 46.605016 102.935 
" style="fill:none;stroke:#5f9ea0;stroke-linecap:square;"/>
   </g>
   <g id="line2d_12">
    <path clip-path="url(#p802b68da7e)" d="M 50.619891 107.6 
L 50.619891 102.935 
" style="fill:none;stroke:#5f9ea0;stroke-linecap:square;"/>
   </g>
   <g id="line2d_13">
    <path clip-path="url(#p802b68da7e)" d="M 46.118365 107.6 
L 46.118365 102.935 
" style="fill:none;stroke:#5f9ea0;stroke-linecap:square;"/>
   </g>
   <g id="line2d_14">
    <path clip-path="url(#p802b68da7e)" d="M 197.953616 107.6 
L 197.953616 102.935 
" style="fill:none;stroke:#5f9ea0;stroke-linecap:square;"/>
   </g>
   <g id="line2d_15">
    <path clip-path="url(#p802b68da7e)" d="M 78.359023 107.6 
L 78.359023 102.935 
" style="fill:none;stroke:#5f9ea0;stroke-linecap:square;"/>
   </g>
   <g id="line2d_16">
    <path clip-path="url(#p802b68da7e)" d="M 43.441782 107.6 
L 43.441782 102.935 
" style="fill:none;stroke:#5f9ea0;stroke-linecap:square;"/>
   </g>
   <g id="line2d_17">
    <path clip-path="url(#p802b68da7e)" d="M 55.851394 107.6 
L 55.851394 102.935 
" style="fill:none;stroke:#5f9ea0;stroke-linecap:square;"/>
   </g>
   <g id="line2d_18">
    <path clip-path="url(#p802b68da7e)" d="M 57.433011 107.6 
L 57.433011 102.935 
" style="fill:none;stroke:#5f9ea0;stroke-linecap:square;"/>
   </g>
   <g id="line2d_19">
    <path clip-path="url(#p802b68da7e)" d="M 53.418136 107.6 
L 53.418136 102.935 
" style="fill:none;stroke:#5f9ea0;stroke-linecap:square;"/>
   </g>
   <g id="line2d_20">
    <path clip-path="url(#p802b68da7e)" d="M 74.344149 107.6 
L 74.344149 102.935 
" style="fill:none;stroke:#5f9ea0;stroke-linecap:square;"/>
   </g>
   <g id="line2d_21">
    <path clip-path="url(#p802b68da7e)" d="M 60.352919 107.6 
L 60.352919 102.935 
" style="fill:none;stroke:#5f9ea0;stroke-linecap:square;"/>
   </g>
   <g id="patch_13">
    <path d="M 33.8 107.6 
L 33.8 14.3 
" style="fill:none;stroke:#000000;stroke-linecap:square;stroke-linejoin:miter;stroke-width:0.8;"/>
   </g>
   <g id="patch_14">
    <path d="M 205.770455 107.6 
L 205.770455 14.3 
" style="fill:none;stroke:#000000;stroke-linecap:square;stroke-linejoin:miter;stroke-width:0.8;"/>
   </g>
   <g id="patch_15">
    <path d="M 33.8 107.6 
L 205.770455 107.6 
" style="fill:none;stroke:#000000;stroke-linecap:square;stroke-linejoin:miter;stroke-width:0.8;"/>
   </g>
   <g id="patch_16">
    <path d="M 33.8 14.3 
L 205.770455 14.3 
" style="fill:none;stroke:#000000;stroke-linecap:square;stroke-linejoin:miter;stroke-width:0.8;"/>
   </g>
  </g>
  <g id="axes_2">
   <g id="patch_17">
    <path d="M 245.729545 107.6 
L 417.7 107.6 
L 417.7 14.3 
L 245.729545 14.3 
z
" style="fill:#ffffff;"/>
   </g>
   <g id="patch_18">
    <path clip-path="url(#p8cd08bed93)" d="M 253.546384 107.6 
L 260.060417 107.6 
L 260.060417 18.742857 
L 253.546384 18.742857 
z
" style="fill:#708090;opacity:0.4;"/>
   </g>
   <g id="patch_19">
    <path clip-path="url(#p8cd08bed93)" d="M 260.060417 107.6 
L 266.574449 107.6 
L 266.574449 56.82449 
L 260.060417 56.82449 
z
" style="fill:#708090;opacity:0.4;"/>
   </g>
   <g id="patch_20">
    <path clip-path="url(#p8cd08bed93)" d="M 266.574449 107.6 
L 273.088481 107.6 
L 273.088481 94.906122 
L 266.574449 94.906122 
z
" style="fill:#708090;opacity:0.4;"/>
   </g>
   <g id="patch_21">
    <path clip-path="url(#p8cd08bed93)" d="M 273.088481 107.6 
L 279.602514 107.6 
L 279.602514 94.906122 
L 273.088481 94.906122 
z
" style="fill:#708090;opacity:0.4;"/>
   </g>
   <g id="patch_22">
    <path clip-path="url(#p8cd08bed93)" d="M 279.602514 107.6 
L 286.116546 107.6 
L 286.116546 107.6 
L 279.602514 107.6 
z
" style="fill:#708090;opacity:0.4;"/>
   </g>
   <g id="patch_23">
    <path clip-path="url(#p8cd08bed93)" d="M 286.116546 107.6 
L 292.630579 107.6 
L 292.630579 107.6 
L 286.116546 107.6 
z
" style="fill:#708090;opacity:0.4;"/>
   </g>
   <g id="patch_24">
    <path clip-path="url(#p8cd08bed93)" d="M 292.630579 107.6 
L 299.144611 107.6 
L 299.144611 107.6 
L 292.630579 107.6 
z
" style="fill:#708090;opacity:0.4;"/>
   </g>
   <g id="patch_25">
    <path clip-path="url(#p8cd08bed93)" d="M 299.144611 107.6 
L 305.658643 107.6 
L 305.658643 107.6 
L 299.144611 107.6 
z
" style="fill:#708090;opacity:0.4;"/>
   </g>
   <g id="patch_26">
    <path clip-path="url(#p8cd08bed93)" d="M 305.658643 107.6 
L 312.172676 107.6 
L 312.172676 107.6 
L 305.658643 107.6 
z
" style="fill:#708090;opacity:0.4;"/>
   </g>
   <g id="patch_27">
    <path clip-path="url(#p8cd08bed93)" d="M 312.172676 107.6 
L 318.686708 107.6 
L 318.686708 107.6 
L 312.172676 107.6 
z
" style="fill:#708090;opacity:0.4;"/>
   </g>
   <g id="patch_28">
    <path clip-path="url(#p8cd08bed93)" d="M 318.686708 107.6 
L 325.20074 107.6 
L 325.20074 107.6 
L 318.686708 107.6 
z
" style="fill:#708090;opacity:0.4;"/>
   </g>
   <g id="patch_29">
    <path clip-path="url(#p8cd08bed93)" d="M 325.20074 107.6 
L 331.714773 107.6 
L 331.714773 107.6 
L 325.20074 107.6 
z
" style="fill:#708090;opacity:0.4;"/>
   </g>
   <g id="patch_30">
    <path clip-path="url(#p8cd08bed93)" d="M 331.714773 107.6 
L 338.228805 107.6 
L 338.228805 107.6 
L 331.714773 107.6 
z
" style="fill:#708090;opacity:0.4;"/>
   </g>
   <g id="patch_31">
    <path clip-path="url(#p8cd08bed93)" d="M 338.228805 107.6 
L 344.742837 107.6 
L 344.742837 107.6 
L 338.228805 107.6 
z
" style="fill:#708090;opacity:0.4;"/>
   </g>
   <g id="patch_32">
    <path clip-path="url(#p8cd08bed93)" d="M 344.742837 107.6 
L 351.25687 107.6 
L 351.25687 107.6 
L 344.742837 107.6 
z
" style="fill:#708090;opacity:0.4;"/>
   </g>
   <g id="patch_33">
    <path clip-path="url(#p8cd08bed93)" d="M 351.25687 107.6 
L 357.770902 107.6 
L 357.770902 107.6 
L 351.25687 107.6 
z
" style="fill:#708090;opacity:0.4;"/>
   </g>
   <g id="patch_34">
    <path clip-path="url(#p8cd08bed93)" d="M 357.770902 107.6 
L 364.284935 107.6 
L 364.284935 107.6 
L 357.770902 107.6 
z
" style="fill:#708090;opacity:0.4;"/>
   </g>
   <g id="patch_35">
    <path clip-path="url(#p8cd08bed93)" d="M 364.284935 107.6 
L 370.798967 107.6 
L 370.798967 107.6 
L 364.284935 107.6 
z
" style="fill:#708090;opacity:0.4;"/>
   </g>
   <g id="patch_36">
    <path clip-path="url(#p8cd08bed93)" d="M 370.798967 107.6 
L 377.312999 107.6 
L 377.312999 107.6 
L 370.798967 107.6 
z
" style="fill:#708090;opacity:0.4;"/>
   </g>
   <g id="patch_37">
    <path clip-path="url(#p8cd08bed93)" d="M 377.312999 107.6 
L 383.827032 107.6 
L 383.827032 107.6 
L 377.312999 107.6 
z
" style="fill:#708090;opacity:0.4;"/>
   </g>
   <g id="patch_38">
    <path clip-path="url(#p8cd08bed93)" d="M 383.827032 107.6 
L 390.341064 107.6 
L 390.341064 107.6 
L 383.827032 107.6 
z
" style="fill:#708090;opacity:0.4;"/>
   </g>
   <g id="patch_39">
    <path clip-path="url(#p8cd08bed93)" d="M 390.341064 107.6 
L 396.855096 107.6 
L 396.855096 107.6 
L 390.341064 107.6 
z
" style="fill:#708090;opacity:0.4;"/>
   </g>
   <g id="patch_40">
    <path clip-path="url(#p8cd08bed93)" d="M 396.855096 107.6 
L 403.369129 107.6 
L 403.369129 107.6 
L 396.855096 107.6 
z
" style="fill:#708090;opacity:0.4;"/>
   </g>
   <g id="patch_41">
    <path clip-path="url(#p8cd08bed93)" d="M 403.369129 107.6 
L 409.883161 107.6 
L 409.883161 94.906122 
L 403.369129 94.906122 
z
" style="fill:#708090;opacity:0.4;"/>
   </g>
   <g id="matplotlib.axis_3">
    <g id="xtick_4">
     <g id="line2d_22">
      <g>
       <use style="stroke:#000000;stroke-width:0.8;" x="253.368058" xlink:href="#m82e7d4978d" y="107.6"/>
      </g>
     </g>
     <g id="text_9">
      <!-- 0 -->
      <g transform="translate(250.186808 122.198437)scale(0.1 -0.1)">
       <use xlink:href="#DejaVuSans-30"/>
      </g>
     </g>
    </g>
    <g id="xtick_5">
     <g id="line2d_23">
      <g>
       <use style="stroke:#000000;stroke-width:0.8;" x="308.430636" xlink:href="#m82e7d4978d" y="107.6"/>
      </g>
     </g>
     <g id="text_10">
      <!-- 2 -->
      <g transform="translate(305.249386 122.198437)scale(0.1 -0.1)">
       <use xlink:href="#DejaVuSans-32"/>
      </g>
     </g>
    </g>
    <g id="xtick_6">
     <g id="line2d_24">
      <g>
       <use style="stroke:#000000;stroke-width:0.8;" x="363.493214" xlink:href="#m82e7d4978d" y="107.6"/>
      </g>
     </g>
     <g id="text_11">
      <!-- 4 -->
      <defs>
       <path d="M 37.796875 64.3125 
L 12.890625 25.390625 
L 37.796875 25.390625 
z
M 35.203125 72.90625 
L 47.609375 72.90625 
L 47.609375 25.390625 
L 58.015625 25.390625 
L 58.015625 17.1875 
L 47.609375 17.1875 
L 47.609375 0 
L 37.796875 0 
L 37.796875 17.1875 
L 4.890625 17.1875 
L 4.890625 26.703125 
z
" id="DejaVuSans-34"/>
      </defs>
      <g transform="translate(360.311964 122.198437)scale(0.1 -0.1)">
       <use xlink:href="#DejaVuSans-34"/>
      </g>
     </g>
    </g>
    <g id="text_12">
     <!-- Gross Domestic Product ($) -->
     <defs>
      <path d="M 19.671875 64.796875 
L 19.671875 8.109375 
L 31.59375 8.109375 
Q 46.6875 8.109375 53.6875 14.9375 
Q 60.6875 21.78125 60.6875 36.53125 
Q 60.6875 51.171875 53.6875 57.984375 
Q 46.6875 64.796875 31.59375 64.796875 
z
M 9.8125 72.90625 
L 30.078125 72.90625 
Q 51.265625 72.90625 61.171875 64.09375 
Q 71.09375 55.28125 71.09375 36.53125 
Q 71.09375 17.671875 61.125 8.828125 
Q 51.171875 0 30.078125 0 
L 9.8125 0 
z
" id="DejaVuSans-44"/>
      <path d="M 19.671875 64.796875 
L 19.671875 37.40625 
L 32.078125 37.40625 
Q 38.96875 37.40625 42.71875 40.96875 
Q 46.484375 44.53125 46.484375 51.125 
Q 46.484375 57.671875 42.71875 61.234375 
Q 38.96875 64.796875 32.078125 64.796875 
z
M 9.8125 72.90625 
L 32.078125 72.90625 
Q 44.34375 72.90625 50.609375 67.359375 
Q 56.890625 61.8125 56.890625 51.125 
Q 56.890625 40.328125 50.609375 34.8125 
Q 44.34375 29.296875 32.078125 29.296875 
L 19.671875 29.296875 
L 19.671875 0 
L 9.8125 0 
z
" id="DejaVuSans-50"/>
      <path d="M 45.40625 46.390625 
L 45.40625 75.984375 
L 54.390625 75.984375 
L 54.390625 0 
L 45.40625 0 
L 45.40625 8.203125 
Q 42.578125 3.328125 38.25 0.953125 
Q 33.9375 -1.421875 27.875 -1.421875 
Q 17.96875 -1.421875 11.734375 6.484375 
Q 5.515625 14.40625 5.515625 27.296875 
Q 5.515625 40.1875 11.734375 48.09375 
Q 17.96875 56 27.875 56 
Q 33.9375 56 38.25 53.625 
Q 42.578125 51.265625 45.40625 46.390625 
z
M 14.796875 27.296875 
Q 14.796875 17.390625 18.875 11.75 
Q 22.953125 6.109375 30.078125 6.109375 
Q 37.203125 6.109375 41.296875 11.75 
Q 45.40625 17.390625 45.40625 27.296875 
Q 45.40625 37.203125 41.296875 42.84375 
Q 37.203125 48.484375 30.078125 48.484375 
Q 22.953125 48.484375 18.875 42.84375 
Q 14.796875 37.203125 14.796875 27.296875 
z
" id="DejaVuSans-64"/>
      <path d="M 8.5 21.578125 
L 8.5 54.6875 
L 17.484375 54.6875 
L 17.484375 21.921875 
Q 17.484375 14.15625 20.5 10.265625 
Q 23.53125 6.390625 29.59375 6.390625 
Q 36.859375 6.390625 41.078125 11.03125 
Q 45.3125 15.671875 45.3125 23.6875 
L 45.3125 54.6875 
L 54.296875 54.6875 
L 54.296875 0 
L 45.3125 0 
L 45.3125 8.40625 
Q 42.046875 3.421875 37.71875 1 
Q 33.40625 -1.421875 27.6875 -1.421875 
Q 18.265625 -1.421875 13.375 4.4375 
Q 8.5 10.296875 8.5 21.578125 
z
M 31.109375 56 
z
" id="DejaVuSans-75"/>
     </defs>
     <g transform="translate(262.928835 135.876562)scale(0.1 -0.1)">
      <use xlink:href="#DejaVuSans-47"/>
      <use x="77.490234" xlink:href="#DejaVuSans-72"/>
      <use x="118.572266" xlink:href="#DejaVuSans-6f"/>
      <use x="179.753906" xlink:href="#DejaVuSans-73"/>
      <use x="231.853516" xlink:href="#DejaVuSans-73"/>
      <use x="283.953125" xlink:href="#DejaVuSans-20"/>
      <use x="315.740234" xlink:href="#DejaVuSans-44"/>
      <use x="392.742188" xlink:href="#DejaVuSans-6f"/>
      <use x="453.923828" xlink:href="#DejaVuSans-6d"/>
      <use x="551.335938" xlink:href="#DejaVuSans-65"/>
      <use x="612.859375" xlink:href="#DejaVuSans-73"/>
      <use x="664.958984" xlink:href="#DejaVuSans-74"/>
      <use x="704.167969" xlink:href="#DejaVuSans-69"/>
      <use x="731.951172" xlink:href="#DejaVuSans-63"/>
      <use x="786.931641" xlink:href="#DejaVuSans-20"/>
      <use x="818.71875" xlink:href="#DejaVuSans-50"/>
      <use x="879.005859" xlink:href="#DejaVuSans-72"/>
      <use x="920.087891" xlink:href="#DejaVuSans-6f"/>
      <use x="981.269531" xlink:href="#DejaVuSans-64"/>
      <use x="1044.746094" xlink:href="#DejaVuSans-75"/>
      <use x="1108.125" xlink:href="#DejaVuSans-63"/>
      <use x="1163.105469" xlink:href="#DejaVuSans-74"/>
      <use x="1202.314453" xlink:href="#DejaVuSans-20"/>
      <use x="1234.101562" xlink:href="#DejaVuSans-28"/>
      <use x="1273.115234" xlink:href="#DejaVuSans-24"/>
      <use x="1336.738281" xlink:href="#DejaVuSans-29"/>
     </g>
    </g>
    <g id="text_13">
     <!-- 1e11 -->
     <g transform="translate(392.459375 134.876562)scale(0.1 -0.1)">
      <use xlink:href="#DejaVuSans-31"/>
      <use x="63.623047" xlink:href="#DejaVuSans-65"/>
      <use x="125.146484" xlink:href="#DejaVuSans-31"/>
      <use x="188.769531" xlink:href="#DejaVuSans-31"/>
     </g>
    </g>
   </g>
   <g id="matplotlib.axis_4">
    <g id="ytick_5">
     <g id="line2d_25">
      <g>
       <use style="stroke:#000000;stroke-width:0.8;" x="245.729545" xlink:href="#m48dda4c9a7" y="107.6"/>
      </g>
     </g>
     <g id="text_14">
      <!-- 0 -->
      <g transform="translate(232.367045 111.399219)scale(0.1 -0.1)">
       <use xlink:href="#DejaVuSans-30"/>
      </g>
     </g>
    </g>
    <g id="ytick_6">
     <g id="line2d_26">
      <g>
       <use style="stroke:#000000;stroke-width:0.8;" x="245.729545" xlink:href="#m48dda4c9a7" y="82.212245"/>
      </g>
     </g>
     <g id="text_15">
      <!-- 2 -->
      <g transform="translate(232.367045 86.011464)scale(0.1 -0.1)">
       <use xlink:href="#DejaVuSans-32"/>
      </g>
     </g>
    </g>
    <g id="ytick_7">
     <g id="line2d_27">
      <g>
       <use style="stroke:#000000;stroke-width:0.8;" x="245.729545" xlink:href="#m48dda4c9a7" y="56.82449"/>
      </g>
     </g>
     <g id="text_16">
      <!-- 4 -->
      <g transform="translate(232.367045 60.623709)scale(0.1 -0.1)">
       <use xlink:href="#DejaVuSans-34"/>
      </g>
     </g>
    </g>
    <g id="ytick_8">
     <g id="line2d_28">
      <g>
       <use style="stroke:#000000;stroke-width:0.8;" x="245.729545" xlink:href="#m48dda4c9a7" y="31.436735"/>
      </g>
     </g>
     <g id="text_17">
      <!-- 6 -->
      <defs>
       <path d="M 33.015625 40.375 
Q 26.375 40.375 22.484375 35.828125 
Q 18.609375 31.296875 18.609375 23.390625 
Q 18.609375 15.53125 22.484375 10.953125 
Q 26.375 6.390625 33.015625 6.390625 
Q 39.65625 6.390625 43.53125 10.953125 
Q 47.40625 15.53125 47.40625 23.390625 
Q 47.40625 31.296875 43.53125 35.828125 
Q 39.65625 40.375 33.015625 40.375 
z
M 52.59375 71.296875 
L 52.59375 62.3125 
Q 48.875 64.0625 45.09375 64.984375 
Q 41.3125 65.921875 37.59375 65.921875 
Q 27.828125 65.921875 22.671875 59.328125 
Q 17.53125 52.734375 16.796875 39.40625 
Q 19.671875 43.65625 24.015625 45.921875 
Q 28.375 48.1875 33.59375 48.1875 
Q 44.578125 48.1875 50.953125 41.515625 
Q 57.328125 34.859375 57.328125 23.390625 
Q 57.328125 12.15625 50.6875 5.359375 
Q 44.046875 -1.421875 33.015625 -1.421875 
Q 20.359375 -1.421875 13.671875 8.265625 
Q 6.984375 17.96875 6.984375 36.375 
Q 6.984375 53.65625 15.1875 63.9375 
Q 23.390625 74.21875 37.203125 74.21875 
Q 40.921875 74.21875 44.703125 73.484375 
Q 48.484375 72.75 52.59375 71.296875 
z
" id="DejaVuSans-36"/>
      </defs>
      <g transform="translate(232.367045 35.235953)scale(0.1 -0.1)">
       <use xlink:href="#DejaVuSans-36"/>
      </g>
     </g>
    </g>
   </g>
   <g id="line2d_29">
    <path clip-path="url(#p8cd08bed93)" d="M 254.219779 107.6 
L 254.219779 102.935 
" style="fill:none;stroke:#708090;stroke-linecap:square;"/>
   </g>
   <g id="line2d_30">
    <path clip-path="url(#p8cd08bed93)" d="M 253.546384 107.6 
L 253.546384 102.935 
" style="fill:none;stroke:#708090;stroke-linecap:square;"/>
   </g>
   <g id="line2d_31">
    <path clip-path="url(#p8cd08bed93)" d="M 257.27129 107.6 
L 257.27129 102.935 
" style="fill:none;stroke:#708090;stroke-linecap:square;"/>
   </g>
   <g id="line2d_32">
    <path clip-path="url(#p8cd08bed93)" d="M 255.57513 107.6 
L 255.57513 102.935 
" style="fill:none;stroke:#708090;stroke-linecap:square;"/>
   </g>
   <g id="line2d_33">
    <path clip-path="url(#p8cd08bed93)" d="M 257.581547 107.6 
L 257.581547 102.935 
" style="fill:none;stroke:#708090;stroke-linecap:square;"/>
   </g>
   <g id="line2d_34">
    <path clip-path="url(#p8cd08bed93)" d="M 260.881865 107.6 
L 260.881865 102.935 
" style="fill:none;stroke:#708090;stroke-linecap:square;"/>
   </g>
   <g id="line2d_35">
    <path clip-path="url(#p8cd08bed93)" d="M 259.352397 107.6 
L 259.352397 102.935 
" style="fill:none;stroke:#708090;stroke-linecap:square;"/>
   </g>
   <g id="line2d_36">
    <path clip-path="url(#p8cd08bed93)" d="M 253.879623 107.6 
L 253.879623 102.935 
" style="fill:none;stroke:#708090;stroke-linecap:square;"/>
   </g>
   <g id="line2d_37">
    <path clip-path="url(#p8cd08bed93)" d="M 263.256651 107.6 
L 263.256651 102.935 
" style="fill:none;stroke:#708090;stroke-linecap:square;"/>
   </g>
   <g id="line2d_38">
    <path clip-path="url(#p8cd08bed93)" d="M 263.106592 107.6 
L 263.106592 102.935 
" style="fill:none;stroke:#708090;stroke-linecap:square;"/>
   </g>
   <g id="line2d_39">
    <path clip-path="url(#p8cd08bed93)" d="M 264.12911 107.6 
L 264.12911 102.935 
" style="fill:none;stroke:#708090;stroke-linecap:square;"/>
   </g>
   <g id="line2d_40">
    <path clip-path="url(#p8cd08bed93)" d="M 270.285498 107.6 
L 270.285498 102.935 
" style="fill:none;stroke:#708090;stroke-linecap:square;"/>
   </g>
   <g id="line2d_41">
    <path clip-path="url(#p8cd08bed93)" d="M 409.883161 107.6 
L 409.883161 102.935 
" style="fill:none;stroke:#708090;stroke-linecap:square;"/>
   </g>
   <g id="line2d_42">
    <path clip-path="url(#p8cd08bed93)" d="M 275.98545 107.6 
L 275.98545 102.935 
" style="fill:none;stroke:#708090;stroke-linecap:square;"/>
   </g>
   <g id="patch_42">
    <path d="M 245.729545 107.6 
L 245.729545 14.3 
" style="fill:none;stroke:#000000;stroke-linecap:square;stroke-linejoin:miter;stroke-width:0.8;"/>
   </g>
   <g id="patch_43">
    <path d="M 417.7 107.6 
L 417.7 14.3 
" style="fill:none;stroke:#000000;stroke-linecap:square;stroke-linejoin:miter;stroke-width:0.8;"/>
   </g>
   <g id="patch_44">
    <path d="M 245.729545 107.6 
L 417.7 107.6 
" style="fill:none;stroke:#000000;stroke-linecap:square;stroke-linejoin:miter;stroke-width:0.8;"/>
   </g>
   <g id="patch_45">
    <path d="M 245.729545 14.3 
L 417.7 14.3 
" style="fill:none;stroke:#000000;stroke-linecap:square;stroke-linejoin:miter;stroke-width:0.8;"/>
   </g>
  </g>
  <g id="axes_3">
   <g id="patch_46">
    <path d="M 33.8 246.2 
L 205.770455 246.2 
L 205.770455 152.9 
L 33.8 152.9 
z
" style="fill:#ffffff;"/>
   </g>
   <g id="patch_47">
    <path clip-path="url(#p5123bb00df)" d="M 41.616839 246.2 
L 80.701033 246.2 
L 80.701033 157.342857 
L 41.616839 157.342857 
z
" style="fill:#008000;opacity:0.4;"/>
   </g>
   <g id="patch_48">
    <path clip-path="url(#p5123bb00df)" d="M 80.701033 246.2 
L 119.785227 246.2 
L 119.785227 182.730612 
L 80.701033 182.730612 
z
" style="fill:#008000;opacity:0.4;"/>
   </g>
   <g id="patch_49">
    <path clip-path="url(#p5123bb00df)" d="M 119.785227 246.2 
L 158.869421 246.2 
L 158.869421 246.2 
L 119.785227 246.2 
z
" style="fill:#008000;opacity:0.4;"/>
   </g>
   <g id="patch_50">
    <path clip-path="url(#p5123bb00df)" d="M 158.869421 246.2 
L 197.953616 246.2 
L 197.953616 220.812245 
L 158.869421 220.812245 
z
" style="fill:#008000;opacity:0.4;"/>
   </g>
   <g id="matplotlib.axis_5">
    <g id="xtick_7">
     <g id="line2d_43">
      <g>
       <use style="stroke:#000000;stroke-width:0.8;" x="70.937981" xlink:href="#m82e7d4978d" y="246.2"/>
      </g>
     </g>
     <g id="text_18">
      <!-- 20 -->
      <g transform="translate(64.575481 260.798438)scale(0.1 -0.1)">
       <use xlink:href="#DejaVuSans-32"/>
       <use x="63.623047" xlink:href="#DejaVuSans-30"/>
      </g>
     </g>
    </g>
    <g id="xtick_8">
     <g id="line2d_44">
      <g>
       <use style="stroke:#000000;stroke-width:0.8;" x="118.880395" xlink:href="#m82e7d4978d" y="246.2"/>
      </g>
     </g>
     <g id="text_19">
      <!-- 40 -->
      <g transform="translate(112.517895 260.798438)scale(0.1 -0.1)">
       <use xlink:href="#DejaVuSans-34"/>
       <use x="63.623047" xlink:href="#DejaVuSans-30"/>
      </g>
     </g>
    </g>
    <g id="xtick_9">
     <g id="line2d_45">
      <g>
       <use style="stroke:#000000;stroke-width:0.8;" x="166.822808" xlink:href="#m82e7d4978d" y="246.2"/>
      </g>
     </g>
     <g id="text_20">
      <!-- 60 -->
      <g transform="translate(160.460308 260.798438)scale(0.1 -0.1)">
       <use xlink:href="#DejaVuSans-36"/>
       <use x="63.623047" xlink:href="#DejaVuSans-30"/>
      </g>
     </g>
    </g>
    <g id="text_21">
     <!-- Exports -->
     <defs>
      <path d="M 9.8125 72.90625 
L 55.90625 72.90625 
L 55.90625 64.59375 
L 19.671875 64.59375 
L 19.671875 43.015625 
L 54.390625 43.015625 
L 54.390625 34.71875 
L 19.671875 34.71875 
L 19.671875 8.296875 
L 56.78125 8.296875 
L 56.78125 0 
L 9.8125 0 
z
" id="DejaVuSans-45"/>
      <path d="M 54.890625 54.6875 
L 35.109375 28.078125 
L 55.90625 0 
L 45.3125 0 
L 29.390625 21.484375 
L 13.484375 0 
L 2.875 0 
L 24.125 28.609375 
L 4.6875 54.6875 
L 15.28125 54.6875 
L 29.78125 35.203125 
L 44.28125 54.6875 
z
" id="DejaVuSans-78"/>
     </defs>
     <g transform="translate(100.812571 274.476562)scale(0.1 -0.1)">
      <use xlink:href="#DejaVuSans-45"/>
      <use x="63.183594" xlink:href="#DejaVuSans-78"/>
      <use x="122.363281" xlink:href="#DejaVuSans-70"/>
      <use x="185.839844" xlink:href="#DejaVuSans-6f"/>
      <use x="247.021484" xlink:href="#DejaVuSans-72"/>
      <use x="288.134766" xlink:href="#DejaVuSans-74"/>
      <use x="327.34375" xlink:href="#DejaVuSans-73"/>
     </g>
    </g>
   </g>
   <g id="matplotlib.axis_6">
    <g id="ytick_9">
     <g id="line2d_46">
      <g>
       <use style="stroke:#000000;stroke-width:0.8;" x="33.8" xlink:href="#m48dda4c9a7" y="246.2"/>
      </g>
     </g>
     <g id="text_22">
      <!-- 0 -->
      <g transform="translate(20.4375 249.999219)scale(0.1 -0.1)">
       <use xlink:href="#DejaVuSans-30"/>
      </g>
     </g>
    </g>
    <g id="ytick_10">
     <g id="line2d_47">
      <g>
       <use style="stroke:#000000;stroke-width:0.8;" x="33.8" xlink:href="#m48dda4c9a7" y="220.812245"/>
      </g>
     </g>
     <g id="text_23">
      <!-- 2 -->
      <g transform="translate(20.4375 224.611464)scale(0.1 -0.1)">
       <use xlink:href="#DejaVuSans-32"/>
      </g>
     </g>
    </g>
    <g id="ytick_11">
     <g id="line2d_48">
      <g>
       <use style="stroke:#000000;stroke-width:0.8;" x="33.8" xlink:href="#m48dda4c9a7" y="195.42449"/>
      </g>
     </g>
     <g id="text_24">
      <!-- 4 -->
      <g transform="translate(20.4375 199.223709)scale(0.1 -0.1)">
       <use xlink:href="#DejaVuSans-34"/>
      </g>
     </g>
    </g>
    <g id="ytick_12">
     <g id="line2d_49">
      <g>
       <use style="stroke:#000000;stroke-width:0.8;" x="33.8" xlink:href="#m48dda4c9a7" y="170.036735"/>
      </g>
     </g>
     <g id="text_25">
      <!-- 6 -->
      <g transform="translate(20.4375 173.835953)scale(0.1 -0.1)">
       <use xlink:href="#DejaVuSans-36"/>
      </g>
     </g>
    </g>
   </g>
   <g id="line2d_50">
    <path clip-path="url(#p5123bb00df)" d="M 41.616839 246.2 
L 41.616839 241.535 
" style="fill:none;stroke:#008000;stroke-linecap:square;"/>
   </g>
   <g id="line2d_51">
    <path clip-path="url(#p5123bb00df)" d="M 63.446292 246.2 
L 63.446292 241.535 
" style="fill:none;stroke:#008000;stroke-linecap:square;"/>
   </g>
   <g id="line2d_52">
    <path clip-path="url(#p5123bb00df)" d="M 197.953616 246.2 
L 197.953616 241.535 
" style="fill:none;stroke:#008000;stroke-linecap:square;"/>
   </g>
   <g id="line2d_53">
    <path clip-path="url(#p5123bb00df)" d="M 58.286253 246.2 
L 58.286253 241.535 
" style="fill:none;stroke:#008000;stroke-linecap:square;"/>
   </g>
   <g id="line2d_54">
    <path clip-path="url(#p5123bb00df)" d="M 90.404309 246.2 
L 90.404309 241.535 
" style="fill:none;stroke:#008000;stroke-linecap:square;"/>
   </g>
   <g id="line2d_55">
    <path clip-path="url(#p5123bb00df)" d="M 66.551866 246.2 
L 66.551866 241.535 
" style="fill:none;stroke:#008000;stroke-linecap:square;"/>
   </g>
   <g id="line2d_56">
    <path clip-path="url(#p5123bb00df)" d="M 181.11753 246.2 
L 181.11753 241.535 
" style="fill:none;stroke:#008000;stroke-linecap:square;"/>
   </g>
   <g id="line2d_57">
    <path clip-path="url(#p5123bb00df)" d="M 119.74609 246.2 
L 119.74609 241.535 
" style="fill:none;stroke:#008000;stroke-linecap:square;"/>
   </g>
   <g id="line2d_58">
    <path clip-path="url(#p5123bb00df)" d="M 111.286769 246.2 
L 111.286769 241.535 
" style="fill:none;stroke:#008000;stroke-linecap:square;"/>
   </g>
   <g id="line2d_59">
    <path clip-path="url(#p5123bb00df)" d="M 110.871215 246.2 
L 110.871215 241.535 
" style="fill:none;stroke:#008000;stroke-linecap:square;"/>
   </g>
   <g id="line2d_60">
    <path clip-path="url(#p5123bb00df)" d="M 117.738307 246.2 
L 117.738307 241.535 
" style="fill:none;stroke:#008000;stroke-linecap:square;"/>
   </g>
   <g id="line2d_61">
    <path clip-path="url(#p5123bb00df)" d="M 66.855639 246.2 
L 66.855639 241.535 
" style="fill:none;stroke:#008000;stroke-linecap:square;"/>
   </g>
   <g id="line2d_62">
    <path clip-path="url(#p5123bb00df)" d="M 67.18679 246.2 
L 67.18679 241.535 
" style="fill:none;stroke:#008000;stroke-linecap:square;"/>
   </g>
   <g id="line2d_63">
    <path clip-path="url(#p5123bb00df)" d="M 42.530027 246.2 
L 42.530027 241.535 
" style="fill:none;stroke:#008000;stroke-linecap:square;"/>
   </g>
   <g id="patch_51">
    <path d="M 33.8 246.2 
L 33.8 152.9 
" style="fill:none;stroke:#000000;stroke-linecap:square;stroke-linejoin:miter;stroke-width:0.8;"/>
   </g>
   <g id="patch_52">
    <path d="M 205.770455 246.2 
L 205.770455 152.9 
" style="fill:none;stroke:#000000;stroke-linecap:square;stroke-linejoin:miter;stroke-width:0.8;"/>
   </g>
   <g id="patch_53">
    <path d="M 33.8 246.2 
L 205.770455 246.2 
" style="fill:none;stroke:#000000;stroke-linecap:square;stroke-linejoin:miter;stroke-width:0.8;"/>
   </g>
   <g id="patch_54">
    <path d="M 33.8 152.9 
L 205.770455 152.9 
" style="fill:none;stroke:#000000;stroke-linecap:square;stroke-linejoin:miter;stroke-width:0.8;"/>
   </g>
  </g>
 </g>
 <defs>
  <clipPath id="p802b68da7e">
   <rect height="93.3" width="171.970455" x="33.8" y="14.3"/>
  </clipPath>
  <clipPath id="p8cd08bed93">
   <rect height="93.3" width="171.970455" x="245.729545" y="14.3"/>
  </clipPath>
  <clipPath id="p5123bb00df">
   <rect height="93.3" width="171.970455" x="33.8" y="152.9"/>
  </clipPath>
 </defs>
</svg>
