<?xml version="1.0" encoding="utf-8" standalone="no"?>
<!DOCTYPE svg PUBLIC "-//W3C//DTD SVG 1.1//EN"
  "http://www.w3.org/Graphics/SVG/1.1/DTD/svg11.dtd">
<!-- Created with matplotlib (http://matplotlib.org/) -->
<svg height="360pt" version="1.1" viewBox="0 0 503.125 360" width="503.125pt" xmlns="http://www.w3.org/2000/svg" xmlns:xlink="http://www.w3.org/1999/xlink">
 <defs>
  <style type="text/css">
*{stroke-linecap:butt;stroke-linejoin:round;}
  </style>
 </defs>
 <g id="figure_1">
  <g id="patch_1">
   <path d="M 0 360 
L 503.125 360 
L 503.125 0 
L 0 0 
z
" style="fill:#ffffff;"/>
  </g>
  <g id="axes_1">
   <g id="patch_2">
    <path d="M 67.895671 317.29375 
L 354.96875 317.29375 
L 354.96875 14.8 
L 67.895671 14.8 
z
" style="fill:#ffffff;"/>
   </g>
   <g id="PathCollection_1">
    <defs>
     <path d="M 0 3 
C 0.795609 3 1.55874 2.683901 2.12132 2.12132 
C 2.683901 1.55874 3 0.795609 3 0 
C 3 -0.795609 2.683901 -1.55874 2.12132 -2.12132 
C 1.55874 -2.683901 0.795609 -3 0 -3 
C -0.795609 -3 -1.55874 -2.683901 -2.12132 -2.12132 
C -2.683901 -1.55874 -3 -0.795609 -3 0 
C -3 0.795609 -2.683901 1.55874 -2.12132 2.12132 
C -1.55874 2.683901 -0.795609 3 0 3 
z
" id="m24dfe30bca" style="stroke:#1f77b4;stroke-opacity:0.8;"/>
    </defs>
    <g clip-path="url(#p69fc823d13)">
     <use style="fill:#1f77b4;fill-opacity:0.8;stroke:#1f77b4;stroke-opacity:0.8;" x="81.063487" xlink:href="#m24dfe30bca" y="200.5956"/>
     <use style="fill:#1f77b4;fill-opacity:0.8;stroke:#1f77b4;stroke-opacity:0.8;" x="232.365761" xlink:href="#m24dfe30bca" y="180.052657"/>
     <use style="fill:#1f77b4;fill-opacity:0.8;stroke:#1f77b4;stroke-opacity:0.8;" x="341.800933" xlink:href="#m24dfe30bca" y="138.584164"/>
     <use style="fill:#1f77b4;fill-opacity:0.8;stroke:#1f77b4;stroke-opacity:0.8;" x="143.358961" xlink:href="#m24dfe30bca" y="203.538716"/>
     <use style="fill:#1f77b4;fill-opacity:0.8;stroke:#1f77b4;stroke-opacity:0.8;" x="286.113611" xlink:href="#m24dfe30bca" y="165.373872"/>
     <use style="fill:#1f77b4;fill-opacity:0.8;stroke:#1f77b4;stroke-opacity:0.8;" x="131.443384" xlink:href="#m24dfe30bca" y="198.108669"/>
    </g>
   </g>
   <g id="PolyCollection_1">
    <path clip-path="url(#p69fc823d13)" d="M 67.895671 203.603223 
L 67.895671 232.146123 
L 70.795399 231.176065 
L 73.695127 230.206008 
L 76.594855 229.23595 
L 79.494583 228.265893 
L 82.394311 227.295835 
L 85.294039 226.325778 
L 88.193767 225.35572 
L 91.093495 224.385663 
L 93.993223 223.415605 
L 96.892951 222.445548 
L 99.792679 221.47549 
L 102.692407 220.528194 
L 105.592136 219.581051 
L 108.491864 218.633907 
L 111.391592 217.686764 
L 114.29132 216.73962 
L 117.191048 215.792477 
L 120.090776 214.845334 
L 122.990504 213.89819 
L 125.890232 212.951047 
L 128.78996 212.003903 
L 131.689688 211.05676 
L 134.589416 210.109617 
L 137.489144 209.162473 
L 140.388872 208.21533 
L 143.288601 207.268187 
L 146.188329 206.321043 
L 149.088057 205.3739 
L 151.987785 204.426756 
L 154.887513 203.479613 
L 157.787241 202.53247 
L 160.686969 201.694125 
L 163.586697 201.588954 
L 166.486425 201.643208 
L 169.386153 201.697462 
L 172.285881 201.751716 
L 175.185609 201.460187 
L 178.085337 200.622993 
L 180.985065 199.525657 
L 183.884794 198.621849 
L 186.784522 197.58038 
L 189.68425 196.538911 
L 192.583978 195.497441 
L 195.483706 194.455972 
L 198.383434 193.414502 
L 201.283162 192.373033 
L 204.18289 191.331564 
L 207.082618 190.290094 
L 209.982346 189.615526 
L 212.882074 188.707739 
L 215.781802 187.941838 
L 218.68153 187.179341 
L 221.581259 186.085822 
L 224.480987 185.581557 
L 227.380715 185.159328 
L 230.280443 184.704638 
L 233.180171 183.914353 
L 236.079899 183.539147 
L 238.979627 183.16394 
L 241.879355 182.788733 
L 244.779083 182.413527 
L 247.678811 182.037478 
L 250.578539 181.66059 
L 253.478267 181.281764 
L 256.377995 180.906038 
L 259.277724 180.515192 
L 262.177452 180.094125 
L 265.07718 179.673058 
L 267.976908 179.251992 
L 270.876636 178.830925 
L 273.776364 178.409858 
L 276.676092 177.988791 
L 279.57582 177.567724 
L 282.475548 177.146658 
L 285.375276 176.725591 
L 288.275004 176.304524 
L 291.174732 175.883457 
L 294.07446 175.46239 
L 296.974188 175.041324 
L 299.873917 174.620257 
L 302.773645 174.19919 
L 305.673373 173.778123 
L 308.573101 173.356569 
L 311.472829 172.934158 
L 314.372557 172.511747 
L 317.272285 172.089336 
L 320.172013 171.666926 
L 323.071741 171.244515 
L 325.971469 170.822104 
L 328.871197 170.399693 
L 331.770925 169.977282 
L 334.670653 169.554871 
L 337.570382 169.13246 
L 340.47011 168.710049 
L 343.369838 168.287638 
L 346.269566 167.865227 
L 349.169294 167.442816 
L 352.069022 167.020405 
L 354.96875 166.597994 
L 354.96875 135.509433 
L 354.96875 135.509433 
L 352.069022 136.549153 
L 349.169294 137.537396 
L 346.269566 138.32082 
L 343.369838 139.151455 
L 340.47011 140.006484 
L 337.570382 140.993239 
L 334.670653 141.957869 
L 331.770925 142.740791 
L 328.871197 143.522106 
L 325.971469 144.377394 
L 323.071741 145.233925 
L 320.172013 145.975248 
L 317.272285 146.741536 
L 314.372557 147.554381 
L 311.472829 148.310048 
L 308.573101 149.002044 
L 305.673373 149.779245 
L 302.773645 150.49907 
L 299.873917 151.169672 
L 296.974188 151.970959 
L 294.07446 152.829482 
L 291.174732 153.688005 
L 288.275004 154.471548 
L 285.375276 155.253598 
L 282.475548 155.965762 
L 279.57582 156.61878 
L 276.676092 157.271798 
L 273.776364 157.924816 
L 270.876636 158.680579 
L 267.976908 159.46163 
L 265.07718 160.147077 
L 262.177452 160.830174 
L 259.277724 161.513271 
L 256.377995 162.195107 
L 253.478267 162.876758 
L 250.578539 163.558408 
L 247.678811 164.309315 
L 244.779083 165.071665 
L 241.879355 165.834016 
L 238.979627 166.596366 
L 236.079899 167.358717 
L 233.180171 168.121067 
L 230.280443 168.883418 
L 227.380715 169.624869 
L 224.480987 170.35816 
L 221.581259 171.039854 
L 218.68153 171.721549 
L 215.781802 172.403243 
L 212.882074 173.084938 
L 209.982346 173.766632 
L 207.082618 174.448326 
L 204.18289 175.130021 
L 201.283162 175.811715 
L 198.383434 176.529909 
L 195.483706 177.171577 
L 192.583978 177.85029 
L 189.68425 178.529003 
L 186.784522 179.207717 
L 183.884794 179.88643 
L 180.985065 180.566987 
L 178.085337 181.248132 
L 175.185609 181.929277 
L 172.285881 182.635567 
L 169.386153 183.369739 
L 166.486425 184.102272 
L 163.586697 184.741255 
L 160.686969 185.377822 
L 157.787241 186.014388 
L 154.887513 186.649995 
L 151.987785 187.285454 
L 149.088057 187.920912 
L 146.188329 188.556371 
L 143.288601 189.191829 
L 140.388872 189.827288 
L 137.489144 190.462747 
L 134.589416 191.152865 
L 131.689688 191.782839 
L 128.78996 192.38345 
L 125.890232 193.004581 
L 122.990504 193.627176 
L 120.090776 194.232686 
L 117.191048 194.910957 
L 114.29132 195.546415 
L 111.391592 196.181874 
L 108.491864 196.817333 
L 105.592136 197.441727 
L 102.692407 197.934784 
L 99.792679 198.410159 
L 96.892951 198.888526 
L 93.993223 199.473121 
L 91.093495 199.836283 
L 88.193767 200.310851 
L 85.294039 200.787033 
L 82.394311 201.260181 
L 79.494583 201.737783 
L 76.594855 202.213158 
L 73.695127 202.688533 
L 70.795399 203.163908 
L 67.895671 203.603223 
z
" style="fill:#1f77b4;fill-opacity:0.15;"/>
   </g>
   <g id="PathCollection_2">
    <defs>
     <path d="M 0 3 
C 0.795609 3 1.55874 2.683901 2.12132 2.12132 
C 2.683901 1.55874 3 0.795609 3 0 
C 3 -0.795609 2.683901 -1.55874 2.12132 -2.12132 
C 1.55874 -2.683901 0.795609 -3 0 -3 
C -0.795609 -3 -1.55874 -2.683901 -2.12132 -2.12132 
C -2.683901 -1.55874 -3 -0.795609 -3 0 
C -3 0.795609 -2.683901 1.55874 -2.12132 2.12132 
C -1.55874 2.683901 -0.795609 3 0 3 
z
" id="m697a2367a0" style="stroke:#ff7f0e;stroke-opacity:0.8;"/>
    </defs>
    <g clip-path="url(#p69fc823d13)">
     <use style="fill:#ff7f0e;fill-opacity:0.8;stroke:#ff7f0e;stroke-opacity:0.8;" x="147.121779" xlink:href="#m697a2367a0" y="171.716285"/>
    </g>
   </g>
   <g id="PolyCollection_2">
    <path clip-path="url(#p69fc823d13)" d="M 67.895671 204.714633 
L 67.895671 204.714633 
L 70.795399 203.506871 
L 73.695127 202.29911 
L 76.594855 201.091348 
L 79.494583 199.883587 
L 82.394311 198.675826 
L 85.294039 197.468064 
L 88.193767 196.260303 
L 91.093495 195.052541 
L 93.993223 193.84478 
L 96.892951 192.637019 
L 99.792679 191.429257 
L 102.692407 190.221496 
L 105.592136 189.013734 
L 108.491864 187.805973 
L 111.391592 186.598212 
L 114.29132 185.39045 
L 117.191048 184.182689 
L 120.090776 182.974927 
L 122.990504 181.767166 
L 125.890232 180.559405 
L 128.78996 179.351643 
L 131.689688 178.143882 
L 134.589416 176.93612 
L 137.489144 175.728359 
L 140.388872 174.520597 
L 143.288601 173.312836 
L 146.188329 172.105075 
L 149.088057 170.897313 
L 151.987785 169.689552 
L 154.887513 168.48179 
L 157.787241 167.274029 
L 160.686969 166.066268 
L 163.586697 164.858506 
L 166.486425 163.650745 
L 169.386153 162.442983 
L 172.285881 161.235222 
L 175.185609 160.027461 
L 178.085337 158.819699 
L 180.985065 157.611938 
L 183.884794 156.404176 
L 186.784522 155.196415 
L 189.68425 153.988653 
L 192.583978 152.780892 
L 195.483706 151.573131 
L 198.383434 150.365369 
L 201.283162 149.157608 
L 204.18289 147.949846 
L 207.082618 146.742085 
L 209.982346 145.534324 
L 212.882074 144.326562 
L 215.781802 143.118801 
L 218.68153 141.911039 
L 221.581259 140.703278 
L 224.480987 139.495517 
L 227.380715 138.287755 
L 230.280443 137.079994 
L 233.180171 135.872232 
L 236.079899 134.664471 
L 238.979627 133.456709 
L 241.879355 132.248948 
L 244.779083 131.041187 
L 247.678811 129.833425 
L 250.578539 128.625664 
L 253.478267 127.417902 
L 256.377995 126.210141 
L 259.277724 125.00238 
L 262.177452 123.794618 
L 265.07718 122.586857 
L 267.976908 121.379095 
L 270.876636 120.171334 
L 273.776364 118.963573 
L 276.676092 117.755811 
L 279.57582 116.54805 
L 282.475548 115.340288 
L 285.375276 114.132527 
L 288.275004 112.924766 
L 291.174732 111.717004 
L 294.07446 110.509243 
L 296.974188 109.301481 
L 299.873917 108.09372 
L 302.773645 106.885958 
L 305.673373 105.678197 
L 308.573101 104.470436 
L 311.472829 103.262674 
L 314.372557 102.054913 
L 317.272285 100.847151 
L 320.172013 99.63939 
L 323.071741 98.431629 
L 325.971469 97.223867 
L 328.871197 96.016106 
L 331.770925 94.808344 
L 334.670653 93.600583 
L 337.570382 92.392822 
L 340.47011 91.18506 
L 343.369838 89.977299 
L 346.269566 88.769537 
L 349.169294 87.561776 
L 352.069022 86.354014 
L 354.96875 85.146253 
L 354.96875 85.146253 
L 354.96875 85.146253 
L 352.069022 86.354014 
L 349.169294 87.561776 
L 346.269566 88.769537 
L 343.369838 89.977299 
L 340.47011 91.18506 
L 337.570382 92.392822 
L 334.670653 93.600583 
L 331.770925 94.808344 
L 328.871197 96.016106 
L 325.971469 97.223867 
L 323.071741 98.431629 
L 320.172013 99.63939 
L 317.272285 100.847151 
L 314.372557 102.054913 
L 311.472829 103.262674 
L 308.573101 104.470436 
L 305.673373 105.678197 
L 302.773645 106.885958 
L 299.873917 108.09372 
L 296.974188 109.301481 
L 294.07446 110.509243 
L 291.174732 111.717004 
L 288.275004 112.924766 
L 285.375276 114.132527 
L 282.475548 115.340288 
L 279.57582 116.54805 
L 276.676092 117.755811 
L 273.776364 118.963573 
L 270.876636 120.171334 
L 267.976908 121.379095 
L 265.07718 122.586857 
L 262.177452 123.794618 
L 259.277724 125.00238 
L 256.377995 126.210141 
L 253.478267 127.417902 
L 250.578539 128.625664 
L 247.678811 129.833425 
L 244.779083 131.041187 
L 241.879355 132.248948 
L 238.979627 133.456709 
L 236.079899 134.664471 
L 233.180171 135.872232 
L 230.280443 137.079994 
L 227.380715 138.287755 
L 224.480987 139.495517 
L 221.581259 140.703278 
L 218.68153 141.911039 
L 215.781802 143.118801 
L 212.882074 144.326562 
L 209.982346 145.534324 
L 207.082618 146.742085 
L 204.18289 147.949846 
L 201.283162 149.157608 
L 198.383434 150.365369 
L 195.483706 151.573131 
L 192.583978 152.780892 
L 189.68425 153.988653 
L 186.784522 155.196415 
L 183.884794 156.404176 
L 180.985065 157.611938 
L 178.085337 158.819699 
L 175.185609 160.027461 
L 172.285881 161.235222 
L 169.386153 162.442983 
L 166.486425 163.650745 
L 163.586697 164.858506 
L 160.686969 166.066268 
L 157.787241 167.274029 
L 154.887513 168.48179 
L 151.987785 169.689552 
L 149.088057 170.897313 
L 146.188329 172.105075 
L 143.288601 173.312836 
L 140.388872 174.520597 
L 137.489144 175.728359 
L 134.589416 176.93612 
L 131.689688 178.143882 
L 128.78996 179.351643 
L 125.890232 180.559405 
L 122.990504 181.767166 
L 120.090776 182.974927 
L 117.191048 184.182689 
L 114.29132 185.39045 
L 111.391592 186.598212 
L 108.491864 187.805973 
L 105.592136 189.013734 
L 102.692407 190.221496 
L 99.792679 191.429257 
L 96.892951 192.637019 
L 93.993223 193.84478 
L 91.093495 195.052541 
L 88.193767 196.260303 
L 85.294039 197.468064 
L 82.394311 198.675826 
L 79.494583 199.883587 
L 76.594855 201.091348 
L 73.695127 202.29911 
L 70.795399 203.506871 
L 67.895671 204.714633 
z
" style="fill:#ff7f0e;fill-opacity:0.15;"/>
   </g>
   <g id="PathCollection_3">
    <defs>
     <path d="M 0 3 
C 0.795609 3 1.55874 2.683901 2.12132 2.12132 
C 2.683901 1.55874 3 0.795609 3 0 
C 3 -0.795609 2.683901 -1.55874 2.12132 -2.12132 
C 1.55874 -2.683901 0.795609 -3 0 -3 
C -0.795609 -3 -1.55874 -2.683901 -2.12132 -2.12132 
C -2.683901 -1.55874 -3 -0.795609 -3 0 
C -3 0.795609 -2.683901 1.55874 -2.12132 2.12132 
C -1.55874 2.683901 -0.795609 3 0 3 
z
" id="me7a19932e2" style="stroke:#2ca02c;stroke-opacity:0.8;"/>
    </defs>
    <g clip-path="url(#p69fc823d13)">
     <use style="fill:#2ca02c;fill-opacity:0.8;stroke:#2ca02c;stroke-opacity:0.8;" x="131.861472" xlink:href="#me7a19932e2" y="136.008943"/>
     <use style="fill:#2ca02c;fill-opacity:0.8;stroke:#2ca02c;stroke-opacity:0.8;" x="193.193021" xlink:href="#me7a19932e2" y="184.864651"/>
     <use style="fill:#2ca02c;fill-opacity:0.8;stroke:#2ca02c;stroke-opacity:0.8;" x="120.979509" xlink:href="#me7a19932e2" y="191.928128"/>
     <use style="fill:#2ca02c;fill-opacity:0.8;stroke:#2ca02c;stroke-opacity:0.8;" x="215.293744" xlink:href="#me7a19932e2" y="196.225075"/>
     <use style="fill:#2ca02c;fill-opacity:0.8;stroke:#2ca02c;stroke-opacity:0.8;" x="224.526575" xlink:href="#me7a19932e2" y="126.304019"/>
     <use style="fill:#2ca02c;fill-opacity:0.8;stroke:#2ca02c;stroke-opacity:0.8;" x="191.543884" xlink:href="#me7a19932e2" y="178.595816"/>
     <use style="fill:#2ca02c;fill-opacity:0.8;stroke:#2ca02c;stroke-opacity:0.8;" x="270.191331" xlink:href="#me7a19932e2" y="118.350248"/>
    </g>
   </g>
   <g id="PolyCollection_3">
    <path clip-path="url(#p69fc823d13)" d="M 67.895671 118.556134 
L 67.895671 303.544034 
L 70.795399 300.821063 
L 73.695127 297.949741 
L 76.594855 295.078419 
L 79.494583 292.207098 
L 82.394311 289.335776 
L 85.294039 286.87342 
L 88.193767 284.460979 
L 91.093495 282.044083 
L 93.993223 279.627187 
L 96.892951 277.210291 
L 99.792679 274.57928 
L 102.692407 271.819001 
L 105.592136 268.978055 
L 108.491864 266.31114 
L 111.391592 263.563866 
L 114.29132 260.816592 
L 117.191048 258.069318 
L 120.090776 255.316317 
L 122.990504 252.559676 
L 125.890232 249.803036 
L 128.78996 247.046395 
L 131.689688 244.289754 
L 134.589416 241.533113 
L 137.489144 238.776472 
L 140.388872 236.019831 
L 143.288601 233.437547 
L 146.188329 230.967399 
L 149.088057 228.497251 
L 151.987785 226.027102 
L 154.887513 223.556954 
L 157.787241 221.086806 
L 160.686969 218.616657 
L 163.586697 216.144956 
L 166.486425 213.476184 
L 169.386153 210.462072 
L 172.285881 207.432682 
L 175.185609 204.777799 
L 178.085337 202.386132 
L 180.985065 200.304177 
L 183.884794 196.978588 
L 186.784522 194.083064 
L 189.68425 191.893854 
L 192.583978 190.821618 
L 195.483706 189.128566 
L 198.383434 188.675925 
L 201.283162 188.516125 
L 204.18289 189.829973 
L 207.082618 190.96645 
L 209.982346 192.268256 
L 212.882074 193.485961 
L 215.781802 194.228665 
L 218.68153 194.905898 
L 221.581259 196.15524 
L 224.480987 197.39741 
L 227.380715 198.63958 
L 230.280443 199.769349 
L 233.180171 200.980089 
L 236.079899 202.362214 
L 238.979627 203.635945 
L 241.879355 205.027291 
L 244.779083 206.476864 
L 247.678811 207.903772 
L 250.578539 209.289299 
L 253.478267 210.674826 
L 256.377995 212.060353 
L 259.277724 213.445879 
L 262.177452 214.831406 
L 265.07718 216.216933 
L 267.976908 217.60246 
L 270.876636 218.939062 
L 273.776364 220.214489 
L 276.676092 221.489917 
L 279.57582 222.765345 
L 282.475548 224.040773 
L 285.375276 225.3162 
L 288.275004 226.591628 
L 291.174732 227.867056 
L 294.07446 229.142484 
L 296.974188 230.417911 
L 299.873917 231.693339 
L 302.773645 232.968767 
L 305.673373 234.244195 
L 308.573101 235.519622 
L 311.472829 236.79505 
L 314.372557 238.070478 
L 317.272285 239.345906 
L 320.172013 240.621333 
L 323.071741 241.896761 
L 325.971469 243.213945 
L 328.871197 244.564848 
L 331.770925 245.915751 
L 334.670653 247.266654 
L 337.570382 248.617557 
L 340.47011 249.968461 
L 343.369838 251.319364 
L 346.269566 252.670267 
L 349.169294 254.02117 
L 352.069022 255.372073 
L 354.96875 256.722976 
L 354.96875 28.549716 
L 354.96875 28.549716 
L 352.069022 31.280489 
L 349.169294 34.011262 
L 346.269566 36.742035 
L 343.369838 39.472808 
L 340.47011 42.203581 
L 337.570382 44.934354 
L 334.670653 47.665127 
L 331.770925 50.396798 
L 328.871197 53.296731 
L 325.971469 56.092906 
L 323.071741 58.676268 
L 320.172013 61.318992 
L 317.272285 64.049765 
L 314.372557 66.780538 
L 311.472829 69.511311 
L 308.573101 72.242084 
L 305.673373 74.970444 
L 302.773645 77.685965 
L 299.873917 80.417985 
L 296.974188 83.150005 
L 294.07446 85.338663 
L 291.174732 88.113251 
L 288.275004 91.060237 
L 285.375276 94.078083 
L 282.475548 96.810103 
L 279.57582 99.542123 
L 276.676092 102.015459 
L 273.776364 103.827736 
L 270.876636 105.165154 
L 267.976908 107.732512 
L 265.07718 111.622947 
L 262.177452 113.312211 
L 259.277724 115.19791 
L 256.377995 117.315325 
L 253.478267 118.902019 
L 250.578539 120.988066 
L 247.678811 121.888032 
L 244.779083 122.694687 
L 241.879355 123.496328 
L 238.979627 124.43338 
L 236.079899 126.030096 
L 233.180171 127.684722 
L 230.280443 128.687609 
L 227.380715 130.572057 
L 224.480987 131.005945 
L 221.581259 131.696271 
L 218.68153 133.381041 
L 215.781802 133.747541 
L 212.882074 134.704933 
L 209.982346 135.70782 
L 207.082618 136.710707 
L 204.18289 137.711665 
L 201.283162 138.492614 
L 198.383434 138.878904 
L 195.483706 139.72076 
L 192.583978 140.543991 
L 189.68425 141.032793 
L 186.784522 141.521596 
L 183.884794 142.026051 
L 180.985065 142.499202 
L 178.085337 142.752478 
L 175.185609 142.526623 
L 172.285881 143.303039 
L 169.386153 144.092676 
L 166.486425 144.924105 
L 163.586697 145.406931 
L 160.686969 145.852608 
L 157.787241 146.643799 
L 154.887513 147.254418 
L 151.987785 147.439617 
L 149.088057 147.327066 
L 146.188329 146.319354 
L 143.288601 144.758457 
L 140.388872 143.063719 
L 137.489144 142.235304 
L 134.589416 141.624771 
L 131.689688 141.179343 
L 128.78996 140.688636 
L 125.890232 139.919332 
L 122.990504 138.921054 
L 120.090776 138.028023 
L 117.191048 137.924664 
L 114.29132 138.250319 
L 111.391592 137.172853 
L 108.491864 135.805061 
L 105.592136 134.547511 
L 102.692407 133.716618 
L 99.792679 133.345877 
L 96.892951 132.422236 
L 93.993223 130.975981 
L 91.093495 129.529726 
L 88.193767 128.083471 
L 85.294039 126.637216 
L 82.394311 125.190961 
L 79.494583 123.744706 
L 76.594855 122.298451 
L 73.695127 120.852196 
L 70.795399 119.589768 
L 67.895671 118.556134 
z
" style="fill:#2ca02c;fill-opacity:0.15;"/>
   </g>
   <g id="matplotlib.axis_1">
    <g id="xtick_1">
     <g id="line2d_1">
      <defs>
       <path d="M 0 0 
L 0 3.5 
" id="mb96e3570c6" style="stroke:#000000;stroke-width:0.8;"/>
      </defs>
      <g>
       <use style="stroke:#000000;stroke-width:0.8;" x="109.528477" xlink:href="#mb96e3570c6" y="317.29375"/>
      </g>
     </g>
     <g id="text_1">
      <!-- 5 -->
      <defs>
       <path d="M 10.796875 72.90625 
L 49.515625 72.90625 
L 49.515625 64.59375 
L 19.828125 64.59375 
L 19.828125 46.734375 
Q 21.96875 47.46875 24.109375 47.828125 
Q 26.265625 48.1875 28.421875 48.1875 
Q 40.625 48.1875 47.75 41.5 
Q 54.890625 34.8125 54.890625 23.390625 
Q 54.890625 11.625 47.5625 5.09375 
Q 40.234375 -1.421875 26.90625 -1.421875 
Q 22.3125 -1.421875 17.546875 -0.640625 
Q 12.796875 0.140625 7.71875 1.703125 
L 7.71875 11.625 
Q 12.109375 9.234375 16.796875 8.0625 
Q 21.484375 6.890625 26.703125 6.890625 
Q 35.15625 6.890625 40.078125 11.328125 
Q 45.015625 15.765625 45.015625 23.390625 
Q 45.015625 31 40.078125 35.4375 
Q 35.15625 39.890625 26.703125 39.890625 
Q 22.75 39.890625 18.8125 39.015625 
Q 14.890625 38.140625 10.796875 36.28125 
z
" id="DejaVuSans-35"/>
      </defs>
      <g transform="translate(106.347227 331.892187)scale(0.1 -0.1)">
       <use xlink:href="#DejaVuSans-35"/>
      </g>
     </g>
    </g>
    <g id="xtick_2">
     <g id="line2d_2">
      <g>
       <use style="stroke:#000000;stroke-width:0.8;" x="167.596591" xlink:href="#mb96e3570c6" y="317.29375"/>
      </g>
     </g>
     <g id="text_2">
      <!-- 10 -->
      <defs>
       <path d="M 12.40625 8.296875 
L 28.515625 8.296875 
L 28.515625 63.921875 
L 10.984375 60.40625 
L 10.984375 69.390625 
L 28.421875 72.90625 
L 38.28125 72.90625 
L 38.28125 8.296875 
L 54.390625 8.296875 
L 54.390625 0 
L 12.40625 0 
z
" id="DejaVuSans-31"/>
       <path d="M 31.78125 66.40625 
Q 24.171875 66.40625 20.328125 58.90625 
Q 16.5 51.421875 16.5 36.375 
Q 16.5 21.390625 20.328125 13.890625 
Q 24.171875 6.390625 31.78125 6.390625 
Q 39.453125 6.390625 43.28125 13.890625 
Q 47.125 21.390625 47.125 36.375 
Q 47.125 51.421875 43.28125 58.90625 
Q 39.453125 66.40625 31.78125 66.40625 
z
M 31.78125 74.21875 
Q 44.046875 74.21875 50.515625 64.515625 
Q 56.984375 54.828125 56.984375 36.375 
Q 56.984375 17.96875 50.515625 8.265625 
Q 44.046875 -1.421875 31.78125 -1.421875 
Q 19.53125 -1.421875 13.0625 8.265625 
Q 6.59375 17.96875 6.59375 36.375 
Q 6.59375 54.828125 13.0625 64.515625 
Q 19.53125 74.21875 31.78125 74.21875 
z
" id="DejaVuSans-30"/>
      </defs>
      <g transform="translate(161.234091 331.892187)scale(0.1 -0.1)">
       <use xlink:href="#DejaVuSans-31"/>
       <use x="63.623047" xlink:href="#DejaVuSans-30"/>
      </g>
     </g>
    </g>
    <g id="xtick_3">
     <g id="line2d_3">
      <g>
       <use style="stroke:#000000;stroke-width:0.8;" x="225.664705" xlink:href="#mb96e3570c6" y="317.29375"/>
      </g>
     </g>
     <g id="text_3">
      <!-- 15 -->
      <g transform="translate(219.302205 331.892187)scale(0.1 -0.1)">
       <use xlink:href="#DejaVuSans-31"/>
       <use x="63.623047" xlink:href="#DejaVuSans-35"/>
      </g>
     </g>
    </g>
    <g id="xtick_4">
     <g id="line2d_4">
      <g>
       <use style="stroke:#000000;stroke-width:0.8;" x="283.732819" xlink:href="#mb96e3570c6" y="317.29375"/>
      </g>
     </g>
     <g id="text_4">
      <!-- 20 -->
      <defs>
       <path d="M 19.1875 8.296875 
L 53.609375 8.296875 
L 53.609375 0 
L 7.328125 0 
L 7.328125 8.296875 
Q 12.9375 14.109375 22.625 23.890625 
Q 32.328125 33.6875 34.8125 36.53125 
Q 39.546875 41.84375 41.421875 45.53125 
Q 43.3125 49.21875 43.3125 52.78125 
Q 43.3125 58.59375 39.234375 62.25 
Q 35.15625 65.921875 28.609375 65.921875 
Q 23.96875 65.921875 18.8125 64.3125 
Q 13.671875 62.703125 7.8125 59.421875 
L 7.8125 69.390625 
Q 13.765625 71.78125 18.9375 73 
Q 24.125 74.21875 28.421875 74.21875 
Q 39.75 74.21875 46.484375 68.546875 
Q 53.21875 62.890625 53.21875 53.421875 
Q 53.21875 48.921875 51.53125 44.890625 
Q 49.859375 40.875 45.40625 35.40625 
Q 44.1875 33.984375 37.640625 27.21875 
Q 31.109375 20.453125 19.1875 8.296875 
z
" id="DejaVuSans-32"/>
      </defs>
      <g transform="translate(277.370319 331.892187)scale(0.1 -0.1)">
       <use xlink:href="#DejaVuSans-32"/>
       <use x="63.623047" xlink:href="#DejaVuSans-30"/>
      </g>
     </g>
    </g>
    <g id="xtick_5">
     <g id="line2d_5">
      <g>
       <use style="stroke:#000000;stroke-width:0.8;" x="341.800933" xlink:href="#mb96e3570c6" y="317.29375"/>
      </g>
     </g>
     <g id="text_5">
      <!-- 25 -->
      <g transform="translate(335.438433 331.892187)scale(0.1 -0.1)">
       <use xlink:href="#DejaVuSans-32"/>
       <use x="63.623047" xlink:href="#DejaVuSans-35"/>
      </g>
     </g>
    </g>
    <g id="text_6">
     <!-- pct_industry_employment -->
     <defs>
      <path d="M 18.109375 8.203125 
L 18.109375 -20.796875 
L 9.078125 -20.796875 
L 9.078125 54.6875 
L 18.109375 54.6875 
L 18.109375 46.390625 
Q 20.953125 51.265625 25.265625 53.625 
Q 29.59375 56 35.59375 56 
Q 45.5625 56 51.78125 48.09375 
Q 58.015625 40.1875 58.015625 27.296875 
Q 58.015625 14.40625 51.78125 6.484375 
Q 45.5625 -1.421875 35.59375 -1.421875 
Q 29.59375 -1.421875 25.265625 0.953125 
Q 20.953125 3.328125 18.109375 8.203125 
z
M 48.6875 27.296875 
Q 48.6875 37.203125 44.609375 42.84375 
Q 40.53125 48.484375 33.40625 48.484375 
Q 26.265625 48.484375 22.1875 42.84375 
Q 18.109375 37.203125 18.109375 27.296875 
Q 18.109375 17.390625 22.1875 11.75 
Q 26.265625 6.109375 33.40625 6.109375 
Q 40.53125 6.109375 44.609375 11.75 
Q 48.6875 17.390625 48.6875 27.296875 
z
" id="DejaVuSans-70"/>
      <path d="M 48.78125 52.59375 
L 48.78125 44.1875 
Q 44.96875 46.296875 41.140625 47.34375 
Q 37.3125 48.390625 33.40625 48.390625 
Q 24.65625 48.390625 19.8125 42.84375 
Q 14.984375 37.3125 14.984375 27.296875 
Q 14.984375 17.28125 19.8125 11.734375 
Q 24.65625 6.203125 33.40625 6.203125 
Q 37.3125 6.203125 41.140625 7.25 
Q 44.96875 8.296875 48.78125 10.40625 
L 48.78125 2.09375 
Q 45.015625 0.34375 40.984375 -0.53125 
Q 36.96875 -1.421875 32.421875 -1.421875 
Q 20.0625 -1.421875 12.78125 6.34375 
Q 5.515625 14.109375 5.515625 27.296875 
Q 5.515625 40.671875 12.859375 48.328125 
Q 20.21875 56 33.015625 56 
Q 37.15625 56 41.109375 55.140625 
Q 45.0625 54.296875 48.78125 52.59375 
z
" id="DejaVuSans-63"/>
      <path d="M 18.3125 70.21875 
L 18.3125 54.6875 
L 36.8125 54.6875 
L 36.8125 47.703125 
L 18.3125 47.703125 
L 18.3125 18.015625 
Q 18.3125 11.328125 20.140625 9.421875 
Q 21.96875 7.515625 27.59375 7.515625 
L 36.8125 7.515625 
L 36.8125 0 
L 27.59375 0 
Q 17.1875 0 13.234375 3.875 
Q 9.28125 7.765625 9.28125 18.015625 
L 9.28125 47.703125 
L 2.6875 47.703125 
L 2.6875 54.6875 
L 9.28125 54.6875 
L 9.28125 70.21875 
z
" id="DejaVuSans-74"/>
      <path d="M 50.984375 -16.609375 
L 50.984375 -23.578125 
L -0.984375 -23.578125 
L -0.984375 -16.609375 
z
" id="DejaVuSans-5f"/>
      <path d="M 9.421875 54.6875 
L 18.40625 54.6875 
L 18.40625 0 
L 9.421875 0 
z
M 9.421875 75.984375 
L 18.40625 75.984375 
L 18.40625 64.59375 
L 9.421875 64.59375 
z
" id="DejaVuSans-69"/>
      <path d="M 54.890625 33.015625 
L 54.890625 0 
L 45.90625 0 
L 45.90625 32.71875 
Q 45.90625 40.484375 42.875 44.328125 
Q 39.84375 48.1875 33.796875 48.1875 
Q 26.515625 48.1875 22.3125 43.546875 
Q 18.109375 38.921875 18.109375 30.90625 
L 18.109375 0 
L 9.078125 0 
L 9.078125 54.6875 
L 18.109375 54.6875 
L 18.109375 46.1875 
Q 21.34375 51.125 25.703125 53.5625 
Q 30.078125 56 35.796875 56 
Q 45.21875 56 50.046875 50.171875 
Q 54.890625 44.34375 54.890625 33.015625 
z
" id="DejaVuSans-6e"/>
      <path d="M 45.40625 46.390625 
L 45.40625 75.984375 
L 54.390625 75.984375 
L 54.390625 0 
L 45.40625 0 
L 45.40625 8.203125 
Q 42.578125 3.328125 38.25 0.953125 
Q 33.9375 -1.421875 27.875 -1.421875 
Q 17.96875 -1.421875 11.734375 6.484375 
Q 5.515625 14.40625 5.515625 27.296875 
Q 5.515625 40.1875 11.734375 48.09375 
Q 17.96875 56 27.875 56 
Q 33.9375 56 38.25 53.625 
Q 42.578125 51.265625 45.40625 46.390625 
z
M 14.796875 27.296875 
Q 14.796875 17.390625 18.875 11.75 
Q 22.953125 6.109375 30.078125 6.109375 
Q 37.203125 6.109375 41.296875 11.75 
Q 45.40625 17.390625 45.40625 27.296875 
Q 45.40625 37.203125 41.296875 42.84375 
Q 37.203125 48.484375 30.078125 48.484375 
Q 22.953125 48.484375 18.875 42.84375 
Q 14.796875 37.203125 14.796875 27.296875 
z
" id="DejaVuSans-64"/>
      <path d="M 8.5 21.578125 
L 8.5 54.6875 
L 17.484375 54.6875 
L 17.484375 21.921875 
Q 17.484375 14.15625 20.5 10.265625 
Q 23.53125 6.390625 29.59375 6.390625 
Q 36.859375 6.390625 41.078125 11.03125 
Q 45.3125 15.671875 45.3125 23.6875 
L 45.3125 54.6875 
L 54.296875 54.6875 
L 54.296875 0 
L 45.3125 0 
L 45.3125 8.40625 
Q 42.046875 3.421875 37.71875 1 
Q 33.40625 -1.421875 27.6875 -1.421875 
Q 18.265625 -1.421875 13.375 4.4375 
Q 8.5 10.296875 8.5 21.578125 
z
M 31.109375 56 
z
" id="DejaVuSans-75"/>
      <path d="M 44.28125 53.078125 
L 44.28125 44.578125 
Q 40.484375 46.53125 36.375 47.5 
Q 32.28125 48.484375 27.875 48.484375 
Q 21.1875 48.484375 17.84375 46.4375 
Q 14.5 44.390625 14.5 40.28125 
Q 14.5 37.15625 16.890625 35.375 
Q 19.28125 33.59375 26.515625 31.984375 
L 29.59375 31.296875 
Q 39.15625 29.25 43.1875 25.515625 
Q 47.21875 21.78125 47.21875 15.09375 
Q 47.21875 7.46875 41.1875 3.015625 
Q 35.15625 -1.421875 24.609375 -1.421875 
Q 20.21875 -1.421875 15.453125 -0.5625 
Q 10.6875 0.296875 5.421875 2 
L 5.421875 11.28125 
Q 10.40625 8.6875 15.234375 7.390625 
Q 20.0625 6.109375 24.8125 6.109375 
Q 31.15625 6.109375 34.5625 8.28125 
Q 37.984375 10.453125 37.984375 14.40625 
Q 37.984375 18.0625 35.515625 20.015625 
Q 33.0625 21.96875 24.703125 23.78125 
L 21.578125 24.515625 
Q 13.234375 26.265625 9.515625 29.90625 
Q 5.8125 33.546875 5.8125 39.890625 
Q 5.8125 47.609375 11.28125 51.796875 
Q 16.75 56 26.8125 56 
Q 31.78125 56 36.171875 55.265625 
Q 40.578125 54.546875 44.28125 53.078125 
z
" id="DejaVuSans-73"/>
      <path d="M 41.109375 46.296875 
Q 39.59375 47.171875 37.8125 47.578125 
Q 36.03125 48 33.890625 48 
Q 26.265625 48 22.1875 43.046875 
Q 18.109375 38.09375 18.109375 28.8125 
L 18.109375 0 
L 9.078125 0 
L 9.078125 54.6875 
L 18.109375 54.6875 
L 18.109375 46.1875 
Q 20.953125 51.171875 25.484375 53.578125 
Q 30.03125 56 36.53125 56 
Q 37.453125 56 38.578125 55.875 
Q 39.703125 55.765625 41.0625 55.515625 
z
" id="DejaVuSans-72"/>
      <path d="M 32.171875 -5.078125 
Q 28.375 -14.84375 24.75 -17.8125 
Q 21.140625 -20.796875 15.09375 -20.796875 
L 7.90625 -20.796875 
L 7.90625 -13.28125 
L 13.1875 -13.28125 
Q 16.890625 -13.28125 18.9375 -11.515625 
Q 21 -9.765625 23.484375 -3.21875 
L 25.09375 0.875 
L 2.984375 54.6875 
L 12.5 54.6875 
L 29.59375 11.921875 
L 46.6875 54.6875 
L 56.203125 54.6875 
z
" id="DejaVuSans-79"/>
      <path d="M 56.203125 29.59375 
L 56.203125 25.203125 
L 14.890625 25.203125 
Q 15.484375 15.921875 20.484375 11.0625 
Q 25.484375 6.203125 34.421875 6.203125 
Q 39.59375 6.203125 44.453125 7.46875 
Q 49.3125 8.734375 54.109375 11.28125 
L 54.109375 2.78125 
Q 49.265625 0.734375 44.1875 -0.34375 
Q 39.109375 -1.421875 33.890625 -1.421875 
Q 20.796875 -1.421875 13.15625 6.1875 
Q 5.515625 13.8125 5.515625 26.8125 
Q 5.515625 40.234375 12.765625 48.109375 
Q 20.015625 56 32.328125 56 
Q 43.359375 56 49.78125 48.890625 
Q 56.203125 41.796875 56.203125 29.59375 
z
M 47.21875 32.234375 
Q 47.125 39.59375 43.09375 43.984375 
Q 39.0625 48.390625 32.421875 48.390625 
Q 24.90625 48.390625 20.390625 44.140625 
Q 15.875 39.890625 15.1875 32.171875 
z
" id="DejaVuSans-65"/>
      <path d="M 52 44.1875 
Q 55.375 50.25 60.0625 53.125 
Q 64.75 56 71.09375 56 
Q 79.640625 56 84.28125 50.015625 
Q 88.921875 44.046875 88.921875 33.015625 
L 88.921875 0 
L 79.890625 0 
L 79.890625 32.71875 
Q 79.890625 40.578125 77.09375 44.375 
Q 74.3125 48.1875 68.609375 48.1875 
Q 61.625 48.1875 57.5625 43.546875 
Q 53.515625 38.921875 53.515625 30.90625 
L 53.515625 0 
L 44.484375 0 
L 44.484375 32.71875 
Q 44.484375 40.625 41.703125 44.40625 
Q 38.921875 48.1875 33.109375 48.1875 
Q 26.21875 48.1875 22.15625 43.53125 
Q 18.109375 38.875 18.109375 30.90625 
L 18.109375 0 
L 9.078125 0 
L 9.078125 54.6875 
L 18.109375 54.6875 
L 18.109375 46.1875 
Q 21.1875 51.21875 25.484375 53.609375 
Q 29.78125 56 35.6875 56 
Q 41.65625 56 45.828125 52.96875 
Q 50 49.953125 52 44.1875 
z
" id="DejaVuSans-6d"/>
      <path d="M 9.421875 75.984375 
L 18.40625 75.984375 
L 18.40625 0 
L 9.421875 0 
z
" id="DejaVuSans-6c"/>
      <path d="M 30.609375 48.390625 
Q 23.390625 48.390625 19.1875 42.75 
Q 14.984375 37.109375 14.984375 27.296875 
Q 14.984375 17.484375 19.15625 11.84375 
Q 23.34375 6.203125 30.609375 6.203125 
Q 37.796875 6.203125 41.984375 11.859375 
Q 46.1875 17.53125 46.1875 27.296875 
Q 46.1875 37.015625 41.984375 42.703125 
Q 37.796875 48.390625 30.609375 48.390625 
z
M 30.609375 56 
Q 42.328125 56 49.015625 48.375 
Q 55.71875 40.765625 55.71875 27.296875 
Q 55.71875 13.875 49.015625 6.21875 
Q 42.328125 -1.421875 30.609375 -1.421875 
Q 18.84375 -1.421875 12.171875 6.21875 
Q 5.515625 13.875 5.515625 27.296875 
Q 5.515625 40.765625 12.171875 48.375 
Q 18.84375 56 30.609375 56 
z
" id="DejaVuSans-6f"/>
     </defs>
     <g transform="translate(146.46346 345.570312)scale(0.1 -0.1)">
      <use xlink:href="#DejaVuSans-70"/>
      <use x="63.476562" xlink:href="#DejaVuSans-63"/>
      <use x="118.457031" xlink:href="#DejaVuSans-74"/>
      <use x="157.666016" xlink:href="#DejaVuSans-5f"/>
      <use x="207.666016" xlink:href="#DejaVuSans-69"/>
      <use x="235.449219" xlink:href="#DejaVuSans-6e"/>
      <use x="298.828125" xlink:href="#DejaVuSans-64"/>
      <use x="362.304688" xlink:href="#DejaVuSans-75"/>
      <use x="425.683594" xlink:href="#DejaVuSans-73"/>
      <use x="477.783203" xlink:href="#DejaVuSans-74"/>
      <use x="516.992188" xlink:href="#DejaVuSans-72"/>
      <use x="558.105469" xlink:href="#DejaVuSans-79"/>
      <use x="617.285156" xlink:href="#DejaVuSans-5f"/>
      <use x="667.285156" xlink:href="#DejaVuSans-65"/>
      <use x="728.808594" xlink:href="#DejaVuSans-6d"/>
      <use x="826.220703" xlink:href="#DejaVuSans-70"/>
      <use x="889.697266" xlink:href="#DejaVuSans-6c"/>
      <use x="917.480469" xlink:href="#DejaVuSans-6f"/>
      <use x="978.662109" xlink:href="#DejaVuSans-79"/>
      <use x="1037.841797" xlink:href="#DejaVuSans-6d"/>
      <use x="1135.253906" xlink:href="#DejaVuSans-65"/>
      <use x="1196.777344" xlink:href="#DejaVuSans-6e"/>
      <use x="1260.15625" xlink:href="#DejaVuSans-74"/>
     </g>
    </g>
   </g>
   <g id="matplotlib.axis_2">
    <g id="ytick_1">
     <g id="line2d_6">
      <defs>
       <path d="M 0 0 
L -3.5 0 
" id="m91b7910178" style="stroke:#000000;stroke-width:0.8;"/>
      </defs>
      <g>
       <use style="stroke:#000000;stroke-width:0.8;" x="67.895671" xlink:href="#m91b7910178" y="285.725206"/>
      </g>
     </g>
     <g id="text_7">
      <!-- −10 -->
      <defs>
       <path d="M 10.59375 35.5 
L 73.1875 35.5 
L 73.1875 27.203125 
L 10.59375 27.203125 
z
" id="DejaVuSans-2212"/>
      </defs>
      <g transform="translate(39.790983 289.524424)scale(0.1 -0.1)">
       <use xlink:href="#DejaVuSans-2212"/>
       <use x="83.789062" xlink:href="#DejaVuSans-31"/>
       <use x="147.412109" xlink:href="#DejaVuSans-30"/>
      </g>
     </g>
    </g>
    <g id="ytick_2">
     <g id="line2d_7">
      <g>
       <use style="stroke:#000000;stroke-width:0.8;" x="67.895671" xlink:href="#m91b7910178" y="248.936267"/>
      </g>
     </g>
     <g id="text_8">
      <!-- −5 -->
      <g transform="translate(46.153483 252.735485)scale(0.1 -0.1)">
       <use xlink:href="#DejaVuSans-2212"/>
       <use x="83.789062" xlink:href="#DejaVuSans-35"/>
      </g>
     </g>
    </g>
    <g id="ytick_3">
     <g id="line2d_8">
      <g>
       <use style="stroke:#000000;stroke-width:0.8;" x="67.895671" xlink:href="#m91b7910178" y="212.147328"/>
      </g>
     </g>
     <g id="text_9">
      <!-- 0 -->
      <g transform="translate(54.533171 215.946546)scale(0.1 -0.1)">
       <use xlink:href="#DejaVuSans-30"/>
      </g>
     </g>
    </g>
    <g id="ytick_4">
     <g id="line2d_9">
      <g>
       <use style="stroke:#000000;stroke-width:0.8;" x="67.895671" xlink:href="#m91b7910178" y="175.358389"/>
      </g>
     </g>
     <g id="text_10">
      <!-- 5 -->
      <g transform="translate(54.533171 179.157607)scale(0.1 -0.1)">
       <use xlink:href="#DejaVuSans-35"/>
      </g>
     </g>
    </g>
    <g id="ytick_5">
     <g id="line2d_10">
      <g>
       <use style="stroke:#000000;stroke-width:0.8;" x="67.895671" xlink:href="#m91b7910178" y="138.56945"/>
      </g>
     </g>
     <g id="text_11">
      <!-- 10 -->
      <g transform="translate(48.170671 142.368668)scale(0.1 -0.1)">
       <use xlink:href="#DejaVuSans-31"/>
       <use x="63.623047" xlink:href="#DejaVuSans-30"/>
      </g>
     </g>
    </g>
    <g id="ytick_6">
     <g id="line2d_11">
      <g>
       <use style="stroke:#000000;stroke-width:0.8;" x="67.895671" xlink:href="#m91b7910178" y="101.780511"/>
      </g>
     </g>
     <g id="text_12">
      <!-- 15 -->
      <g transform="translate(48.170671 105.579729)scale(0.1 -0.1)">
       <use xlink:href="#DejaVuSans-31"/>
       <use x="63.623047" xlink:href="#DejaVuSans-35"/>
      </g>
     </g>
    </g>
    <g id="ytick_7">
     <g id="line2d_12">
      <g>
       <use style="stroke:#000000;stroke-width:0.8;" x="67.895671" xlink:href="#m91b7910178" y="64.991572"/>
      </g>
     </g>
     <g id="text_13">
      <!-- 20 -->
      <g transform="translate(48.170671 68.79079)scale(0.1 -0.1)">
       <use xlink:href="#DejaVuSans-32"/>
       <use x="63.623047" xlink:href="#DejaVuSans-30"/>
      </g>
     </g>
    </g>
    <g id="ytick_8">
     <g id="line2d_13">
      <g>
       <use style="stroke:#000000;stroke-width:0.8;" x="67.895671" xlink:href="#m91b7910178" y="28.202633"/>
      </g>
     </g>
     <g id="text_14">
      <!-- 25 -->
      <g transform="translate(48.170671 32.001851)scale(0.1 -0.1)">
       <use xlink:href="#DejaVuSans-32"/>
       <use x="63.623047" xlink:href="#DejaVuSans-35"/>
      </g>
     </g>
    </g>
    <g id="text_15">
     <!-- Unemployment Rate -->
     <defs>
      <path d="M 8.6875 72.90625 
L 18.609375 72.90625 
L 18.609375 28.609375 
Q 18.609375 16.890625 22.84375 11.734375 
Q 27.09375 6.59375 36.625 6.59375 
Q 46.09375 6.59375 50.34375 11.734375 
Q 54.59375 16.890625 54.59375 28.609375 
L 54.59375 72.90625 
L 64.5 72.90625 
L 64.5 27.390625 
Q 64.5 13.140625 57.4375 5.859375 
Q 50.390625 -1.421875 36.625 -1.421875 
Q 22.796875 -1.421875 15.734375 5.859375 
Q 8.6875 13.140625 8.6875 27.390625 
z
" id="DejaVuSans-55"/>
      <path id="DejaVuSans-20"/>
      <path d="M 44.390625 34.1875 
Q 47.5625 33.109375 50.5625 29.59375 
Q 53.5625 26.078125 56.59375 19.921875 
L 66.609375 0 
L 56 0 
L 46.6875 18.703125 
Q 43.0625 26.03125 39.671875 28.421875 
Q 36.28125 30.8125 30.421875 30.8125 
L 19.671875 30.8125 
L 19.671875 0 
L 9.8125 0 
L 9.8125 72.90625 
L 32.078125 72.90625 
Q 44.578125 72.90625 50.734375 67.671875 
Q 56.890625 62.453125 56.890625 51.90625 
Q 56.890625 45.015625 53.6875 40.46875 
Q 50.484375 35.9375 44.390625 34.1875 
z
M 19.671875 64.796875 
L 19.671875 38.921875 
L 32.078125 38.921875 
Q 39.203125 38.921875 42.84375 42.21875 
Q 46.484375 45.515625 46.484375 51.90625 
Q 46.484375 58.296875 42.84375 61.546875 
Q 39.203125 64.796875 32.078125 64.796875 
z
" id="DejaVuSans-52"/>
      <path d="M 34.28125 27.484375 
Q 23.390625 27.484375 19.1875 25 
Q 14.984375 22.515625 14.984375 16.5 
Q 14.984375 11.71875 18.140625 8.90625 
Q 21.296875 6.109375 26.703125 6.109375 
Q 34.1875 6.109375 38.703125 11.40625 
Q 43.21875 16.703125 43.21875 25.484375 
L 43.21875 27.484375 
z
M 52.203125 31.203125 
L 52.203125 0 
L 43.21875 0 
L 43.21875 8.296875 
Q 40.140625 3.328125 35.546875 0.953125 
Q 30.953125 -1.421875 24.3125 -1.421875 
Q 15.921875 -1.421875 10.953125 3.296875 
Q 6 8.015625 6 15.921875 
Q 6 25.140625 12.171875 29.828125 
Q 18.359375 34.515625 30.609375 34.515625 
L 43.21875 34.515625 
L 43.21875 35.40625 
Q 43.21875 41.609375 39.140625 45 
Q 35.0625 48.390625 27.6875 48.390625 
Q 23 48.390625 18.546875 47.265625 
Q 14.109375 46.140625 10.015625 43.890625 
L 10.015625 52.203125 
Q 14.9375 54.109375 19.578125 55.046875 
Q 24.21875 56 28.609375 56 
Q 40.484375 56 46.34375 49.84375 
Q 52.203125 43.703125 52.203125 31.203125 
z
" id="DejaVuSans-61"/>
     </defs>
     <g transform="translate(33.711296 217.642188)rotate(-90)scale(0.1 -0.1)">
      <use xlink:href="#DejaVuSans-55"/>
      <use x="73.193359" xlink:href="#DejaVuSans-6e"/>
      <use x="136.572266" xlink:href="#DejaVuSans-65"/>
      <use x="198.095703" xlink:href="#DejaVuSans-6d"/>
      <use x="295.507812" xlink:href="#DejaVuSans-70"/>
      <use x="358.984375" xlink:href="#DejaVuSans-6c"/>
      <use x="386.767578" xlink:href="#DejaVuSans-6f"/>
      <use x="447.949219" xlink:href="#DejaVuSans-79"/>
      <use x="507.128906" xlink:href="#DejaVuSans-6d"/>
      <use x="604.541016" xlink:href="#DejaVuSans-65"/>
      <use x="666.064453" xlink:href="#DejaVuSans-6e"/>
      <use x="729.443359" xlink:href="#DejaVuSans-74"/>
      <use x="768.652344" xlink:href="#DejaVuSans-20"/>
      <use x="800.439453" xlink:href="#DejaVuSans-52"/>
      <use x="869.890625" xlink:href="#DejaVuSans-61"/>
      <use x="931.169922" xlink:href="#DejaVuSans-74"/>
      <use x="970.378906" xlink:href="#DejaVuSans-65"/>
     </g>
    </g>
   </g>
   <g id="line2d_14">
    <path clip-path="url(#p69fc823d13)" d="M 67.895671 213.479054 
L 70.795399 212.781272 
L 73.695127 212.083489 
L 76.594855 211.385707 
L 79.494583 210.687924 
L 82.394311 209.990142 
L 85.294039 209.29236 
L 88.193767 208.594577 
L 91.093495 207.896795 
L 93.993223 207.199012 
L 96.892951 206.50123 
L 99.792679 205.803448 
L 102.692407 205.105665 
L 105.592136 204.407883 
L 108.491864 203.7101 
L 111.391592 203.012318 
L 114.29132 202.314536 
L 117.191048 201.616753 
L 120.090776 200.918971 
L 122.990504 200.221188 
L 125.890232 199.523406 
L 128.78996 198.825624 
L 131.689688 198.127841 
L 134.589416 197.430059 
L 137.489144 196.732276 
L 140.388872 196.034494 
L 143.288601 195.336712 
L 146.188329 194.638929 
L 149.088057 193.941147 
L 151.987785 193.243364 
L 154.887513 192.545582 
L 157.787241 191.8478 
L 160.686969 191.150017 
L 163.586697 190.452235 
L 166.486425 189.754452 
L 169.386153 189.05667 
L 172.285881 188.358887 
L 175.185609 187.661105 
L 178.085337 186.963323 
L 180.985065 186.26554 
L 183.884794 185.567758 
L 186.784522 184.869975 
L 189.68425 184.172193 
L 192.583978 183.474411 
L 195.483706 182.776628 
L 198.383434 182.078846 
L 201.283162 181.381063 
L 204.18289 180.683281 
L 207.082618 179.985499 
L 209.982346 179.287716 
L 212.882074 178.589934 
L 215.781802 177.892151 
L 218.68153 177.194369 
L 221.581259 176.496587 
L 224.480987 175.798804 
L 227.380715 175.101022 
L 230.280443 174.403239 
L 233.180171 173.705457 
L 236.079899 173.007675 
L 238.979627 172.309892 
L 241.879355 171.61211 
L 244.779083 170.914327 
L 247.678811 170.216545 
L 250.578539 169.518763 
L 253.478267 168.82098 
L 256.377995 168.123198 
L 259.277724 167.425415 
L 262.177452 166.727633 
L 265.07718 166.029851 
L 267.976908 165.332068 
L 270.876636 164.634286 
L 273.776364 163.936503 
L 276.676092 163.238721 
L 279.57582 162.540939 
L 282.475548 161.843156 
L 285.375276 161.145374 
L 288.275004 160.447591 
L 291.174732 159.749809 
L 294.07446 159.052027 
L 296.974188 158.354244 
L 299.873917 157.656462 
L 302.773645 156.958679 
L 305.673373 156.260897 
L 308.573101 155.563114 
L 311.472829 154.865332 
L 314.372557 154.16755 
L 317.272285 153.469767 
L 320.172013 152.771985 
L 323.071741 152.074202 
L 325.971469 151.37642 
L 328.871197 150.678638 
L 331.770925 149.980855 
L 334.670653 149.283073 
L 337.570382 148.58529 
L 340.47011 147.887508 
L 343.369838 147.189726 
L 346.269566 146.491943 
L 349.169294 145.794161 
L 352.069022 145.096378 
L 354.96875 144.398596 
" style="fill:none;stroke:#1f77b4;stroke-linecap:square;stroke-width:2.25;"/>
   </g>
   <g id="line2d_15">
    <path clip-path="url(#p69fc823d13)" d="M 67.895671 204.714633 
L 70.795399 203.506871 
L 73.695127 202.29911 
L 76.594855 201.091348 
L 79.494583 199.883587 
L 82.394311 198.675826 
L 85.294039 197.468064 
L 88.193767 196.260303 
L 91.093495 195.052541 
L 93.993223 193.84478 
L 96.892951 192.637019 
L 99.792679 191.429257 
L 102.692407 190.221496 
L 105.592136 189.013734 
L 108.491864 187.805973 
L 111.391592 186.598212 
L 114.29132 185.39045 
L 117.191048 184.182689 
L 120.090776 182.974927 
L 122.990504 181.767166 
L 125.890232 180.559405 
L 128.78996 179.351643 
L 131.689688 178.143882 
L 134.589416 176.93612 
L 137.489144 175.728359 
L 140.388872 174.520597 
L 143.288601 173.312836 
L 146.188329 172.105075 
L 149.088057 170.897313 
L 151.987785 169.689552 
L 154.887513 168.48179 
L 157.787241 167.274029 
L 160.686969 166.066268 
L 163.586697 164.858506 
L 166.486425 163.650745 
L 169.386153 162.442983 
L 172.285881 161.235222 
L 175.185609 160.027461 
L 178.085337 158.819699 
L 180.985065 157.611938 
L 183.884794 156.404176 
L 186.784522 155.196415 
L 189.68425 153.988653 
L 192.583978 152.780892 
L 195.483706 151.573131 
L 198.383434 150.365369 
L 201.283162 149.157608 
L 204.18289 147.949846 
L 207.082618 146.742085 
L 209.982346 145.534324 
L 212.882074 144.326562 
L 215.781802 143.118801 
L 218.68153 141.911039 
L 221.581259 140.703278 
L 224.480987 139.495517 
L 227.380715 138.287755 
L 230.280443 137.079994 
L 233.180171 135.872232 
L 236.079899 134.664471 
L 238.979627 133.456709 
L 241.879355 132.248948 
L 244.779083 131.041187 
L 247.678811 129.833425 
L 250.578539 128.625664 
L 253.478267 127.417902 
L 256.377995 126.210141 
L 259.277724 125.00238 
L 262.177452 123.794618 
L 265.07718 122.586857 
L 267.976908 121.379095 
L 270.876636 120.171334 
L 273.776364 118.963573 
L 276.676092 117.755811 
L 279.57582 116.54805 
L 282.475548 115.340288 
L 285.375276 114.132527 
L 288.275004 112.924766 
L 291.174732 111.717004 
L 294.07446 110.509243 
L 296.974188 109.301481 
L 299.873917 108.09372 
L 302.773645 106.885958 
L 305.673373 105.678197 
L 308.573101 104.470436 
L 311.472829 103.262674 
L 314.372557 102.054913 
L 317.272285 100.847151 
L 320.172013 99.63939 
L 323.071741 98.431629 
L 325.971469 97.223867 
L 328.871197 96.016106 
L 331.770925 94.808344 
L 334.670653 93.600583 
L 337.570382 92.392822 
L 340.47011 91.18506 
L 343.369838 89.977299 
L 346.269566 88.769537 
L 349.169294 87.561776 
L 352.069022 86.354014 
L 354.96875 85.146253 
" style="fill:none;stroke:#ff7f0e;stroke-linecap:square;stroke-width:2.25;"/>
   </g>
   <g id="line2d_16">
    <path clip-path="url(#p69fc823d13)" d="M 67.895671 194.620615 
L 70.795399 193.855835 
L 73.695127 193.091054 
L 76.594855 192.326274 
L 79.494583 191.561494 
L 82.394311 190.796714 
L 85.294039 190.031933 
L 88.193767 189.267153 
L 91.093495 188.502373 
L 93.993223 187.737593 
L 96.892951 186.972813 
L 99.792679 186.208032 
L 102.692407 185.443252 
L 105.592136 184.678472 
L 108.491864 183.913692 
L 111.391592 183.148911 
L 114.29132 182.384131 
L 117.191048 181.619351 
L 120.090776 180.854571 
L 122.990504 180.08979 
L 125.890232 179.32501 
L 128.78996 178.56023 
L 131.689688 177.79545 
L 134.589416 177.030669 
L 137.489144 176.265889 
L 140.388872 175.501109 
L 143.288601 174.736329 
L 146.188329 173.971549 
L 149.088057 173.206768 
L 151.987785 172.441988 
L 154.887513 171.677208 
L 157.787241 170.912428 
L 160.686969 170.147647 
L 163.586697 169.382867 
L 166.486425 168.618087 
L 169.386153 167.853307 
L 172.285881 167.088526 
L 175.185609 166.323746 
L 178.085337 165.558966 
L 180.985065 164.794186 
L 183.884794 164.029405 
L 186.784522 163.264625 
L 189.68425 162.499845 
L 192.583978 161.735065 
L 195.483706 160.970284 
L 198.383434 160.205504 
L 201.283162 159.440724 
L 204.18289 158.675944 
L 207.082618 157.911164 
L 209.982346 157.146383 
L 212.882074 156.381603 
L 215.781802 155.616823 
L 218.68153 154.852043 
L 221.581259 154.087262 
L 224.480987 153.322482 
L 227.380715 152.557702 
L 230.280443 151.792922 
L 233.180171 151.028141 
L 236.079899 150.263361 
L 238.979627 149.498581 
L 241.879355 148.733801 
L 244.779083 147.96902 
L 247.678811 147.20424 
L 250.578539 146.43946 
L 253.478267 145.67468 
L 256.377995 144.909899 
L 259.277724 144.145119 
L 262.177452 143.380339 
L 265.07718 142.615559 
L 267.976908 141.850779 
L 270.876636 141.085998 
L 273.776364 140.321218 
L 276.676092 139.556438 
L 279.57582 138.791658 
L 282.475548 138.026877 
L 285.375276 137.262097 
L 288.275004 136.497317 
L 291.174732 135.732537 
L 294.07446 134.967756 
L 296.974188 134.202976 
L 299.873917 133.438196 
L 302.773645 132.673416 
L 305.673373 131.908635 
L 308.573101 131.143855 
L 311.472829 130.379075 
L 314.372557 129.614295 
L 317.272285 128.849514 
L 320.172013 128.084734 
L 323.071741 127.319954 
L 325.971469 126.555174 
L 328.871197 125.790394 
L 331.770925 125.025613 
L 334.670653 124.260833 
L 337.570382 123.496053 
L 340.47011 122.731273 
L 343.369838 121.966492 
L 346.269566 121.201712 
L 349.169294 120.436932 
L 352.069022 119.672152 
L 354.96875 118.907371 
" style="fill:none;stroke:#2ca02c;stroke-linecap:square;stroke-width:2.25;"/>
   </g>
   <g id="patch_3">
    <path d="M 67.895671 317.29375 
L 67.895671 14.8 
" style="fill:none;stroke:#000000;stroke-linecap:square;stroke-linejoin:miter;stroke-width:0.8;"/>
   </g>
   <g id="patch_4">
    <path d="M 67.895671 317.29375 
L 354.96875 317.29375 
" style="fill:none;stroke:#000000;stroke-linecap:square;stroke-linejoin:miter;stroke-width:0.8;"/>
   </g>
  </g>
  <g id="legend_1">
   <g id="patch_5">
    <path d="M 356.715625 210.995313 
L 496.125 210.995313 
Q 498.125 210.995313 498.125 208.995313 
L 498.125 151.004687 
Q 498.125 149.004687 496.125 149.004687 
L 356.715625 149.004687 
Q 354.715625 149.004687 354.715625 151.004687 
L 354.715625 208.995313 
Q 354.715625 210.995313 356.715625 210.995313 
z
" style="fill:#ffffff;opacity:0.8;stroke:#cccccc;stroke-linejoin:miter;"/>
   </g>
   <g id="text_16">
    <!-- income_group -->
    <defs>
     <path d="M 45.40625 27.984375 
Q 45.40625 37.75 41.375 43.109375 
Q 37.359375 48.484375 30.078125 48.484375 
Q 22.859375 48.484375 18.828125 43.109375 
Q 14.796875 37.75 14.796875 27.984375 
Q 14.796875 18.265625 18.828125 12.890625 
Q 22.859375 7.515625 30.078125 7.515625 
Q 37.359375 7.515625 41.375 12.890625 
Q 45.40625 18.265625 45.40625 27.984375 
z
M 54.390625 6.78125 
Q 54.390625 -7.171875 48.1875 -13.984375 
Q 42 -20.796875 29.203125 -20.796875 
Q 24.46875 -20.796875 20.265625 -20.09375 
Q 16.0625 -19.390625 12.109375 -17.921875 
L 12.109375 -9.1875 
Q 16.0625 -11.328125 19.921875 -12.34375 
Q 23.78125 -13.375 27.78125 -13.375 
Q 36.625 -13.375 41.015625 -8.765625 
Q 45.40625 -4.15625 45.40625 5.171875 
L 45.40625 9.625 
Q 42.625 4.78125 38.28125 2.390625 
Q 33.9375 0 27.875 0 
Q 17.828125 0 11.671875 7.65625 
Q 5.515625 15.328125 5.515625 27.984375 
Q 5.515625 40.671875 11.671875 48.328125 
Q 17.828125 56 27.875 56 
Q 33.9375 56 38.28125 53.609375 
Q 42.625 51.21875 45.40625 46.390625 
L 45.40625 54.6875 
L 54.390625 54.6875 
z
" id="DejaVuSans-67"/>
    </defs>
    <g transform="translate(390.976562 160.603125)scale(0.1 -0.1)">
     <use xlink:href="#DejaVuSans-69"/>
     <use x="27.783203" xlink:href="#DejaVuSans-6e"/>
     <use x="91.162109" xlink:href="#DejaVuSans-63"/>
     <use x="146.142578" xlink:href="#DejaVuSans-6f"/>
     <use x="207.324219" xlink:href="#DejaVuSans-6d"/>
     <use x="304.736328" xlink:href="#DejaVuSans-65"/>
     <use x="366.259766" xlink:href="#DejaVuSans-5f"/>
     <use x="416.259766" xlink:href="#DejaVuSans-67"/>
     <use x="479.736328" xlink:href="#DejaVuSans-72"/>
     <use x="520.818359" xlink:href="#DejaVuSans-6f"/>
     <use x="582" xlink:href="#DejaVuSans-75"/>
     <use x="645.378906" xlink:href="#DejaVuSans-70"/>
    </g>
   </g>
   <g id="PathCollection_4">
    <g>
     <use style="fill:#1f77b4;fill-opacity:0.8;stroke:#1f77b4;stroke-opacity:0.8;" x="368.715625" xlink:href="#m24dfe30bca" y="172.934375"/>
    </g>
   </g>
   <g id="text_17">
    <!-- Low income -->
    <defs>
     <path d="M 9.8125 72.90625 
L 19.671875 72.90625 
L 19.671875 8.296875 
L 55.171875 8.296875 
L 55.171875 0 
L 9.8125 0 
z
" id="DejaVuSans-4c"/>
     <path d="M 4.203125 54.6875 
L 13.1875 54.6875 
L 24.421875 12.015625 
L 35.59375 54.6875 
L 46.1875 54.6875 
L 57.421875 12.015625 
L 68.609375 54.6875 
L 77.59375 54.6875 
L 63.28125 0 
L 52.6875 0 
L 40.921875 44.828125 
L 29.109375 0 
L 18.5 0 
z
" id="DejaVuSans-77"/>
    </defs>
    <g transform="translate(386.715625 175.559375)scale(0.1 -0.1)">
     <use xlink:href="#DejaVuSans-4c"/>
     <use x="55.697266" xlink:href="#DejaVuSans-6f"/>
     <use x="116.878906" xlink:href="#DejaVuSans-77"/>
     <use x="198.666016" xlink:href="#DejaVuSans-20"/>
     <use x="230.453125" xlink:href="#DejaVuSans-69"/>
     <use x="258.236328" xlink:href="#DejaVuSans-6e"/>
     <use x="321.615234" xlink:href="#DejaVuSans-63"/>
     <use x="376.595703" xlink:href="#DejaVuSans-6f"/>
     <use x="437.777344" xlink:href="#DejaVuSans-6d"/>
     <use x="535.189453" xlink:href="#DejaVuSans-65"/>
    </g>
   </g>
   <g id="PathCollection_5">
    <g>
     <use style="fill:#ff7f0e;fill-opacity:0.8;stroke:#ff7f0e;stroke-opacity:0.8;" x="368.715625" xlink:href="#m697a2367a0" y="187.6125"/>
    </g>
   </g>
   <g id="text_18">
    <!-- Upper middle income -->
    <g transform="translate(386.715625 190.2375)scale(0.1 -0.1)">
     <use xlink:href="#DejaVuSans-55"/>
     <use x="73.193359" xlink:href="#DejaVuSans-70"/>
     <use x="136.669922" xlink:href="#DejaVuSans-70"/>
     <use x="200.146484" xlink:href="#DejaVuSans-65"/>
     <use x="261.669922" xlink:href="#DejaVuSans-72"/>
     <use x="302.783203" xlink:href="#DejaVuSans-20"/>
     <use x="334.570312" xlink:href="#DejaVuSans-6d"/>
     <use x="431.982422" xlink:href="#DejaVuSans-69"/>
     <use x="459.765625" xlink:href="#DejaVuSans-64"/>
     <use x="523.242188" xlink:href="#DejaVuSans-64"/>
     <use x="586.71875" xlink:href="#DejaVuSans-6c"/>
     <use x="614.501953" xlink:href="#DejaVuSans-65"/>
     <use x="676.025391" xlink:href="#DejaVuSans-20"/>
     <use x="707.8125" xlink:href="#DejaVuSans-69"/>
     <use x="735.595703" xlink:href="#DejaVuSans-6e"/>
     <use x="798.974609" xlink:href="#DejaVuSans-63"/>
     <use x="853.955078" xlink:href="#DejaVuSans-6f"/>
     <use x="915.136719" xlink:href="#DejaVuSans-6d"/>
     <use x="1012.548828" xlink:href="#DejaVuSans-65"/>
    </g>
   </g>
   <g id="PathCollection_6">
    <g>
     <use style="fill:#2ca02c;fill-opacity:0.8;stroke:#2ca02c;stroke-opacity:0.8;" x="368.715625" xlink:href="#me7a19932e2" y="202.290625"/>
    </g>
   </g>
   <g id="text_19">
    <!-- Lower middle income -->
    <g transform="translate(386.715625 204.915625)scale(0.1 -0.1)">
     <use xlink:href="#DejaVuSans-4c"/>
     <use x="55.697266" xlink:href="#DejaVuSans-6f"/>
     <use x="116.878906" xlink:href="#DejaVuSans-77"/>
     <use x="198.666016" xlink:href="#DejaVuSans-65"/>
     <use x="260.189453" xlink:href="#DejaVuSans-72"/>
     <use x="301.302734" xlink:href="#DejaVuSans-20"/>
     <use x="333.089844" xlink:href="#DejaVuSans-6d"/>
     <use x="430.501953" xlink:href="#DejaVuSans-69"/>
     <use x="458.285156" xlink:href="#DejaVuSans-64"/>
     <use x="521.761719" xlink:href="#DejaVuSans-64"/>
     <use x="585.238281" xlink:href="#DejaVuSans-6c"/>
     <use x="613.021484" xlink:href="#DejaVuSans-65"/>
     <use x="674.544922" xlink:href="#DejaVuSans-20"/>
     <use x="706.332031" xlink:href="#DejaVuSans-69"/>
     <use x="734.115234" xlink:href="#DejaVuSans-6e"/>
     <use x="797.494141" xlink:href="#DejaVuSans-63"/>
     <use x="852.474609" xlink:href="#DejaVuSans-6f"/>
     <use x="913.65625" xlink:href="#DejaVuSans-6d"/>
     <use x="1011.068359" xlink:href="#DejaVuSans-65"/>
    </g>
   </g>
  </g>
 </g>
 <defs>
  <clipPath id="p69fc823d13">
   <rect height="302.49375" width="287.073079" x="67.895671" y="14.8"/>
  </clipPath>
 </defs>
</svg>
