<?xml version="1.0" encoding="utf-8" standalone="no"?>
<!DOCTYPE svg PUBLIC "-//W3C//DTD SVG 1.1//EN"
  "http://www.w3.org/Graphics/SVG/1.1/DTD/svg11.dtd">
<!-- Created with matplotlib (http://matplotlib.org/) -->
<svg height="360pt" version="1.1" viewBox="0 0 490.75 360" width="490.75pt" xmlns="http://www.w3.org/2000/svg" xmlns:xlink="http://www.w3.org/1999/xlink">
 <defs>
  <style type="text/css">
*{stroke-linecap:butt;stroke-linejoin:round;}
  </style>
 </defs>
 <g id="figure_1">
  <g id="patch_1">
   <path d="M 0 360 
L 490.75 360 
L 490.75 0 
L 0 0 
z
" style="fill:#ffffff;"/>
  </g>
  <g id="axes_1">
   <g id="patch_2">
    <path d="M 65.272306 316.993125 
L 355.0925 316.993125 
L 355.0925 16.46 
L 65.272306 16.46 
z
" style="fill:#ffffff;"/>
   </g>
   <g id="matplotlib.axis_1">
    <g id="xtick_1">
     <g id="line2d_1"/>
     <g id="text_1">
      <!-- 5 -->
      <defs>
       <path d="M 4.15625 18.75 
L 13.375 19.53125 
Q 14.40625 12.796875 18.140625 9.390625 
Q 21.875 6 27.15625 6 
Q 33.5 6 37.890625 10.78125 
Q 42.28125 15.578125 42.28125 23.484375 
Q 42.28125 31 38.0625 35.34375 
Q 33.84375 39.703125 27 39.703125 
Q 22.75 39.703125 19.328125 37.765625 
Q 15.921875 35.84375 13.96875 32.765625 
L 5.71875 33.84375 
L 12.640625 70.609375 
L 48.25 70.609375 
L 48.25 62.203125 
L 19.671875 62.203125 
L 15.828125 42.96875 
Q 22.265625 47.46875 29.34375 47.46875 
Q 38.71875 47.46875 45.15625 40.96875 
Q 51.609375 34.46875 51.609375 24.265625 
Q 51.609375 14.546875 45.953125 7.46875 
Q 39.0625 -1.21875 27.15625 -1.21875 
Q 17.390625 -1.21875 11.203125 4.25 
Q 5.03125 9.71875 4.15625 18.75 
z
" id="ArialMT-35"/>
      </defs>
      <g style="fill:#262626;" transform="translate(104.538856 331.150937)scale(0.1 -0.1)">
       <use xlink:href="#ArialMT-35"/>
      </g>
     </g>
    </g>
    <g id="xtick_2">
     <g id="line2d_2"/>
     <g id="text_2">
      <!-- 10 -->
      <defs>
       <path d="M 37.25 0 
L 28.46875 0 
L 28.46875 56 
Q 25.296875 52.984375 20.140625 49.953125 
Q 14.984375 46.921875 10.890625 45.40625 
L 10.890625 53.90625 
Q 18.265625 57.375 23.78125 62.296875 
Q 29.296875 67.234375 31.59375 71.875 
L 37.25 71.875 
z
" id="ArialMT-31"/>
       <path d="M 4.15625 35.296875 
Q 4.15625 48 6.765625 55.734375 
Q 9.375 63.484375 14.515625 67.671875 
Q 19.671875 71.875 27.484375 71.875 
Q 33.25 71.875 37.59375 69.546875 
Q 41.9375 67.234375 44.765625 62.859375 
Q 47.609375 58.5 49.21875 52.21875 
Q 50.828125 45.953125 50.828125 35.296875 
Q 50.828125 22.703125 48.234375 14.96875 
Q 45.65625 7.234375 40.5 3 
Q 35.359375 -1.21875 27.484375 -1.21875 
Q 17.140625 -1.21875 11.234375 6.203125 
Q 4.15625 15.140625 4.15625 35.296875 
z
M 13.1875 35.296875 
Q 13.1875 17.671875 17.3125 11.828125 
Q 21.4375 6 27.484375 6 
Q 33.546875 6 37.671875 11.859375 
Q 41.796875 17.71875 41.796875 35.296875 
Q 41.796875 52.984375 37.671875 58.78125 
Q 33.546875 64.59375 27.390625 64.59375 
Q 21.34375 64.59375 17.71875 59.46875 
Q 13.1875 52.9375 13.1875 35.296875 
z
" id="ArialMT-30"/>
      </defs>
      <g style="fill:#262626;" transform="translate(160.373168 331.150937)scale(0.1 -0.1)">
       <use xlink:href="#ArialMT-31"/>
       <use x="55.615234" xlink:href="#ArialMT-30"/>
      </g>
     </g>
    </g>
    <g id="xtick_3">
     <g id="line2d_3"/>
     <g id="text_3">
      <!-- 15 -->
      <g style="fill:#262626;" transform="translate(218.987948 331.150937)scale(0.1 -0.1)">
       <use xlink:href="#ArialMT-31"/>
       <use x="55.615234" xlink:href="#ArialMT-35"/>
      </g>
     </g>
    </g>
    <g id="xtick_4">
     <g id="line2d_4"/>
     <g id="text_4">
      <!-- 20 -->
      <defs>
       <path d="M 50.34375 8.453125 
L 50.34375 0 
L 3.03125 0 
Q 2.9375 3.171875 4.046875 6.109375 
Q 5.859375 10.9375 9.828125 15.625 
Q 13.8125 20.3125 21.34375 26.46875 
Q 33.015625 36.03125 37.109375 41.625 
Q 41.21875 47.21875 41.21875 52.203125 
Q 41.21875 57.421875 37.46875 61 
Q 33.734375 64.59375 27.734375 64.59375 
Q 21.390625 64.59375 17.578125 60.78125 
Q 13.765625 56.984375 13.71875 50.25 
L 4.6875 51.171875 
Q 5.609375 61.28125 11.65625 66.578125 
Q 17.71875 71.875 27.9375 71.875 
Q 38.234375 71.875 44.234375 66.15625 
Q 50.25 60.453125 50.25 52 
Q 50.25 47.703125 48.484375 43.546875 
Q 46.734375 39.40625 42.65625 34.8125 
Q 38.578125 30.21875 29.109375 22.21875 
Q 21.1875 15.578125 18.9375 13.203125 
Q 16.703125 10.84375 15.234375 8.453125 
z
" id="ArialMT-32"/>
      </defs>
      <g style="fill:#262626;" transform="translate(277.602728 331.150937)scale(0.1 -0.1)">
       <use xlink:href="#ArialMT-32"/>
       <use x="55.615234" xlink:href="#ArialMT-30"/>
      </g>
     </g>
    </g>
    <g id="xtick_5">
     <g id="line2d_5"/>
     <g id="text_5">
      <!-- 25 -->
      <g style="fill:#262626;" transform="translate(336.217509 331.150937)scale(0.1 -0.1)">
       <use xlink:href="#ArialMT-32"/>
       <use x="55.615234" xlink:href="#ArialMT-35"/>
      </g>
     </g>
    </g>
    <g id="text_6">
     <!-- pct_industry_employment -->
     <defs>
      <path d="M 6.59375 -19.875 
L 6.59375 51.859375 
L 14.59375 51.859375 
L 14.59375 45.125 
Q 17.4375 49.078125 21 51.046875 
Q 24.5625 53.03125 29.640625 53.03125 
Q 36.28125 53.03125 41.359375 49.609375 
Q 46.4375 46.1875 49.015625 39.953125 
Q 51.609375 33.734375 51.609375 26.3125 
Q 51.609375 18.359375 48.75 11.984375 
Q 45.90625 5.609375 40.453125 2.21875 
Q 35.015625 -1.171875 29 -1.171875 
Q 24.609375 -1.171875 21.109375 0.6875 
Q 17.625 2.546875 15.375 5.375 
L 15.375 -19.875 
z
M 14.546875 25.640625 
Q 14.546875 15.625 18.59375 10.84375 
Q 22.65625 6.0625 28.421875 6.0625 
Q 34.28125 6.0625 38.453125 11.015625 
Q 42.625 15.96875 42.625 26.375 
Q 42.625 36.28125 38.546875 41.203125 
Q 34.46875 46.140625 28.8125 46.140625 
Q 23.1875 46.140625 18.859375 40.890625 
Q 14.546875 35.640625 14.546875 25.640625 
z
" id="ArialMT-70"/>
      <path d="M 40.4375 19 
L 49.078125 17.875 
Q 47.65625 8.9375 41.8125 3.875 
Q 35.984375 -1.171875 27.484375 -1.171875 
Q 16.84375 -1.171875 10.375 5.78125 
Q 3.90625 12.75 3.90625 25.734375 
Q 3.90625 34.125 6.6875 40.421875 
Q 9.46875 46.734375 15.15625 49.875 
Q 20.84375 53.03125 27.546875 53.03125 
Q 35.984375 53.03125 41.359375 48.75 
Q 46.734375 44.484375 48.25 36.625 
L 39.703125 35.296875 
Q 38.484375 40.53125 35.375 43.15625 
Q 32.28125 45.796875 27.875 45.796875 
Q 21.234375 45.796875 17.078125 41.03125 
Q 12.9375 36.28125 12.9375 25.984375 
Q 12.9375 15.53125 16.9375 10.796875 
Q 20.953125 6.0625 27.390625 6.0625 
Q 32.5625 6.0625 36.03125 9.234375 
Q 39.5 12.40625 40.4375 19 
z
" id="ArialMT-63"/>
      <path d="M 25.78125 7.859375 
L 27.046875 0.09375 
Q 23.34375 -0.6875 20.40625 -0.6875 
Q 15.625 -0.6875 12.984375 0.828125 
Q 10.359375 2.34375 9.28125 4.8125 
Q 8.203125 7.28125 8.203125 15.1875 
L 8.203125 45.015625 
L 1.765625 45.015625 
L 1.765625 51.859375 
L 8.203125 51.859375 
L 8.203125 64.703125 
L 16.9375 69.96875 
L 16.9375 51.859375 
L 25.78125 51.859375 
L 25.78125 45.015625 
L 16.9375 45.015625 
L 16.9375 14.703125 
Q 16.9375 10.9375 17.40625 9.859375 
Q 17.875 8.796875 18.921875 8.15625 
Q 19.96875 7.515625 21.921875 7.515625 
Q 23.390625 7.515625 25.78125 7.859375 
z
" id="ArialMT-74"/>
      <path d="M -1.515625 -19.875 
L -1.515625 -13.53125 
L 56.734375 -13.53125 
L 56.734375 -19.875 
z
" id="ArialMT-5f"/>
      <path d="M 6.640625 61.46875 
L 6.640625 71.578125 
L 15.4375 71.578125 
L 15.4375 61.46875 
z
M 6.640625 0 
L 6.640625 51.859375 
L 15.4375 51.859375 
L 15.4375 0 
z
" id="ArialMT-69"/>
      <path d="M 6.59375 0 
L 6.59375 51.859375 
L 14.5 51.859375 
L 14.5 44.484375 
Q 20.21875 53.03125 31 53.03125 
Q 35.6875 53.03125 39.625 51.34375 
Q 43.5625 49.65625 45.515625 46.921875 
Q 47.46875 44.1875 48.25 40.4375 
Q 48.734375 37.984375 48.734375 31.890625 
L 48.734375 0 
L 39.9375 0 
L 39.9375 31.546875 
Q 39.9375 36.921875 38.90625 39.578125 
Q 37.890625 42.234375 35.28125 43.8125 
Q 32.671875 45.40625 29.15625 45.40625 
Q 23.53125 45.40625 19.453125 41.84375 
Q 15.375 38.28125 15.375 28.328125 
L 15.375 0 
z
" id="ArialMT-6e"/>
      <path d="M 40.234375 0 
L 40.234375 6.546875 
Q 35.296875 -1.171875 25.734375 -1.171875 
Q 19.53125 -1.171875 14.328125 2.25 
Q 9.125 5.671875 6.265625 11.796875 
Q 3.421875 17.921875 3.421875 25.875 
Q 3.421875 33.640625 6 39.96875 
Q 8.59375 46.296875 13.765625 49.65625 
Q 18.953125 53.03125 25.34375 53.03125 
Q 30.03125 53.03125 33.6875 51.046875 
Q 37.359375 49.078125 39.65625 45.90625 
L 39.65625 71.578125 
L 48.390625 71.578125 
L 48.390625 0 
z
M 12.453125 25.875 
Q 12.453125 15.921875 16.640625 10.984375 
Q 20.84375 6.0625 26.5625 6.0625 
Q 32.328125 6.0625 36.34375 10.765625 
Q 40.375 15.484375 40.375 25.140625 
Q 40.375 35.796875 36.265625 40.765625 
Q 32.171875 45.75 26.171875 45.75 
Q 20.3125 45.75 16.375 40.96875 
Q 12.453125 36.1875 12.453125 25.875 
z
" id="ArialMT-64"/>
      <path d="M 40.578125 0 
L 40.578125 7.625 
Q 34.515625 -1.171875 24.125 -1.171875 
Q 19.53125 -1.171875 15.546875 0.578125 
Q 11.578125 2.34375 9.640625 5 
Q 7.71875 7.671875 6.9375 11.53125 
Q 6.390625 14.109375 6.390625 19.734375 
L 6.390625 51.859375 
L 15.1875 51.859375 
L 15.1875 23.09375 
Q 15.1875 16.21875 15.71875 13.8125 
Q 16.546875 10.359375 19.234375 8.375 
Q 21.921875 6.390625 25.875 6.390625 
Q 29.828125 6.390625 33.296875 8.421875 
Q 36.765625 10.453125 38.203125 13.9375 
Q 39.65625 17.4375 39.65625 24.078125 
L 39.65625 51.859375 
L 48.4375 51.859375 
L 48.4375 0 
z
" id="ArialMT-75"/>
      <path d="M 3.078125 15.484375 
L 11.765625 16.84375 
Q 12.5 11.625 15.84375 8.84375 
Q 19.1875 6.0625 25.203125 6.0625 
Q 31.25 6.0625 34.171875 8.515625 
Q 37.109375 10.984375 37.109375 14.3125 
Q 37.109375 17.28125 34.515625 19 
Q 32.71875 20.171875 25.53125 21.96875 
Q 15.875 24.421875 12.140625 26.203125 
Q 8.40625 27.984375 6.46875 31.125 
Q 4.546875 34.28125 4.546875 38.09375 
Q 4.546875 41.546875 6.125 44.5 
Q 7.71875 47.46875 10.453125 49.421875 
Q 12.5 50.921875 16.03125 51.96875 
Q 19.578125 53.03125 23.640625 53.03125 
Q 29.734375 53.03125 34.34375 51.265625 
Q 38.96875 49.515625 41.15625 46.5 
Q 43.359375 43.5 44.1875 38.484375 
L 35.59375 37.3125 
Q 35.015625 41.3125 32.203125 43.546875 
Q 29.390625 45.796875 24.265625 45.796875 
Q 18.21875 45.796875 15.625 43.796875 
Q 13.03125 41.796875 13.03125 39.109375 
Q 13.03125 37.40625 14.109375 36.03125 
Q 15.1875 34.625 17.484375 33.6875 
Q 18.796875 33.203125 25.25 31.453125 
Q 34.578125 28.953125 38.25 27.359375 
Q 41.9375 25.78125 44.03125 22.75 
Q 46.140625 19.734375 46.140625 15.234375 
Q 46.140625 10.84375 43.578125 6.953125 
Q 41.015625 3.078125 36.171875 0.953125 
Q 31.34375 -1.171875 25.25 -1.171875 
Q 15.140625 -1.171875 9.84375 3.03125 
Q 4.546875 7.234375 3.078125 15.484375 
z
" id="ArialMT-73"/>
      <path d="M 6.5 0 
L 6.5 51.859375 
L 14.40625 51.859375 
L 14.40625 44 
Q 17.4375 49.515625 20 51.265625 
Q 22.5625 53.03125 25.640625 53.03125 
Q 30.078125 53.03125 34.671875 50.203125 
L 31.640625 42.046875 
Q 28.421875 43.953125 25.203125 43.953125 
Q 22.3125 43.953125 20.015625 42.21875 
Q 17.71875 40.484375 16.75 37.40625 
Q 15.28125 32.71875 15.28125 27.15625 
L 15.28125 0 
z
" id="ArialMT-72"/>
      <path d="M 6.203125 -19.96875 
L 5.21875 -11.71875 
Q 8.109375 -12.5 10.25 -12.5 
Q 13.1875 -12.5 14.9375 -11.515625 
Q 16.703125 -10.546875 17.828125 -8.796875 
Q 18.65625 -7.46875 20.515625 -2.25 
Q 20.75 -1.515625 21.296875 -0.09375 
L 1.609375 51.859375 
L 11.078125 51.859375 
L 21.875 21.828125 
Q 23.96875 16.109375 25.640625 9.8125 
Q 27.15625 15.875 29.25 21.625 
L 40.328125 51.859375 
L 49.125 51.859375 
L 29.390625 -0.875 
Q 26.21875 -9.421875 24.46875 -12.640625 
Q 22.125 -17 19.09375 -19.015625 
Q 16.0625 -21.046875 11.859375 -21.046875 
Q 9.328125 -21.046875 6.203125 -19.96875 
z
" id="ArialMT-79"/>
      <path d="M 42.09375 16.703125 
L 51.171875 15.578125 
Q 49.03125 7.625 43.21875 3.21875 
Q 37.40625 -1.171875 28.375 -1.171875 
Q 17 -1.171875 10.328125 5.828125 
Q 3.65625 12.84375 3.65625 25.484375 
Q 3.65625 38.578125 10.390625 45.796875 
Q 17.140625 53.03125 27.875 53.03125 
Q 38.28125 53.03125 44.875 45.953125 
Q 51.46875 38.875 51.46875 26.03125 
Q 51.46875 25.25 51.421875 23.6875 
L 12.75 23.6875 
Q 13.234375 15.140625 17.578125 10.59375 
Q 21.921875 6.0625 28.421875 6.0625 
Q 33.25 6.0625 36.671875 8.59375 
Q 40.09375 11.140625 42.09375 16.703125 
z
M 13.234375 30.90625 
L 42.1875 30.90625 
Q 41.609375 37.453125 38.875 40.71875 
Q 34.671875 45.796875 27.984375 45.796875 
Q 21.921875 45.796875 17.796875 41.75 
Q 13.671875 37.703125 13.234375 30.90625 
z
" id="ArialMT-65"/>
      <path d="M 6.59375 0 
L 6.59375 51.859375 
L 14.453125 51.859375 
L 14.453125 44.578125 
Q 16.890625 48.390625 20.9375 50.703125 
Q 25 53.03125 30.171875 53.03125 
Q 35.9375 53.03125 39.625 50.640625 
Q 43.3125 48.25 44.828125 43.953125 
Q 50.984375 53.03125 60.84375 53.03125 
Q 68.5625 53.03125 72.703125 48.75 
Q 76.859375 44.484375 76.859375 35.59375 
L 76.859375 0 
L 68.109375 0 
L 68.109375 32.671875 
Q 68.109375 37.9375 67.25 40.25 
Q 66.40625 42.578125 64.15625 43.984375 
Q 61.921875 45.40625 58.890625 45.40625 
Q 53.421875 45.40625 49.796875 41.765625 
Q 46.1875 38.140625 46.1875 30.125 
L 46.1875 0 
L 37.40625 0 
L 37.40625 33.6875 
Q 37.40625 39.546875 35.25 42.46875 
Q 33.109375 45.40625 28.21875 45.40625 
Q 24.515625 45.40625 21.359375 43.453125 
Q 18.21875 41.5 16.796875 37.734375 
Q 15.375 33.984375 15.375 26.90625 
L 15.375 0 
z
" id="ArialMT-6d"/>
      <path d="M 6.390625 0 
L 6.390625 71.578125 
L 15.1875 71.578125 
L 15.1875 0 
z
" id="ArialMT-6c"/>
      <path d="M 3.328125 25.921875 
Q 3.328125 40.328125 11.328125 47.265625 
Q 18.015625 53.03125 27.640625 53.03125 
Q 38.328125 53.03125 45.109375 46.015625 
Q 51.90625 39.015625 51.90625 26.65625 
Q 51.90625 16.65625 48.90625 10.90625 
Q 45.90625 5.171875 40.15625 2 
Q 34.421875 -1.171875 27.640625 -1.171875 
Q 16.75 -1.171875 10.03125 5.8125 
Q 3.328125 12.796875 3.328125 25.921875 
z
M 12.359375 25.921875 
Q 12.359375 15.96875 16.703125 11.015625 
Q 21.046875 6.0625 27.640625 6.0625 
Q 34.1875 6.0625 38.53125 11.03125 
Q 42.875 16.015625 42.875 26.21875 
Q 42.875 35.84375 38.5 40.796875 
Q 34.125 45.75 27.640625 45.75 
Q 21.046875 45.75 16.703125 40.8125 
Q 12.359375 35.890625 12.359375 25.921875 
z
" id="ArialMT-6f"/>
     </defs>
     <g style="fill:#262626;" transform="translate(147.516778 345.012031)scale(0.11 -0.11)">
      <use xlink:href="#ArialMT-70"/>
      <use x="55.615234" xlink:href="#ArialMT-63"/>
      <use x="105.615234" xlink:href="#ArialMT-74"/>
      <use x="133.398438" xlink:href="#ArialMT-5f"/>
      <use x="189.013672" xlink:href="#ArialMT-69"/>
      <use x="211.230469" xlink:href="#ArialMT-6e"/>
      <use x="266.845703" xlink:href="#ArialMT-64"/>
      <use x="322.460938" xlink:href="#ArialMT-75"/>
      <use x="378.076172" xlink:href="#ArialMT-73"/>
      <use x="428.076172" xlink:href="#ArialMT-74"/>
      <use x="455.859375" xlink:href="#ArialMT-72"/>
      <use x="489.160156" xlink:href="#ArialMT-79"/>
      <use x="539.160156" xlink:href="#ArialMT-5f"/>
      <use x="594.775391" xlink:href="#ArialMT-65"/>
      <use x="650.390625" xlink:href="#ArialMT-6d"/>
      <use x="733.691406" xlink:href="#ArialMT-70"/>
      <use x="789.306641" xlink:href="#ArialMT-6c"/>
      <use x="811.523438" xlink:href="#ArialMT-6f"/>
      <use x="867.138672" xlink:href="#ArialMT-79"/>
      <use x="917.138672" xlink:href="#ArialMT-6d"/>
      <use x="1000.439453" xlink:href="#ArialMT-65"/>
      <use x="1056.054688" xlink:href="#ArialMT-6e"/>
      <use x="1111.669922" xlink:href="#ArialMT-74"/>
     </g>
    </g>
   </g>
   <g id="matplotlib.axis_2">
    <g id="ytick_1">
     <g id="line2d_6"/>
     <g id="text_7">
      <!-- −10 -->
      <defs>
       <path d="M 52.828125 31.203125 
L 5.5625 31.203125 
L 5.5625 39.40625 
L 52.828125 39.40625 
z
" id="ArialMT-2212"/>
      </defs>
      <g style="fill:#262626;" transform="translate(41.309806 288.037731)scale(0.1 -0.1)">
       <use xlink:href="#ArialMT-2212"/>
       <use x="58.398438" xlink:href="#ArialMT-31"/>
       <use x="114.013672" xlink:href="#ArialMT-30"/>
      </g>
     </g>
    </g>
    <g id="ytick_2">
     <g id="line2d_7"/>
     <g id="text_8">
      <!-- −5 -->
      <g style="fill:#262626;" transform="translate(46.870743 251.167584)scale(0.1 -0.1)">
       <use xlink:href="#ArialMT-2212"/>
       <use x="58.398438" xlink:href="#ArialMT-35"/>
      </g>
     </g>
    </g>
    <g id="ytick_3">
     <g id="line2d_8"/>
     <g id="text_9">
      <!-- 0 -->
      <g style="fill:#262626;" transform="translate(52.711368 214.297438)scale(0.1 -0.1)">
       <use xlink:href="#ArialMT-30"/>
      </g>
     </g>
    </g>
    <g id="ytick_4">
     <g id="line2d_9"/>
     <g id="text_10">
      <!-- 5 -->
      <g style="fill:#262626;" transform="translate(52.711368 177.427291)scale(0.1 -0.1)">
       <use xlink:href="#ArialMT-35"/>
      </g>
     </g>
    </g>
    <g id="ytick_5">
     <g id="line2d_10"/>
     <g id="text_11">
      <!-- 10 -->
      <g style="fill:#262626;" transform="translate(47.150431 140.557144)scale(0.1 -0.1)">
       <use xlink:href="#ArialMT-31"/>
       <use x="55.615234" xlink:href="#ArialMT-30"/>
      </g>
     </g>
    </g>
    <g id="ytick_6">
     <g id="line2d_11"/>
     <g id="text_12">
      <!-- 15 -->
      <g style="fill:#262626;" transform="translate(47.150431 103.686998)scale(0.1 -0.1)">
       <use xlink:href="#ArialMT-31"/>
       <use x="55.615234" xlink:href="#ArialMT-35"/>
      </g>
     </g>
    </g>
    <g id="ytick_7">
     <g id="line2d_12"/>
     <g id="text_13">
      <!-- 20 -->
      <g style="fill:#262626;" transform="translate(47.150431 66.816851)scale(0.1 -0.1)">
       <use xlink:href="#ArialMT-32"/>
       <use x="55.615234" xlink:href="#ArialMT-30"/>
      </g>
     </g>
    </g>
    <g id="ytick_8">
     <g id="line2d_13"/>
     <g id="text_14">
      <!-- 25 -->
      <g style="fill:#262626;" transform="translate(47.150431 29.946705)scale(0.1 -0.1)">
       <use xlink:href="#ArialMT-32"/>
       <use x="55.615234" xlink:href="#ArialMT-35"/>
      </g>
     </g>
    </g>
    <g id="text_15">
     <!-- Unemployment Rate -->
     <defs>
      <path d="M 54.6875 71.578125 
L 64.15625 71.578125 
L 64.15625 30.21875 
Q 64.15625 19.4375 61.71875 13.078125 
Q 59.28125 6.734375 52.90625 2.75 
Q 46.53125 -1.21875 36.1875 -1.21875 
Q 26.125 -1.21875 19.71875 2.25 
Q 13.328125 5.71875 10.59375 12.28125 
Q 7.859375 18.84375 7.859375 30.21875 
L 7.859375 71.578125 
L 17.328125 71.578125 
L 17.328125 30.28125 
Q 17.328125 20.953125 19.0625 16.53125 
Q 20.796875 12.109375 25.015625 9.71875 
Q 29.25 7.328125 35.359375 7.328125 
Q 45.796875 7.328125 50.234375 12.0625 
Q 54.6875 16.796875 54.6875 30.28125 
z
" id="ArialMT-55"/>
      <path id="ArialMT-20"/>
      <path d="M 7.859375 0 
L 7.859375 71.578125 
L 39.59375 71.578125 
Q 49.171875 71.578125 54.140625 69.640625 
Q 59.125 67.71875 62.109375 62.828125 
Q 65.09375 57.953125 65.09375 52.046875 
Q 65.09375 44.4375 60.15625 39.203125 
Q 55.21875 33.984375 44.921875 32.5625 
Q 48.6875 30.765625 50.640625 29 
Q 54.78125 25.203125 58.5 19.484375 
L 70.953125 0 
L 59.03125 0 
L 49.5625 14.890625 
Q 45.40625 21.34375 42.71875 24.75 
Q 40.046875 28.171875 37.921875 29.53125 
Q 35.796875 30.90625 33.59375 31.453125 
Q 31.984375 31.78125 28.328125 31.78125 
L 17.328125 31.78125 
L 17.328125 0 
z
M 17.328125 39.984375 
L 37.703125 39.984375 
Q 44.1875 39.984375 47.84375 41.328125 
Q 51.515625 42.671875 53.421875 45.625 
Q 55.328125 48.578125 55.328125 52.046875 
Q 55.328125 57.125 51.640625 60.390625 
Q 47.953125 63.671875 39.984375 63.671875 
L 17.328125 63.671875 
z
" id="ArialMT-52"/>
      <path d="M 40.4375 6.390625 
Q 35.546875 2.25 31.03125 0.53125 
Q 26.515625 -1.171875 21.34375 -1.171875 
Q 12.796875 -1.171875 8.203125 3 
Q 3.609375 7.171875 3.609375 13.671875 
Q 3.609375 17.484375 5.34375 20.625 
Q 7.078125 23.78125 9.890625 25.6875 
Q 12.703125 27.59375 16.21875 28.5625 
Q 18.796875 29.25 24.03125 29.890625 
Q 34.671875 31.15625 39.703125 32.90625 
Q 39.75 34.71875 39.75 35.203125 
Q 39.75 40.578125 37.25 42.78125 
Q 33.890625 45.75 27.25 45.75 
Q 21.046875 45.75 18.09375 43.578125 
Q 15.140625 41.40625 13.71875 35.890625 
L 5.125 37.0625 
Q 6.296875 42.578125 8.984375 45.96875 
Q 11.671875 49.359375 16.75 51.1875 
Q 21.828125 53.03125 28.515625 53.03125 
Q 35.15625 53.03125 39.296875 51.46875 
Q 43.453125 49.90625 45.40625 47.53125 
Q 47.359375 45.171875 48.140625 41.546875 
Q 48.578125 39.3125 48.578125 33.453125 
L 48.578125 21.734375 
Q 48.578125 9.46875 49.140625 6.21875 
Q 49.703125 2.984375 51.375 0 
L 42.1875 0 
Q 40.828125 2.734375 40.4375 6.390625 
z
M 39.703125 26.03125 
Q 34.90625 24.078125 25.34375 22.703125 
Q 19.921875 21.921875 17.671875 20.9375 
Q 15.4375 19.96875 14.203125 18.09375 
Q 12.984375 16.21875 12.984375 13.921875 
Q 12.984375 10.40625 15.640625 8.0625 
Q 18.3125 5.71875 23.4375 5.71875 
Q 28.515625 5.71875 32.46875 7.9375 
Q 36.421875 10.15625 38.28125 14.015625 
Q 39.703125 17 39.703125 22.796875 
z
" id="ArialMT-61"/>
     </defs>
     <g style="fill:#262626;" transform="translate(34.99465 216.857344)rotate(-90)scale(0.11 -0.11)">
      <use xlink:href="#ArialMT-55"/>
      <use x="72.216797" xlink:href="#ArialMT-6e"/>
      <use x="127.832031" xlink:href="#ArialMT-65"/>
      <use x="183.447266" xlink:href="#ArialMT-6d"/>
      <use x="266.748047" xlink:href="#ArialMT-70"/>
      <use x="322.363281" xlink:href="#ArialMT-6c"/>
      <use x="344.580078" xlink:href="#ArialMT-6f"/>
      <use x="400.195312" xlink:href="#ArialMT-79"/>
      <use x="450.195312" xlink:href="#ArialMT-6d"/>
      <use x="533.496094" xlink:href="#ArialMT-65"/>
      <use x="589.111328" xlink:href="#ArialMT-6e"/>
      <use x="644.726562" xlink:href="#ArialMT-74"/>
      <use x="672.509766" xlink:href="#ArialMT-20"/>
      <use x="700.292969" xlink:href="#ArialMT-52"/>
      <use x="772.509766" xlink:href="#ArialMT-61"/>
      <use x="828.125" xlink:href="#ArialMT-74"/>
      <use x="855.908203" xlink:href="#ArialMT-65"/>
     </g>
    </g>
   </g>
   <g id="PathCollection_1">
    <defs>
     <path d="M 0 3.5 
C 0.928211 3.5 1.81853 3.131218 2.474874 2.474874 
C 3.131218 1.81853 3.5 0.928211 3.5 0 
C 3.5 -0.928211 3.131218 -1.81853 2.474874 -2.474874 
C 1.81853 -3.131218 0.928211 -3.5 0 -3.5 
C -0.928211 -3.5 -1.81853 -3.131218 -2.474874 -2.474874 
C -3.131218 -1.81853 -3.5 -0.928211 -3.5 0 
C -3.5 0.928211 -3.131218 1.81853 -2.474874 2.474874 
C -1.81853 3.131218 -0.928211 3.5 0 3.5 
z
" id="m50372e6250"/>
    </defs>
    <g clip-path="url(#p1261c28cab)">
     <use style="fill:#4c72b0;fill-opacity:0.8;" x="78.58636" xlink:href="#m50372e6250" y="199.141305"/>
     <use style="fill:#4c72b0;fill-opacity:0.8;" x="231.313027" xlink:href="#m50372e6250" y="178.553016"/>
     <use style="fill:#4c72b0;fill-opacity:0.8;" x="341.778446" xlink:href="#m50372e6250" y="136.992985"/>
     <use style="fill:#4c72b0;fill-opacity:0.8;" x="141.468297" xlink:href="#m50372e6250" y="202.090917"/>
     <use style="fill:#4c72b0;fill-opacity:0.8;" x="285.566871" xlink:href="#m50372e6250" y="163.841828"/>
     <use style="fill:#4c72b0;fill-opacity:0.8;" x="129.440544" xlink:href="#m50372e6250" y="196.648883"/>
    </g>
   </g>
   <g id="PolyCollection_1">
    <path clip-path="url(#p1261c28cab)" d="M 65.272306 201.758234 
L 65.272306 229.048909 
L 68.199783 228.137348 
L 71.127259 227.225787 
L 74.054736 226.314225 
L 76.982213 225.402664 
L 79.90969 224.491103 
L 82.837166 223.579542 
L 85.764643 222.667981 
L 88.69212 221.75642 
L 91.619596 220.844859 
L 94.547073 219.933298 
L 97.47455 219.021737 
L 100.402026 218.110175 
L 103.329503 217.198614 
L 106.25698 216.287053 
L 109.184457 215.375492 
L 112.111933 214.463931 
L 115.03941 213.55237 
L 117.966887 212.640809 
L 120.894363 211.729248 
L 123.82184 210.817687 
L 126.749317 209.906126 
L 129.676794 208.994564 
L 132.60427 208.083003 
L 135.531747 207.171442 
L 138.459224 206.259881 
L 141.3867 205.34832 
L 144.314177 204.436759 
L 147.241654 203.525198 
L 150.16913 202.570771 
L 153.096607 201.598422 
L 156.024084 200.790514 
L 158.951561 199.922776 
L 161.879037 199.179491 
L 164.806514 198.24718 
L 167.733991 197.346559 
L 170.661467 196.382911 
L 173.588944 195.450776 
L 176.516421 194.518642 
L 179.443898 193.590243 
L 182.371374 192.657346 
L 185.298851 191.724448 
L 188.226328 190.858019 
L 191.153804 189.915628 
L 194.081281 189.04029 
L 197.008758 188.41768 
L 199.936235 188.051699 
L 202.863711 187.685717 
L 205.791188 187.309139 
L 208.718665 186.926751 
L 211.646141 186.559546 
L 214.573618 186.195595 
L 217.501095 185.831643 
L 220.428571 185.467691 
L 223.356048 185.10374 
L 226.283525 184.610212 
L 229.211002 183.453021 
L 232.138478 182.824148 
L 235.065955 182.400921 
L 237.993432 181.977695 
L 240.920908 181.554468 
L 243.848385 181.131242 
L 246.775862 180.741917 
L 249.703339 180.386109 
L 252.630815 180.030301 
L 255.558292 179.674493 
L 258.485769 179.318685 
L 261.413245 178.962877 
L 264.340722 178.607069 
L 267.268199 178.251262 
L 270.195675 177.895454 
L 273.123152 177.539646 
L 276.050629 177.183838 
L 278.978106 176.82803 
L 281.905582 176.472222 
L 284.833059 176.116414 
L 287.760536 175.760606 
L 290.688012 175.404798 
L 293.615489 175.04899 
L 296.542966 174.693183 
L 299.470443 174.334344 
L 302.397919 173.891433 
L 305.325396 173.448522 
L 308.252873 173.005612 
L 311.180349 172.562701 
L 314.107826 172.11979 
L 317.035303 171.676879 
L 319.96278 171.233968 
L 322.890256 170.791058 
L 325.817733 170.387836 
L 328.74521 170.011743 
L 331.672686 169.635651 
L 334.600163 169.259558 
L 337.52764 168.883465 
L 340.455116 168.507372 
L 343.382593 168.13128 
L 346.31007 167.755187 
L 349.237547 167.379094 
L 352.165023 167.003002 
L 355.0925 166.626909 
L 355.0925 134.064104 
L 355.0925 134.064104 
L 352.165023 134.958022 
L 349.237547 135.935883 
L 346.31007 136.743756 
L 343.382593 137.63646 
L 340.455116 138.477907 
L 337.52764 139.421867 
L 334.600163 140.31457 
L 331.672686 141.153787 
L 328.74521 141.936938 
L 325.817733 142.721581 
L 322.890256 143.531536 
L 319.96278 144.394577 
L 317.035303 145.138527 
L 314.107826 145.879779 
L 311.180349 146.740492 
L 308.252873 147.48555 
L 305.325396 148.345006 
L 302.397919 149.178129 
L 299.470443 149.940019 
L 296.542966 150.703555 
L 293.615489 151.531223 
L 290.688012 152.255385 
L 287.760536 152.979398 
L 284.833059 153.705438 
L 281.905582 154.48004 
L 278.978106 155.263937 
L 276.050629 156.047834 
L 273.123152 156.830494 
L 270.195675 157.56612 
L 267.268199 158.288054 
L 264.340722 159.009989 
L 261.413245 159.731923 
L 258.485769 160.453857 
L 255.558292 161.215346 
L 252.630815 162.035302 
L 249.703339 162.717745 
L 246.775862 163.400127 
L 243.848385 164.082509 
L 240.920908 164.764364 
L 237.993432 165.445732 
L 235.065955 166.1271 
L 232.138478 166.808468 
L 229.211002 167.489836 
L 226.283525 168.171203 
L 223.356048 168.858593 
L 220.428571 169.599845 
L 217.501095 170.336922 
L 214.573618 171.060153 
L 211.646141 171.783383 
L 208.718665 172.465761 
L 205.791188 173.105054 
L 202.863711 173.744347 
L 199.936235 174.38364 
L 197.008758 175.022934 
L 194.081281 175.666251 
L 191.153804 176.347619 
L 188.226328 177.028987 
L 185.298851 177.710355 
L 182.371374 178.391723 
L 179.443898 179.07309 
L 176.516421 179.754458 
L 173.588944 180.435826 
L 170.661467 181.142507 
L 167.733991 181.877914 
L 164.806514 182.613321 
L 161.879037 183.253581 
L 158.951561 183.891651 
L 156.024084 184.52972 
L 153.096607 185.205402 
L 150.16913 185.88677 
L 147.241654 186.568138 
L 144.314177 187.249506 
L 141.3867 187.930874 
L 138.459224 188.612242 
L 135.531747 189.29361 
L 132.60427 189.974977 
L 129.676794 190.656345 
L 126.749317 191.337713 
L 123.82184 192.019081 
L 120.894363 192.698821 
L 117.966887 193.245763 
L 115.03941 193.957131 
L 112.111933 194.495823 
L 109.184457 195.047085 
L 106.25698 195.523774 
L 103.329503 196.000864 
L 100.402026 196.626016 
L 97.47455 197.134497 
L 94.547073 197.642978 
L 91.619596 198.138016 
L 88.69212 198.64601 
L 85.764643 198.855651 
L 82.837166 199.048972 
L 79.90969 199.504215 
L 76.982213 199.995192 
L 74.054736 200.486168 
L 71.127259 200.957036 
L 68.199783 201.357617 
L 65.272306 201.758234 
z
" style="fill:#4c72b0;fill-opacity:0.15;"/>
   </g>
   <g id="PathCollection_2">
    <defs>
     <path d="M 0 3.5 
C 0.928211 3.5 1.81853 3.131218 2.474874 2.474874 
C 3.131218 1.81853 3.5 0.928211 3.5 0 
C 3.5 -0.928211 3.131218 -1.81853 2.474874 -2.474874 
C 1.81853 -3.131218 0.928211 -3.5 0 -3.5 
C -0.928211 -3.5 -1.81853 -3.131218 -2.474874 -2.474874 
C -3.131218 -1.81853 -3.5 -0.928211 -3.5 0 
C -3.5 0.928211 -3.131218 1.81853 -2.474874 2.474874 
C -1.81853 3.131218 -0.928211 3.5 0 3.5 
z
" id="md630c132b0"/>
    </defs>
    <g clip-path="url(#p1261c28cab)">
     <use style="fill:#55a868;fill-opacity:0.8;" x="145.266539" xlink:href="#md630c132b0" y="170.198241"/>
    </g>
   </g>
   <g id="PolyCollection_2">
    <path clip-path="url(#p1261c28cab)" d="M 65.272306 203.27864 
L 65.272306 203.27864 
L 68.199783 202.068027 
L 71.127259 200.857413 
L 74.054736 199.6468 
L 76.982213 198.436186 
L 79.90969 197.225573 
L 82.837166 196.014959 
L 85.764643 194.804346 
L 88.69212 193.593732 
L 91.619596 192.383119 
L 94.547073 191.172505 
L 97.47455 189.961892 
L 100.402026 188.751278 
L 103.329503 187.540665 
L 106.25698 186.330051 
L 109.184457 185.119438 
L 112.111933 183.908824 
L 115.03941 182.698211 
L 117.966887 181.487597 
L 120.894363 180.276984 
L 123.82184 179.06637 
L 126.749317 177.855757 
L 129.676794 176.645143 
L 132.60427 175.43453 
L 135.531747 174.223916 
L 138.459224 173.013303 
L 141.3867 171.802689 
L 144.314177 170.592076 
L 147.241654 169.381462 
L 150.16913 168.170849 
L 153.096607 166.960235 
L 156.024084 165.749622 
L 158.951561 164.539009 
L 161.879037 163.328395 
L 164.806514 162.117782 
L 167.733991 160.907168 
L 170.661467 159.696555 
L 173.588944 158.485941 
L 176.516421 157.275328 
L 179.443898 156.064714 
L 182.371374 154.854101 
L 185.298851 153.643487 
L 188.226328 152.432874 
L 191.153804 151.22226 
L 194.081281 150.011647 
L 197.008758 148.801033 
L 199.936235 147.59042 
L 202.863711 146.379806 
L 205.791188 145.169193 
L 208.718665 143.958579 
L 211.646141 142.747966 
L 214.573618 141.537352 
L 217.501095 140.326739 
L 220.428571 139.116125 
L 223.356048 137.905512 
L 226.283525 136.694898 
L 229.211002 135.484285 
L 232.138478 134.273671 
L 235.065955 133.063058 
L 237.993432 131.852444 
L 240.920908 130.641831 
L 243.848385 129.431218 
L 246.775862 128.220604 
L 249.703339 127.009991 
L 252.630815 125.799377 
L 255.558292 124.588764 
L 258.485769 123.37815 
L 261.413245 122.167537 
L 264.340722 120.956923 
L 267.268199 119.74631 
L 270.195675 118.535696 
L 273.123152 117.325083 
L 276.050629 116.114469 
L 278.978106 114.903856 
L 281.905582 113.693242 
L 284.833059 112.482629 
L 287.760536 111.272015 
L 290.688012 110.061402 
L 293.615489 108.850788 
L 296.542966 107.640175 
L 299.470443 106.429561 
L 302.397919 105.218948 
L 305.325396 104.008334 
L 308.252873 102.797721 
L 311.180349 101.587107 
L 314.107826 100.376494 
L 317.035303 99.16588 
L 319.96278 97.955267 
L 322.890256 96.744653 
L 325.817733 95.53404 
L 328.74521 94.323426 
L 331.672686 93.112813 
L 334.600163 91.9022 
L 337.52764 90.691586 
L 340.455116 89.480973 
L 343.382593 88.270359 
L 346.31007 87.059746 
L 349.237547 85.849132 
L 352.165023 84.638519 
L 355.0925 83.427905 
L 355.0925 83.427905 
L 355.0925 83.427905 
L 352.165023 84.638519 
L 349.237547 85.849132 
L 346.31007 87.059746 
L 343.382593 88.270359 
L 340.455116 89.480973 
L 337.52764 90.691586 
L 334.600163 91.9022 
L 331.672686 93.112813 
L 328.74521 94.323426 
L 325.817733 95.53404 
L 322.890256 96.744653 
L 319.96278 97.955267 
L 317.035303 99.16588 
L 314.107826 100.376494 
L 311.180349 101.587107 
L 308.252873 102.797721 
L 305.325396 104.008334 
L 302.397919 105.218948 
L 299.470443 106.429561 
L 296.542966 107.640175 
L 293.615489 108.850788 
L 290.688012 110.061402 
L 287.760536 111.272015 
L 284.833059 112.482629 
L 281.905582 113.693242 
L 278.978106 114.903856 
L 276.050629 116.114469 
L 273.123152 117.325083 
L 270.195675 118.535696 
L 267.268199 119.74631 
L 264.340722 120.956923 
L 261.413245 122.167537 
L 258.485769 123.37815 
L 255.558292 124.588764 
L 252.630815 125.799377 
L 249.703339 127.009991 
L 246.775862 128.220604 
L 243.848385 129.431218 
L 240.920908 130.641831 
L 237.993432 131.852444 
L 235.065955 133.063058 
L 232.138478 134.273671 
L 229.211002 135.484285 
L 226.283525 136.694898 
L 223.356048 137.905512 
L 220.428571 139.116125 
L 217.501095 140.326739 
L 214.573618 141.537352 
L 211.646141 142.747966 
L 208.718665 143.958579 
L 205.791188 145.169193 
L 202.863711 146.379806 
L 199.936235 147.59042 
L 197.008758 148.801033 
L 194.081281 150.011647 
L 191.153804 151.22226 
L 188.226328 152.432874 
L 185.298851 153.643487 
L 182.371374 154.854101 
L 179.443898 156.064714 
L 176.516421 157.275328 
L 173.588944 158.485941 
L 170.661467 159.696555 
L 167.733991 160.907168 
L 164.806514 162.117782 
L 161.879037 163.328395 
L 158.951561 164.539009 
L 156.024084 165.749622 
L 153.096607 166.960235 
L 150.16913 168.170849 
L 147.241654 169.381462 
L 144.314177 170.592076 
L 141.3867 171.802689 
L 138.459224 173.013303 
L 135.531747 174.223916 
L 132.60427 175.43453 
L 129.676794 176.645143 
L 126.749317 177.855757 
L 123.82184 179.06637 
L 120.894363 180.276984 
L 117.966887 181.487597 
L 115.03941 182.698211 
L 112.111933 183.908824 
L 109.184457 185.119438 
L 106.25698 186.330051 
L 103.329503 187.540665 
L 100.402026 188.751278 
L 97.47455 189.961892 
L 94.547073 191.172505 
L 91.619596 192.383119 
L 88.69212 193.593732 
L 85.764643 194.804346 
L 82.837166 196.014959 
L 79.90969 197.225573 
L 76.982213 198.436186 
L 74.054736 199.6468 
L 71.127259 200.857413 
L 68.199783 202.068027 
L 65.272306 203.27864 
z
" style="fill:#55a868;fill-opacity:0.15;"/>
   </g>
   <g id="PathCollection_3">
    <defs>
     <path d="M 0 3.5 
C 0.928211 3.5 1.81853 3.131218 2.474874 2.474874 
C 3.131218 1.81853 3.5 0.928211 3.5 0 
C 3.5 -0.928211 3.131218 -1.81853 2.474874 -2.474874 
C 1.81853 -3.131218 0.928211 -3.5 0 -3.5 
C -0.928211 -3.5 -1.81853 -3.131218 -2.474874 -2.474874 
C -3.131218 -1.81853 -3.5 -0.928211 -3.5 0 
C -3.5 0.928211 -3.131218 1.81853 -2.474874 2.474874 
C -1.81853 3.131218 -0.928211 3.5 0 3.5 
z
" id="m6d29e22204"/>
    </defs>
    <g clip-path="url(#p1261c28cab)">
     <use style="fill:#c44e52;fill-opacity:0.8;" x="129.862568" xlink:href="#m6d29e22204" y="134.412079"/>
     <use style="fill:#c44e52;fill-opacity:0.8;" x="191.771506" xlink:href="#m6d29e22204" y="183.375631"/>
     <use style="fill:#c44e52;fill-opacity:0.8;" x="118.87816" xlink:href="#m6d29e22204" y="190.454699"/>
     <use style="fill:#c44e52;fill-opacity:0.8;" x="214.08029" xlink:href="#m6d29e22204" y="194.761132"/>
     <use style="fill:#c44e52;fill-opacity:0.8;" x="223.400041" xlink:href="#m6d29e22204" y="124.685733"/>
     <use style="fill:#c44e52;fill-opacity:0.8;" x="190.106844" xlink:href="#m6d29e22204" y="177.092958"/>
     <use style="fill:#c44e52;fill-opacity:0.8;" x="269.494695" xlink:href="#m6d29e22204" y="116.714405"/>
    </g>
   </g>
   <g id="PolyCollection_3">
    <path clip-path="url(#p1261c28cab)" d="M 65.272306 121.372905 
L 65.272306 303.332528 
L 68.199783 300.634349 
L 71.127259 297.966568 
L 74.054736 295.298787 
L 76.982213 292.631005 
L 79.90969 289.963224 
L 82.837166 287.295443 
L 85.764643 284.627662 
L 88.69212 281.95988 
L 91.619596 279.110861 
L 94.547073 276.255965 
L 97.47455 273.399719 
L 100.402026 270.543474 
L 103.329503 267.673678 
L 106.25698 264.84687 
L 109.184457 262.00553 
L 112.111933 259.163727 
L 115.03941 256.342482 
L 117.966887 253.806873 
L 120.894363 251.271264 
L 123.82184 248.735656 
L 126.749317 246.200047 
L 129.676794 243.663633 
L 132.60427 241.120759 
L 135.531747 238.577884 
L 138.459224 235.788684 
L 141.3867 232.993093 
L 144.314177 230.053322 
L 147.241654 227.108594 
L 150.16913 224.163866 
L 153.096607 221.218993 
L 156.024084 218.270999 
L 158.951561 215.531709 
L 161.879037 213.521937 
L 164.806514 211.510233 
L 167.733991 209.035872 
L 170.661467 206.024998 
L 173.588944 203.365241 
L 176.516421 201.09876 
L 179.443898 198.040261 
L 182.371374 194.917856 
L 185.298851 192.514056 
L 188.226328 190.420759 
L 191.153804 188.396243 
L 194.081281 187.03241 
L 197.008758 186.771036 
L 199.936235 187.027501 
L 202.863711 187.725155 
L 205.791188 188.652442 
L 208.718665 189.358338 
L 211.646141 190.245948 
L 214.573618 191.118619 
L 217.501095 191.784973 
L 220.428571 192.858132 
L 223.356048 194.035988 
L 226.283525 194.735114 
L 229.211002 195.525257 
L 232.138478 196.810227 
L 235.065955 198.020517 
L 237.993432 198.929344 
L 240.920908 199.835209 
L 243.848385 200.741073 
L 246.775862 201.646938 
L 249.703339 202.607601 
L 252.630815 203.739719 
L 255.558292 204.876259 
L 258.485769 206.013655 
L 261.413245 207.151052 
L 264.340722 208.288448 
L 267.268199 209.425845 
L 270.195675 210.54479 
L 273.123152 211.488763 
L 276.050629 212.428368 
L 278.978106 213.367974 
L 281.905582 214.30758 
L 284.833059 215.247185 
L 287.760536 216.186791 
L 290.688012 217.126396 
L 293.615489 218.066002 
L 296.542966 219.005608 
L 299.470443 219.945213 
L 302.397919 220.884819 
L 305.325396 221.824424 
L 308.252873 222.76403 
L 311.180349 223.703635 
L 314.107826 224.643241 
L 317.035303 225.582847 
L 319.96278 226.668862 
L 322.890256 227.756529 
L 325.817733 228.844195 
L 328.74521 229.808625 
L 331.672686 230.903918 
L 334.600163 232.118303 
L 337.52764 233.355245 
L 340.455116 234.626283 
L 343.382593 235.757336 
L 346.31007 236.725186 
L 349.237547 237.692929 
L 352.165023 238.689655 
L 355.0925 239.784881 
L 355.0925 30.120597 
L 355.0925 30.120597 
L 352.165023 33.055581 
L 349.237547 35.990565 
L 346.31007 38.763766 
L 343.382593 41.394873 
L 340.455116 44.02598 
L 337.52764 46.657087 
L 334.600163 49.288194 
L 331.672686 51.915031 
L 328.74521 54.541148 
L 325.817733 57.167265 
L 322.890256 59.793382 
L 319.96278 62.568678 
L 317.035303 65.537359 
L 314.107826 68.067576 
L 311.180349 71.289142 
L 308.252873 73.953867 
L 305.325396 76.483757 
L 302.397919 79.022134 
L 299.470443 81.560809 
L 296.542966 84.470714 
L 293.615489 87.44822 
L 290.688012 90.287659 
L 287.760536 92.778354 
L 284.833059 95.207108 
L 281.905582 97.638034 
L 278.978106 99.732343 
L 276.050629 102.361738 
L 273.123152 104.437371 
L 270.195675 107.063488 
L 267.268199 109.681469 
L 264.340722 111.725373 
L 261.413245 113.541378 
L 258.485769 115.436601 
L 255.558292 117.050657 
L 252.630815 118.635887 
L 249.703339 119.78113 
L 246.775862 121.041768 
L 243.848385 122.045208 
L 240.920908 123.407265 
L 237.993432 124.403638 
L 235.065955 125.382969 
L 232.138478 126.947386 
L 229.211002 128.326428 
L 226.283525 128.985497 
L 223.356048 130.165915 
L 220.428571 130.95201 
L 217.501095 131.999483 
L 214.573618 133.180189 
L 211.646141 133.828519 
L 208.718665 134.479158 
L 205.791188 135.114083 
L 202.863711 136.022162 
L 199.936235 136.468324 
L 197.008758 137.029083 
L 194.081281 137.954884 
L 191.153804 138.652556 
L 188.226328 139.674096 
L 185.298851 140.737269 
L 182.371374 141.69212 
L 179.443898 142.399645 
L 176.516421 142.854474 
L 173.588944 143.427505 
L 170.661467 144.143533 
L 167.733991 144.343648 
L 164.806514 144.837864 
L 161.879037 144.746011 
L 158.951561 144.88319 
L 156.024084 145.280767 
L 153.096607 145.903759 
L 150.16913 145.80486 
L 147.241654 145.546424 
L 144.314177 144.825983 
L 141.3867 143.706745 
L 138.459224 141.850792 
L 135.531747 141.762539 
L 132.60427 141.340737 
L 129.676794 141.207165 
L 126.749317 140.086829 
L 123.82184 139.682468 
L 120.894363 139.240423 
L 117.966887 137.98903 
L 115.03941 137.314196 
L 112.111933 136.831704 
L 109.184457 136.655066 
L 106.25698 135.81406 
L 103.329503 135.330499 
L 100.402026 134.846938 
L 97.47455 134.086317 
L 94.547073 132.974242 
L 91.619596 131.862167 
L 88.69212 130.750091 
L 85.764643 129.638016 
L 82.837166 128.327868 
L 79.90969 126.908363 
L 76.982213 125.895758 
L 74.054736 124.937283 
L 71.127259 123.978808 
L 68.199783 122.719515 
L 65.272306 121.372905 
z
" style="fill:#c44e52;fill-opacity:0.15;"/>
   </g>
   <g id="line2d_14">
    <path clip-path="url(#p1261c28cab)" d="M 65.272306 212.058519 
L 68.199783 211.359089 
L 71.127259 210.659658 
L 74.054736 209.960228 
L 76.982213 209.260798 
L 79.90969 208.561368 
L 82.837166 207.861938 
L 85.764643 207.162507 
L 88.69212 206.463077 
L 91.619596 205.763647 
L 94.547073 205.064217 
L 97.47455 204.364787 
L 100.402026 203.665356 
L 103.329503 202.965926 
L 106.25698 202.266496 
L 109.184457 201.567066 
L 112.111933 200.867636 
L 115.03941 200.168206 
L 117.966887 199.468775 
L 120.894363 198.769345 
L 123.82184 198.069915 
L 126.749317 197.370485 
L 129.676794 196.671055 
L 132.60427 195.971624 
L 135.531747 195.272194 
L 138.459224 194.572764 
L 141.3867 193.873334 
L 144.314177 193.173904 
L 147.241654 192.474474 
L 150.16913 191.775043 
L 153.096607 191.075613 
L 156.024084 190.376183 
L 158.951561 189.676753 
L 161.879037 188.977323 
L 164.806514 188.277892 
L 167.733991 187.578462 
L 170.661467 186.879032 
L 173.588944 186.179602 
L 176.516421 185.480172 
L 179.443898 184.780741 
L 182.371374 184.081311 
L 185.298851 183.381881 
L 188.226328 182.682451 
L 191.153804 181.983021 
L 194.081281 181.283591 
L 197.008758 180.58416 
L 199.936235 179.88473 
L 202.863711 179.1853 
L 205.791188 178.48587 
L 208.718665 177.78644 
L 211.646141 177.087009 
L 214.573618 176.387579 
L 217.501095 175.688149 
L 220.428571 174.988719 
L 223.356048 174.289289 
L 226.283525 173.589859 
L 229.211002 172.890428 
L 232.138478 172.190998 
L 235.065955 171.491568 
L 237.993432 170.792138 
L 240.920908 170.092708 
L 243.848385 169.393277 
L 246.775862 168.693847 
L 249.703339 167.994417 
L 252.630815 167.294987 
L 255.558292 166.595557 
L 258.485769 165.896126 
L 261.413245 165.196696 
L 264.340722 164.497266 
L 267.268199 163.797836 
L 270.195675 163.098406 
L 273.123152 162.398976 
L 276.050629 161.699545 
L 278.978106 161.000115 
L 281.905582 160.300685 
L 284.833059 159.601255 
L 287.760536 158.901825 
L 290.688012 158.202394 
L 293.615489 157.502964 
L 296.542966 156.803534 
L 299.470443 156.104104 
L 302.397919 155.404674 
L 305.325396 154.705243 
L 308.252873 154.005813 
L 311.180349 153.306383 
L 314.107826 152.606953 
L 317.035303 151.907523 
L 319.96278 151.208093 
L 322.890256 150.508662 
L 325.817733 149.809232 
L 328.74521 149.109802 
L 331.672686 148.410372 
L 334.600163 147.710942 
L 337.52764 147.011511 
L 340.455116 146.312081 
L 343.382593 145.612651 
L 346.31007 144.913221 
L 349.237547 144.213791 
L 352.165023 143.514361 
L 355.0925 142.81493 
" style="fill:none;stroke:#4c72b0;stroke-linecap:round;stroke-width:2.625;"/>
   </g>
   <g id="line2d_15">
    <path clip-path="url(#p1261c28cab)" d="M 65.272306 203.27864 
L 68.199783 202.068027 
L 71.127259 200.857413 
L 74.054736 199.6468 
L 76.982213 198.436186 
L 79.90969 197.225573 
L 82.837166 196.014959 
L 85.764643 194.804346 
L 88.69212 193.593732 
L 91.619596 192.383119 
L 94.547073 191.172505 
L 97.47455 189.961892 
L 100.402026 188.751278 
L 103.329503 187.540665 
L 106.25698 186.330051 
L 109.184457 185.119438 
L 112.111933 183.908824 
L 115.03941 182.698211 
L 117.966887 181.487597 
L 120.894363 180.276984 
L 123.82184 179.06637 
L 126.749317 177.855757 
L 129.676794 176.645143 
L 132.60427 175.43453 
L 135.531747 174.223916 
L 138.459224 173.013303 
L 141.3867 171.802689 
L 144.314177 170.592076 
L 147.241654 169.381462 
L 150.16913 168.170849 
L 153.096607 166.960235 
L 156.024084 165.749622 
L 158.951561 164.539009 
L 161.879037 163.328395 
L 164.806514 162.117782 
L 167.733991 160.907168 
L 170.661467 159.696555 
L 173.588944 158.485941 
L 176.516421 157.275328 
L 179.443898 156.064714 
L 182.371374 154.854101 
L 185.298851 153.643487 
L 188.226328 152.432874 
L 191.153804 151.22226 
L 194.081281 150.011647 
L 197.008758 148.801033 
L 199.936235 147.59042 
L 202.863711 146.379806 
L 205.791188 145.169193 
L 208.718665 143.958579 
L 211.646141 142.747966 
L 214.573618 141.537352 
L 217.501095 140.326739 
L 220.428571 139.116125 
L 223.356048 137.905512 
L 226.283525 136.694898 
L 229.211002 135.484285 
L 232.138478 134.273671 
L 235.065955 133.063058 
L 237.993432 131.852444 
L 240.920908 130.641831 
L 243.848385 129.431218 
L 246.775862 128.220604 
L 249.703339 127.009991 
L 252.630815 125.799377 
L 255.558292 124.588764 
L 258.485769 123.37815 
L 261.413245 122.167537 
L 264.340722 120.956923 
L 267.268199 119.74631 
L 270.195675 118.535696 
L 273.123152 117.325083 
L 276.050629 116.114469 
L 278.978106 114.903856 
L 281.905582 113.693242 
L 284.833059 112.482629 
L 287.760536 111.272015 
L 290.688012 110.061402 
L 293.615489 108.850788 
L 296.542966 107.640175 
L 299.470443 106.429561 
L 302.397919 105.218948 
L 305.325396 104.008334 
L 308.252873 102.797721 
L 311.180349 101.587107 
L 314.107826 100.376494 
L 317.035303 99.16588 
L 319.96278 97.955267 
L 322.890256 96.744653 
L 325.817733 95.53404 
L 328.74521 94.323426 
L 331.672686 93.112813 
L 334.600163 91.9022 
L 337.52764 90.691586 
L 340.455116 89.480973 
L 343.382593 88.270359 
L 346.31007 87.059746 
L 349.237547 85.849132 
L 352.165023 84.638519 
L 355.0925 83.427905 
" style="fill:none;stroke:#55a868;stroke-linecap:round;stroke-width:2.625;"/>
   </g>
   <g id="line2d_16">
    <path clip-path="url(#p1261c28cab)" d="M 65.272306 193.158963 
L 68.199783 192.392376 
L 71.127259 191.62579 
L 74.054736 190.859204 
L 76.982213 190.092618 
L 79.90969 189.326031 
L 82.837166 188.559445 
L 85.764643 187.792859 
L 88.69212 187.026273 
L 91.619596 186.259686 
L 94.547073 185.4931 
L 97.47455 184.726514 
L 100.402026 183.959928 
L 103.329503 183.193342 
L 106.25698 182.426755 
L 109.184457 181.660169 
L 112.111933 180.893583 
L 115.03941 180.126997 
L 117.966887 179.36041 
L 120.894363 178.593824 
L 123.82184 177.827238 
L 126.749317 177.060652 
L 129.676794 176.294065 
L 132.60427 175.527479 
L 135.531747 174.760893 
L 138.459224 173.994307 
L 141.3867 173.227721 
L 144.314177 172.461134 
L 147.241654 171.694548 
L 150.16913 170.927962 
L 153.096607 170.161376 
L 156.024084 169.394789 
L 158.951561 168.628203 
L 161.879037 167.861617 
L 164.806514 167.095031 
L 167.733991 166.328444 
L 170.661467 165.561858 
L 173.588944 164.795272 
L 176.516421 164.028686 
L 179.443898 163.2621 
L 182.371374 162.495513 
L 185.298851 161.728927 
L 188.226328 160.962341 
L 191.153804 160.195755 
L 194.081281 159.429168 
L 197.008758 158.662582 
L 199.936235 157.895996 
L 202.863711 157.12941 
L 205.791188 156.362823 
L 208.718665 155.596237 
L 211.646141 154.829651 
L 214.573618 154.063065 
L 217.501095 153.296479 
L 220.428571 152.529892 
L 223.356048 151.763306 
L 226.283525 150.99672 
L 229.211002 150.230134 
L 232.138478 149.463547 
L 235.065955 148.696961 
L 237.993432 147.930375 
L 240.920908 147.163789 
L 243.848385 146.397202 
L 246.775862 145.630616 
L 249.703339 144.86403 
L 252.630815 144.097444 
L 255.558292 143.330858 
L 258.485769 142.564271 
L 261.413245 141.797685 
L 264.340722 141.031099 
L 267.268199 140.264513 
L 270.195675 139.497926 
L 273.123152 138.73134 
L 276.050629 137.964754 
L 278.978106 137.198168 
L 281.905582 136.431581 
L 284.833059 135.664995 
L 287.760536 134.898409 
L 290.688012 134.131823 
L 293.615489 133.365237 
L 296.542966 132.59865 
L 299.470443 131.832064 
L 302.397919 131.065478 
L 305.325396 130.298892 
L 308.252873 129.532305 
L 311.180349 128.765719 
L 314.107826 127.999133 
L 317.035303 127.232547 
L 319.96278 126.46596 
L 322.890256 125.699374 
L 325.817733 124.932788 
L 328.74521 124.166202 
L 331.672686 123.399616 
L 334.600163 122.633029 
L 337.52764 121.866443 
L 340.455116 121.099857 
L 343.382593 120.333271 
L 346.31007 119.566684 
L 349.237547 118.800098 
L 352.165023 118.033512 
L 355.0925 117.266926 
" style="fill:none;stroke:#c44e52;stroke-linecap:round;stroke-width:2.625;"/>
   </g>
   <g id="patch_3">
    <path d="M 65.272306 316.993125 
L 65.272306 16.46 
" style="fill:none;stroke:#262626;stroke-linecap:square;stroke-linejoin:miter;stroke-width:1.25;"/>
   </g>
   <g id="patch_4">
    <path d="M 65.272306 316.993125 
L 355.0925 316.993125 
" style="fill:none;stroke:#262626;stroke-linecap:square;stroke-linejoin:miter;stroke-width:1.25;"/>
   </g>
  </g>
  <g id="legend_1">
   <g id="text_16">
    <!-- income_group -->
    <defs>
     <path d="M 4.984375 -4.296875 
L 13.53125 -5.5625 
Q 14.0625 -9.515625 16.5 -11.328125 
Q 19.78125 -13.765625 25.4375 -13.765625 
Q 31.546875 -13.765625 34.859375 -11.328125 
Q 38.1875 -8.890625 39.359375 -4.5 
Q 40.046875 -1.8125 39.984375 6.78125 
Q 34.234375 0 25.640625 0 
Q 14.9375 0 9.078125 7.71875 
Q 3.21875 15.4375 3.21875 26.21875 
Q 3.21875 33.640625 5.90625 39.90625 
Q 8.59375 46.1875 13.6875 49.609375 
Q 18.796875 53.03125 25.6875 53.03125 
Q 34.859375 53.03125 40.828125 45.609375 
L 40.828125 51.859375 
L 48.921875 51.859375 
L 48.921875 7.03125 
Q 48.921875 -5.078125 46.453125 -10.125 
Q 44 -15.1875 38.640625 -18.109375 
Q 33.296875 -21.046875 25.484375 -21.046875 
Q 16.21875 -21.046875 10.5 -16.875 
Q 4.78125 -12.703125 4.984375 -4.296875 
z
M 12.25 26.859375 
Q 12.25 16.65625 16.296875 11.96875 
Q 20.359375 7.28125 26.46875 7.28125 
Q 32.515625 7.28125 36.609375 11.9375 
Q 40.71875 16.609375 40.71875 26.5625 
Q 40.71875 36.078125 36.5 40.90625 
Q 32.28125 45.75 26.3125 45.75 
Q 20.453125 45.75 16.34375 40.984375 
Q 12.25 36.234375 12.25 26.859375 
z
" id="ArialMT-67"/>
    </defs>
    <g style="fill:#262626;" transform="translate(390.884484 161.144367)scale(0.0935 -0.0935)">
     <use xlink:href="#ArialMT-69"/>
     <use x="22.216797" xlink:href="#ArialMT-6e"/>
     <use x="77.832031" xlink:href="#ArialMT-63"/>
     <use x="127.832031" xlink:href="#ArialMT-6f"/>
     <use x="183.447266" xlink:href="#ArialMT-6d"/>
     <use x="266.748047" xlink:href="#ArialMT-65"/>
     <use x="322.363281" xlink:href="#ArialMT-5f"/>
     <use x="377.978516" xlink:href="#ArialMT-67"/>
     <use x="433.59375" xlink:href="#ArialMT-72"/>
     <use x="466.894531" xlink:href="#ArialMT-6f"/>
     <use x="522.509766" xlink:href="#ArialMT-75"/>
     <use x="578.125" xlink:href="#ArialMT-70"/>
    </g>
   </g>
   <g id="PathCollection_4">
    <g>
     <use style="fill:#4c72b0;fill-opacity:0.8;" x="369.26875" xlink:href="#m50372e6250" y="172.645062"/>
    </g>
   </g>
   <g id="text_17">
    <!-- Low income -->
    <defs>
     <path d="M 7.328125 0 
L 7.328125 71.578125 
L 16.796875 71.578125 
L 16.796875 8.453125 
L 52.046875 8.453125 
L 52.046875 0 
z
" id="ArialMT-4c"/>
     <path d="M 16.15625 0 
L 0.296875 51.859375 
L 9.375 51.859375 
L 17.625 21.921875 
L 20.703125 10.796875 
Q 20.90625 11.625 23.390625 21.484375 
L 31.640625 51.859375 
L 40.671875 51.859375 
L 48.4375 21.78125 
L 51.03125 11.859375 
L 54 21.875 
L 62.890625 51.859375 
L 71.4375 51.859375 
L 55.21875 0 
L 46.09375 0 
L 37.84375 31.0625 
L 35.84375 39.890625 
L 25.34375 0 
z
" id="ArialMT-77"/>
    </defs>
    <g style="fill:#262626;" transform="translate(387.26875 175.270062)scale(0.1 -0.1)">
     <use xlink:href="#ArialMT-4c"/>
     <use x="55.615234" xlink:href="#ArialMT-6f"/>
     <use x="111.230469" xlink:href="#ArialMT-77"/>
     <use x="183.447266" xlink:href="#ArialMT-20"/>
     <use x="211.230469" xlink:href="#ArialMT-69"/>
     <use x="233.447266" xlink:href="#ArialMT-6e"/>
     <use x="289.0625" xlink:href="#ArialMT-63"/>
     <use x="339.0625" xlink:href="#ArialMT-6f"/>
     <use x="394.677734" xlink:href="#ArialMT-6d"/>
     <use x="477.978516" xlink:href="#ArialMT-65"/>
    </g>
   </g>
   <g id="PathCollection_5">
    <g>
     <use style="fill:#55a868;fill-opacity:0.8;" x="369.26875" xlink:href="#md630c132b0" y="186.790375"/>
    </g>
   </g>
   <g id="text_18">
    <!-- Upper middle income -->
    <g style="fill:#262626;" transform="translate(387.26875 189.415375)scale(0.1 -0.1)">
     <use xlink:href="#ArialMT-55"/>
     <use x="72.216797" xlink:href="#ArialMT-70"/>
     <use x="127.832031" xlink:href="#ArialMT-70"/>
     <use x="183.447266" xlink:href="#ArialMT-65"/>
     <use x="239.0625" xlink:href="#ArialMT-72"/>
     <use x="272.363281" xlink:href="#ArialMT-20"/>
     <use x="300.146484" xlink:href="#ArialMT-6d"/>
     <use x="383.447266" xlink:href="#ArialMT-69"/>
     <use x="405.664062" xlink:href="#ArialMT-64"/>
     <use x="461.279297" xlink:href="#ArialMT-64"/>
     <use x="516.894531" xlink:href="#ArialMT-6c"/>
     <use x="539.111328" xlink:href="#ArialMT-65"/>
     <use x="594.726562" xlink:href="#ArialMT-20"/>
     <use x="622.509766" xlink:href="#ArialMT-69"/>
     <use x="644.726562" xlink:href="#ArialMT-6e"/>
     <use x="700.341797" xlink:href="#ArialMT-63"/>
     <use x="750.341797" xlink:href="#ArialMT-6f"/>
     <use x="805.957031" xlink:href="#ArialMT-6d"/>
     <use x="889.257812" xlink:href="#ArialMT-65"/>
    </g>
   </g>
   <g id="PathCollection_6">
    <g>
     <use style="fill:#c44e52;fill-opacity:0.8;" x="369.26875" xlink:href="#m6d29e22204" y="200.935688"/>
    </g>
   </g>
   <g id="text_19">
    <!-- Lower middle income -->
    <g style="fill:#262626;" transform="translate(387.26875 203.560688)scale(0.1 -0.1)">
     <use xlink:href="#ArialMT-4c"/>
     <use x="55.615234" xlink:href="#ArialMT-6f"/>
     <use x="111.230469" xlink:href="#ArialMT-77"/>
     <use x="183.447266" xlink:href="#ArialMT-65"/>
     <use x="239.0625" xlink:href="#ArialMT-72"/>
     <use x="272.363281" xlink:href="#ArialMT-20"/>
     <use x="300.146484" xlink:href="#ArialMT-6d"/>
     <use x="383.447266" xlink:href="#ArialMT-69"/>
     <use x="405.664062" xlink:href="#ArialMT-64"/>
     <use x="461.279297" xlink:href="#ArialMT-64"/>
     <use x="516.894531" xlink:href="#ArialMT-6c"/>
     <use x="539.111328" xlink:href="#ArialMT-65"/>
     <use x="594.726562" xlink:href="#ArialMT-20"/>
     <use x="622.509766" xlink:href="#ArialMT-69"/>
     <use x="644.726562" xlink:href="#ArialMT-6e"/>
     <use x="700.341797" xlink:href="#ArialMT-63"/>
     <use x="750.341797" xlink:href="#ArialMT-6f"/>
     <use x="805.957031" xlink:href="#ArialMT-6d"/>
     <use x="889.257812" xlink:href="#ArialMT-65"/>
    </g>
   </g>
  </g>
 </g>
 <defs>
  <clipPath id="p1261c28cab">
   <rect height="300.533125" width="289.820194" x="65.272306" y="16.46"/>
  </clipPath>
 </defs>
</svg>
