<?xml version="1.0" encoding="utf-8" standalone="no"?>
<!DOCTYPE svg PUBLIC "-//W3C//DTD SVG 1.1//EN"
  "http://www.w3.org/Graphics/SVG/1.1/DTD/svg11.dtd">
<!-- Created with matplotlib (http://matplotlib.org/) -->
<svg height="360pt" version="1.1" viewBox="0 0 503.125 360" width="503.125pt" xmlns="http://www.w3.org/2000/svg" xmlns:xlink="http://www.w3.org/1999/xlink">
 <defs>
  <style type="text/css">
*{stroke-linecap:butt;stroke-linejoin:round;}
  </style>
 </defs>
 <g id="figure_1">
  <g id="patch_1">
   <path d="M 0 360 
L 503.125 360 
L 503.125 0 
L 0 0 
z
" style="fill:#ffffff;"/>
  </g>
  <g id="axes_1">
   <g id="patch_2">
    <path d="M 67.895671 317.29375 
L 354.96875 317.29375 
L 354.96875 14.8 
L 67.895671 14.8 
z
" style="fill:#ffffff;"/>
   </g>
   <g id="PathCollection_1">
    <defs>
     <path d="M 0 3 
C 0.795609 3 1.55874 2.683901 2.12132 2.12132 
C 2.683901 1.55874 3 0.795609 3 0 
C 3 -0.795609 2.683901 -1.55874 2.12132 -2.12132 
C 1.55874 -2.683901 0.795609 -3 0 -3 
C -0.795609 -3 -1.55874 -2.683901 -2.12132 -2.12132 
C -2.683901 -1.55874 -3 -0.795609 -3 0 
C -3 0.795609 -2.683901 1.55874 -2.12132 2.12132 
C -1.55874 2.683901 -0.795609 3 0 3 
z
" id="me91fe69fa6" style="stroke:#1f77b4;stroke-opacity:0.8;"/>
    </defs>
    <g clip-path="url(#p22f73e36dd)">
     <use style="fill:#1f77b4;fill-opacity:0.8;stroke:#1f77b4;stroke-opacity:0.8;" x="341.869401" xlink:href="#me91fe69fa6" y="224.54647"/>
     <use style="fill:#1f77b4;fill-opacity:0.8;stroke:#1f77b4;stroke-opacity:0.8;" x="163.657388" xlink:href="#me91fe69fa6" y="197.578184"/>
     <use style="fill:#1f77b4;fill-opacity:0.8;stroke:#1f77b4;stroke-opacity:0.8;" x="80.99502" xlink:href="#me91fe69fa6" y="143.139334"/>
     <use style="fill:#1f77b4;fill-opacity:0.8;stroke:#1f77b4;stroke-opacity:0.8;" x="230.116866" xlink:href="#me91fe69fa6" y="228.410123"/>
     <use style="fill:#1f77b4;fill-opacity:0.8;stroke:#1f77b4;stroke-opacity:0.8;" x="157.198919" xlink:href="#me91fe69fa6" y="178.308224"/>
     <use style="fill:#1f77b4;fill-opacity:0.8;stroke:#1f77b4;stroke-opacity:0.8;" x="245.382287" xlink:href="#me91fe69fa6" y="221.281686"/>
    </g>
   </g>
   <g id="PolyCollection_1">
    <path clip-path="url(#p22f73e36dd)" d="M 67.895671 132.430907 
L 67.895671 198.489464 
L 70.795399 198.805957 
L 73.695127 199.12245 
L 76.594855 199.438944 
L 79.494583 199.755437 
L 82.394311 200.071931 
L 85.294039 200.388424 
L 88.193767 200.704917 
L 91.093495 201.021411 
L 93.993223 201.337904 
L 96.892951 201.654397 
L 99.792679 201.970891 
L 102.692407 202.287384 
L 105.592136 202.603877 
L 108.491864 202.920371 
L 111.391592 203.236864 
L 114.29132 203.553357 
L 117.191048 203.869851 
L 120.090776 204.186344 
L 122.990504 204.502837 
L 125.890232 204.819331 
L 128.78996 205.135824 
L 131.689688 205.452317 
L 134.589416 205.768811 
L 137.489144 206.085304 
L 140.388872 206.401797 
L 143.288601 206.718291 
L 146.188329 207.034784 
L 149.088057 207.351278 
L 151.987785 207.667771 
L 154.887513 207.984264 
L 157.787241 208.300758 
L 160.686969 208.617251 
L 163.586697 208.933744 
L 166.486425 209.250238 
L 169.386153 209.566731 
L 172.285881 209.883224 
L 175.185609 210.199718 
L 178.085337 210.516211 
L 180.985065 210.832704 
L 183.884794 211.149198 
L 186.784522 212.808991 
L 189.68425 213.725553 
L 192.583978 214.082123 
L 195.483706 214.444308 
L 198.383434 214.944008 
L 201.283162 215.229661 
L 204.18289 216.795702 
L 207.082618 217.874069 
L 209.982346 219.545309 
L 212.882074 221.230288 
L 215.781802 222.915267 
L 218.68153 224.474353 
L 221.581259 225.255148 
L 224.480987 226.939918 
L 227.380715 228.626275 
L 230.280443 230.312632 
L 233.180171 231.99899 
L 236.079899 233.685347 
L 238.979627 235.371704 
L 241.879355 237.058298 
L 244.779083 238.74515 
L 247.678811 240.477002 
L 250.578539 242.193055 
L 253.478267 244.021215 
L 256.377995 245.887877 
L 259.277724 247.639167 
L 262.177452 249.263016 
L 265.07718 250.886865 
L 267.976908 252.510714 
L 270.876636 254.134563 
L 273.776364 255.835209 
L 276.676092 257.541363 
L 279.57582 259.247518 
L 282.475548 260.953673 
L 285.375276 262.659828 
L 288.275004 264.365983 
L 291.174732 266.072137 
L 294.07446 267.778292 
L 296.974188 269.484447 
L 299.873917 271.180229 
L 302.773645 272.848411 
L 305.673373 274.516594 
L 308.573101 276.184776 
L 311.472829 277.852958 
L 314.372557 279.52114 
L 317.272285 281.189323 
L 320.172013 282.857505 
L 323.071741 284.531464 
L 325.971469 286.25988 
L 328.871197 287.988295 
L 331.770925 289.716711 
L 334.670653 291.445126 
L 337.570382 293.173542 
L 340.47011 294.901957 
L 343.369838 296.630372 
L 346.269566 298.358788 
L 349.169294 300.087203 
L 352.069022 301.815619 
L 354.96875 303.544034 
L 354.96875 228.714783 
L 354.96875 228.714783 
L 352.069022 228.087346 
L 349.169294 227.632204 
L 346.269566 227.278651 
L 343.369838 226.74592 
L 340.47011 226.117667 
L 337.570382 225.437403 
L 334.670653 224.705066 
L 331.770925 224.238832 
L 328.871197 224.094318 
L 325.971469 223.354878 
L 323.071741 222.557773 
L 320.172013 221.731861 
L 317.272285 220.995167 
L 314.372557 220.212474 
L 311.472829 219.423497 
L 308.573101 218.632375 
L 305.673373 217.841254 
L 302.773645 216.955166 
L 299.873917 216.047046 
L 296.974188 215.13593 
L 294.07446 214.224814 
L 291.174732 213.550184 
L 288.275004 212.781793 
L 285.375276 211.929831 
L 282.475548 211.077869 
L 279.57582 210.225906 
L 276.676092 209.373944 
L 273.776364 208.521982 
L 270.876636 207.67002 
L 267.976908 206.834131 
L 265.07718 206.057133 
L 262.177452 205.280136 
L 259.277724 204.503139 
L 256.377995 203.726142 
L 253.478267 202.949145 
L 250.578539 202.172147 
L 247.678811 201.39515 
L 244.779083 200.618153 
L 241.879355 199.841156 
L 238.979627 198.992952 
L 236.079899 198.071062 
L 233.180171 197.32801 
L 230.280443 196.510966 
L 227.380715 195.66173 
L 224.480987 194.812494 
L 221.581259 193.952492 
L 218.68153 192.998161 
L 215.781802 192.04383 
L 212.882074 191.089499 
L 209.982346 190.135287 
L 207.082618 189.182705 
L 204.18289 188.230122 
L 201.283162 187.277539 
L 198.383434 186.370966 
L 195.483706 185.519004 
L 192.583978 184.667042 
L 189.68425 183.81508 
L 186.784522 182.963118 
L 183.884794 182.111156 
L 180.985065 181.259193 
L 178.085337 180.33765 
L 175.185609 179.406248 
L 172.285881 178.474847 
L 169.386153 177.547884 
L 166.486425 176.621074 
L 163.586697 175.691689 
L 160.686969 174.762237 
L 157.787241 173.832785 
L 154.887513 172.409886 
L 151.987785 171.564312 
L 149.088057 170.718737 
L 146.188329 169.873163 
L 143.288601 168.750448 
L 140.388872 167.679593 
L 137.489144 166.726821 
L 134.589416 165.804932 
L 131.689688 164.353591 
L 128.78996 163.393922 
L 125.890232 162.272275 
L 122.990504 161.146165 
L 120.090776 160.134638 
L 117.191048 158.667692 
L 114.29132 157.331599 
L 111.391592 155.848752 
L 108.491864 154.481994 
L 105.592136 152.956723 
L 102.692407 151.746146 
L 99.792679 150.333052 
L 96.892951 148.821782 
L 93.993223 147.245243 
L 91.093495 145.572614 
L 88.193767 143.961033 
L 85.294039 142.475068 
L 82.394311 140.989103 
L 79.494583 139.344568 
L 76.594855 137.616153 
L 73.695127 135.887738 
L 70.795399 134.159322 
L 67.895671 132.430907 
z
" style="fill:#1f77b4;fill-opacity:0.15;"/>
   </g>
   <g id="PathCollection_2">
    <defs>
     <path d="M 0 3 
C 0.795609 3 1.55874 2.683901 2.12132 2.12132 
C 2.683901 1.55874 3 0.795609 3 0 
C 3 -0.795609 2.683901 -1.55874 2.12132 -2.12132 
C 1.55874 -2.683901 0.795609 -3 0 -3 
C -0.795609 -3 -1.55874 -2.683901 -2.12132 -2.12132 
C -2.683901 -1.55874 -3 -0.795609 -3 0 
C -3 0.795609 -2.683901 1.55874 -2.12132 2.12132 
C -1.55874 2.683901 -0.795609 3 0 3 
z
" id="m6318a3acc8" style="stroke:#ff7f0e;stroke-opacity:0.8;"/>
    </defs>
    <g clip-path="url(#p22f73e36dd)">
     <use style="fill:#ff7f0e;fill-opacity:0.8;stroke:#ff7f0e;stroke-opacity:0.8;" x="163.558708" xlink:href="#m6318a3acc8" y="186.634392"/>
    </g>
   </g>
   <g id="PolyCollection_2">
    <path clip-path="url(#p22f73e36dd)" d="M 67.895671 205.351827 
L 67.895671 205.351827 
L 70.795399 204.784466 
L 73.695127 204.217105 
L 76.594855 203.649745 
L 79.494583 203.082384 
L 82.394311 202.515023 
L 85.294039 201.947662 
L 88.193767 201.380301 
L 91.093495 200.81294 
L 93.993223 200.245579 
L 96.892951 199.678218 
L 99.792679 199.110857 
L 102.692407 198.543496 
L 105.592136 197.976135 
L 108.491864 197.408774 
L 111.391592 196.841413 
L 114.29132 196.274052 
L 117.191048 195.706691 
L 120.090776 195.13933 
L 122.990504 194.571969 
L 125.890232 194.004608 
L 128.78996 193.437247 
L 131.689688 192.869887 
L 134.589416 192.302526 
L 137.489144 191.735165 
L 140.388872 191.167804 
L 143.288601 190.600443 
L 146.188329 190.033082 
L 149.088057 189.465721 
L 151.987785 188.89836 
L 154.887513 188.330999 
L 157.787241 187.763638 
L 160.686969 187.196277 
L 163.586697 186.628916 
L 166.486425 186.061555 
L 169.386153 185.494194 
L 172.285881 184.926833 
L 175.185609 184.359472 
L 178.085337 183.792111 
L 180.985065 183.22475 
L 183.884794 182.65739 
L 186.784522 182.090029 
L 189.68425 181.522668 
L 192.583978 180.955307 
L 195.483706 180.387946 
L 198.383434 179.820585 
L 201.283162 179.253224 
L 204.18289 178.685863 
L 207.082618 178.118502 
L 209.982346 177.551141 
L 212.882074 176.98378 
L 215.781802 176.416419 
L 218.68153 175.849058 
L 221.581259 175.281697 
L 224.480987 174.714336 
L 227.380715 174.146975 
L 230.280443 173.579614 
L 233.180171 173.012253 
L 236.079899 172.444893 
L 238.979627 171.877532 
L 241.879355 171.310171 
L 244.779083 170.74281 
L 247.678811 170.175449 
L 250.578539 169.608088 
L 253.478267 169.040727 
L 256.377995 168.473366 
L 259.277724 167.906005 
L 262.177452 167.338644 
L 265.07718 166.771283 
L 267.976908 166.203922 
L 270.876636 165.636561 
L 273.776364 165.0692 
L 276.676092 164.501839 
L 279.57582 163.934478 
L 282.475548 163.367117 
L 285.375276 162.799756 
L 288.275004 162.232395 
L 291.174732 161.665035 
L 294.07446 161.097674 
L 296.974188 160.530313 
L 299.873917 159.962952 
L 302.773645 159.395591 
L 305.673373 158.82823 
L 308.573101 158.260869 
L 311.472829 157.693508 
L 314.372557 157.126147 
L 317.272285 156.558786 
L 320.172013 155.991425 
L 323.071741 155.424064 
L 325.971469 154.856703 
L 328.871197 154.289342 
L 331.770925 153.721981 
L 334.670653 153.15462 
L 337.570382 152.587259 
L 340.47011 152.019898 
L 343.369838 151.452538 
L 346.269566 150.885177 
L 349.169294 150.317816 
L 352.069022 149.750455 
L 354.96875 149.183094 
L 354.96875 149.183094 
L 354.96875 149.183094 
L 352.069022 149.750455 
L 349.169294 150.317816 
L 346.269566 150.885177 
L 343.369838 151.452538 
L 340.47011 152.019898 
L 337.570382 152.587259 
L 334.670653 153.15462 
L 331.770925 153.721981 
L 328.871197 154.289342 
L 325.971469 154.856703 
L 323.071741 155.424064 
L 320.172013 155.991425 
L 317.272285 156.558786 
L 314.372557 157.126147 
L 311.472829 157.693508 
L 308.573101 158.260869 
L 305.673373 158.82823 
L 302.773645 159.395591 
L 299.873917 159.962952 
L 296.974188 160.530313 
L 294.07446 161.097674 
L 291.174732 161.665035 
L 288.275004 162.232395 
L 285.375276 162.799756 
L 282.475548 163.367117 
L 279.57582 163.934478 
L 276.676092 164.501839 
L 273.776364 165.0692 
L 270.876636 165.636561 
L 267.976908 166.203922 
L 265.07718 166.771283 
L 262.177452 167.338644 
L 259.277724 167.906005 
L 256.377995 168.473366 
L 253.478267 169.040727 
L 250.578539 169.608088 
L 247.678811 170.175449 
L 244.779083 170.74281 
L 241.879355 171.310171 
L 238.979627 171.877532 
L 236.079899 172.444893 
L 233.180171 173.012253 
L 230.280443 173.579614 
L 227.380715 174.146975 
L 224.480987 174.714336 
L 221.581259 175.281697 
L 218.68153 175.849058 
L 215.781802 176.416419 
L 212.882074 176.98378 
L 209.982346 177.551141 
L 207.082618 178.118502 
L 204.18289 178.685863 
L 201.283162 179.253224 
L 198.383434 179.820585 
L 195.483706 180.387946 
L 192.583978 180.955307 
L 189.68425 181.522668 
L 186.784522 182.090029 
L 183.884794 182.65739 
L 180.985065 183.22475 
L 178.085337 183.792111 
L 175.185609 184.359472 
L 172.285881 184.926833 
L 169.386153 185.494194 
L 166.486425 186.061555 
L 163.586697 186.628916 
L 160.686969 187.196277 
L 157.787241 187.763638 
L 154.887513 188.330999 
L 151.987785 188.89836 
L 149.088057 189.465721 
L 146.188329 190.033082 
L 143.288601 190.600443 
L 140.388872 191.167804 
L 137.489144 191.735165 
L 134.589416 192.302526 
L 131.689688 192.869887 
L 128.78996 193.437247 
L 125.890232 194.004608 
L 122.990504 194.571969 
L 120.090776 195.13933 
L 117.191048 195.706691 
L 114.29132 196.274052 
L 111.391592 196.841413 
L 108.491864 197.408774 
L 105.592136 197.976135 
L 102.692407 198.543496 
L 99.792679 199.110857 
L 96.892951 199.678218 
L 93.993223 200.245579 
L 91.093495 200.81294 
L 88.193767 201.380301 
L 85.294039 201.947662 
L 82.394311 202.515023 
L 79.494583 203.082384 
L 76.594855 203.649745 
L 73.695127 204.217105 
L 70.795399 204.784466 
L 67.895671 205.351827 
z
" style="fill:#ff7f0e;fill-opacity:0.15;"/>
   </g>
   <g id="PathCollection_3">
    <defs>
     <path d="M 0 3 
C 0.795609 3 1.55874 2.683901 2.12132 2.12132 
C 2.683901 1.55874 3 0.795609 3 0 
C 3 -0.795609 2.683901 -1.55874 2.12132 -2.12132 
C 1.55874 -2.683901 0.795609 -3 0 -3 
C -0.795609 -3 -1.55874 -2.683901 -2.12132 -2.12132 
C -2.683901 -1.55874 -3 -0.795609 -3 0 
C -3 0.795609 -2.683901 1.55874 -2.12132 2.12132 
C -1.55874 2.683901 -0.795609 3 0 3 
z
" id="m6967c96963" style="stroke:#2ca02c;stroke-opacity:0.8;"/>
    </defs>
    <g clip-path="url(#p22f73e36dd)">
     <use style="fill:#2ca02c;fill-opacity:0.8;stroke:#2ca02c;stroke-opacity:0.8;" x="231.113491" xlink:href="#m6967c96963" y="139.758645"/>
     <use style="fill:#2ca02c;fill-opacity:0.8;stroke:#2ca02c;stroke-opacity:0.8;" x="293.744268" xlink:href="#m6967c96963" y="203.895255"/>
     <use style="fill:#2ca02c;fill-opacity:0.8;stroke:#2ca02c;stroke-opacity:0.8;" x="140.922024" xlink:href="#m6967c96963" y="213.168018"/>
     <use style="fill:#2ca02c;fill-opacity:0.8;stroke:#2ca02c;stroke-opacity:0.8;" x="113.020893" xlink:href="#m6967c96963" y="218.808948"/>
     <use style="fill:#2ca02c;fill-opacity:0.8;stroke:#2ca02c;stroke-opacity:0.8;" x="78.084025" xlink:href="#m6967c96963" y="127.018252"/>
     <use style="fill:#2ca02c;fill-opacity:0.8;stroke:#2ca02c;stroke-opacity:0.8;" x="73.845809" xlink:href="#m6967c96963" y="195.665677"/>
     <use style="fill:#2ca02c;fill-opacity:0.8;stroke:#2ca02c;stroke-opacity:0.8;" x="155.629939" xlink:href="#m6967c96963" y="116.576731"/>
    </g>
   </g>
   <g id="PolyCollection_3">
    <path clip-path="url(#p22f73e36dd)" d="M 67.895671 125.057811 
L 67.895671 226.033229 
L 70.795399 225.346017 
L 73.695127 224.672568 
L 76.594855 223.999119 
L 79.494583 222.157986 
L 82.394311 220.009401 
L 85.294039 218.83666 
L 88.193767 218.623711 
L 91.093495 217.014119 
L 93.993223 215.908061 
L 96.892951 213.92571 
L 99.792679 212.856354 
L 102.692407 212.636511 
L 105.592136 211.784633 
L 108.491864 211.3981 
L 111.391592 211.539145 
L 114.29132 211.484639 
L 117.191048 211.427034 
L 120.090776 211.314636 
L 122.990504 210.853751 
L 125.890232 210.305066 
L 128.78996 210.692727 
L 131.689688 211.203585 
L 134.589416 210.592101 
L 137.489144 209.935255 
L 140.388872 210.067196 
L 143.288601 210.304645 
L 146.188329 210.225177 
L 149.088057 210.14571 
L 151.987785 210.065549 
L 154.887513 209.975588 
L 157.787241 209.761472 
L 160.686969 209.187867 
L 163.586697 209.063439 
L 166.486425 208.978535 
L 169.386153 208.9129 
L 172.285881 208.947884 
L 175.185609 208.982868 
L 178.085337 209.017852 
L 180.985065 209.052836 
L 183.884794 209.087821 
L 186.784522 209.084319 
L 189.68425 209.007018 
L 192.583978 208.929716 
L 195.483706 208.852415 
L 198.383434 208.773991 
L 201.283162 209.062461 
L 204.18289 209.04087 
L 207.082618 208.945398 
L 209.982346 208.849926 
L 212.882074 209.018568 
L 215.781802 209.272038 
L 218.68153 209.545647 
L 221.581259 209.904894 
L 224.480987 210.065194 
L 227.380715 210.399825 
L 230.280443 210.734456 
L 233.180171 211.069088 
L 236.079899 211.403719 
L 238.979627 211.73835 
L 241.879355 212.314535 
L 244.779083 213.004649 
L 247.678811 214.112146 
L 250.578539 214.577919 
L 253.478267 215.029075 
L 256.377995 215.824969 
L 259.277724 216.670889 
L 262.177452 217.51525 
L 265.07718 218.164676 
L 267.976908 218.589307 
L 270.876636 219.081399 
L 273.776364 219.90505 
L 276.676092 220.728701 
L 279.57582 221.552352 
L 282.475548 222.376002 
L 285.375276 223.199653 
L 288.275004 224.023304 
L 291.174732 224.845446 
L 294.07446 225.664358 
L 296.974188 226.483269 
L 299.873917 227.302181 
L 302.773645 228.121093 
L 305.673373 228.940004 
L 308.573101 229.758916 
L 311.472829 230.577828 
L 314.372557 231.331445 
L 317.272285 232.001207 
L 320.172013 232.67097 
L 323.071741 233.340732 
L 325.971469 234.197699 
L 328.871197 235.092546 
L 331.770925 235.987393 
L 334.670653 236.88224 
L 337.570382 237.777086 
L 340.47011 238.671933 
L 343.369838 239.56678 
L 346.269566 240.449968 
L 349.169294 241.274651 
L 352.069022 242.099334 
L 354.96875 242.924017 
L 354.96875 28.549716 
L 354.96875 28.549716 
L 352.069022 30.117327 
L 349.169294 32.236574 
L 346.269566 34.566628 
L 343.369838 36.896681 
L 340.47011 39.029583 
L 337.570382 40.762218 
L 334.670653 42.494852 
L 331.770925 44.227486 
L 328.871197 45.96012 
L 325.971469 47.692754 
L 323.071741 49.426958 
L 320.172013 51.166979 
L 317.272285 52.907001 
L 314.372557 54.647023 
L 311.472829 56.387045 
L 308.573101 58.127066 
L 305.673373 59.867088 
L 302.773645 61.608669 
L 299.873917 63.353761 
L 296.974188 65.098852 
L 294.07446 66.843944 
L 291.174732 68.589036 
L 288.275004 70.334127 
L 285.375276 72.079219 
L 282.475548 73.824893 
L 279.57582 75.572112 
L 276.676092 77.319331 
L 273.776364 79.361892 
L 270.876636 81.492829 
L 267.976908 83.623767 
L 265.07718 85.74951 
L 262.177452 87.870169 
L 259.277724 89.469359 
L 256.377995 91.34767 
L 253.478267 93.378783 
L 250.578539 95.409895 
L 247.678811 97.441008 
L 244.779083 99.472121 
L 241.879355 101.503233 
L 238.979627 103.540303 
L 236.079899 104.98922 
L 233.180171 106.271482 
L 230.280443 107.553744 
L 227.380715 108.836006 
L 224.480987 110.118269 
L 221.581259 111.400531 
L 218.68153 112.682793 
L 215.781802 113.966241 
L 212.882074 115.465211 
L 209.982346 116.510303 
L 207.082618 117.512389 
L 204.18289 118.527223 
L 201.283162 119.552304 
L 198.383434 121.592673 
L 195.483706 122.863266 
L 192.583978 124.896577 
L 189.68425 127.210847 
L 186.784522 128.60615 
L 183.884794 128.688182 
L 180.985065 130.714658 
L 178.085337 132.415458 
L 175.185609 132.857396 
L 172.285881 133.611408 
L 169.386153 134.975587 
L 166.486425 136.083106 
L 163.586697 136.839783 
L 160.686969 137.688717 
L 157.787241 138.665997 
L 154.887513 138.232023 
L 151.987785 137.910419 
L 149.088057 138.268832 
L 146.188329 138.964772 
L 143.288601 139.613527 
L 140.388872 139.496166 
L 137.489144 139.266894 
L 134.589416 139.474733 
L 131.689688 139.398766 
L 128.78996 139.055831 
L 125.890232 138.784974 
L 122.990504 138.174554 
L 120.090776 137.973683 
L 117.191048 137.096179 
L 114.29132 136.343295 
L 111.391592 135.732875 
L 108.491864 135.122455 
L 105.592136 134.512035 
L 102.692407 133.901615 
L 99.792679 133.352856 
L 96.892951 132.680775 
L 93.993223 132.070355 
L 91.093495 131.459936 
L 88.193767 130.849516 
L 85.294039 130.239096 
L 82.394311 129.623341 
L 79.494583 129.006778 
L 76.594855 127.636441 
L 73.695127 126.843602 
L 70.795399 125.959265 
L 67.895671 125.057811 
z
" style="fill:#2ca02c;fill-opacity:0.15;"/>
   </g>
   <g id="matplotlib.axis_1">
    <g id="xtick_1">
     <g id="line2d_1">
      <defs>
       <path d="M 0 0 
L 0 3.5 
" id="me88fc871ae" style="stroke:#000000;stroke-width:0.8;"/>
      </defs>
      <g>
       <use style="stroke:#000000;stroke-width:0.8;" x="89.732935" xlink:href="#me88fc871ae" y="317.29375"/>
      </g>
     </g>
     <g id="text_1">
      <!-- 40 -->
      <defs>
       <path d="M 37.796875 64.3125 
L 12.890625 25.390625 
L 37.796875 25.390625 
z
M 35.203125 72.90625 
L 47.609375 72.90625 
L 47.609375 25.390625 
L 58.015625 25.390625 
L 58.015625 17.1875 
L 47.609375 17.1875 
L 47.609375 0 
L 37.796875 0 
L 37.796875 17.1875 
L 4.890625 17.1875 
L 4.890625 26.703125 
z
" id="DejaVuSans-34"/>
       <path d="M 31.78125 66.40625 
Q 24.171875 66.40625 20.328125 58.90625 
Q 16.5 51.421875 16.5 36.375 
Q 16.5 21.390625 20.328125 13.890625 
Q 24.171875 6.390625 31.78125 6.390625 
Q 39.453125 6.390625 43.28125 13.890625 
Q 47.125 21.390625 47.125 36.375 
Q 47.125 51.421875 43.28125 58.90625 
Q 39.453125 66.40625 31.78125 66.40625 
z
M 31.78125 74.21875 
Q 44.046875 74.21875 50.515625 64.515625 
Q 56.984375 54.828125 56.984375 36.375 
Q 56.984375 17.96875 50.515625 8.265625 
Q 44.046875 -1.421875 31.78125 -1.421875 
Q 19.53125 -1.421875 13.0625 8.265625 
Q 6.59375 17.96875 6.59375 36.375 
Q 6.59375 54.828125 13.0625 64.515625 
Q 19.53125 74.21875 31.78125 74.21875 
z
" id="DejaVuSans-30"/>
      </defs>
      <g transform="translate(83.370435 331.892187)scale(0.1 -0.1)">
       <use xlink:href="#DejaVuSans-34"/>
       <use x="63.623047" xlink:href="#DejaVuSans-30"/>
      </g>
     </g>
    </g>
    <g id="xtick_2">
     <g id="line2d_2">
      <g>
       <use style="stroke:#000000;stroke-width:0.8;" x="139.071816" xlink:href="#me88fc871ae" y="317.29375"/>
      </g>
     </g>
     <g id="text_2">
      <!-- 50 -->
      <defs>
       <path d="M 10.796875 72.90625 
L 49.515625 72.90625 
L 49.515625 64.59375 
L 19.828125 64.59375 
L 19.828125 46.734375 
Q 21.96875 47.46875 24.109375 47.828125 
Q 26.265625 48.1875 28.421875 48.1875 
Q 40.625 48.1875 47.75 41.5 
Q 54.890625 34.8125 54.890625 23.390625 
Q 54.890625 11.625 47.5625 5.09375 
Q 40.234375 -1.421875 26.90625 -1.421875 
Q 22.3125 -1.421875 17.546875 -0.640625 
Q 12.796875 0.140625 7.71875 1.703125 
L 7.71875 11.625 
Q 12.109375 9.234375 16.796875 8.0625 
Q 21.484375 6.890625 26.703125 6.890625 
Q 35.15625 6.890625 40.078125 11.328125 
Q 45.015625 15.765625 45.015625 23.390625 
Q 45.015625 31 40.078125 35.4375 
Q 35.15625 39.890625 26.703125 39.890625 
Q 22.75 39.890625 18.8125 39.015625 
Q 14.890625 38.140625 10.796875 36.28125 
z
" id="DejaVuSans-35"/>
      </defs>
      <g transform="translate(132.709316 331.892187)scale(0.1 -0.1)">
       <use xlink:href="#DejaVuSans-35"/>
       <use x="63.623047" xlink:href="#DejaVuSans-30"/>
      </g>
     </g>
    </g>
    <g id="xtick_3">
     <g id="line2d_3">
      <g>
       <use style="stroke:#000000;stroke-width:0.8;" x="188.410696" xlink:href="#me88fc871ae" y="317.29375"/>
      </g>
     </g>
     <g id="text_3">
      <!-- 60 -->
      <defs>
       <path d="M 33.015625 40.375 
Q 26.375 40.375 22.484375 35.828125 
Q 18.609375 31.296875 18.609375 23.390625 
Q 18.609375 15.53125 22.484375 10.953125 
Q 26.375 6.390625 33.015625 6.390625 
Q 39.65625 6.390625 43.53125 10.953125 
Q 47.40625 15.53125 47.40625 23.390625 
Q 47.40625 31.296875 43.53125 35.828125 
Q 39.65625 40.375 33.015625 40.375 
z
M 52.59375 71.296875 
L 52.59375 62.3125 
Q 48.875 64.0625 45.09375 64.984375 
Q 41.3125 65.921875 37.59375 65.921875 
Q 27.828125 65.921875 22.671875 59.328125 
Q 17.53125 52.734375 16.796875 39.40625 
Q 19.671875 43.65625 24.015625 45.921875 
Q 28.375 48.1875 33.59375 48.1875 
Q 44.578125 48.1875 50.953125 41.515625 
Q 57.328125 34.859375 57.328125 23.390625 
Q 57.328125 12.15625 50.6875 5.359375 
Q 44.046875 -1.421875 33.015625 -1.421875 
Q 20.359375 -1.421875 13.671875 8.265625 
Q 6.984375 17.96875 6.984375 36.375 
Q 6.984375 53.65625 15.1875 63.9375 
Q 23.390625 74.21875 37.203125 74.21875 
Q 40.921875 74.21875 44.703125 73.484375 
Q 48.484375 72.75 52.59375 71.296875 
z
" id="DejaVuSans-36"/>
      </defs>
      <g transform="translate(182.048196 331.892187)scale(0.1 -0.1)">
       <use xlink:href="#DejaVuSans-36"/>
       <use x="63.623047" xlink:href="#DejaVuSans-30"/>
      </g>
     </g>
    </g>
    <g id="xtick_4">
     <g id="line2d_4">
      <g>
       <use style="stroke:#000000;stroke-width:0.8;" x="237.749577" xlink:href="#me88fc871ae" y="317.29375"/>
      </g>
     </g>
     <g id="text_4">
      <!-- 70 -->
      <defs>
       <path d="M 8.203125 72.90625 
L 55.078125 72.90625 
L 55.078125 68.703125 
L 28.609375 0 
L 18.3125 0 
L 43.21875 64.59375 
L 8.203125 64.59375 
z
" id="DejaVuSans-37"/>
      </defs>
      <g transform="translate(231.387077 331.892187)scale(0.1 -0.1)">
       <use xlink:href="#DejaVuSans-37"/>
       <use x="63.623047" xlink:href="#DejaVuSans-30"/>
      </g>
     </g>
    </g>
    <g id="xtick_5">
     <g id="line2d_5">
      <g>
       <use style="stroke:#000000;stroke-width:0.8;" x="287.088457" xlink:href="#me88fc871ae" y="317.29375"/>
      </g>
     </g>
     <g id="text_5">
      <!-- 80 -->
      <defs>
       <path d="M 31.78125 34.625 
Q 24.75 34.625 20.71875 30.859375 
Q 16.703125 27.09375 16.703125 20.515625 
Q 16.703125 13.921875 20.71875 10.15625 
Q 24.75 6.390625 31.78125 6.390625 
Q 38.8125 6.390625 42.859375 10.171875 
Q 46.921875 13.96875 46.921875 20.515625 
Q 46.921875 27.09375 42.890625 30.859375 
Q 38.875 34.625 31.78125 34.625 
z
M 21.921875 38.8125 
Q 15.578125 40.375 12.03125 44.71875 
Q 8.5 49.078125 8.5 55.328125 
Q 8.5 64.0625 14.71875 69.140625 
Q 20.953125 74.21875 31.78125 74.21875 
Q 42.671875 74.21875 48.875 69.140625 
Q 55.078125 64.0625 55.078125 55.328125 
Q 55.078125 49.078125 51.53125 44.71875 
Q 48 40.375 41.703125 38.8125 
Q 48.828125 37.15625 52.796875 32.3125 
Q 56.78125 27.484375 56.78125 20.515625 
Q 56.78125 9.90625 50.3125 4.234375 
Q 43.84375 -1.421875 31.78125 -1.421875 
Q 19.734375 -1.421875 13.25 4.234375 
Q 6.78125 9.90625 6.78125 20.515625 
Q 6.78125 27.484375 10.78125 32.3125 
Q 14.796875 37.15625 21.921875 38.8125 
z
M 18.3125 54.390625 
Q 18.3125 48.734375 21.84375 45.5625 
Q 25.390625 42.390625 31.78125 42.390625 
Q 38.140625 42.390625 41.71875 45.5625 
Q 45.3125 48.734375 45.3125 54.390625 
Q 45.3125 60.0625 41.71875 63.234375 
Q 38.140625 66.40625 31.78125 66.40625 
Q 25.390625 66.40625 21.84375 63.234375 
Q 18.3125 60.0625 18.3125 54.390625 
z
" id="DejaVuSans-38"/>
      </defs>
      <g transform="translate(280.725957 331.892187)scale(0.1 -0.1)">
       <use xlink:href="#DejaVuSans-38"/>
       <use x="63.623047" xlink:href="#DejaVuSans-30"/>
      </g>
     </g>
    </g>
    <g id="xtick_6">
     <g id="line2d_6">
      <g>
       <use style="stroke:#000000;stroke-width:0.8;" x="336.427338" xlink:href="#me88fc871ae" y="317.29375"/>
      </g>
     </g>
     <g id="text_6">
      <!-- 90 -->
      <defs>
       <path d="M 10.984375 1.515625 
L 10.984375 10.5 
Q 14.703125 8.734375 18.5 7.8125 
Q 22.3125 6.890625 25.984375 6.890625 
Q 35.75 6.890625 40.890625 13.453125 
Q 46.046875 20.015625 46.78125 33.40625 
Q 43.953125 29.203125 39.59375 26.953125 
Q 35.25 24.703125 29.984375 24.703125 
Q 19.046875 24.703125 12.671875 31.3125 
Q 6.296875 37.9375 6.296875 49.421875 
Q 6.296875 60.640625 12.9375 67.421875 
Q 19.578125 74.21875 30.609375 74.21875 
Q 43.265625 74.21875 49.921875 64.515625 
Q 56.59375 54.828125 56.59375 36.375 
Q 56.59375 19.140625 48.40625 8.859375 
Q 40.234375 -1.421875 26.421875 -1.421875 
Q 22.703125 -1.421875 18.890625 -0.6875 
Q 15.09375 0.046875 10.984375 1.515625 
z
M 30.609375 32.421875 
Q 37.25 32.421875 41.125 36.953125 
Q 45.015625 41.5 45.015625 49.421875 
Q 45.015625 57.28125 41.125 61.84375 
Q 37.25 66.40625 30.609375 66.40625 
Q 23.96875 66.40625 20.09375 61.84375 
Q 16.21875 57.28125 16.21875 49.421875 
Q 16.21875 41.5 20.09375 36.953125 
Q 23.96875 32.421875 30.609375 32.421875 
z
" id="DejaVuSans-39"/>
      </defs>
      <g transform="translate(330.064838 331.892187)scale(0.1 -0.1)">
       <use xlink:href="#DejaVuSans-39"/>
       <use x="63.623047" xlink:href="#DejaVuSans-30"/>
      </g>
     </g>
    </g>
    <g id="text_7">
     <!-- pct_agriculture_employment -->
     <defs>
      <path d="M 18.109375 8.203125 
L 18.109375 -20.796875 
L 9.078125 -20.796875 
L 9.078125 54.6875 
L 18.109375 54.6875 
L 18.109375 46.390625 
Q 20.953125 51.265625 25.265625 53.625 
Q 29.59375 56 35.59375 56 
Q 45.5625 56 51.78125 48.09375 
Q 58.015625 40.1875 58.015625 27.296875 
Q 58.015625 14.40625 51.78125 6.484375 
Q 45.5625 -1.421875 35.59375 -1.421875 
Q 29.59375 -1.421875 25.265625 0.953125 
Q 20.953125 3.328125 18.109375 8.203125 
z
M 48.6875 27.296875 
Q 48.6875 37.203125 44.609375 42.84375 
Q 40.53125 48.484375 33.40625 48.484375 
Q 26.265625 48.484375 22.1875 42.84375 
Q 18.109375 37.203125 18.109375 27.296875 
Q 18.109375 17.390625 22.1875 11.75 
Q 26.265625 6.109375 33.40625 6.109375 
Q 40.53125 6.109375 44.609375 11.75 
Q 48.6875 17.390625 48.6875 27.296875 
z
" id="DejaVuSans-70"/>
      <path d="M 48.78125 52.59375 
L 48.78125 44.1875 
Q 44.96875 46.296875 41.140625 47.34375 
Q 37.3125 48.390625 33.40625 48.390625 
Q 24.65625 48.390625 19.8125 42.84375 
Q 14.984375 37.3125 14.984375 27.296875 
Q 14.984375 17.28125 19.8125 11.734375 
Q 24.65625 6.203125 33.40625 6.203125 
Q 37.3125 6.203125 41.140625 7.25 
Q 44.96875 8.296875 48.78125 10.40625 
L 48.78125 2.09375 
Q 45.015625 0.34375 40.984375 -0.53125 
Q 36.96875 -1.421875 32.421875 -1.421875 
Q 20.0625 -1.421875 12.78125 6.34375 
Q 5.515625 14.109375 5.515625 27.296875 
Q 5.515625 40.671875 12.859375 48.328125 
Q 20.21875 56 33.015625 56 
Q 37.15625 56 41.109375 55.140625 
Q 45.0625 54.296875 48.78125 52.59375 
z
" id="DejaVuSans-63"/>
      <path d="M 18.3125 70.21875 
L 18.3125 54.6875 
L 36.8125 54.6875 
L 36.8125 47.703125 
L 18.3125 47.703125 
L 18.3125 18.015625 
Q 18.3125 11.328125 20.140625 9.421875 
Q 21.96875 7.515625 27.59375 7.515625 
L 36.8125 7.515625 
L 36.8125 0 
L 27.59375 0 
Q 17.1875 0 13.234375 3.875 
Q 9.28125 7.765625 9.28125 18.015625 
L 9.28125 47.703125 
L 2.6875 47.703125 
L 2.6875 54.6875 
L 9.28125 54.6875 
L 9.28125 70.21875 
z
" id="DejaVuSans-74"/>
      <path d="M 50.984375 -16.609375 
L 50.984375 -23.578125 
L -0.984375 -23.578125 
L -0.984375 -16.609375 
z
" id="DejaVuSans-5f"/>
      <path d="M 34.28125 27.484375 
Q 23.390625 27.484375 19.1875 25 
Q 14.984375 22.515625 14.984375 16.5 
Q 14.984375 11.71875 18.140625 8.90625 
Q 21.296875 6.109375 26.703125 6.109375 
Q 34.1875 6.109375 38.703125 11.40625 
Q 43.21875 16.703125 43.21875 25.484375 
L 43.21875 27.484375 
z
M 52.203125 31.203125 
L 52.203125 0 
L 43.21875 0 
L 43.21875 8.296875 
Q 40.140625 3.328125 35.546875 0.953125 
Q 30.953125 -1.421875 24.3125 -1.421875 
Q 15.921875 -1.421875 10.953125 3.296875 
Q 6 8.015625 6 15.921875 
Q 6 25.140625 12.171875 29.828125 
Q 18.359375 34.515625 30.609375 34.515625 
L 43.21875 34.515625 
L 43.21875 35.40625 
Q 43.21875 41.609375 39.140625 45 
Q 35.0625 48.390625 27.6875 48.390625 
Q 23 48.390625 18.546875 47.265625 
Q 14.109375 46.140625 10.015625 43.890625 
L 10.015625 52.203125 
Q 14.9375 54.109375 19.578125 55.046875 
Q 24.21875 56 28.609375 56 
Q 40.484375 56 46.34375 49.84375 
Q 52.203125 43.703125 52.203125 31.203125 
z
" id="DejaVuSans-61"/>
      <path d="M 45.40625 27.984375 
Q 45.40625 37.75 41.375 43.109375 
Q 37.359375 48.484375 30.078125 48.484375 
Q 22.859375 48.484375 18.828125 43.109375 
Q 14.796875 37.75 14.796875 27.984375 
Q 14.796875 18.265625 18.828125 12.890625 
Q 22.859375 7.515625 30.078125 7.515625 
Q 37.359375 7.515625 41.375 12.890625 
Q 45.40625 18.265625 45.40625 27.984375 
z
M 54.390625 6.78125 
Q 54.390625 -7.171875 48.1875 -13.984375 
Q 42 -20.796875 29.203125 -20.796875 
Q 24.46875 -20.796875 20.265625 -20.09375 
Q 16.0625 -19.390625 12.109375 -17.921875 
L 12.109375 -9.1875 
Q 16.0625 -11.328125 19.921875 -12.34375 
Q 23.78125 -13.375 27.78125 -13.375 
Q 36.625 -13.375 41.015625 -8.765625 
Q 45.40625 -4.15625 45.40625 5.171875 
L 45.40625 9.625 
Q 42.625 4.78125 38.28125 2.390625 
Q 33.9375 0 27.875 0 
Q 17.828125 0 11.671875 7.65625 
Q 5.515625 15.328125 5.515625 27.984375 
Q 5.515625 40.671875 11.671875 48.328125 
Q 17.828125 56 27.875 56 
Q 33.9375 56 38.28125 53.609375 
Q 42.625 51.21875 45.40625 46.390625 
L 45.40625 54.6875 
L 54.390625 54.6875 
z
" id="DejaVuSans-67"/>
      <path d="M 41.109375 46.296875 
Q 39.59375 47.171875 37.8125 47.578125 
Q 36.03125 48 33.890625 48 
Q 26.265625 48 22.1875 43.046875 
Q 18.109375 38.09375 18.109375 28.8125 
L 18.109375 0 
L 9.078125 0 
L 9.078125 54.6875 
L 18.109375 54.6875 
L 18.109375 46.1875 
Q 20.953125 51.171875 25.484375 53.578125 
Q 30.03125 56 36.53125 56 
Q 37.453125 56 38.578125 55.875 
Q 39.703125 55.765625 41.0625 55.515625 
z
" id="DejaVuSans-72"/>
      <path d="M 9.421875 54.6875 
L 18.40625 54.6875 
L 18.40625 0 
L 9.421875 0 
z
M 9.421875 75.984375 
L 18.40625 75.984375 
L 18.40625 64.59375 
L 9.421875 64.59375 
z
" id="DejaVuSans-69"/>
      <path d="M 8.5 21.578125 
L 8.5 54.6875 
L 17.484375 54.6875 
L 17.484375 21.921875 
Q 17.484375 14.15625 20.5 10.265625 
Q 23.53125 6.390625 29.59375 6.390625 
Q 36.859375 6.390625 41.078125 11.03125 
Q 45.3125 15.671875 45.3125 23.6875 
L 45.3125 54.6875 
L 54.296875 54.6875 
L 54.296875 0 
L 45.3125 0 
L 45.3125 8.40625 
Q 42.046875 3.421875 37.71875 1 
Q 33.40625 -1.421875 27.6875 -1.421875 
Q 18.265625 -1.421875 13.375 4.4375 
Q 8.5 10.296875 8.5 21.578125 
z
M 31.109375 56 
z
" id="DejaVuSans-75"/>
      <path d="M 9.421875 75.984375 
L 18.40625 75.984375 
L 18.40625 0 
L 9.421875 0 
z
" id="DejaVuSans-6c"/>
      <path d="M 56.203125 29.59375 
L 56.203125 25.203125 
L 14.890625 25.203125 
Q 15.484375 15.921875 20.484375 11.0625 
Q 25.484375 6.203125 34.421875 6.203125 
Q 39.59375 6.203125 44.453125 7.46875 
Q 49.3125 8.734375 54.109375 11.28125 
L 54.109375 2.78125 
Q 49.265625 0.734375 44.1875 -0.34375 
Q 39.109375 -1.421875 33.890625 -1.421875 
Q 20.796875 -1.421875 13.15625 6.1875 
Q 5.515625 13.8125 5.515625 26.8125 
Q 5.515625 40.234375 12.765625 48.109375 
Q 20.015625 56 32.328125 56 
Q 43.359375 56 49.78125 48.890625 
Q 56.203125 41.796875 56.203125 29.59375 
z
M 47.21875 32.234375 
Q 47.125 39.59375 43.09375 43.984375 
Q 39.0625 48.390625 32.421875 48.390625 
Q 24.90625 48.390625 20.390625 44.140625 
Q 15.875 39.890625 15.1875 32.171875 
z
" id="DejaVuSans-65"/>
      <path d="M 52 44.1875 
Q 55.375 50.25 60.0625 53.125 
Q 64.75 56 71.09375 56 
Q 79.640625 56 84.28125 50.015625 
Q 88.921875 44.046875 88.921875 33.015625 
L 88.921875 0 
L 79.890625 0 
L 79.890625 32.71875 
Q 79.890625 40.578125 77.09375 44.375 
Q 74.3125 48.1875 68.609375 48.1875 
Q 61.625 48.1875 57.5625 43.546875 
Q 53.515625 38.921875 53.515625 30.90625 
L 53.515625 0 
L 44.484375 0 
L 44.484375 32.71875 
Q 44.484375 40.625 41.703125 44.40625 
Q 38.921875 48.1875 33.109375 48.1875 
Q 26.21875 48.1875 22.15625 43.53125 
Q 18.109375 38.875 18.109375 30.90625 
L 18.109375 0 
L 9.078125 0 
L 9.078125 54.6875 
L 18.109375 54.6875 
L 18.109375 46.1875 
Q 21.1875 51.21875 25.484375 53.609375 
Q 29.78125 56 35.6875 56 
Q 41.65625 56 45.828125 52.96875 
Q 50 49.953125 52 44.1875 
z
" id="DejaVuSans-6d"/>
      <path d="M 30.609375 48.390625 
Q 23.390625 48.390625 19.1875 42.75 
Q 14.984375 37.109375 14.984375 27.296875 
Q 14.984375 17.484375 19.15625 11.84375 
Q 23.34375 6.203125 30.609375 6.203125 
Q 37.796875 6.203125 41.984375 11.859375 
Q 46.1875 17.53125 46.1875 27.296875 
Q 46.1875 37.015625 41.984375 42.703125 
Q 37.796875 48.390625 30.609375 48.390625 
z
M 30.609375 56 
Q 42.328125 56 49.015625 48.375 
Q 55.71875 40.765625 55.71875 27.296875 
Q 55.71875 13.875 49.015625 6.21875 
Q 42.328125 -1.421875 30.609375 -1.421875 
Q 18.84375 -1.421875 12.171875 6.21875 
Q 5.515625 13.875 5.515625 27.296875 
Q 5.515625 40.765625 12.171875 48.375 
Q 18.84375 56 30.609375 56 
z
" id="DejaVuSans-6f"/>
      <path d="M 32.171875 -5.078125 
Q 28.375 -14.84375 24.75 -17.8125 
Q 21.140625 -20.796875 15.09375 -20.796875 
L 7.90625 -20.796875 
L 7.90625 -13.28125 
L 13.1875 -13.28125 
Q 16.890625 -13.28125 18.9375 -11.515625 
Q 21 -9.765625 23.484375 -3.21875 
L 25.09375 0.875 
L 2.984375 54.6875 
L 12.5 54.6875 
L 29.59375 11.921875 
L 46.6875 54.6875 
L 56.203125 54.6875 
z
" id="DejaVuSans-79"/>
      <path d="M 54.890625 33.015625 
L 54.890625 0 
L 45.90625 0 
L 45.90625 32.71875 
Q 45.90625 40.484375 42.875 44.328125 
Q 39.84375 48.1875 33.796875 48.1875 
Q 26.515625 48.1875 22.3125 43.546875 
Q 18.109375 38.921875 18.109375 30.90625 
L 18.109375 0 
L 9.078125 0 
L 9.078125 54.6875 
L 18.109375 54.6875 
L 18.109375 46.1875 
Q 21.34375 51.125 25.703125 53.5625 
Q 30.078125 56 35.796875 56 
Q 45.21875 56 50.046875 50.171875 
Q 54.890625 44.34375 54.890625 33.015625 
z
" id="DejaVuSans-6e"/>
     </defs>
     <g transform="translate(139.69471 345.570312)scale(0.1 -0.1)">
      <use xlink:href="#DejaVuSans-70"/>
      <use x="63.476562" xlink:href="#DejaVuSans-63"/>
      <use x="118.457031" xlink:href="#DejaVuSans-74"/>
      <use x="157.666016" xlink:href="#DejaVuSans-5f"/>
      <use x="207.666016" xlink:href="#DejaVuSans-61"/>
      <use x="268.945312" xlink:href="#DejaVuSans-67"/>
      <use x="332.421875" xlink:href="#DejaVuSans-72"/>
      <use x="373.535156" xlink:href="#DejaVuSans-69"/>
      <use x="401.318359" xlink:href="#DejaVuSans-63"/>
      <use x="456.298828" xlink:href="#DejaVuSans-75"/>
      <use x="519.677734" xlink:href="#DejaVuSans-6c"/>
      <use x="547.460938" xlink:href="#DejaVuSans-74"/>
      <use x="586.669922" xlink:href="#DejaVuSans-75"/>
      <use x="650.048828" xlink:href="#DejaVuSans-72"/>
      <use x="691.130859" xlink:href="#DejaVuSans-65"/>
      <use x="752.654297" xlink:href="#DejaVuSans-5f"/>
      <use x="802.654297" xlink:href="#DejaVuSans-65"/>
      <use x="864.177734" xlink:href="#DejaVuSans-6d"/>
      <use x="961.589844" xlink:href="#DejaVuSans-70"/>
      <use x="1025.066406" xlink:href="#DejaVuSans-6c"/>
      <use x="1052.849609" xlink:href="#DejaVuSans-6f"/>
      <use x="1114.03125" xlink:href="#DejaVuSans-79"/>
      <use x="1173.210938" xlink:href="#DejaVuSans-6d"/>
      <use x="1270.623047" xlink:href="#DejaVuSans-65"/>
      <use x="1332.146484" xlink:href="#DejaVuSans-6e"/>
      <use x="1395.525391" xlink:href="#DejaVuSans-74"/>
     </g>
    </g>
   </g>
   <g id="matplotlib.axis_2">
    <g id="ytick_1">
     <g id="line2d_7">
      <defs>
       <path d="M 0 0 
L -3.5 0 
" id="m3ea755fc01" style="stroke:#000000;stroke-width:0.8;"/>
      </defs>
      <g>
       <use style="stroke:#000000;stroke-width:0.8;" x="67.895671" xlink:href="#m3ea755fc01" y="288.006946"/>
      </g>
     </g>
     <g id="text_8">
      <!-- −5 -->
      <defs>
       <path d="M 10.59375 35.5 
L 73.1875 35.5 
L 73.1875 27.203125 
L 10.59375 27.203125 
z
" id="DejaVuSans-2212"/>
      </defs>
      <g transform="translate(46.153483 291.806164)scale(0.1 -0.1)">
       <use xlink:href="#DejaVuSans-2212"/>
       <use x="83.789062" xlink:href="#DejaVuSans-35"/>
      </g>
     </g>
    </g>
    <g id="ytick_2">
     <g id="line2d_8">
      <g>
       <use style="stroke:#000000;stroke-width:0.8;" x="67.895671" xlink:href="#m3ea755fc01" y="239.711303"/>
      </g>
     </g>
     <g id="text_9">
      <!-- 0 -->
      <g transform="translate(54.533171 243.510522)scale(0.1 -0.1)">
       <use xlink:href="#DejaVuSans-30"/>
      </g>
     </g>
    </g>
    <g id="ytick_3">
     <g id="line2d_9">
      <g>
       <use style="stroke:#000000;stroke-width:0.8;" x="67.895671" xlink:href="#m3ea755fc01" y="191.41566"/>
      </g>
     </g>
     <g id="text_10">
      <!-- 5 -->
      <g transform="translate(54.533171 195.214879)scale(0.1 -0.1)">
       <use xlink:href="#DejaVuSans-35"/>
      </g>
     </g>
    </g>
    <g id="ytick_4">
     <g id="line2d_10">
      <g>
       <use style="stroke:#000000;stroke-width:0.8;" x="67.895671" xlink:href="#m3ea755fc01" y="143.120017"/>
      </g>
     </g>
     <g id="text_11">
      <!-- 10 -->
      <defs>
       <path d="M 12.40625 8.296875 
L 28.515625 8.296875 
L 28.515625 63.921875 
L 10.984375 60.40625 
L 10.984375 69.390625 
L 28.421875 72.90625 
L 38.28125 72.90625 
L 38.28125 8.296875 
L 54.390625 8.296875 
L 54.390625 0 
L 12.40625 0 
z
" id="DejaVuSans-31"/>
      </defs>
      <g transform="translate(48.170671 146.919236)scale(0.1 -0.1)">
       <use xlink:href="#DejaVuSans-31"/>
       <use x="63.623047" xlink:href="#DejaVuSans-30"/>
      </g>
     </g>
    </g>
    <g id="ytick_5">
     <g id="line2d_11">
      <g>
       <use style="stroke:#000000;stroke-width:0.8;" x="67.895671" xlink:href="#m3ea755fc01" y="94.824374"/>
      </g>
     </g>
     <g id="text_12">
      <!-- 15 -->
      <g transform="translate(48.170671 98.623593)scale(0.1 -0.1)">
       <use xlink:href="#DejaVuSans-31"/>
       <use x="63.623047" xlink:href="#DejaVuSans-35"/>
      </g>
     </g>
    </g>
    <g id="ytick_6">
     <g id="line2d_12">
      <g>
       <use style="stroke:#000000;stroke-width:0.8;" x="67.895671" xlink:href="#m3ea755fc01" y="46.528732"/>
      </g>
     </g>
     <g id="text_13">
      <!-- 20 -->
      <defs>
       <path d="M 19.1875 8.296875 
L 53.609375 8.296875 
L 53.609375 0 
L 7.328125 0 
L 7.328125 8.296875 
Q 12.9375 14.109375 22.625 23.890625 
Q 32.328125 33.6875 34.8125 36.53125 
Q 39.546875 41.84375 41.421875 45.53125 
Q 43.3125 49.21875 43.3125 52.78125 
Q 43.3125 58.59375 39.234375 62.25 
Q 35.15625 65.921875 28.609375 65.921875 
Q 23.96875 65.921875 18.8125 64.3125 
Q 13.671875 62.703125 7.8125 59.421875 
L 7.8125 69.390625 
Q 13.765625 71.78125 18.9375 73 
Q 24.125 74.21875 28.421875 74.21875 
Q 39.75 74.21875 46.484375 68.546875 
Q 53.21875 62.890625 53.21875 53.421875 
Q 53.21875 48.921875 51.53125 44.890625 
Q 49.859375 40.875 45.40625 35.40625 
Q 44.1875 33.984375 37.640625 27.21875 
Q 31.109375 20.453125 19.1875 8.296875 
z
" id="DejaVuSans-32"/>
      </defs>
      <g transform="translate(48.170671 50.32795)scale(0.1 -0.1)">
       <use xlink:href="#DejaVuSans-32"/>
       <use x="63.623047" xlink:href="#DejaVuSans-30"/>
      </g>
     </g>
    </g>
    <g id="text_14">
     <!-- Unemployment Rate -->
     <defs>
      <path d="M 8.6875 72.90625 
L 18.609375 72.90625 
L 18.609375 28.609375 
Q 18.609375 16.890625 22.84375 11.734375 
Q 27.09375 6.59375 36.625 6.59375 
Q 46.09375 6.59375 50.34375 11.734375 
Q 54.59375 16.890625 54.59375 28.609375 
L 54.59375 72.90625 
L 64.5 72.90625 
L 64.5 27.390625 
Q 64.5 13.140625 57.4375 5.859375 
Q 50.390625 -1.421875 36.625 -1.421875 
Q 22.796875 -1.421875 15.734375 5.859375 
Q 8.6875 13.140625 8.6875 27.390625 
z
" id="DejaVuSans-55"/>
      <path id="DejaVuSans-20"/>
      <path d="M 44.390625 34.1875 
Q 47.5625 33.109375 50.5625 29.59375 
Q 53.5625 26.078125 56.59375 19.921875 
L 66.609375 0 
L 56 0 
L 46.6875 18.703125 
Q 43.0625 26.03125 39.671875 28.421875 
Q 36.28125 30.8125 30.421875 30.8125 
L 19.671875 30.8125 
L 19.671875 0 
L 9.8125 0 
L 9.8125 72.90625 
L 32.078125 72.90625 
Q 44.578125 72.90625 50.734375 67.671875 
Q 56.890625 62.453125 56.890625 51.90625 
Q 56.890625 45.015625 53.6875 40.46875 
Q 50.484375 35.9375 44.390625 34.1875 
z
M 19.671875 64.796875 
L 19.671875 38.921875 
L 32.078125 38.921875 
Q 39.203125 38.921875 42.84375 42.21875 
Q 46.484375 45.515625 46.484375 51.90625 
Q 46.484375 58.296875 42.84375 61.546875 
Q 39.203125 64.796875 32.078125 64.796875 
z
" id="DejaVuSans-52"/>
     </defs>
     <g transform="translate(40.073796 217.642188)rotate(-90)scale(0.1 -0.1)">
      <use xlink:href="#DejaVuSans-55"/>
      <use x="73.193359" xlink:href="#DejaVuSans-6e"/>
      <use x="136.572266" xlink:href="#DejaVuSans-65"/>
      <use x="198.095703" xlink:href="#DejaVuSans-6d"/>
      <use x="295.507812" xlink:href="#DejaVuSans-70"/>
      <use x="358.984375" xlink:href="#DejaVuSans-6c"/>
      <use x="386.767578" xlink:href="#DejaVuSans-6f"/>
      <use x="447.949219" xlink:href="#DejaVuSans-79"/>
      <use x="507.128906" xlink:href="#DejaVuSans-6d"/>
      <use x="604.541016" xlink:href="#DejaVuSans-65"/>
      <use x="666.064453" xlink:href="#DejaVuSans-6e"/>
      <use x="729.443359" xlink:href="#DejaVuSans-74"/>
      <use x="768.652344" xlink:href="#DejaVuSans-20"/>
      <use x="800.439453" xlink:href="#DejaVuSans-52"/>
      <use x="869.890625" xlink:href="#DejaVuSans-61"/>
      <use x="931.169922" xlink:href="#DejaVuSans-74"/>
      <use x="970.378906" xlink:href="#DejaVuSans-65"/>
     </g>
    </g>
   </g>
   <g id="line2d_13">
    <path clip-path="url(#p22f73e36dd)" d="M 67.895671 154.916331 
L 70.795399 155.858443 
L 73.695127 156.800555 
L 76.594855 157.742668 
L 79.494583 158.68478 
L 82.394311 159.626892 
L 85.294039 160.569004 
L 88.193767 161.511116 
L 91.093495 162.453228 
L 93.993223 163.39534 
L 96.892951 164.337452 
L 99.792679 165.279564 
L 102.692407 166.221676 
L 105.592136 167.163788 
L 108.491864 168.1059 
L 111.391592 169.048012 
L 114.29132 169.990124 
L 117.191048 170.932236 
L 120.090776 171.874348 
L 122.990504 172.81646 
L 125.890232 173.758572 
L 128.78996 174.700685 
L 131.689688 175.642797 
L 134.589416 176.584909 
L 137.489144 177.527021 
L 140.388872 178.469133 
L 143.288601 179.411245 
L 146.188329 180.353357 
L 149.088057 181.295469 
L 151.987785 182.237581 
L 154.887513 183.179693 
L 157.787241 184.121805 
L 160.686969 185.063917 
L 163.586697 186.006029 
L 166.486425 186.948141 
L 169.386153 187.890253 
L 172.285881 188.832365 
L 175.185609 189.774477 
L 178.085337 190.716589 
L 180.985065 191.658702 
L 183.884794 192.600814 
L 186.784522 193.542926 
L 189.68425 194.485038 
L 192.583978 195.42715 
L 195.483706 196.369262 
L 198.383434 197.311374 
L 201.283162 198.253486 
L 204.18289 199.195598 
L 207.082618 200.13771 
L 209.982346 201.079822 
L 212.882074 202.021934 
L 215.781802 202.964046 
L 218.68153 203.906158 
L 221.581259 204.84827 
L 224.480987 205.790382 
L 227.380715 206.732494 
L 230.280443 207.674606 
L 233.180171 208.616718 
L 236.079899 209.558831 
L 238.979627 210.500943 
L 241.879355 211.443055 
L 244.779083 212.385167 
L 247.678811 213.327279 
L 250.578539 214.269391 
L 253.478267 215.211503 
L 256.377995 216.153615 
L 259.277724 217.095727 
L 262.177452 218.037839 
L 265.07718 218.979951 
L 267.976908 219.922063 
L 270.876636 220.864175 
L 273.776364 221.806287 
L 276.676092 222.748399 
L 279.57582 223.690511 
L 282.475548 224.632623 
L 285.375276 225.574735 
L 288.275004 226.516848 
L 291.174732 227.45896 
L 294.07446 228.401072 
L 296.974188 229.343184 
L 299.873917 230.285296 
L 302.773645 231.227408 
L 305.673373 232.16952 
L 308.573101 233.111632 
L 311.472829 234.053744 
L 314.372557 234.995856 
L 317.272285 235.937968 
L 320.172013 236.88008 
L 323.071741 237.822192 
L 325.971469 238.764304 
L 328.871197 239.706416 
L 331.770925 240.648528 
L 334.670653 241.59064 
L 337.570382 242.532752 
L 340.47011 243.474864 
L 343.369838 244.416977 
L 346.269566 245.359089 
L 349.169294 246.301201 
L 352.069022 247.243313 
L 354.96875 248.185425 
" style="fill:none;stroke:#1f77b4;stroke-linecap:square;stroke-width:2.25;"/>
   </g>
   <g id="line2d_14">
    <path clip-path="url(#p22f73e36dd)" d="M 67.895671 205.351827 
L 70.795399 204.784466 
L 73.695127 204.217105 
L 76.594855 203.649745 
L 79.494583 203.082384 
L 82.394311 202.515023 
L 85.294039 201.947662 
L 88.193767 201.380301 
L 91.093495 200.81294 
L 93.993223 200.245579 
L 96.892951 199.678218 
L 99.792679 199.110857 
L 102.692407 198.543496 
L 105.592136 197.976135 
L 108.491864 197.408774 
L 111.391592 196.841413 
L 114.29132 196.274052 
L 117.191048 195.706691 
L 120.090776 195.13933 
L 122.990504 194.571969 
L 125.890232 194.004608 
L 128.78996 193.437247 
L 131.689688 192.869887 
L 134.589416 192.302526 
L 137.489144 191.735165 
L 140.388872 191.167804 
L 143.288601 190.600443 
L 146.188329 190.033082 
L 149.088057 189.465721 
L 151.987785 188.89836 
L 154.887513 188.330999 
L 157.787241 187.763638 
L 160.686969 187.196277 
L 163.586697 186.628916 
L 166.486425 186.061555 
L 169.386153 185.494194 
L 172.285881 184.926833 
L 175.185609 184.359472 
L 178.085337 183.792111 
L 180.985065 183.22475 
L 183.884794 182.65739 
L 186.784522 182.090029 
L 189.68425 181.522668 
L 192.583978 180.955307 
L 195.483706 180.387946 
L 198.383434 179.820585 
L 201.283162 179.253224 
L 204.18289 178.685863 
L 207.082618 178.118502 
L 209.982346 177.551141 
L 212.882074 176.98378 
L 215.781802 176.416419 
L 218.68153 175.849058 
L 221.581259 175.281697 
L 224.480987 174.714336 
L 227.380715 174.146975 
L 230.280443 173.579614 
L 233.180171 173.012253 
L 236.079899 172.444893 
L 238.979627 171.877532 
L 241.879355 171.310171 
L 244.779083 170.74281 
L 247.678811 170.175449 
L 250.578539 169.608088 
L 253.478267 169.040727 
L 256.377995 168.473366 
L 259.277724 167.906005 
L 262.177452 167.338644 
L 265.07718 166.771283 
L 267.976908 166.203922 
L 270.876636 165.636561 
L 273.776364 165.0692 
L 276.676092 164.501839 
L 279.57582 163.934478 
L 282.475548 163.367117 
L 285.375276 162.799756 
L 288.275004 162.232395 
L 291.174732 161.665035 
L 294.07446 161.097674 
L 296.974188 160.530313 
L 299.873917 159.962952 
L 302.773645 159.395591 
L 305.673373 158.82823 
L 308.573101 158.260869 
L 311.472829 157.693508 
L 314.372557 157.126147 
L 317.272285 156.558786 
L 320.172013 155.991425 
L 323.071741 155.424064 
L 325.971469 154.856703 
L 328.871197 154.289342 
L 331.770925 153.721981 
L 334.670653 153.15462 
L 337.570382 152.587259 
L 340.47011 152.019898 
L 343.369838 151.452538 
L 346.269566 150.885177 
L 349.169294 150.317816 
L 352.069022 149.750455 
L 354.96875 149.183094 
" style="fill:none;stroke:#ff7f0e;stroke-linecap:square;stroke-width:2.25;"/>
   </g>
   <g id="line2d_15">
    <path clip-path="url(#p22f73e36dd)" d="M 67.895671 171.503199 
L 70.795399 171.571383 
L 73.695127 171.639567 
L 76.594855 171.707751 
L 79.494583 171.775935 
L 82.394311 171.844119 
L 85.294039 171.912303 
L 88.193767 171.980487 
L 91.093495 172.048671 
L 93.993223 172.116854 
L 96.892951 172.185038 
L 99.792679 172.253222 
L 102.692407 172.321406 
L 105.592136 172.38959 
L 108.491864 172.457774 
L 111.391592 172.525958 
L 114.29132 172.594142 
L 117.191048 172.662326 
L 120.090776 172.73051 
L 122.990504 172.798694 
L 125.890232 172.866878 
L 128.78996 172.935062 
L 131.689688 173.003246 
L 134.589416 173.07143 
L 137.489144 173.139614 
L 140.388872 173.207798 
L 143.288601 173.275981 
L 146.188329 173.344165 
L 149.088057 173.412349 
L 151.987785 173.480533 
L 154.887513 173.548717 
L 157.787241 173.616901 
L 160.686969 173.685085 
L 163.586697 173.753269 
L 166.486425 173.821453 
L 169.386153 173.889637 
L 172.285881 173.957821 
L 175.185609 174.026005 
L 178.085337 174.094189 
L 180.985065 174.162373 
L 183.884794 174.230557 
L 186.784522 174.298741 
L 189.68425 174.366925 
L 192.583978 174.435108 
L 195.483706 174.503292 
L 198.383434 174.571476 
L 201.283162 174.63966 
L 204.18289 174.707844 
L 207.082618 174.776028 
L 209.982346 174.844212 
L 212.882074 174.912396 
L 215.781802 174.98058 
L 218.68153 175.048764 
L 221.581259 175.116948 
L 224.480987 175.185132 
L 227.380715 175.253316 
L 230.280443 175.3215 
L 233.180171 175.389684 
L 236.079899 175.457868 
L 238.979627 175.526052 
L 241.879355 175.594235 
L 244.779083 175.662419 
L 247.678811 175.730603 
L 250.578539 175.798787 
L 253.478267 175.866971 
L 256.377995 175.935155 
L 259.277724 176.003339 
L 262.177452 176.071523 
L 265.07718 176.139707 
L 267.976908 176.207891 
L 270.876636 176.276075 
L 273.776364 176.344259 
L 276.676092 176.412443 
L 279.57582 176.480627 
L 282.475548 176.548811 
L 285.375276 176.616995 
L 288.275004 176.685179 
L 291.174732 176.753362 
L 294.07446 176.821546 
L 296.974188 176.88973 
L 299.873917 176.957914 
L 302.773645 177.026098 
L 305.673373 177.094282 
L 308.573101 177.162466 
L 311.472829 177.23065 
L 314.372557 177.298834 
L 317.272285 177.367018 
L 320.172013 177.435202 
L 323.071741 177.503386 
L 325.971469 177.57157 
L 328.871197 177.639754 
L 331.770925 177.707938 
L 334.670653 177.776122 
L 337.570382 177.844306 
L 340.47011 177.912489 
L 343.369838 177.980673 
L 346.269566 178.048857 
L 349.169294 178.117041 
L 352.069022 178.185225 
L 354.96875 178.253409 
" style="fill:none;stroke:#2ca02c;stroke-linecap:square;stroke-width:2.25;"/>
   </g>
   <g id="patch_3">
    <path d="M 67.895671 317.29375 
L 67.895671 14.8 
" style="fill:none;stroke:#000000;stroke-linecap:square;stroke-linejoin:miter;stroke-width:0.8;"/>
   </g>
   <g id="patch_4">
    <path d="M 67.895671 317.29375 
L 354.96875 317.29375 
" style="fill:none;stroke:#000000;stroke-linecap:square;stroke-linejoin:miter;stroke-width:0.8;"/>
   </g>
  </g>
  <g id="legend_1">
   <g id="patch_5">
    <path d="M 356.715625 210.995313 
L 496.125 210.995313 
Q 498.125 210.995313 498.125 208.995313 
L 498.125 151.004687 
Q 498.125 149.004687 496.125 149.004687 
L 356.715625 149.004687 
Q 354.715625 149.004687 354.715625 151.004687 
L 354.715625 208.995313 
Q 354.715625 210.995313 356.715625 210.995313 
z
" style="fill:#ffffff;opacity:0.8;stroke:#cccccc;stroke-linejoin:miter;"/>
   </g>
   <g id="text_15">
    <!-- income_group -->
    <g transform="translate(390.976562 160.603125)scale(0.1 -0.1)">
     <use xlink:href="#DejaVuSans-69"/>
     <use x="27.783203" xlink:href="#DejaVuSans-6e"/>
     <use x="91.162109" xlink:href="#DejaVuSans-63"/>
     <use x="146.142578" xlink:href="#DejaVuSans-6f"/>
     <use x="207.324219" xlink:href="#DejaVuSans-6d"/>
     <use x="304.736328" xlink:href="#DejaVuSans-65"/>
     <use x="366.259766" xlink:href="#DejaVuSans-5f"/>
     <use x="416.259766" xlink:href="#DejaVuSans-67"/>
     <use x="479.736328" xlink:href="#DejaVuSans-72"/>
     <use x="520.818359" xlink:href="#DejaVuSans-6f"/>
     <use x="582" xlink:href="#DejaVuSans-75"/>
     <use x="645.378906" xlink:href="#DejaVuSans-70"/>
    </g>
   </g>
   <g id="PathCollection_4">
    <g>
     <use style="fill:#1f77b4;fill-opacity:0.8;stroke:#1f77b4;stroke-opacity:0.8;" x="368.715625" xlink:href="#me91fe69fa6" y="172.934375"/>
    </g>
   </g>
   <g id="text_16">
    <!-- Low income -->
    <defs>
     <path d="M 9.8125 72.90625 
L 19.671875 72.90625 
L 19.671875 8.296875 
L 55.171875 8.296875 
L 55.171875 0 
L 9.8125 0 
z
" id="DejaVuSans-4c"/>
     <path d="M 4.203125 54.6875 
L 13.1875 54.6875 
L 24.421875 12.015625 
L 35.59375 54.6875 
L 46.1875 54.6875 
L 57.421875 12.015625 
L 68.609375 54.6875 
L 77.59375 54.6875 
L 63.28125 0 
L 52.6875 0 
L 40.921875 44.828125 
L 29.109375 0 
L 18.5 0 
z
" id="DejaVuSans-77"/>
    </defs>
    <g transform="translate(386.715625 175.559375)scale(0.1 -0.1)">
     <use xlink:href="#DejaVuSans-4c"/>
     <use x="55.697266" xlink:href="#DejaVuSans-6f"/>
     <use x="116.878906" xlink:href="#DejaVuSans-77"/>
     <use x="198.666016" xlink:href="#DejaVuSans-20"/>
     <use x="230.453125" xlink:href="#DejaVuSans-69"/>
     <use x="258.236328" xlink:href="#DejaVuSans-6e"/>
     <use x="321.615234" xlink:href="#DejaVuSans-63"/>
     <use x="376.595703" xlink:href="#DejaVuSans-6f"/>
     <use x="437.777344" xlink:href="#DejaVuSans-6d"/>
     <use x="535.189453" xlink:href="#DejaVuSans-65"/>
    </g>
   </g>
   <g id="PathCollection_5">
    <g>
     <use style="fill:#ff7f0e;fill-opacity:0.8;stroke:#ff7f0e;stroke-opacity:0.8;" x="368.715625" xlink:href="#m6318a3acc8" y="187.6125"/>
    </g>
   </g>
   <g id="text_17">
    <!-- Upper middle income -->
    <defs>
     <path d="M 45.40625 46.390625 
L 45.40625 75.984375 
L 54.390625 75.984375 
L 54.390625 0 
L 45.40625 0 
L 45.40625 8.203125 
Q 42.578125 3.328125 38.25 0.953125 
Q 33.9375 -1.421875 27.875 -1.421875 
Q 17.96875 -1.421875 11.734375 6.484375 
Q 5.515625 14.40625 5.515625 27.296875 
Q 5.515625 40.1875 11.734375 48.09375 
Q 17.96875 56 27.875 56 
Q 33.9375 56 38.25 53.625 
Q 42.578125 51.265625 45.40625 46.390625 
z
M 14.796875 27.296875 
Q 14.796875 17.390625 18.875 11.75 
Q 22.953125 6.109375 30.078125 6.109375 
Q 37.203125 6.109375 41.296875 11.75 
Q 45.40625 17.390625 45.40625 27.296875 
Q 45.40625 37.203125 41.296875 42.84375 
Q 37.203125 48.484375 30.078125 48.484375 
Q 22.953125 48.484375 18.875 42.84375 
Q 14.796875 37.203125 14.796875 27.296875 
z
" id="DejaVuSans-64"/>
    </defs>
    <g transform="translate(386.715625 190.2375)scale(0.1 -0.1)">
     <use xlink:href="#DejaVuSans-55"/>
     <use x="73.193359" xlink:href="#DejaVuSans-70"/>
     <use x="136.669922" xlink:href="#DejaVuSans-70"/>
     <use x="200.146484" xlink:href="#DejaVuSans-65"/>
     <use x="261.669922" xlink:href="#DejaVuSans-72"/>
     <use x="302.783203" xlink:href="#DejaVuSans-20"/>
     <use x="334.570312" xlink:href="#DejaVuSans-6d"/>
     <use x="431.982422" xlink:href="#DejaVuSans-69"/>
     <use x="459.765625" xlink:href="#DejaVuSans-64"/>
     <use x="523.242188" xlink:href="#DejaVuSans-64"/>
     <use x="586.71875" xlink:href="#DejaVuSans-6c"/>
     <use x="614.501953" xlink:href="#DejaVuSans-65"/>
     <use x="676.025391" xlink:href="#DejaVuSans-20"/>
     <use x="707.8125" xlink:href="#DejaVuSans-69"/>
     <use x="735.595703" xlink:href="#DejaVuSans-6e"/>
     <use x="798.974609" xlink:href="#DejaVuSans-63"/>
     <use x="853.955078" xlink:href="#DejaVuSans-6f"/>
     <use x="915.136719" xlink:href="#DejaVuSans-6d"/>
     <use x="1012.548828" xlink:href="#DejaVuSans-65"/>
    </g>
   </g>
   <g id="PathCollection_6">
    <g>
     <use style="fill:#2ca02c;fill-opacity:0.8;stroke:#2ca02c;stroke-opacity:0.8;" x="368.715625" xlink:href="#m6967c96963" y="202.290625"/>
    </g>
   </g>
   <g id="text_18">
    <!-- Lower middle income -->
    <g transform="translate(386.715625 204.915625)scale(0.1 -0.1)">
     <use xlink:href="#DejaVuSans-4c"/>
     <use x="55.697266" xlink:href="#DejaVuSans-6f"/>
     <use x="116.878906" xlink:href="#DejaVuSans-77"/>
     <use x="198.666016" xlink:href="#DejaVuSans-65"/>
     <use x="260.189453" xlink:href="#DejaVuSans-72"/>
     <use x="301.302734" xlink:href="#DejaVuSans-20"/>
     <use x="333.089844" xlink:href="#DejaVuSans-6d"/>
     <use x="430.501953" xlink:href="#DejaVuSans-69"/>
     <use x="458.285156" xlink:href="#DejaVuSans-64"/>
     <use x="521.761719" xlink:href="#DejaVuSans-64"/>
     <use x="585.238281" xlink:href="#DejaVuSans-6c"/>
     <use x="613.021484" xlink:href="#DejaVuSans-65"/>
     <use x="674.544922" xlink:href="#DejaVuSans-20"/>
     <use x="706.332031" xlink:href="#DejaVuSans-69"/>
     <use x="734.115234" xlink:href="#DejaVuSans-6e"/>
     <use x="797.494141" xlink:href="#DejaVuSans-63"/>
     <use x="852.474609" xlink:href="#DejaVuSans-6f"/>
     <use x="913.65625" xlink:href="#DejaVuSans-6d"/>
     <use x="1011.068359" xlink:href="#DejaVuSans-65"/>
    </g>
   </g>
  </g>
 </g>
 <defs>
  <clipPath id="p22f73e36dd">
   <rect height="302.49375" width="287.073079" x="67.895671" y="14.8"/>
  </clipPath>
 </defs>
</svg>
