<?xml version="1.0" encoding="utf-8" standalone="no"?>
<!DOCTYPE svg PUBLIC "-//W3C//DTD SVG 1.1//EN"
  "http://www.w3.org/Graphics/SVG/1.1/DTD/svg11.dtd">
<!-- Created with matplotlib (http://matplotlib.org/) -->
<svg height="360pt" version="1.1" viewBox="0 0 503.125 360" width="503.125pt" xmlns="http://www.w3.org/2000/svg" xmlns:xlink="http://www.w3.org/1999/xlink">
 <defs>
  <style type="text/css">
*{stroke-linecap:butt;stroke-linejoin:round;}
  </style>
 </defs>
 <g id="figure_1">
  <g id="patch_1">
   <path d="M 0 360 
L 503.125 360 
L 503.125 0 
L 0 0 
z
" style="fill:#ffffff;"/>
  </g>
  <g id="axes_1">
   <g id="patch_2">
    <path d="M 67.895671 317.29375 
L 354.96875 317.29375 
L 354.96875 14.8 
L 67.895671 14.8 
z
" style="fill:#ffffff;"/>
   </g>
   <g id="PathCollection_1">
    <defs>
     <path d="M 0 3 
C 0.795609 3 1.55874 2.683901 2.12132 2.12132 
C 2.683901 1.55874 3 0.795609 3 0 
C 3 -0.795609 2.683901 -1.55874 2.12132 -2.12132 
C 1.55874 -2.683901 0.795609 -3 0 -3 
C -0.795609 -3 -1.55874 -2.683901 -2.12132 -2.12132 
C -2.683901 -1.55874 -3 -0.795609 -3 0 
C -3 0.795609 -2.683901 1.55874 -2.12132 2.12132 
C -1.55874 2.683901 -0.795609 3 0 3 
z
" id="m8cde590c27" style="stroke:#1f77b4;stroke-opacity:0.8;"/>
    </defs>
    <g clip-path="url(#pa7441b1b4e)">
     <use style="fill:#1f77b4;fill-opacity:0.8;stroke:#1f77b4;stroke-opacity:0.8;" x="81.032315" xlink:href="#m8cde590c27" y="189.55196"/>
     <use style="fill:#1f77b4;fill-opacity:0.8;stroke:#1f77b4;stroke-opacity:0.8;" x="278.996013" xlink:href="#m8cde590c27" y="165.245454"/>
     <use style="fill:#1f77b4;fill-opacity:0.8;stroke:#1f77b4;stroke-opacity:0.8;" x="341.832105" xlink:href="#m8cde590c27" y="116.179739"/>
     <use style="fill:#1f77b4;fill-opacity:0.8;stroke:#1f77b4;stroke-opacity:0.8;" x="229.215775" xlink:href="#m8cde590c27" y="193.034268"/>
     <use style="fill:#1f77b4;fill-opacity:0.8;stroke:#1f77b4;stroke-opacity:0.8;" x="250.535465" xlink:href="#m8cde590c27" y="147.877446"/>
     <use style="fill:#1f77b4;fill-opacity:0.8;stroke:#1f77b4;stroke-opacity:0.8;" x="211.479364" xlink:href="#m8cde590c27" y="186.60941"/>
    </g>
   </g>
   <g id="PolyCollection_1">
    <path clip-path="url(#pa7441b1b4e)" d="M 67.895671 191.386846 
L 67.895671 303.544034 
L 70.795399 301.602227 
L 73.695127 299.66042 
L 76.594855 297.715495 
L 79.494583 295.77292 
L 82.394311 293.831945 
L 85.294039 291.890971 
L 88.193767 289.949996 
L 91.093495 288.009021 
L 93.993223 286.068047 
L 96.892951 284.127072 
L 99.792679 282.186098 
L 102.692407 280.245123 
L 105.592136 278.304148 
L 108.491864 276.363174 
L 111.391592 274.421445 
L 114.29132 272.222001 
L 117.191048 270.027807 
L 120.090776 267.833613 
L 122.990504 265.639419 
L 125.890232 263.568134 
L 128.78996 261.589343 
L 131.689688 259.610552 
L 134.589416 257.631761 
L 137.489144 255.65297 
L 140.388872 253.674179 
L 143.288601 251.695388 
L 146.188329 249.71143 
L 149.088057 247.750575 
L 151.987785 245.818666 
L 154.887513 243.89077 
L 157.787241 241.962875 
L 160.686969 240.034979 
L 163.586697 238.107084 
L 166.486425 236.179188 
L 169.386153 234.251293 
L 172.285881 232.323397 
L 175.185609 230.395502 
L 178.085337 228.467607 
L 180.985065 226.539711 
L 183.884794 223.972351 
L 186.784522 221.99439 
L 189.68425 220.016428 
L 192.583978 218.038467 
L 195.483706 215.336572 
L 198.383434 211.889724 
L 201.283162 208.627086 
L 204.18289 207.008371 
L 207.082618 205.389656 
L 209.982346 203.640701 
L 212.882074 200.00523 
L 215.781802 197.264654 
L 218.68153 195.466104 
L 221.581259 193.713157 
L 224.480987 191.960209 
L 227.380715 191.619021 
L 230.280443 191.665761 
L 233.180171 190.821224 
L 236.079899 189.722324 
L 238.979627 187.726248 
L 241.879355 185.965079 
L 244.779083 184.346365 
L 247.678811 182.682907 
L 250.578539 182.344151 
L 253.478267 181.536286 
L 256.377995 181.320888 
L 259.277724 181.099376 
L 262.177452 180.88258 
L 265.07718 180.665784 
L 267.976908 180.448988 
L 270.876636 180.232192 
L 273.776364 180.015396 
L 276.676092 179.7986 
L 279.57582 179.581804 
L 282.475548 179.365009 
L 285.375276 179.148213 
L 288.275004 178.931417 
L 291.174732 178.714621 
L 294.07446 178.497825 
L 296.974188 178.281029 
L 299.873917 178.064233 
L 302.773645 177.86699 
L 305.673373 177.650282 
L 308.573101 177.433574 
L 311.472829 177.216866 
L 314.372557 177.000159 
L 317.272285 176.783451 
L 320.172013 176.566743 
L 323.071741 176.350035 
L 325.971469 176.133327 
L 328.871197 175.916619 
L 331.770925 175.699911 
L 334.670653 175.483203 
L 337.570382 175.266496 
L 340.47011 175.049788 
L 343.369838 174.83308 
L 346.269566 174.616372 
L 349.169294 174.399664 
L 352.069022 174.182956 
L 354.96875 173.966248 
L 354.96875 102.064143 
L 354.96875 102.064143 
L 352.069022 103.813513 
L 349.169294 105.562884 
L 346.269566 107.312255 
L 343.369838 109.061625 
L 340.47011 110.808748 
L 337.570382 112.51982 
L 334.670653 114.171674 
L 331.770925 115.823527 
L 328.871197 117.485684 
L 325.971469 119.148408 
L 323.071741 120.811131 
L 320.172013 122.469209 
L 317.272285 124.125991 
L 314.372557 125.704718 
L 311.472829 126.54006 
L 308.573101 127.377157 
L 305.673373 128.720083 
L 302.773645 129.696287 
L 299.873917 131.155918 
L 296.974188 132.607267 
L 294.07446 133.758743 
L 291.174732 135.12284 
L 288.275004 136.641229 
L 285.375276 137.795777 
L 282.475548 138.574006 
L 279.57582 139.609205 
L 276.676092 140.648996 
L 273.776364 141.557893 
L 270.876636 142.373155 
L 267.976908 143.281428 
L 265.07718 144.07185 
L 262.177452 144.862272 
L 259.277724 145.72805 
L 256.377995 146.826798 
L 253.478267 147.65338 
L 250.578539 148.58344 
L 247.678811 149.334245 
L 244.779083 150.10363 
L 241.879355 150.92038 
L 238.979627 151.889571 
L 236.079899 152.891177 
L 233.180171 153.669551 
L 230.280443 154.447925 
L 227.380715 155.226298 
L 224.480987 156.004672 
L 221.581259 156.783046 
L 218.68153 157.56142 
L 215.781802 158.339793 
L 212.882074 159.118167 
L 209.982346 159.896541 
L 207.082618 160.674914 
L 204.18289 161.453288 
L 201.283162 162.231662 
L 198.383434 163.010036 
L 195.483706 163.788409 
L 192.583978 164.566783 
L 189.68425 165.345157 
L 186.784522 166.082742 
L 183.884794 166.761446 
L 180.985065 167.538583 
L 178.085337 168.253519 
L 175.185609 168.968455 
L 172.285881 169.68339 
L 169.386153 170.398326 
L 166.486425 171.10724 
L 163.586697 171.718216 
L 160.686969 172.295915 
L 157.787241 172.86912 
L 154.887513 173.547481 
L 151.987785 174.226545 
L 149.088057 174.905609 
L 146.188329 175.58736 
L 143.288601 176.280444 
L 140.388872 177.005693 
L 137.489144 177.666613 
L 134.589416 178.359697 
L 131.689688 179.058522 
L 128.78996 179.827604 
L 125.890232 180.43895 
L 122.990504 181.132034 
L 120.090776 181.824918 
L 117.191048 182.517826 
L 114.29132 183.211286 
L 111.391592 183.903842 
L 108.491864 184.492222 
L 105.592136 185.128584 
L 102.692407 185.791327 
L 99.792679 186.45421 
L 96.892951 187.122579 
L 93.993223 187.801284 
L 91.093495 188.438776 
L 88.193767 188.931367 
L 85.294039 189.176751 
L 82.394311 189.384122 
L 79.494583 189.740766 
L 76.594855 190.096803 
L 73.695127 190.452839 
L 70.795399 190.886604 
L 67.895671 191.386846 
z
" style="fill:#1f77b4;fill-opacity:0.15;"/>
   </g>
   <g id="PathCollection_2">
    <defs>
     <path d="M 0 3 
C 0.795609 3 1.55874 2.683901 2.12132 2.12132 
C 2.683901 1.55874 3 0.795609 3 0 
C 3 -0.795609 2.683901 -1.55874 2.12132 -2.12132 
C 1.55874 -2.683901 0.795609 -3 0 -3 
C -0.795609 -3 -1.55874 -2.683901 -2.12132 -2.12132 
C -2.683901 -1.55874 -3 -0.795609 -3 0 
C -3 0.795609 -2.683901 1.55874 -2.12132 2.12132 
C -1.55874 2.683901 -0.795609 3 0 3 
z
" id="m1eee38f246" style="stroke:#ff7f0e;stroke-opacity:0.8;"/>
    </defs>
    <g clip-path="url(#pa7441b1b4e)">
     <use style="fill:#ff7f0e;fill-opacity:0.8;stroke:#ff7f0e;stroke-opacity:0.8;" x="342.080701" xlink:href="#m1eee38f246" y="155.381818"/>
    </g>
   </g>
   <g id="PolyCollection_2">
    <path clip-path="url(#pa7441b1b4e)" d="M 67.895671 196.929326 
L 67.895671 196.929326 
L 70.795399 196.489927 
L 73.695127 196.050529 
L 76.594855 195.61113 
L 79.494583 195.171732 
L 82.394311 194.732333 
L 85.294039 194.292935 
L 88.193767 193.853537 
L 91.093495 193.414138 
L 93.993223 192.97474 
L 96.892951 192.535341 
L 99.792679 192.095943 
L 102.692407 191.656544 
L 105.592136 191.217146 
L 108.491864 190.777748 
L 111.391592 190.338349 
L 114.29132 189.898951 
L 117.191048 189.459552 
L 120.090776 189.020154 
L 122.990504 188.580755 
L 125.890232 188.141357 
L 128.78996 187.701958 
L 131.689688 187.26256 
L 134.589416 186.823162 
L 137.489144 186.383763 
L 140.388872 185.944365 
L 143.288601 185.504966 
L 146.188329 185.065568 
L 149.088057 184.626169 
L 151.987785 184.186771 
L 154.887513 183.747373 
L 157.787241 183.307974 
L 160.686969 182.868576 
L 163.586697 182.429177 
L 166.486425 181.989779 
L 169.386153 181.55038 
L 172.285881 181.110982 
L 175.185609 180.671584 
L 178.085337 180.232185 
L 180.985065 179.792787 
L 183.884794 179.353388 
L 186.784522 178.91399 
L 189.68425 178.474591 
L 192.583978 178.035193 
L 195.483706 177.595794 
L 198.383434 177.156396 
L 201.283162 176.716998 
L 204.18289 176.277599 
L 207.082618 175.838201 
L 209.982346 175.398802 
L 212.882074 174.959404 
L 215.781802 174.520005 
L 218.68153 174.080607 
L 221.581259 173.641209 
L 224.480987 173.20181 
L 227.380715 172.762412 
L 230.280443 172.323013 
L 233.180171 171.883615 
L 236.079899 171.444216 
L 238.979627 171.004818 
L 241.879355 170.565419 
L 244.779083 170.126021 
L 247.678811 169.686623 
L 250.578539 169.247224 
L 253.478267 168.807826 
L 256.377995 168.368427 
L 259.277724 167.929029 
L 262.177452 167.48963 
L 265.07718 167.050232 
L 267.976908 166.610834 
L 270.876636 166.171435 
L 273.776364 165.732037 
L 276.676092 165.292638 
L 279.57582 164.85324 
L 282.475548 164.413841 
L 285.375276 163.974443 
L 288.275004 163.535045 
L 291.174732 163.095646 
L 294.07446 162.656248 
L 296.974188 162.216849 
L 299.873917 161.777451 
L 302.773645 161.338052 
L 305.673373 160.898654 
L 308.573101 160.459255 
L 311.472829 160.019857 
L 314.372557 159.580459 
L 317.272285 159.14106 
L 320.172013 158.701662 
L 323.071741 158.262263 
L 325.971469 157.822865 
L 328.871197 157.383466 
L 331.770925 156.944068 
L 334.670653 156.50467 
L 337.570382 156.065271 
L 340.47011 155.625873 
L 343.369838 155.186474 
L 346.269566 154.747076 
L 349.169294 154.307677 
L 352.069022 153.868279 
L 354.96875 153.42888 
L 354.96875 153.42888 
L 354.96875 153.42888 
L 352.069022 153.868279 
L 349.169294 154.307677 
L 346.269566 154.747076 
L 343.369838 155.186474 
L 340.47011 155.625873 
L 337.570382 156.065271 
L 334.670653 156.50467 
L 331.770925 156.944068 
L 328.871197 157.383466 
L 325.971469 157.822865 
L 323.071741 158.262263 
L 320.172013 158.701662 
L 317.272285 159.14106 
L 314.372557 159.580459 
L 311.472829 160.019857 
L 308.573101 160.459255 
L 305.673373 160.898654 
L 302.773645 161.338052 
L 299.873917 161.777451 
L 296.974188 162.216849 
L 294.07446 162.656248 
L 291.174732 163.095646 
L 288.275004 163.535045 
L 285.375276 163.974443 
L 282.475548 164.413841 
L 279.57582 164.85324 
L 276.676092 165.292638 
L 273.776364 165.732037 
L 270.876636 166.171435 
L 267.976908 166.610834 
L 265.07718 167.050232 
L 262.177452 167.48963 
L 259.277724 167.929029 
L 256.377995 168.368427 
L 253.478267 168.807826 
L 250.578539 169.247224 
L 247.678811 169.686623 
L 244.779083 170.126021 
L 241.879355 170.565419 
L 238.979627 171.004818 
L 236.079899 171.444216 
L 233.180171 171.883615 
L 230.280443 172.323013 
L 227.380715 172.762412 
L 224.480987 173.20181 
L 221.581259 173.641209 
L 218.68153 174.080607 
L 215.781802 174.520005 
L 212.882074 174.959404 
L 209.982346 175.398802 
L 207.082618 175.838201 
L 204.18289 176.277599 
L 201.283162 176.716998 
L 198.383434 177.156396 
L 195.483706 177.595794 
L 192.583978 178.035193 
L 189.68425 178.474591 
L 186.784522 178.91399 
L 183.884794 179.353388 
L 180.985065 179.792787 
L 178.085337 180.232185 
L 175.185609 180.671584 
L 172.285881 181.110982 
L 169.386153 181.55038 
L 166.486425 181.989779 
L 163.586697 182.429177 
L 160.686969 182.868576 
L 157.787241 183.307974 
L 154.887513 183.747373 
L 151.987785 184.186771 
L 149.088057 184.626169 
L 146.188329 185.065568 
L 143.288601 185.504966 
L 140.388872 185.944365 
L 137.489144 186.383763 
L 134.589416 186.823162 
L 131.689688 187.26256 
L 128.78996 187.701958 
L 125.890232 188.141357 
L 122.990504 188.580755 
L 120.090776 189.020154 
L 117.191048 189.459552 
L 114.29132 189.898951 
L 111.391592 190.338349 
L 108.491864 190.777748 
L 105.592136 191.217146 
L 102.692407 191.656544 
L 99.792679 192.095943 
L 96.892951 192.535341 
L 93.993223 192.97474 
L 91.093495 193.414138 
L 88.193767 193.853537 
L 85.294039 194.292935 
L 82.394311 194.732333 
L 79.494583 195.171732 
L 76.594855 195.61113 
L 73.695127 196.050529 
L 70.795399 196.489927 
L 67.895671 196.929326 
z
" style="fill:#ff7f0e;fill-opacity:0.15;"/>
   </g>
   <g id="PathCollection_3">
    <defs>
     <path d="M 0 3 
C 0.795609 3 1.55874 2.683901 2.12132 2.12132 
C 2.683901 1.55874 3 0.795609 3 0 
C 3 -0.795609 2.683901 -1.55874 2.12132 -2.12132 
C 1.55874 -2.683901 0.795609 -3 0 -3 
C -0.795609 -3 -1.55874 -2.683901 -2.12132 -2.12132 
C -2.683901 -1.55874 -3 -0.795609 -3 0 
C -3 0.795609 -2.683901 1.55874 -2.12132 2.12132 
C -1.55874 2.683901 -0.795609 3 0 3 
z
" id="mab778c2fe8" style="stroke:#2ca02c;stroke-opacity:0.8;"/>
    </defs>
    <g clip-path="url(#pa7441b1b4e)">
     <use style="fill:#2ca02c;fill-opacity:0.8;stroke:#2ca02c;stroke-opacity:0.8;" x="235.97087" xlink:href="#mab778c2fe8" y="113.132725"/>
     <use style="fill:#2ca02c;fill-opacity:0.8;stroke:#2ca02c;stroke-opacity:0.8;" x="81.880988" xlink:href="#mab778c2fe8" y="170.939027"/>
     <use style="fill:#2ca02c;fill-opacity:0.8;stroke:#2ca02c;stroke-opacity:0.8;" x="400.716293" xlink:href="#mab778c2fe8" y="179.296565"/>
     <use style="fill:#2ca02c;fill-opacity:0.8;stroke:#2ca02c;stroke-opacity:0.8;" x="379.568055" xlink:href="#mab778c2fe8" y="184.380733"/>
     <use style="fill:#2ca02c;fill-opacity:0.8;stroke:#2ca02c;stroke-opacity:0.8;" x="433.4545" xlink:href="#mab778c2fe8" y="101.649814"/>
     <use style="fill:#2ca02c;fill-opacity:0.8;stroke:#2ca02c;stroke-opacity:0.8;" x="465.172589" xlink:href="#mab778c2fe8" y="163.521712"/>
     <use style="fill:#2ca02c;fill-opacity:0.8;stroke:#2ca02c;stroke-opacity:0.8;" x="265.014334" xlink:href="#mab778c2fe8" y="92.238875"/>
    </g>
   </g>
   <g id="PolyCollection_3">
    <path clip-path="url(#pa7441b1b4e)" d="M 67.895671 28.549716 
L 67.895671 183.152251 
L 70.795399 182.596257 
L 73.695127 182.040263 
L 76.594855 181.736012 
L 79.494583 181.471082 
L 82.394311 181.206151 
L 85.294039 180.941221 
L 88.193767 180.676291 
L 91.093495 180.41136 
L 93.993223 180.14643 
L 96.892951 179.881499 
L 99.792679 179.616569 
L 102.692407 179.351638 
L 105.592136 179.086708 
L 108.491864 178.821778 
L 111.391592 178.556847 
L 114.29132 178.408001 
L 117.191048 178.284238 
L 120.090776 178.160475 
L 122.990504 178.036711 
L 125.890232 177.912948 
L 128.78996 177.789184 
L 131.689688 177.665421 
L 134.589416 177.541657 
L 137.489144 177.417894 
L 140.388872 177.29413 
L 143.288601 177.060557 
L 146.188329 176.793073 
L 149.088057 176.270394 
L 151.987785 176.220526 
L 154.887513 175.977681 
L 157.787241 175.707723 
L 160.686969 175.432762 
L 163.586697 175.118693 
L 166.486425 174.70434 
L 169.386153 174.300505 
L 172.285881 174.316295 
L 175.185609 174.206656 
L 178.085337 174.246366 
L 180.985065 174.286076 
L 183.884794 174.325786 
L 186.784522 174.365495 
L 189.68425 174.405205 
L 192.583978 174.444915 
L 195.483706 174.484625 
L 198.383434 174.523915 
L 201.283162 174.547236 
L 204.18289 174.515387 
L 207.082618 174.475094 
L 209.982346 174.414174 
L 212.882074 174.296182 
L 215.781802 174.192438 
L 218.68153 174.225152 
L 221.581259 174.257866 
L 224.480987 174.232779 
L 227.380715 174.194265 
L 230.280443 174.15575 
L 233.180171 174.117235 
L 236.079899 174.078721 
L 238.979627 174.040206 
L 241.879355 174.001692 
L 244.779083 173.963177 
L 247.678811 173.924663 
L 250.578539 173.87621 
L 253.478267 173.827589 
L 256.377995 173.787868 
L 259.277724 173.748523 
L 262.177452 173.709179 
L 265.07718 173.669835 
L 267.976908 173.630491 
L 270.876636 173.591146 
L 273.776364 173.551802 
L 276.676092 173.512458 
L 279.57582 173.473114 
L 282.475548 173.433769 
L 285.375276 173.394425 
L 288.275004 173.355081 
L 291.174732 173.315737 
L 294.07446 173.276392 
L 296.974188 173.237048 
L 299.873917 173.197704 
L 302.773645 173.15836 
L 305.673373 173.119015 
L 308.573101 173.079318 
L 311.472829 173.038834 
L 314.372557 172.99835 
L 317.272285 172.957866 
L 320.172013 172.917382 
L 323.071741 172.876898 
L 325.971469 172.836414 
L 328.871197 172.795929 
L 331.770925 172.960443 
L 334.670653 173.130342 
L 337.570382 173.300241 
L 340.47011 173.350644 
L 343.369838 173.309875 
L 346.269566 172.519495 
L 349.169294 172.333671 
L 352.069022 172.60334 
L 354.96875 172.679872 
L 354.96875 112.21215 
L 354.96875 112.21215 
L 352.069022 112.026447 
L 349.169294 112.038142 
L 346.269566 112.594302 
L 343.369838 112.374944 
L 340.47011 111.856127 
L 337.570382 111.053654 
L 334.670653 110.801975 
L 331.770925 110.304956 
L 328.871197 109.746332 
L 325.971469 109.182537 
L 323.071741 109.254506 
L 320.172013 108.817463 
L 317.272285 108.896702 
L 314.372557 108.484036 
L 311.472829 107.837327 
L 308.573101 107.670569 
L 305.673373 107.864862 
L 302.773645 108.310954 
L 299.873917 108.173966 
L 296.974188 108.130721 
L 294.07446 107.932134 
L 291.174732 107.036553 
L 288.275004 106.670582 
L 285.375276 106.088432 
L 282.475548 105.169208 
L 279.57582 104.190947 
L 276.676092 103.374986 
L 273.776364 102.375014 
L 270.876636 101.334221 
L 267.976908 100.585797 
L 265.07718 99.609074 
L 262.177452 98.922364 
L 259.277724 97.991094 
L 256.377995 97.661142 
L 253.478267 96.940683 
L 250.578539 96.131831 
L 247.678811 95.516089 
L 244.779083 94.481826 
L 241.879355 93.442394 
L 238.979627 92.419912 
L 236.079899 91.392366 
L 233.180171 90.655322 
L 230.280443 89.941877 
L 227.380715 89.012222 
L 224.480987 88.349638 
L 221.581259 87.624417 
L 218.68153 85.914875 
L 215.781802 84.208266 
L 212.882074 83.144918 
L 209.982346 82.113987 
L 207.082618 81.083056 
L 204.18289 80.052125 
L 201.283162 79.021194 
L 198.383434 77.990263 
L 195.483706 76.954823 
L 192.583978 75.920783 
L 189.68425 74.671446 
L 186.784522 73.719204 
L 183.884794 72.766962 
L 180.985065 71.80111 
L 178.085337 70.769038 
L 175.185609 69.742815 
L 172.285881 68.711884 
L 169.386153 67.680953 
L 166.486425 66.650022 
L 163.586697 65.619091 
L 160.686969 64.645605 
L 157.787241 63.815769 
L 154.887513 62.985932 
L 151.987785 62.08525 
L 149.088057 60.660152 
L 146.188329 59.563459 
L 143.288601 58.586736 
L 140.388872 57.610014 
L 137.489144 56.633292 
L 134.589416 55.648361 
L 131.689688 54.519785 
L 128.78996 53.355153 
L 125.890232 52.216989 
L 122.990504 51.186058 
L 120.090776 50.155127 
L 117.191048 49.018579 
L 114.29132 47.814528 
L 111.391592 46.610477 
L 108.491864 45.406426 
L 105.592136 44.202376 
L 102.692407 42.998325 
L 99.792679 41.794274 
L 96.892951 40.590223 
L 93.993223 39.386173 
L 91.093495 38.182122 
L 88.193767 36.978071 
L 85.294039 35.77402 
L 82.394311 34.56997 
L 79.494583 33.365919 
L 76.594855 32.161868 
L 73.695127 30.957817 
L 70.795399 29.753767 
L 67.895671 28.549716 
z
" style="fill:#2ca02c;fill-opacity:0.15;"/>
   </g>
   <g id="matplotlib.axis_1">
    <g id="xtick_1">
     <g id="line2d_1">
      <defs>
       <path d="M 0 0 
L 0 3.5 
" id="mb414cc3d02" style="stroke:#000000;stroke-width:0.8;"/>
      </defs>
      <g>
       <use style="stroke:#000000;stroke-width:0.8;" x="69.476646" xlink:href="#mb414cc3d02" y="317.29375"/>
      </g>
     </g>
     <g id="text_1">
      <!-- 5 -->
      <defs>
       <path d="M 10.796875 72.90625 
L 49.515625 72.90625 
L 49.515625 64.59375 
L 19.828125 64.59375 
L 19.828125 46.734375 
Q 21.96875 47.46875 24.109375 47.828125 
Q 26.265625 48.1875 28.421875 48.1875 
Q 40.625 48.1875 47.75 41.5 
Q 54.890625 34.8125 54.890625 23.390625 
Q 54.890625 11.625 47.5625 5.09375 
Q 40.234375 -1.421875 26.90625 -1.421875 
Q 22.3125 -1.421875 17.546875 -0.640625 
Q 12.796875 0.140625 7.71875 1.703125 
L 7.71875 11.625 
Q 12.109375 9.234375 16.796875 8.0625 
Q 21.484375 6.890625 26.703125 6.890625 
Q 35.15625 6.890625 40.078125 11.328125 
Q 45.015625 15.765625 45.015625 23.390625 
Q 45.015625 31 40.078125 35.4375 
Q 35.15625 39.890625 26.703125 39.890625 
Q 22.75 39.890625 18.8125 39.015625 
Q 14.890625 38.140625 10.796875 36.28125 
z
" id="DejaVuSans-35"/>
      </defs>
      <g transform="translate(66.295396 331.892187)scale(0.1 -0.1)">
       <use xlink:href="#DejaVuSans-35"/>
      </g>
     </g>
    </g>
    <g id="xtick_2">
     <g id="line2d_2">
      <g>
       <use style="stroke:#000000;stroke-width:0.8;" x="112.338919" xlink:href="#mb414cc3d02" y="317.29375"/>
      </g>
     </g>
     <g id="text_2">
      <!-- 10 -->
      <defs>
       <path d="M 12.40625 8.296875 
L 28.515625 8.296875 
L 28.515625 63.921875 
L 10.984375 60.40625 
L 10.984375 69.390625 
L 28.421875 72.90625 
L 38.28125 72.90625 
L 38.28125 8.296875 
L 54.390625 8.296875 
L 54.390625 0 
L 12.40625 0 
z
" id="DejaVuSans-31"/>
       <path d="M 31.78125 66.40625 
Q 24.171875 66.40625 20.328125 58.90625 
Q 16.5 51.421875 16.5 36.375 
Q 16.5 21.390625 20.328125 13.890625 
Q 24.171875 6.390625 31.78125 6.390625 
Q 39.453125 6.390625 43.28125 13.890625 
Q 47.125 21.390625 47.125 36.375 
Q 47.125 51.421875 43.28125 58.90625 
Q 39.453125 66.40625 31.78125 66.40625 
z
M 31.78125 74.21875 
Q 44.046875 74.21875 50.515625 64.515625 
Q 56.984375 54.828125 56.984375 36.375 
Q 56.984375 17.96875 50.515625 8.265625 
Q 44.046875 -1.421875 31.78125 -1.421875 
Q 19.53125 -1.421875 13.0625 8.265625 
Q 6.59375 17.96875 6.59375 36.375 
Q 6.59375 54.828125 13.0625 64.515625 
Q 19.53125 74.21875 31.78125 74.21875 
z
" id="DejaVuSans-30"/>
      </defs>
      <g transform="translate(105.976419 331.892187)scale(0.1 -0.1)">
       <use xlink:href="#DejaVuSans-31"/>
       <use x="63.623047" xlink:href="#DejaVuSans-30"/>
      </g>
     </g>
    </g>
    <g id="xtick_3">
     <g id="line2d_3">
      <g>
       <use style="stroke:#000000;stroke-width:0.8;" x="155.201193" xlink:href="#mb414cc3d02" y="317.29375"/>
      </g>
     </g>
     <g id="text_3">
      <!-- 15 -->
      <g transform="translate(148.838693 331.892187)scale(0.1 -0.1)">
       <use xlink:href="#DejaVuSans-31"/>
       <use x="63.623047" xlink:href="#DejaVuSans-35"/>
      </g>
     </g>
    </g>
    <g id="xtick_4">
     <g id="line2d_4">
      <g>
       <use style="stroke:#000000;stroke-width:0.8;" x="198.063467" xlink:href="#mb414cc3d02" y="317.29375"/>
      </g>
     </g>
     <g id="text_4">
      <!-- 20 -->
      <defs>
       <path d="M 19.1875 8.296875 
L 53.609375 8.296875 
L 53.609375 0 
L 7.328125 0 
L 7.328125 8.296875 
Q 12.9375 14.109375 22.625 23.890625 
Q 32.328125 33.6875 34.8125 36.53125 
Q 39.546875 41.84375 41.421875 45.53125 
Q 43.3125 49.21875 43.3125 52.78125 
Q 43.3125 58.59375 39.234375 62.25 
Q 35.15625 65.921875 28.609375 65.921875 
Q 23.96875 65.921875 18.8125 64.3125 
Q 13.671875 62.703125 7.8125 59.421875 
L 7.8125 69.390625 
Q 13.765625 71.78125 18.9375 73 
Q 24.125 74.21875 28.421875 74.21875 
Q 39.75 74.21875 46.484375 68.546875 
Q 53.21875 62.890625 53.21875 53.421875 
Q 53.21875 48.921875 51.53125 44.890625 
Q 49.859375 40.875 45.40625 35.40625 
Q 44.1875 33.984375 37.640625 27.21875 
Q 31.109375 20.453125 19.1875 8.296875 
z
" id="DejaVuSans-32"/>
      </defs>
      <g transform="translate(191.700967 331.892187)scale(0.1 -0.1)">
       <use xlink:href="#DejaVuSans-32"/>
       <use x="63.623047" xlink:href="#DejaVuSans-30"/>
      </g>
     </g>
    </g>
    <g id="xtick_5">
     <g id="line2d_5">
      <g>
       <use style="stroke:#000000;stroke-width:0.8;" x="240.925741" xlink:href="#mb414cc3d02" y="317.29375"/>
      </g>
     </g>
     <g id="text_5">
      <!-- 25 -->
      <g transform="translate(234.563241 331.892187)scale(0.1 -0.1)">
       <use xlink:href="#DejaVuSans-32"/>
       <use x="63.623047" xlink:href="#DejaVuSans-35"/>
      </g>
     </g>
    </g>
    <g id="xtick_6">
     <g id="line2d_6">
      <g>
       <use style="stroke:#000000;stroke-width:0.8;" x="283.788015" xlink:href="#mb414cc3d02" y="317.29375"/>
      </g>
     </g>
     <g id="text_6">
      <!-- 30 -->
      <defs>
       <path d="M 40.578125 39.3125 
Q 47.65625 37.796875 51.625 33 
Q 55.609375 28.21875 55.609375 21.1875 
Q 55.609375 10.40625 48.1875 4.484375 
Q 40.765625 -1.421875 27.09375 -1.421875 
Q 22.515625 -1.421875 17.65625 -0.515625 
Q 12.796875 0.390625 7.625 2.203125 
L 7.625 11.71875 
Q 11.71875 9.328125 16.59375 8.109375 
Q 21.484375 6.890625 26.8125 6.890625 
Q 36.078125 6.890625 40.9375 10.546875 
Q 45.796875 14.203125 45.796875 21.1875 
Q 45.796875 27.640625 41.28125 31.265625 
Q 36.765625 34.90625 28.71875 34.90625 
L 20.21875 34.90625 
L 20.21875 43.015625 
L 29.109375 43.015625 
Q 36.375 43.015625 40.234375 45.921875 
Q 44.09375 48.828125 44.09375 54.296875 
Q 44.09375 59.90625 40.109375 62.90625 
Q 36.140625 65.921875 28.71875 65.921875 
Q 24.65625 65.921875 20.015625 65.03125 
Q 15.375 64.15625 9.8125 62.3125 
L 9.8125 71.09375 
Q 15.4375 72.65625 20.34375 73.4375 
Q 25.25 74.21875 29.59375 74.21875 
Q 40.828125 74.21875 47.359375 69.109375 
Q 53.90625 64.015625 53.90625 55.328125 
Q 53.90625 49.265625 50.4375 45.09375 
Q 46.96875 40.921875 40.578125 39.3125 
z
" id="DejaVuSans-33"/>
      </defs>
      <g transform="translate(277.425515 331.892187)scale(0.1 -0.1)">
       <use xlink:href="#DejaVuSans-33"/>
       <use x="63.623047" xlink:href="#DejaVuSans-30"/>
      </g>
     </g>
    </g>
    <g id="xtick_7">
     <g id="line2d_7">
      <g>
       <use style="stroke:#000000;stroke-width:0.8;" x="326.650289" xlink:href="#mb414cc3d02" y="317.29375"/>
      </g>
     </g>
     <g id="text_7">
      <!-- 35 -->
      <g transform="translate(320.287789 331.892187)scale(0.1 -0.1)">
       <use xlink:href="#DejaVuSans-33"/>
       <use x="63.623047" xlink:href="#DejaVuSans-35"/>
      </g>
     </g>
    </g>
    <g id="text_8">
     <!-- pct_services_employment -->
     <defs>
      <path d="M 18.109375 8.203125 
L 18.109375 -20.796875 
L 9.078125 -20.796875 
L 9.078125 54.6875 
L 18.109375 54.6875 
L 18.109375 46.390625 
Q 20.953125 51.265625 25.265625 53.625 
Q 29.59375 56 35.59375 56 
Q 45.5625 56 51.78125 48.09375 
Q 58.015625 40.1875 58.015625 27.296875 
Q 58.015625 14.40625 51.78125 6.484375 
Q 45.5625 -1.421875 35.59375 -1.421875 
Q 29.59375 -1.421875 25.265625 0.953125 
Q 20.953125 3.328125 18.109375 8.203125 
z
M 48.6875 27.296875 
Q 48.6875 37.203125 44.609375 42.84375 
Q 40.53125 48.484375 33.40625 48.484375 
Q 26.265625 48.484375 22.1875 42.84375 
Q 18.109375 37.203125 18.109375 27.296875 
Q 18.109375 17.390625 22.1875 11.75 
Q 26.265625 6.109375 33.40625 6.109375 
Q 40.53125 6.109375 44.609375 11.75 
Q 48.6875 17.390625 48.6875 27.296875 
z
" id="DejaVuSans-70"/>
      <path d="M 48.78125 52.59375 
L 48.78125 44.1875 
Q 44.96875 46.296875 41.140625 47.34375 
Q 37.3125 48.390625 33.40625 48.390625 
Q 24.65625 48.390625 19.8125 42.84375 
Q 14.984375 37.3125 14.984375 27.296875 
Q 14.984375 17.28125 19.8125 11.734375 
Q 24.65625 6.203125 33.40625 6.203125 
Q 37.3125 6.203125 41.140625 7.25 
Q 44.96875 8.296875 48.78125 10.40625 
L 48.78125 2.09375 
Q 45.015625 0.34375 40.984375 -0.53125 
Q 36.96875 -1.421875 32.421875 -1.421875 
Q 20.0625 -1.421875 12.78125 6.34375 
Q 5.515625 14.109375 5.515625 27.296875 
Q 5.515625 40.671875 12.859375 48.328125 
Q 20.21875 56 33.015625 56 
Q 37.15625 56 41.109375 55.140625 
Q 45.0625 54.296875 48.78125 52.59375 
z
" id="DejaVuSans-63"/>
      <path d="M 18.3125 70.21875 
L 18.3125 54.6875 
L 36.8125 54.6875 
L 36.8125 47.703125 
L 18.3125 47.703125 
L 18.3125 18.015625 
Q 18.3125 11.328125 20.140625 9.421875 
Q 21.96875 7.515625 27.59375 7.515625 
L 36.8125 7.515625 
L 36.8125 0 
L 27.59375 0 
Q 17.1875 0 13.234375 3.875 
Q 9.28125 7.765625 9.28125 18.015625 
L 9.28125 47.703125 
L 2.6875 47.703125 
L 2.6875 54.6875 
L 9.28125 54.6875 
L 9.28125 70.21875 
z
" id="DejaVuSans-74"/>
      <path d="M 50.984375 -16.609375 
L 50.984375 -23.578125 
L -0.984375 -23.578125 
L -0.984375 -16.609375 
z
" id="DejaVuSans-5f"/>
      <path d="M 44.28125 53.078125 
L 44.28125 44.578125 
Q 40.484375 46.53125 36.375 47.5 
Q 32.28125 48.484375 27.875 48.484375 
Q 21.1875 48.484375 17.84375 46.4375 
Q 14.5 44.390625 14.5 40.28125 
Q 14.5 37.15625 16.890625 35.375 
Q 19.28125 33.59375 26.515625 31.984375 
L 29.59375 31.296875 
Q 39.15625 29.25 43.1875 25.515625 
Q 47.21875 21.78125 47.21875 15.09375 
Q 47.21875 7.46875 41.1875 3.015625 
Q 35.15625 -1.421875 24.609375 -1.421875 
Q 20.21875 -1.421875 15.453125 -0.5625 
Q 10.6875 0.296875 5.421875 2 
L 5.421875 11.28125 
Q 10.40625 8.6875 15.234375 7.390625 
Q 20.0625 6.109375 24.8125 6.109375 
Q 31.15625 6.109375 34.5625 8.28125 
Q 37.984375 10.453125 37.984375 14.40625 
Q 37.984375 18.0625 35.515625 20.015625 
Q 33.0625 21.96875 24.703125 23.78125 
L 21.578125 24.515625 
Q 13.234375 26.265625 9.515625 29.90625 
Q 5.8125 33.546875 5.8125 39.890625 
Q 5.8125 47.609375 11.28125 51.796875 
Q 16.75 56 26.8125 56 
Q 31.78125 56 36.171875 55.265625 
Q 40.578125 54.546875 44.28125 53.078125 
z
" id="DejaVuSans-73"/>
      <path d="M 56.203125 29.59375 
L 56.203125 25.203125 
L 14.890625 25.203125 
Q 15.484375 15.921875 20.484375 11.0625 
Q 25.484375 6.203125 34.421875 6.203125 
Q 39.59375 6.203125 44.453125 7.46875 
Q 49.3125 8.734375 54.109375 11.28125 
L 54.109375 2.78125 
Q 49.265625 0.734375 44.1875 -0.34375 
Q 39.109375 -1.421875 33.890625 -1.421875 
Q 20.796875 -1.421875 13.15625 6.1875 
Q 5.515625 13.8125 5.515625 26.8125 
Q 5.515625 40.234375 12.765625 48.109375 
Q 20.015625 56 32.328125 56 
Q 43.359375 56 49.78125 48.890625 
Q 56.203125 41.796875 56.203125 29.59375 
z
M 47.21875 32.234375 
Q 47.125 39.59375 43.09375 43.984375 
Q 39.0625 48.390625 32.421875 48.390625 
Q 24.90625 48.390625 20.390625 44.140625 
Q 15.875 39.890625 15.1875 32.171875 
z
" id="DejaVuSans-65"/>
      <path d="M 41.109375 46.296875 
Q 39.59375 47.171875 37.8125 47.578125 
Q 36.03125 48 33.890625 48 
Q 26.265625 48 22.1875 43.046875 
Q 18.109375 38.09375 18.109375 28.8125 
L 18.109375 0 
L 9.078125 0 
L 9.078125 54.6875 
L 18.109375 54.6875 
L 18.109375 46.1875 
Q 20.953125 51.171875 25.484375 53.578125 
Q 30.03125 56 36.53125 56 
Q 37.453125 56 38.578125 55.875 
Q 39.703125 55.765625 41.0625 55.515625 
z
" id="DejaVuSans-72"/>
      <path d="M 2.984375 54.6875 
L 12.5 54.6875 
L 29.59375 8.796875 
L 46.6875 54.6875 
L 56.203125 54.6875 
L 35.6875 0 
L 23.484375 0 
z
" id="DejaVuSans-76"/>
      <path d="M 9.421875 54.6875 
L 18.40625 54.6875 
L 18.40625 0 
L 9.421875 0 
z
M 9.421875 75.984375 
L 18.40625 75.984375 
L 18.40625 64.59375 
L 9.421875 64.59375 
z
" id="DejaVuSans-69"/>
      <path d="M 52 44.1875 
Q 55.375 50.25 60.0625 53.125 
Q 64.75 56 71.09375 56 
Q 79.640625 56 84.28125 50.015625 
Q 88.921875 44.046875 88.921875 33.015625 
L 88.921875 0 
L 79.890625 0 
L 79.890625 32.71875 
Q 79.890625 40.578125 77.09375 44.375 
Q 74.3125 48.1875 68.609375 48.1875 
Q 61.625 48.1875 57.5625 43.546875 
Q 53.515625 38.921875 53.515625 30.90625 
L 53.515625 0 
L 44.484375 0 
L 44.484375 32.71875 
Q 44.484375 40.625 41.703125 44.40625 
Q 38.921875 48.1875 33.109375 48.1875 
Q 26.21875 48.1875 22.15625 43.53125 
Q 18.109375 38.875 18.109375 30.90625 
L 18.109375 0 
L 9.078125 0 
L 9.078125 54.6875 
L 18.109375 54.6875 
L 18.109375 46.1875 
Q 21.1875 51.21875 25.484375 53.609375 
Q 29.78125 56 35.6875 56 
Q 41.65625 56 45.828125 52.96875 
Q 50 49.953125 52 44.1875 
z
" id="DejaVuSans-6d"/>
      <path d="M 9.421875 75.984375 
L 18.40625 75.984375 
L 18.40625 0 
L 9.421875 0 
z
" id="DejaVuSans-6c"/>
      <path d="M 30.609375 48.390625 
Q 23.390625 48.390625 19.1875 42.75 
Q 14.984375 37.109375 14.984375 27.296875 
Q 14.984375 17.484375 19.15625 11.84375 
Q 23.34375 6.203125 30.609375 6.203125 
Q 37.796875 6.203125 41.984375 11.859375 
Q 46.1875 17.53125 46.1875 27.296875 
Q 46.1875 37.015625 41.984375 42.703125 
Q 37.796875 48.390625 30.609375 48.390625 
z
M 30.609375 56 
Q 42.328125 56 49.015625 48.375 
Q 55.71875 40.765625 55.71875 27.296875 
Q 55.71875 13.875 49.015625 6.21875 
Q 42.328125 -1.421875 30.609375 -1.421875 
Q 18.84375 -1.421875 12.171875 6.21875 
Q 5.515625 13.875 5.515625 27.296875 
Q 5.515625 40.765625 12.171875 48.375 
Q 18.84375 56 30.609375 56 
z
" id="DejaVuSans-6f"/>
      <path d="M 32.171875 -5.078125 
Q 28.375 -14.84375 24.75 -17.8125 
Q 21.140625 -20.796875 15.09375 -20.796875 
L 7.90625 -20.796875 
L 7.90625 -13.28125 
L 13.1875 -13.28125 
Q 16.890625 -13.28125 18.9375 -11.515625 
Q 21 -9.765625 23.484375 -3.21875 
L 25.09375 0.875 
L 2.984375 54.6875 
L 12.5 54.6875 
L 29.59375 11.921875 
L 46.6875 54.6875 
L 56.203125 54.6875 
z
" id="DejaVuSans-79"/>
      <path d="M 54.890625 33.015625 
L 54.890625 0 
L 45.90625 0 
L 45.90625 32.71875 
Q 45.90625 40.484375 42.875 44.328125 
Q 39.84375 48.1875 33.796875 48.1875 
Q 26.515625 48.1875 22.3125 43.546875 
Q 18.109375 38.921875 18.109375 30.90625 
L 18.109375 0 
L 9.078125 0 
L 9.078125 54.6875 
L 18.109375 54.6875 
L 18.109375 46.1875 
Q 21.34375 51.125 25.703125 53.5625 
Q 30.078125 56 35.796875 56 
Q 45.21875 56 50.046875 50.171875 
Q 54.890625 44.34375 54.890625 33.015625 
z
" id="DejaVuSans-6e"/>
     </defs>
     <g transform="translate(146.428304 345.570312)scale(0.1 -0.1)">
      <use xlink:href="#DejaVuSans-70"/>
      <use x="63.476562" xlink:href="#DejaVuSans-63"/>
      <use x="118.457031" xlink:href="#DejaVuSans-74"/>
      <use x="157.666016" xlink:href="#DejaVuSans-5f"/>
      <use x="207.666016" xlink:href="#DejaVuSans-73"/>
      <use x="259.765625" xlink:href="#DejaVuSans-65"/>
      <use x="321.289062" xlink:href="#DejaVuSans-72"/>
      <use x="362.402344" xlink:href="#DejaVuSans-76"/>
      <use x="421.582031" xlink:href="#DejaVuSans-69"/>
      <use x="449.365234" xlink:href="#DejaVuSans-63"/>
      <use x="504.345703" xlink:href="#DejaVuSans-65"/>
      <use x="565.869141" xlink:href="#DejaVuSans-73"/>
      <use x="617.96875" xlink:href="#DejaVuSans-5f"/>
      <use x="667.96875" xlink:href="#DejaVuSans-65"/>
      <use x="729.492188" xlink:href="#DejaVuSans-6d"/>
      <use x="826.904297" xlink:href="#DejaVuSans-70"/>
      <use x="890.380859" xlink:href="#DejaVuSans-6c"/>
      <use x="918.164062" xlink:href="#DejaVuSans-6f"/>
      <use x="979.345703" xlink:href="#DejaVuSans-79"/>
      <use x="1038.525391" xlink:href="#DejaVuSans-6d"/>
      <use x="1135.9375" xlink:href="#DejaVuSans-65"/>
      <use x="1197.460938" xlink:href="#DejaVuSans-6e"/>
      <use x="1260.839844" xlink:href="#DejaVuSans-74"/>
     </g>
    </g>
   </g>
   <g id="matplotlib.axis_2">
    <g id="ytick_1">
     <g id="line2d_8">
      <defs>
       <path d="M 0 0 
L -3.5 0 
" id="m713954b686" style="stroke:#000000;stroke-width:0.8;"/>
      </defs>
      <g>
       <use style="stroke:#000000;stroke-width:0.8;" x="67.895671" xlink:href="#m713954b686" y="290.277706"/>
      </g>
     </g>
     <g id="text_9">
      <!-- −10 -->
      <defs>
       <path d="M 10.59375 35.5 
L 73.1875 35.5 
L 73.1875 27.203125 
L 10.59375 27.203125 
z
" id="DejaVuSans-2212"/>
      </defs>
      <g transform="translate(39.790983 294.076924)scale(0.1 -0.1)">
       <use xlink:href="#DejaVuSans-2212"/>
       <use x="83.789062" xlink:href="#DejaVuSans-31"/>
       <use x="147.412109" xlink:href="#DejaVuSans-30"/>
      </g>
     </g>
    </g>
    <g id="ytick_2">
     <g id="line2d_9">
      <g>
       <use style="stroke:#000000;stroke-width:0.8;" x="67.895671" xlink:href="#m713954b686" y="246.748861"/>
      </g>
     </g>
     <g id="text_10">
      <!-- −5 -->
      <g transform="translate(46.153483 250.54808)scale(0.1 -0.1)">
       <use xlink:href="#DejaVuSans-2212"/>
       <use x="83.789062" xlink:href="#DejaVuSans-35"/>
      </g>
     </g>
    </g>
    <g id="ytick_3">
     <g id="line2d_10">
      <g>
       <use style="stroke:#000000;stroke-width:0.8;" x="67.895671" xlink:href="#m713954b686" y="203.220017"/>
      </g>
     </g>
     <g id="text_11">
      <!-- 0 -->
      <g transform="translate(54.533171 207.019236)scale(0.1 -0.1)">
       <use xlink:href="#DejaVuSans-30"/>
      </g>
     </g>
    </g>
    <g id="ytick_4">
     <g id="line2d_11">
      <g>
       <use style="stroke:#000000;stroke-width:0.8;" x="67.895671" xlink:href="#m713954b686" y="159.691173"/>
      </g>
     </g>
     <g id="text_12">
      <!-- 5 -->
      <g transform="translate(54.533171 163.490392)scale(0.1 -0.1)">
       <use xlink:href="#DejaVuSans-35"/>
      </g>
     </g>
    </g>
    <g id="ytick_5">
     <g id="line2d_12">
      <g>
       <use style="stroke:#000000;stroke-width:0.8;" x="67.895671" xlink:href="#m713954b686" y="116.162329"/>
      </g>
     </g>
     <g id="text_13">
      <!-- 10 -->
      <g transform="translate(48.170671 119.961547)scale(0.1 -0.1)">
       <use xlink:href="#DejaVuSans-31"/>
       <use x="63.623047" xlink:href="#DejaVuSans-30"/>
      </g>
     </g>
    </g>
    <g id="ytick_6">
     <g id="line2d_13">
      <g>
       <use style="stroke:#000000;stroke-width:0.8;" x="67.895671" xlink:href="#m713954b686" y="72.633484"/>
      </g>
     </g>
     <g id="text_14">
      <!-- 15 -->
      <g transform="translate(48.170671 76.432703)scale(0.1 -0.1)">
       <use xlink:href="#DejaVuSans-31"/>
       <use x="63.623047" xlink:href="#DejaVuSans-35"/>
      </g>
     </g>
    </g>
    <g id="ytick_7">
     <g id="line2d_14">
      <g>
       <use style="stroke:#000000;stroke-width:0.8;" x="67.895671" xlink:href="#m713954b686" y="29.10464"/>
      </g>
     </g>
     <g id="text_15">
      <!-- 20 -->
      <g transform="translate(48.170671 32.903859)scale(0.1 -0.1)">
       <use xlink:href="#DejaVuSans-32"/>
       <use x="63.623047" xlink:href="#DejaVuSans-30"/>
      </g>
     </g>
    </g>
    <g id="text_16">
     <!-- Unemployment Rate -->
     <defs>
      <path d="M 8.6875 72.90625 
L 18.609375 72.90625 
L 18.609375 28.609375 
Q 18.609375 16.890625 22.84375 11.734375 
Q 27.09375 6.59375 36.625 6.59375 
Q 46.09375 6.59375 50.34375 11.734375 
Q 54.59375 16.890625 54.59375 28.609375 
L 54.59375 72.90625 
L 64.5 72.90625 
L 64.5 27.390625 
Q 64.5 13.140625 57.4375 5.859375 
Q 50.390625 -1.421875 36.625 -1.421875 
Q 22.796875 -1.421875 15.734375 5.859375 
Q 8.6875 13.140625 8.6875 27.390625 
z
" id="DejaVuSans-55"/>
      <path id="DejaVuSans-20"/>
      <path d="M 44.390625 34.1875 
Q 47.5625 33.109375 50.5625 29.59375 
Q 53.5625 26.078125 56.59375 19.921875 
L 66.609375 0 
L 56 0 
L 46.6875 18.703125 
Q 43.0625 26.03125 39.671875 28.421875 
Q 36.28125 30.8125 30.421875 30.8125 
L 19.671875 30.8125 
L 19.671875 0 
L 9.8125 0 
L 9.8125 72.90625 
L 32.078125 72.90625 
Q 44.578125 72.90625 50.734375 67.671875 
Q 56.890625 62.453125 56.890625 51.90625 
Q 56.890625 45.015625 53.6875 40.46875 
Q 50.484375 35.9375 44.390625 34.1875 
z
M 19.671875 64.796875 
L 19.671875 38.921875 
L 32.078125 38.921875 
Q 39.203125 38.921875 42.84375 42.21875 
Q 46.484375 45.515625 46.484375 51.90625 
Q 46.484375 58.296875 42.84375 61.546875 
Q 39.203125 64.796875 32.078125 64.796875 
z
" id="DejaVuSans-52"/>
      <path d="M 34.28125 27.484375 
Q 23.390625 27.484375 19.1875 25 
Q 14.984375 22.515625 14.984375 16.5 
Q 14.984375 11.71875 18.140625 8.90625 
Q 21.296875 6.109375 26.703125 6.109375 
Q 34.1875 6.109375 38.703125 11.40625 
Q 43.21875 16.703125 43.21875 25.484375 
L 43.21875 27.484375 
z
M 52.203125 31.203125 
L 52.203125 0 
L 43.21875 0 
L 43.21875 8.296875 
Q 40.140625 3.328125 35.546875 0.953125 
Q 30.953125 -1.421875 24.3125 -1.421875 
Q 15.921875 -1.421875 10.953125 3.296875 
Q 6 8.015625 6 15.921875 
Q 6 25.140625 12.171875 29.828125 
Q 18.359375 34.515625 30.609375 34.515625 
L 43.21875 34.515625 
L 43.21875 35.40625 
Q 43.21875 41.609375 39.140625 45 
Q 35.0625 48.390625 27.6875 48.390625 
Q 23 48.390625 18.546875 47.265625 
Q 14.109375 46.140625 10.015625 43.890625 
L 10.015625 52.203125 
Q 14.9375 54.109375 19.578125 55.046875 
Q 24.21875 56 28.609375 56 
Q 40.484375 56 46.34375 49.84375 
Q 52.203125 43.703125 52.203125 31.203125 
z
" id="DejaVuSans-61"/>
     </defs>
     <g transform="translate(33.711296 217.642188)rotate(-90)scale(0.1 -0.1)">
      <use xlink:href="#DejaVuSans-55"/>
      <use x="73.193359" xlink:href="#DejaVuSans-6e"/>
      <use x="136.572266" xlink:href="#DejaVuSans-65"/>
      <use x="198.095703" xlink:href="#DejaVuSans-6d"/>
      <use x="295.507812" xlink:href="#DejaVuSans-70"/>
      <use x="358.984375" xlink:href="#DejaVuSans-6c"/>
      <use x="386.767578" xlink:href="#DejaVuSans-6f"/>
      <use x="447.949219" xlink:href="#DejaVuSans-79"/>
      <use x="507.128906" xlink:href="#DejaVuSans-6d"/>
      <use x="604.541016" xlink:href="#DejaVuSans-65"/>
      <use x="666.064453" xlink:href="#DejaVuSans-6e"/>
      <use x="729.443359" xlink:href="#DejaVuSans-74"/>
      <use x="768.652344" xlink:href="#DejaVuSans-20"/>
      <use x="800.439453" xlink:href="#DejaVuSans-52"/>
      <use x="869.890625" xlink:href="#DejaVuSans-61"/>
      <use x="931.169922" xlink:href="#DejaVuSans-74"/>
      <use x="970.378906" xlink:href="#DejaVuSans-65"/>
     </g>
    </g>
   </g>
   <g id="line2d_15">
    <path clip-path="url(#pa7441b1b4e)" d="M 67.895671 209.392689 
L 70.795399 208.634137 
L 73.695127 207.875585 
L 76.594855 207.117032 
L 79.494583 206.35848 
L 82.394311 205.599928 
L 85.294039 204.841376 
L 88.193767 204.082824 
L 91.093495 203.324272 
L 93.993223 202.56572 
L 96.892951 201.807168 
L 99.792679 201.048616 
L 102.692407 200.290064 
L 105.592136 199.531512 
L 108.491864 198.77296 
L 111.391592 198.014408 
L 114.29132 197.255856 
L 117.191048 196.497304 
L 120.090776 195.738752 
L 122.990504 194.9802 
L 125.890232 194.221648 
L 128.78996 193.463095 
L 131.689688 192.704543 
L 134.589416 191.945991 
L 137.489144 191.187439 
L 140.388872 190.428887 
L 143.288601 189.670335 
L 146.188329 188.911783 
L 149.088057 188.153231 
L 151.987785 187.394679 
L 154.887513 186.636127 
L 157.787241 185.877575 
L 160.686969 185.119023 
L 163.586697 184.360471 
L 166.486425 183.601919 
L 169.386153 182.843367 
L 172.285881 182.084815 
L 175.185609 181.326263 
L 178.085337 180.567711 
L 180.985065 179.809159 
L 183.884794 179.050606 
L 186.784522 178.292054 
L 189.68425 177.533502 
L 192.583978 176.77495 
L 195.483706 176.016398 
L 198.383434 175.257846 
L 201.283162 174.499294 
L 204.18289 173.740742 
L 207.082618 172.98219 
L 209.982346 172.223638 
L 212.882074 171.465086 
L 215.781802 170.706534 
L 218.68153 169.947982 
L 221.581259 169.18943 
L 224.480987 168.430878 
L 227.380715 167.672326 
L 230.280443 166.913774 
L 233.180171 166.155222 
L 236.079899 165.39667 
L 238.979627 164.638117 
L 241.879355 163.879565 
L 244.779083 163.121013 
L 247.678811 162.362461 
L 250.578539 161.603909 
L 253.478267 160.845357 
L 256.377995 160.086805 
L 259.277724 159.328253 
L 262.177452 158.569701 
L 265.07718 157.811149 
L 267.976908 157.052597 
L 270.876636 156.294045 
L 273.776364 155.535493 
L 276.676092 154.776941 
L 279.57582 154.018389 
L 282.475548 153.259837 
L 285.375276 152.501285 
L 288.275004 151.742733 
L 291.174732 150.984181 
L 294.07446 150.225628 
L 296.974188 149.467076 
L 299.873917 148.708524 
L 302.773645 147.949972 
L 305.673373 147.19142 
L 308.573101 146.432868 
L 311.472829 145.674316 
L 314.372557 144.915764 
L 317.272285 144.157212 
L 320.172013 143.39866 
L 323.071741 142.640108 
L 325.971469 141.881556 
L 328.871197 141.123004 
L 331.770925 140.364452 
L 334.670653 139.6059 
L 337.570382 138.847348 
L 340.47011 138.088796 
L 343.369838 137.330244 
L 346.269566 136.571692 
L 349.169294 135.813139 
L 352.069022 135.054587 
L 354.96875 134.296035 
" style="fill:none;stroke:#1f77b4;stroke-linecap:square;stroke-width:2.25;"/>
   </g>
   <g id="line2d_16">
    <path clip-path="url(#pa7441b1b4e)" d="M 67.895671 196.929326 
L 70.795399 196.489927 
L 73.695127 196.050529 
L 76.594855 195.61113 
L 79.494583 195.171732 
L 82.394311 194.732333 
L 85.294039 194.292935 
L 88.193767 193.853537 
L 91.093495 193.414138 
L 93.993223 192.97474 
L 96.892951 192.535341 
L 99.792679 192.095943 
L 102.692407 191.656544 
L 105.592136 191.217146 
L 108.491864 190.777748 
L 111.391592 190.338349 
L 114.29132 189.898951 
L 117.191048 189.459552 
L 120.090776 189.020154 
L 122.990504 188.580755 
L 125.890232 188.141357 
L 128.78996 187.701958 
L 131.689688 187.26256 
L 134.589416 186.823162 
L 137.489144 186.383763 
L 140.388872 185.944365 
L 143.288601 185.504966 
L 146.188329 185.065568 
L 149.088057 184.626169 
L 151.987785 184.186771 
L 154.887513 183.747373 
L 157.787241 183.307974 
L 160.686969 182.868576 
L 163.586697 182.429177 
L 166.486425 181.989779 
L 169.386153 181.55038 
L 172.285881 181.110982 
L 175.185609 180.671584 
L 178.085337 180.232185 
L 180.985065 179.792787 
L 183.884794 179.353388 
L 186.784522 178.91399 
L 189.68425 178.474591 
L 192.583978 178.035193 
L 195.483706 177.595794 
L 198.383434 177.156396 
L 201.283162 176.716998 
L 204.18289 176.277599 
L 207.082618 175.838201 
L 209.982346 175.398802 
L 212.882074 174.959404 
L 215.781802 174.520005 
L 218.68153 174.080607 
L 221.581259 173.641209 
L 224.480987 173.20181 
L 227.380715 172.762412 
L 230.280443 172.323013 
L 233.180171 171.883615 
L 236.079899 171.444216 
L 238.979627 171.004818 
L 241.879355 170.565419 
L 244.779083 170.126021 
L 247.678811 169.686623 
L 250.578539 169.247224 
L 253.478267 168.807826 
L 256.377995 168.368427 
L 259.277724 167.929029 
L 262.177452 167.48963 
L 265.07718 167.050232 
L 267.976908 166.610834 
L 270.876636 166.171435 
L 273.776364 165.732037 
L 276.676092 165.292638 
L 279.57582 164.85324 
L 282.475548 164.413841 
L 285.375276 163.974443 
L 288.275004 163.535045 
L 291.174732 163.095646 
L 294.07446 162.656248 
L 296.974188 162.216849 
L 299.873917 161.777451 
L 302.773645 161.338052 
L 305.673373 160.898654 
L 308.573101 160.459255 
L 311.472829 160.019857 
L 314.372557 159.580459 
L 317.272285 159.14106 
L 320.172013 158.701662 
L 323.071741 158.262263 
L 325.971469 157.822865 
L 328.871197 157.383466 
L 331.770925 156.944068 
L 334.670653 156.50467 
L 337.570382 156.065271 
L 340.47011 155.625873 
L 343.369838 155.186474 
L 346.269566 154.747076 
L 349.169294 154.307677 
L 352.069022 153.868279 
L 354.96875 153.42888 
" style="fill:none;stroke:#ff7f0e;stroke-linecap:square;stroke-width:2.25;"/>
   </g>
   <g id="line2d_17">
    <path clip-path="url(#pa7441b1b4e)" d="M 67.895671 138.252341 
L 70.795399 138.313035 
L 73.695127 138.373728 
L 76.594855 138.434422 
L 79.494583 138.495116 
L 82.394311 138.555809 
L 85.294039 138.616503 
L 88.193767 138.677197 
L 91.093495 138.73789 
L 93.993223 138.798584 
L 96.892951 138.859278 
L 99.792679 138.919971 
L 102.692407 138.980665 
L 105.592136 139.041359 
L 108.491864 139.102052 
L 111.391592 139.162746 
L 114.29132 139.22344 
L 117.191048 139.284133 
L 120.090776 139.344827 
L 122.990504 139.405521 
L 125.890232 139.466214 
L 128.78996 139.526908 
L 131.689688 139.587602 
L 134.589416 139.648295 
L 137.489144 139.708989 
L 140.388872 139.769683 
L 143.288601 139.830376 
L 146.188329 139.89107 
L 149.088057 139.951764 
L 151.987785 140.012457 
L 154.887513 140.073151 
L 157.787241 140.133845 
L 160.686969 140.194538 
L 163.586697 140.255232 
L 166.486425 140.315926 
L 169.386153 140.376619 
L 172.285881 140.437313 
L 175.185609 140.498007 
L 178.085337 140.5587 
L 180.985065 140.619394 
L 183.884794 140.680088 
L 186.784522 140.740781 
L 189.68425 140.801475 
L 192.583978 140.862169 
L 195.483706 140.922862 
L 198.383434 140.983556 
L 201.283162 141.04425 
L 204.18289 141.104943 
L 207.082618 141.165637 
L 209.982346 141.226331 
L 212.882074 141.287024 
L 215.781802 141.347718 
L 218.68153 141.408412 
L 221.581259 141.469105 
L 224.480987 141.529799 
L 227.380715 141.590493 
L 230.280443 141.651186 
L 233.180171 141.71188 
L 236.079899 141.772574 
L 238.979627 141.833267 
L 241.879355 141.893961 
L 244.779083 141.954655 
L 247.678811 142.015348 
L 250.578539 142.076042 
L 253.478267 142.136736 
L 256.377995 142.197429 
L 259.277724 142.258123 
L 262.177452 142.318817 
L 265.07718 142.37951 
L 267.976908 142.440204 
L 270.876636 142.500898 
L 273.776364 142.561591 
L 276.676092 142.622285 
L 279.57582 142.682979 
L 282.475548 142.743672 
L 285.375276 142.804366 
L 288.275004 142.86506 
L 291.174732 142.925753 
L 294.07446 142.986447 
L 296.974188 143.047141 
L 299.873917 143.107834 
L 302.773645 143.168528 
L 305.673373 143.229221 
L 308.573101 143.289915 
L 311.472829 143.350609 
L 314.372557 143.411302 
L 317.272285 143.471996 
L 320.172013 143.53269 
L 323.071741 143.593383 
L 325.971469 143.654077 
L 328.871197 143.714771 
L 331.770925 143.775464 
L 334.670653 143.836158 
L 337.570382 143.896852 
L 340.47011 143.957545 
L 343.369838 144.018239 
L 346.269566 144.078933 
L 349.169294 144.139626 
L 352.069022 144.20032 
L 354.96875 144.261014 
" style="fill:none;stroke:#2ca02c;stroke-linecap:square;stroke-width:2.25;"/>
   </g>
   <g id="patch_3">
    <path d="M 67.895671 317.29375 
L 67.895671 14.8 
" style="fill:none;stroke:#000000;stroke-linecap:square;stroke-linejoin:miter;stroke-width:0.8;"/>
   </g>
   <g id="patch_4">
    <path d="M 67.895671 317.29375 
L 354.96875 317.29375 
" style="fill:none;stroke:#000000;stroke-linecap:square;stroke-linejoin:miter;stroke-width:0.8;"/>
   </g>
  </g>
  <g id="legend_1">
   <g id="patch_5">
    <path d="M 356.715625 210.995313 
L 496.125 210.995313 
Q 498.125 210.995313 498.125 208.995313 
L 498.125 151.004687 
Q 498.125 149.004687 496.125 149.004687 
L 356.715625 149.004687 
Q 354.715625 149.004687 354.715625 151.004687 
L 354.715625 208.995313 
Q 354.715625 210.995313 356.715625 210.995313 
z
" style="fill:#ffffff;opacity:0.8;stroke:#cccccc;stroke-linejoin:miter;"/>
   </g>
   <g id="text_17">
    <!-- income_group -->
    <defs>
     <path d="M 45.40625 27.984375 
Q 45.40625 37.75 41.375 43.109375 
Q 37.359375 48.484375 30.078125 48.484375 
Q 22.859375 48.484375 18.828125 43.109375 
Q 14.796875 37.75 14.796875 27.984375 
Q 14.796875 18.265625 18.828125 12.890625 
Q 22.859375 7.515625 30.078125 7.515625 
Q 37.359375 7.515625 41.375 12.890625 
Q 45.40625 18.265625 45.40625 27.984375 
z
M 54.390625 6.78125 
Q 54.390625 -7.171875 48.1875 -13.984375 
Q 42 -20.796875 29.203125 -20.796875 
Q 24.46875 -20.796875 20.265625 -20.09375 
Q 16.0625 -19.390625 12.109375 -17.921875 
L 12.109375 -9.1875 
Q 16.0625 -11.328125 19.921875 -12.34375 
Q 23.78125 -13.375 27.78125 -13.375 
Q 36.625 -13.375 41.015625 -8.765625 
Q 45.40625 -4.15625 45.40625 5.171875 
L 45.40625 9.625 
Q 42.625 4.78125 38.28125 2.390625 
Q 33.9375 0 27.875 0 
Q 17.828125 0 11.671875 7.65625 
Q 5.515625 15.328125 5.515625 27.984375 
Q 5.515625 40.671875 11.671875 48.328125 
Q 17.828125 56 27.875 56 
Q 33.9375 56 38.28125 53.609375 
Q 42.625 51.21875 45.40625 46.390625 
L 45.40625 54.6875 
L 54.390625 54.6875 
z
" id="DejaVuSans-67"/>
     <path d="M 8.5 21.578125 
L 8.5 54.6875 
L 17.484375 54.6875 
L 17.484375 21.921875 
Q 17.484375 14.15625 20.5 10.265625 
Q 23.53125 6.390625 29.59375 6.390625 
Q 36.859375 6.390625 41.078125 11.03125 
Q 45.3125 15.671875 45.3125 23.6875 
L 45.3125 54.6875 
L 54.296875 54.6875 
L 54.296875 0 
L 45.3125 0 
L 45.3125 8.40625 
Q 42.046875 3.421875 37.71875 1 
Q 33.40625 -1.421875 27.6875 -1.421875 
Q 18.265625 -1.421875 13.375 4.4375 
Q 8.5 10.296875 8.5 21.578125 
z
M 31.109375 56 
z
" id="DejaVuSans-75"/>
    </defs>
    <g transform="translate(390.976562 160.603125)scale(0.1 -0.1)">
     <use xlink:href="#DejaVuSans-69"/>
     <use x="27.783203" xlink:href="#DejaVuSans-6e"/>
     <use x="91.162109" xlink:href="#DejaVuSans-63"/>
     <use x="146.142578" xlink:href="#DejaVuSans-6f"/>
     <use x="207.324219" xlink:href="#DejaVuSans-6d"/>
     <use x="304.736328" xlink:href="#DejaVuSans-65"/>
     <use x="366.259766" xlink:href="#DejaVuSans-5f"/>
     <use x="416.259766" xlink:href="#DejaVuSans-67"/>
     <use x="479.736328" xlink:href="#DejaVuSans-72"/>
     <use x="520.818359" xlink:href="#DejaVuSans-6f"/>
     <use x="582" xlink:href="#DejaVuSans-75"/>
     <use x="645.378906" xlink:href="#DejaVuSans-70"/>
    </g>
   </g>
   <g id="PathCollection_4">
    <g>
     <use style="fill:#1f77b4;fill-opacity:0.8;stroke:#1f77b4;stroke-opacity:0.8;" x="368.715625" xlink:href="#m8cde590c27" y="172.934375"/>
    </g>
   </g>
   <g id="text_18">
    <!-- Low income -->
    <defs>
     <path d="M 9.8125 72.90625 
L 19.671875 72.90625 
L 19.671875 8.296875 
L 55.171875 8.296875 
L 55.171875 0 
L 9.8125 0 
z
" id="DejaVuSans-4c"/>
     <path d="M 4.203125 54.6875 
L 13.1875 54.6875 
L 24.421875 12.015625 
L 35.59375 54.6875 
L 46.1875 54.6875 
L 57.421875 12.015625 
L 68.609375 54.6875 
L 77.59375 54.6875 
L 63.28125 0 
L 52.6875 0 
L 40.921875 44.828125 
L 29.109375 0 
L 18.5 0 
z
" id="DejaVuSans-77"/>
    </defs>
    <g transform="translate(386.715625 175.559375)scale(0.1 -0.1)">
     <use xlink:href="#DejaVuSans-4c"/>
     <use x="55.697266" xlink:href="#DejaVuSans-6f"/>
     <use x="116.878906" xlink:href="#DejaVuSans-77"/>
     <use x="198.666016" xlink:href="#DejaVuSans-20"/>
     <use x="230.453125" xlink:href="#DejaVuSans-69"/>
     <use x="258.236328" xlink:href="#DejaVuSans-6e"/>
     <use x="321.615234" xlink:href="#DejaVuSans-63"/>
     <use x="376.595703" xlink:href="#DejaVuSans-6f"/>
     <use x="437.777344" xlink:href="#DejaVuSans-6d"/>
     <use x="535.189453" xlink:href="#DejaVuSans-65"/>
    </g>
   </g>
   <g id="PathCollection_5">
    <g>
     <use style="fill:#ff7f0e;fill-opacity:0.8;stroke:#ff7f0e;stroke-opacity:0.8;" x="368.715625" xlink:href="#m1eee38f246" y="187.6125"/>
    </g>
   </g>
   <g id="text_19">
    <!-- Upper middle income -->
    <defs>
     <path d="M 45.40625 46.390625 
L 45.40625 75.984375 
L 54.390625 75.984375 
L 54.390625 0 
L 45.40625 0 
L 45.40625 8.203125 
Q 42.578125 3.328125 38.25 0.953125 
Q 33.9375 -1.421875 27.875 -1.421875 
Q 17.96875 -1.421875 11.734375 6.484375 
Q 5.515625 14.40625 5.515625 27.296875 
Q 5.515625 40.1875 11.734375 48.09375 
Q 17.96875 56 27.875 56 
Q 33.9375 56 38.25 53.625 
Q 42.578125 51.265625 45.40625 46.390625 
z
M 14.796875 27.296875 
Q 14.796875 17.390625 18.875 11.75 
Q 22.953125 6.109375 30.078125 6.109375 
Q 37.203125 6.109375 41.296875 11.75 
Q 45.40625 17.390625 45.40625 27.296875 
Q 45.40625 37.203125 41.296875 42.84375 
Q 37.203125 48.484375 30.078125 48.484375 
Q 22.953125 48.484375 18.875 42.84375 
Q 14.796875 37.203125 14.796875 27.296875 
z
" id="DejaVuSans-64"/>
    </defs>
    <g transform="translate(386.715625 190.2375)scale(0.1 -0.1)">
     <use xlink:href="#DejaVuSans-55"/>
     <use x="73.193359" xlink:href="#DejaVuSans-70"/>
     <use x="136.669922" xlink:href="#DejaVuSans-70"/>
     <use x="200.146484" xlink:href="#DejaVuSans-65"/>
     <use x="261.669922" xlink:href="#DejaVuSans-72"/>
     <use x="302.783203" xlink:href="#DejaVuSans-20"/>
     <use x="334.570312" xlink:href="#DejaVuSans-6d"/>
     <use x="431.982422" xlink:href="#DejaVuSans-69"/>
     <use x="459.765625" xlink:href="#DejaVuSans-64"/>
     <use x="523.242188" xlink:href="#DejaVuSans-64"/>
     <use x="586.71875" xlink:href="#DejaVuSans-6c"/>
     <use x="614.501953" xlink:href="#DejaVuSans-65"/>
     <use x="676.025391" xlink:href="#DejaVuSans-20"/>
     <use x="707.8125" xlink:href="#DejaVuSans-69"/>
     <use x="735.595703" xlink:href="#DejaVuSans-6e"/>
     <use x="798.974609" xlink:href="#DejaVuSans-63"/>
     <use x="853.955078" xlink:href="#DejaVuSans-6f"/>
     <use x="915.136719" xlink:href="#DejaVuSans-6d"/>
     <use x="1012.548828" xlink:href="#DejaVuSans-65"/>
    </g>
   </g>
   <g id="PathCollection_6">
    <g>
     <use style="fill:#2ca02c;fill-opacity:0.8;stroke:#2ca02c;stroke-opacity:0.8;" x="368.715625" xlink:href="#mab778c2fe8" y="202.290625"/>
    </g>
   </g>
   <g id="text_20">
    <!-- Lower middle income -->
    <g transform="translate(386.715625 204.915625)scale(0.1 -0.1)">
     <use xlink:href="#DejaVuSans-4c"/>
     <use x="55.697266" xlink:href="#DejaVuSans-6f"/>
     <use x="116.878906" xlink:href="#DejaVuSans-77"/>
     <use x="198.666016" xlink:href="#DejaVuSans-65"/>
     <use x="260.189453" xlink:href="#DejaVuSans-72"/>
     <use x="301.302734" xlink:href="#DejaVuSans-20"/>
     <use x="333.089844" xlink:href="#DejaVuSans-6d"/>
     <use x="430.501953" xlink:href="#DejaVuSans-69"/>
     <use x="458.285156" xlink:href="#DejaVuSans-64"/>
     <use x="521.761719" xlink:href="#DejaVuSans-64"/>
     <use x="585.238281" xlink:href="#DejaVuSans-6c"/>
     <use x="613.021484" xlink:href="#DejaVuSans-65"/>
     <use x="674.544922" xlink:href="#DejaVuSans-20"/>
     <use x="706.332031" xlink:href="#DejaVuSans-69"/>
     <use x="734.115234" xlink:href="#DejaVuSans-6e"/>
     <use x="797.494141" xlink:href="#DejaVuSans-63"/>
     <use x="852.474609" xlink:href="#DejaVuSans-6f"/>
     <use x="913.65625" xlink:href="#DejaVuSans-6d"/>
     <use x="1011.068359" xlink:href="#DejaVuSans-65"/>
    </g>
   </g>
  </g>
 </g>
 <defs>
  <clipPath id="pa7441b1b4e">
   <rect height="302.49375" width="287.073079" x="67.895671" y="14.8"/>
  </clipPath>
 </defs>
</svg>
