<?xml version="1.0" encoding="utf-8" standalone="no"?>
<!DOCTYPE svg PUBLIC "-//W3C//DTD SVG 1.1//EN"
  "http://www.w3.org/Graphics/SVG/1.1/DTD/svg11.dtd">
<!-- Created with matplotlib (http://matplotlib.org/) -->
<svg height="360pt" version="1.1" viewBox="0 0 490.75 360" width="490.75pt" xmlns="http://www.w3.org/2000/svg" xmlns:xlink="http://www.w3.org/1999/xlink">
 <defs>
  <style type="text/css">
*{stroke-linecap:butt;stroke-linejoin:round;}
  </style>
 </defs>
 <g id="figure_1">
  <g id="patch_1">
   <path d="M 0 360 
L 490.75 360 
L 490.75 0 
L 0 0 
z
" style="fill:#ffffff;"/>
  </g>
  <g id="axes_1">
   <g id="patch_2">
    <path d="M 65.272306 316.993125 
L 355.0925 316.993125 
L 355.0925 16.46 
L 65.272306 16.46 
z
" style="fill:#ffffff;"/>
   </g>
   <g id="matplotlib.axis_1">
    <g id="xtick_1">
     <g id="line2d_1"/>
     <g id="text_1">
      <!-- 5 -->
      <defs>
       <path d="M 4.15625 18.75 
L 13.375 19.53125 
Q 14.40625 12.796875 18.140625 9.390625 
Q 21.875 6 27.15625 6 
Q 33.5 6 37.890625 10.78125 
Q 42.28125 15.578125 42.28125 23.484375 
Q 42.28125 31 38.0625 35.34375 
Q 33.84375 39.703125 27 39.703125 
Q 22.75 39.703125 19.328125 37.765625 
Q 15.921875 35.84375 13.96875 32.765625 
L 5.71875 33.84375 
L 12.640625 70.609375 
L 48.25 70.609375 
L 48.25 62.203125 
L 19.671875 62.203125 
L 15.828125 42.96875 
Q 22.265625 47.46875 29.34375 47.46875 
Q 38.71875 47.46875 45.15625 40.96875 
Q 51.609375 34.46875 51.609375 24.265625 
Q 51.609375 14.546875 45.953125 7.46875 
Q 39.0625 -1.21875 27.15625 -1.21875 
Q 17.390625 -1.21875 11.203125 4.25 
Q 5.03125 9.71875 4.15625 18.75 
z
" id="ArialMT-35"/>
      </defs>
      <g style="fill:#262626;" transform="translate(64.104201 331.150937)scale(0.1 -0.1)">
       <use xlink:href="#ArialMT-35"/>
      </g>
     </g>
    </g>
    <g id="xtick_2">
     <g id="line2d_2"/>
     <g id="text_2">
      <!-- 10 -->
      <defs>
       <path d="M 37.25 0 
L 28.46875 0 
L 28.46875 56 
Q 25.296875 52.984375 20.140625 49.953125 
Q 14.984375 46.921875 10.890625 45.40625 
L 10.890625 53.90625 
Q 18.265625 57.375 23.78125 62.296875 
Q 29.296875 67.234375 31.59375 71.875 
L 37.25 71.875 
z
" id="ArialMT-31"/>
       <path d="M 4.15625 35.296875 
Q 4.15625 48 6.765625 55.734375 
Q 9.375 63.484375 14.515625 67.671875 
Q 19.671875 71.875 27.484375 71.875 
Q 33.25 71.875 37.59375 69.546875 
Q 41.9375 67.234375 44.765625 62.859375 
Q 47.609375 58.5 49.21875 52.21875 
Q 50.828125 45.953125 50.828125 35.296875 
Q 50.828125 22.703125 48.234375 14.96875 
Q 45.65625 7.234375 40.5 3 
Q 35.359375 -1.21875 27.484375 -1.21875 
Q 17.140625 -1.21875 11.234375 6.203125 
Q 4.15625 15.140625 4.15625 35.296875 
z
M 13.1875 35.296875 
Q 13.1875 17.671875 17.3125 11.828125 
Q 21.4375 6 27.484375 6 
Q 33.546875 6 37.671875 11.859375 
Q 41.796875 17.71875 41.796875 35.296875 
Q 41.796875 52.984375 37.671875 58.78125 
Q 33.546875 64.59375 27.390625 64.59375 
Q 21.34375 64.59375 17.71875 59.46875 
Q 13.1875 52.9375 13.1875 35.296875 
z
" id="ArialMT-30"/>
      </defs>
      <g style="fill:#262626;" transform="translate(104.591263 331.150937)scale(0.1 -0.1)">
       <use xlink:href="#ArialMT-31"/>
       <use x="55.615234" xlink:href="#ArialMT-30"/>
      </g>
     </g>
    </g>
    <g id="xtick_3">
     <g id="line2d_3"/>
     <g id="text_3">
      <!-- 15 -->
      <g style="fill:#262626;" transform="translate(147.858793 331.150937)scale(0.1 -0.1)">
       <use xlink:href="#ArialMT-31"/>
       <use x="55.615234" xlink:href="#ArialMT-35"/>
      </g>
     </g>
    </g>
    <g id="xtick_4">
     <g id="line2d_4"/>
     <g id="text_4">
      <!-- 20 -->
      <defs>
       <path d="M 50.34375 8.453125 
L 50.34375 0 
L 3.03125 0 
Q 2.9375 3.171875 4.046875 6.109375 
Q 5.859375 10.9375 9.828125 15.625 
Q 13.8125 20.3125 21.34375 26.46875 
Q 33.015625 36.03125 37.109375 41.625 
Q 41.21875 47.21875 41.21875 52.203125 
Q 41.21875 57.421875 37.46875 61 
Q 33.734375 64.59375 27.734375 64.59375 
Q 21.390625 64.59375 17.578125 60.78125 
Q 13.765625 56.984375 13.71875 50.25 
L 4.6875 51.171875 
Q 5.609375 61.28125 11.65625 66.578125 
Q 17.71875 71.875 27.9375 71.875 
Q 38.234375 71.875 44.234375 66.15625 
Q 50.25 60.453125 50.25 52 
Q 50.25 47.703125 48.484375 43.546875 
Q 46.734375 39.40625 42.65625 34.8125 
Q 38.578125 30.21875 29.109375 22.21875 
Q 21.1875 15.578125 18.9375 13.203125 
Q 16.703125 10.84375 15.234375 8.453125 
z
" id="ArialMT-32"/>
      </defs>
      <g style="fill:#262626;" transform="translate(191.126323 331.150937)scale(0.1 -0.1)">
       <use xlink:href="#ArialMT-32"/>
       <use x="55.615234" xlink:href="#ArialMT-30"/>
      </g>
     </g>
    </g>
    <g id="xtick_5">
     <g id="line2d_5"/>
     <g id="text_5">
      <!-- 25 -->
      <g style="fill:#262626;" transform="translate(234.393853 331.150937)scale(0.1 -0.1)">
       <use xlink:href="#ArialMT-32"/>
       <use x="55.615234" xlink:href="#ArialMT-35"/>
      </g>
     </g>
    </g>
    <g id="xtick_6">
     <g id="line2d_6"/>
     <g id="text_6">
      <!-- 30 -->
      <defs>
       <path d="M 4.203125 18.890625 
L 12.984375 20.0625 
Q 14.5 12.59375 18.140625 9.296875 
Q 21.78125 6 27 6 
Q 33.203125 6 37.46875 10.296875 
Q 41.75 14.59375 41.75 20.953125 
Q 41.75 27 37.796875 30.921875 
Q 33.84375 34.859375 27.734375 34.859375 
Q 25.25 34.859375 21.53125 33.890625 
L 22.515625 41.609375 
Q 23.390625 41.5 23.921875 41.5 
Q 29.546875 41.5 34.03125 44.421875 
Q 38.53125 47.359375 38.53125 53.46875 
Q 38.53125 58.296875 35.25 61.46875 
Q 31.984375 64.65625 26.8125 64.65625 
Q 21.6875 64.65625 18.265625 61.421875 
Q 14.84375 58.203125 13.875 51.765625 
L 5.078125 53.328125 
Q 6.6875 62.15625 12.390625 67.015625 
Q 18.109375 71.875 26.609375 71.875 
Q 32.46875 71.875 37.390625 69.359375 
Q 42.328125 66.84375 44.9375 62.5 
Q 47.5625 58.15625 47.5625 53.265625 
Q 47.5625 48.640625 45.0625 44.828125 
Q 42.578125 41.015625 37.703125 38.765625 
Q 44.046875 37.3125 47.5625 32.6875 
Q 51.078125 28.078125 51.078125 21.140625 
Q 51.078125 11.765625 44.234375 5.25 
Q 37.40625 -1.265625 26.953125 -1.265625 
Q 17.53125 -1.265625 11.296875 4.34375 
Q 5.078125 9.96875 4.203125 18.890625 
z
" id="ArialMT-33"/>
      </defs>
      <g style="fill:#262626;" transform="translate(277.661383 331.150937)scale(0.1 -0.1)">
       <use xlink:href="#ArialMT-33"/>
       <use x="55.615234" xlink:href="#ArialMT-30"/>
      </g>
     </g>
    </g>
    <g id="xtick_7">
     <g id="line2d_7"/>
     <g id="text_7">
      <!-- 35 -->
      <g style="fill:#262626;" transform="translate(320.928914 331.150937)scale(0.1 -0.1)">
       <use xlink:href="#ArialMT-33"/>
       <use x="55.615234" xlink:href="#ArialMT-35"/>
      </g>
     </g>
    </g>
    <g id="text_8">
     <!-- pct_services_employment -->
     <defs>
      <path d="M 6.59375 -19.875 
L 6.59375 51.859375 
L 14.59375 51.859375 
L 14.59375 45.125 
Q 17.4375 49.078125 21 51.046875 
Q 24.5625 53.03125 29.640625 53.03125 
Q 36.28125 53.03125 41.359375 49.609375 
Q 46.4375 46.1875 49.015625 39.953125 
Q 51.609375 33.734375 51.609375 26.3125 
Q 51.609375 18.359375 48.75 11.984375 
Q 45.90625 5.609375 40.453125 2.21875 
Q 35.015625 -1.171875 29 -1.171875 
Q 24.609375 -1.171875 21.109375 0.6875 
Q 17.625 2.546875 15.375 5.375 
L 15.375 -19.875 
z
M 14.546875 25.640625 
Q 14.546875 15.625 18.59375 10.84375 
Q 22.65625 6.0625 28.421875 6.0625 
Q 34.28125 6.0625 38.453125 11.015625 
Q 42.625 15.96875 42.625 26.375 
Q 42.625 36.28125 38.546875 41.203125 
Q 34.46875 46.140625 28.8125 46.140625 
Q 23.1875 46.140625 18.859375 40.890625 
Q 14.546875 35.640625 14.546875 25.640625 
z
" id="ArialMT-70"/>
      <path d="M 40.4375 19 
L 49.078125 17.875 
Q 47.65625 8.9375 41.8125 3.875 
Q 35.984375 -1.171875 27.484375 -1.171875 
Q 16.84375 -1.171875 10.375 5.78125 
Q 3.90625 12.75 3.90625 25.734375 
Q 3.90625 34.125 6.6875 40.421875 
Q 9.46875 46.734375 15.15625 49.875 
Q 20.84375 53.03125 27.546875 53.03125 
Q 35.984375 53.03125 41.359375 48.75 
Q 46.734375 44.484375 48.25 36.625 
L 39.703125 35.296875 
Q 38.484375 40.53125 35.375 43.15625 
Q 32.28125 45.796875 27.875 45.796875 
Q 21.234375 45.796875 17.078125 41.03125 
Q 12.9375 36.28125 12.9375 25.984375 
Q 12.9375 15.53125 16.9375 10.796875 
Q 20.953125 6.0625 27.390625 6.0625 
Q 32.5625 6.0625 36.03125 9.234375 
Q 39.5 12.40625 40.4375 19 
z
" id="ArialMT-63"/>
      <path d="M 25.78125 7.859375 
L 27.046875 0.09375 
Q 23.34375 -0.6875 20.40625 -0.6875 
Q 15.625 -0.6875 12.984375 0.828125 
Q 10.359375 2.34375 9.28125 4.8125 
Q 8.203125 7.28125 8.203125 15.1875 
L 8.203125 45.015625 
L 1.765625 45.015625 
L 1.765625 51.859375 
L 8.203125 51.859375 
L 8.203125 64.703125 
L 16.9375 69.96875 
L 16.9375 51.859375 
L 25.78125 51.859375 
L 25.78125 45.015625 
L 16.9375 45.015625 
L 16.9375 14.703125 
Q 16.9375 10.9375 17.40625 9.859375 
Q 17.875 8.796875 18.921875 8.15625 
Q 19.96875 7.515625 21.921875 7.515625 
Q 23.390625 7.515625 25.78125 7.859375 
z
" id="ArialMT-74"/>
      <path d="M -1.515625 -19.875 
L -1.515625 -13.53125 
L 56.734375 -13.53125 
L 56.734375 -19.875 
z
" id="ArialMT-5f"/>
      <path d="M 3.078125 15.484375 
L 11.765625 16.84375 
Q 12.5 11.625 15.84375 8.84375 
Q 19.1875 6.0625 25.203125 6.0625 
Q 31.25 6.0625 34.171875 8.515625 
Q 37.109375 10.984375 37.109375 14.3125 
Q 37.109375 17.28125 34.515625 19 
Q 32.71875 20.171875 25.53125 21.96875 
Q 15.875 24.421875 12.140625 26.203125 
Q 8.40625 27.984375 6.46875 31.125 
Q 4.546875 34.28125 4.546875 38.09375 
Q 4.546875 41.546875 6.125 44.5 
Q 7.71875 47.46875 10.453125 49.421875 
Q 12.5 50.921875 16.03125 51.96875 
Q 19.578125 53.03125 23.640625 53.03125 
Q 29.734375 53.03125 34.34375 51.265625 
Q 38.96875 49.515625 41.15625 46.5 
Q 43.359375 43.5 44.1875 38.484375 
L 35.59375 37.3125 
Q 35.015625 41.3125 32.203125 43.546875 
Q 29.390625 45.796875 24.265625 45.796875 
Q 18.21875 45.796875 15.625 43.796875 
Q 13.03125 41.796875 13.03125 39.109375 
Q 13.03125 37.40625 14.109375 36.03125 
Q 15.1875 34.625 17.484375 33.6875 
Q 18.796875 33.203125 25.25 31.453125 
Q 34.578125 28.953125 38.25 27.359375 
Q 41.9375 25.78125 44.03125 22.75 
Q 46.140625 19.734375 46.140625 15.234375 
Q 46.140625 10.84375 43.578125 6.953125 
Q 41.015625 3.078125 36.171875 0.953125 
Q 31.34375 -1.171875 25.25 -1.171875 
Q 15.140625 -1.171875 9.84375 3.03125 
Q 4.546875 7.234375 3.078125 15.484375 
z
" id="ArialMT-73"/>
      <path d="M 42.09375 16.703125 
L 51.171875 15.578125 
Q 49.03125 7.625 43.21875 3.21875 
Q 37.40625 -1.171875 28.375 -1.171875 
Q 17 -1.171875 10.328125 5.828125 
Q 3.65625 12.84375 3.65625 25.484375 
Q 3.65625 38.578125 10.390625 45.796875 
Q 17.140625 53.03125 27.875 53.03125 
Q 38.28125 53.03125 44.875 45.953125 
Q 51.46875 38.875 51.46875 26.03125 
Q 51.46875 25.25 51.421875 23.6875 
L 12.75 23.6875 
Q 13.234375 15.140625 17.578125 10.59375 
Q 21.921875 6.0625 28.421875 6.0625 
Q 33.25 6.0625 36.671875 8.59375 
Q 40.09375 11.140625 42.09375 16.703125 
z
M 13.234375 30.90625 
L 42.1875 30.90625 
Q 41.609375 37.453125 38.875 40.71875 
Q 34.671875 45.796875 27.984375 45.796875 
Q 21.921875 45.796875 17.796875 41.75 
Q 13.671875 37.703125 13.234375 30.90625 
z
" id="ArialMT-65"/>
      <path d="M 6.5 0 
L 6.5 51.859375 
L 14.40625 51.859375 
L 14.40625 44 
Q 17.4375 49.515625 20 51.265625 
Q 22.5625 53.03125 25.640625 53.03125 
Q 30.078125 53.03125 34.671875 50.203125 
L 31.640625 42.046875 
Q 28.421875 43.953125 25.203125 43.953125 
Q 22.3125 43.953125 20.015625 42.21875 
Q 17.71875 40.484375 16.75 37.40625 
Q 15.28125 32.71875 15.28125 27.15625 
L 15.28125 0 
z
" id="ArialMT-72"/>
      <path d="M 21 0 
L 1.265625 51.859375 
L 10.546875 51.859375 
L 21.6875 20.796875 
Q 23.484375 15.765625 25 10.359375 
Q 26.171875 14.453125 28.265625 20.21875 
L 39.796875 51.859375 
L 48.828125 51.859375 
L 29.203125 0 
z
" id="ArialMT-76"/>
      <path d="M 6.640625 61.46875 
L 6.640625 71.578125 
L 15.4375 71.578125 
L 15.4375 61.46875 
z
M 6.640625 0 
L 6.640625 51.859375 
L 15.4375 51.859375 
L 15.4375 0 
z
" id="ArialMT-69"/>
      <path d="M 6.59375 0 
L 6.59375 51.859375 
L 14.453125 51.859375 
L 14.453125 44.578125 
Q 16.890625 48.390625 20.9375 50.703125 
Q 25 53.03125 30.171875 53.03125 
Q 35.9375 53.03125 39.625 50.640625 
Q 43.3125 48.25 44.828125 43.953125 
Q 50.984375 53.03125 60.84375 53.03125 
Q 68.5625 53.03125 72.703125 48.75 
Q 76.859375 44.484375 76.859375 35.59375 
L 76.859375 0 
L 68.109375 0 
L 68.109375 32.671875 
Q 68.109375 37.9375 67.25 40.25 
Q 66.40625 42.578125 64.15625 43.984375 
Q 61.921875 45.40625 58.890625 45.40625 
Q 53.421875 45.40625 49.796875 41.765625 
Q 46.1875 38.140625 46.1875 30.125 
L 46.1875 0 
L 37.40625 0 
L 37.40625 33.6875 
Q 37.40625 39.546875 35.25 42.46875 
Q 33.109375 45.40625 28.21875 45.40625 
Q 24.515625 45.40625 21.359375 43.453125 
Q 18.21875 41.5 16.796875 37.734375 
Q 15.375 33.984375 15.375 26.90625 
L 15.375 0 
z
" id="ArialMT-6d"/>
      <path d="M 6.390625 0 
L 6.390625 71.578125 
L 15.1875 71.578125 
L 15.1875 0 
z
" id="ArialMT-6c"/>
      <path d="M 3.328125 25.921875 
Q 3.328125 40.328125 11.328125 47.265625 
Q 18.015625 53.03125 27.640625 53.03125 
Q 38.328125 53.03125 45.109375 46.015625 
Q 51.90625 39.015625 51.90625 26.65625 
Q 51.90625 16.65625 48.90625 10.90625 
Q 45.90625 5.171875 40.15625 2 
Q 34.421875 -1.171875 27.640625 -1.171875 
Q 16.75 -1.171875 10.03125 5.8125 
Q 3.328125 12.796875 3.328125 25.921875 
z
M 12.359375 25.921875 
Q 12.359375 15.96875 16.703125 11.015625 
Q 21.046875 6.0625 27.640625 6.0625 
Q 34.1875 6.0625 38.53125 11.03125 
Q 42.875 16.015625 42.875 26.21875 
Q 42.875 35.84375 38.5 40.796875 
Q 34.125 45.75 27.640625 45.75 
Q 21.046875 45.75 16.703125 40.8125 
Q 12.359375 35.890625 12.359375 25.921875 
z
" id="ArialMT-6f"/>
      <path d="M 6.203125 -19.96875 
L 5.21875 -11.71875 
Q 8.109375 -12.5 10.25 -12.5 
Q 13.1875 -12.5 14.9375 -11.515625 
Q 16.703125 -10.546875 17.828125 -8.796875 
Q 18.65625 -7.46875 20.515625 -2.25 
Q 20.75 -1.515625 21.296875 -0.09375 
L 1.609375 51.859375 
L 11.078125 51.859375 
L 21.875 21.828125 
Q 23.96875 16.109375 25.640625 9.8125 
Q 27.15625 15.875 29.25 21.625 
L 40.328125 51.859375 
L 49.125 51.859375 
L 29.390625 -0.875 
Q 26.21875 -9.421875 24.46875 -12.640625 
Q 22.125 -17 19.09375 -19.015625 
Q 16.0625 -21.046875 11.859375 -21.046875 
Q 9.328125 -21.046875 6.203125 -19.96875 
z
" id="ArialMT-79"/>
      <path d="M 6.59375 0 
L 6.59375 51.859375 
L 14.5 51.859375 
L 14.5 44.484375 
Q 20.21875 53.03125 31 53.03125 
Q 35.6875 53.03125 39.625 51.34375 
Q 43.5625 49.65625 45.515625 46.921875 
Q 47.46875 44.1875 48.25 40.4375 
Q 48.734375 37.984375 48.734375 31.890625 
L 48.734375 0 
L 39.9375 0 
L 39.9375 31.546875 
Q 39.9375 36.921875 38.90625 39.578125 
Q 37.890625 42.234375 35.28125 43.8125 
Q 32.671875 45.40625 29.15625 45.40625 
Q 23.53125 45.40625 19.453125 41.84375 
Q 15.375 38.28125 15.375 28.328125 
L 15.375 0 
z
" id="ArialMT-6e"/>
     </defs>
     <g style="fill:#262626;" transform="translate(146.603262 345.012031)scale(0.11 -0.11)">
      <use xlink:href="#ArialMT-70"/>
      <use x="55.615234" xlink:href="#ArialMT-63"/>
      <use x="105.615234" xlink:href="#ArialMT-74"/>
      <use x="133.398438" xlink:href="#ArialMT-5f"/>
      <use x="189.013672" xlink:href="#ArialMT-73"/>
      <use x="239.013672" xlink:href="#ArialMT-65"/>
      <use x="294.628906" xlink:href="#ArialMT-72"/>
      <use x="327.929688" xlink:href="#ArialMT-76"/>
      <use x="377.929688" xlink:href="#ArialMT-69"/>
      <use x="400.146484" xlink:href="#ArialMT-63"/>
      <use x="450.146484" xlink:href="#ArialMT-65"/>
      <use x="505.761719" xlink:href="#ArialMT-73"/>
      <use x="555.761719" xlink:href="#ArialMT-5f"/>
      <use x="611.376953" xlink:href="#ArialMT-65"/>
      <use x="666.992188" xlink:href="#ArialMT-6d"/>
      <use x="750.292969" xlink:href="#ArialMT-70"/>
      <use x="805.908203" xlink:href="#ArialMT-6c"/>
      <use x="828.125" xlink:href="#ArialMT-6f"/>
      <use x="883.740234" xlink:href="#ArialMT-79"/>
      <use x="933.740234" xlink:href="#ArialMT-6d"/>
      <use x="1017.041016" xlink:href="#ArialMT-65"/>
      <use x="1072.65625" xlink:href="#ArialMT-6e"/>
      <use x="1128.271484" xlink:href="#ArialMT-74"/>
     </g>
    </g>
   </g>
   <g id="matplotlib.axis_2">
    <g id="ytick_1">
     <g id="line2d_8"/>
     <g id="text_9">
      <!-- −10 -->
      <defs>
       <path d="M 52.828125 31.203125 
L 5.5625 31.203125 
L 5.5625 39.40625 
L 52.828125 39.40625 
z
" id="ArialMT-2212"/>
      </defs>
      <g style="fill:#262626;" transform="translate(41.309806 293.783356)scale(0.1 -0.1)">
       <use xlink:href="#ArialMT-2212"/>
       <use x="58.398438" xlink:href="#ArialMT-31"/>
       <use x="114.013672" xlink:href="#ArialMT-30"/>
      </g>
     </g>
    </g>
    <g id="ytick_2">
     <g id="line2d_9"/>
     <g id="text_10">
      <!-- −5 -->
      <g style="fill:#262626;" transform="translate(46.870743 251.637373)scale(0.1 -0.1)">
       <use xlink:href="#ArialMT-2212"/>
       <use x="58.398438" xlink:href="#ArialMT-35"/>
      </g>
     </g>
    </g>
    <g id="ytick_3">
     <g id="line2d_10"/>
     <g id="text_11">
      <!-- 0 -->
      <g style="fill:#262626;" transform="translate(52.711368 209.49139)scale(0.1 -0.1)">
       <use xlink:href="#ArialMT-30"/>
      </g>
     </g>
    </g>
    <g id="ytick_4">
     <g id="line2d_11"/>
     <g id="text_12">
      <!-- 5 -->
      <g style="fill:#262626;" transform="translate(52.711368 167.345408)scale(0.1 -0.1)">
       <use xlink:href="#ArialMT-35"/>
      </g>
     </g>
    </g>
    <g id="ytick_5">
     <g id="line2d_12"/>
     <g id="text_13">
      <!-- 10 -->
      <g style="fill:#262626;" transform="translate(47.150431 125.199425)scale(0.1 -0.1)">
       <use xlink:href="#ArialMT-31"/>
       <use x="55.615234" xlink:href="#ArialMT-30"/>
      </g>
     </g>
    </g>
    <g id="ytick_6">
     <g id="line2d_13"/>
     <g id="text_14">
      <!-- 15 -->
      <g style="fill:#262626;" transform="translate(47.150431 83.053443)scale(0.1 -0.1)">
       <use xlink:href="#ArialMT-31"/>
       <use x="55.615234" xlink:href="#ArialMT-35"/>
      </g>
     </g>
    </g>
    <g id="ytick_7">
     <g id="line2d_14"/>
     <g id="text_15">
      <!-- 20 -->
      <g style="fill:#262626;" transform="translate(47.150431 40.90746)scale(0.1 -0.1)">
       <use xlink:href="#ArialMT-32"/>
       <use x="55.615234" xlink:href="#ArialMT-30"/>
      </g>
     </g>
    </g>
    <g id="text_16">
     <!-- Unemployment Rate -->
     <defs>
      <path d="M 54.6875 71.578125 
L 64.15625 71.578125 
L 64.15625 30.21875 
Q 64.15625 19.4375 61.71875 13.078125 
Q 59.28125 6.734375 52.90625 2.75 
Q 46.53125 -1.21875 36.1875 -1.21875 
Q 26.125 -1.21875 19.71875 2.25 
Q 13.328125 5.71875 10.59375 12.28125 
Q 7.859375 18.84375 7.859375 30.21875 
L 7.859375 71.578125 
L 17.328125 71.578125 
L 17.328125 30.28125 
Q 17.328125 20.953125 19.0625 16.53125 
Q 20.796875 12.109375 25.015625 9.71875 
Q 29.25 7.328125 35.359375 7.328125 
Q 45.796875 7.328125 50.234375 12.0625 
Q 54.6875 16.796875 54.6875 30.28125 
z
" id="ArialMT-55"/>
      <path id="ArialMT-20"/>
      <path d="M 7.859375 0 
L 7.859375 71.578125 
L 39.59375 71.578125 
Q 49.171875 71.578125 54.140625 69.640625 
Q 59.125 67.71875 62.109375 62.828125 
Q 65.09375 57.953125 65.09375 52.046875 
Q 65.09375 44.4375 60.15625 39.203125 
Q 55.21875 33.984375 44.921875 32.5625 
Q 48.6875 30.765625 50.640625 29 
Q 54.78125 25.203125 58.5 19.484375 
L 70.953125 0 
L 59.03125 0 
L 49.5625 14.890625 
Q 45.40625 21.34375 42.71875 24.75 
Q 40.046875 28.171875 37.921875 29.53125 
Q 35.796875 30.90625 33.59375 31.453125 
Q 31.984375 31.78125 28.328125 31.78125 
L 17.328125 31.78125 
L 17.328125 0 
z
M 17.328125 39.984375 
L 37.703125 39.984375 
Q 44.1875 39.984375 47.84375 41.328125 
Q 51.515625 42.671875 53.421875 45.625 
Q 55.328125 48.578125 55.328125 52.046875 
Q 55.328125 57.125 51.640625 60.390625 
Q 47.953125 63.671875 39.984375 63.671875 
L 17.328125 63.671875 
z
" id="ArialMT-52"/>
      <path d="M 40.4375 6.390625 
Q 35.546875 2.25 31.03125 0.53125 
Q 26.515625 -1.171875 21.34375 -1.171875 
Q 12.796875 -1.171875 8.203125 3 
Q 3.609375 7.171875 3.609375 13.671875 
Q 3.609375 17.484375 5.34375 20.625 
Q 7.078125 23.78125 9.890625 25.6875 
Q 12.703125 27.59375 16.21875 28.5625 
Q 18.796875 29.25 24.03125 29.890625 
Q 34.671875 31.15625 39.703125 32.90625 
Q 39.75 34.71875 39.75 35.203125 
Q 39.75 40.578125 37.25 42.78125 
Q 33.890625 45.75 27.25 45.75 
Q 21.046875 45.75 18.09375 43.578125 
Q 15.140625 41.40625 13.71875 35.890625 
L 5.125 37.0625 
Q 6.296875 42.578125 8.984375 45.96875 
Q 11.671875 49.359375 16.75 51.1875 
Q 21.828125 53.03125 28.515625 53.03125 
Q 35.15625 53.03125 39.296875 51.46875 
Q 43.453125 49.90625 45.40625 47.53125 
Q 47.359375 45.171875 48.140625 41.546875 
Q 48.578125 39.3125 48.578125 33.453125 
L 48.578125 21.734375 
Q 48.578125 9.46875 49.140625 6.21875 
Q 49.703125 2.984375 51.375 0 
L 42.1875 0 
Q 40.828125 2.734375 40.4375 6.390625 
z
M 39.703125 26.03125 
Q 34.90625 24.078125 25.34375 22.703125 
Q 19.921875 21.921875 17.671875 20.9375 
Q 15.4375 19.96875 14.203125 18.09375 
Q 12.984375 16.21875 12.984375 13.921875 
Q 12.984375 10.40625 15.640625 8.0625 
Q 18.3125 5.71875 23.4375 5.71875 
Q 28.515625 5.71875 32.46875 7.9375 
Q 36.421875 10.15625 38.28125 14.015625 
Q 39.703125 17 39.703125 22.796875 
z
" id="ArialMT-61"/>
     </defs>
     <g style="fill:#262626;" transform="translate(34.99465 216.857344)rotate(-90)scale(0.11 -0.11)">
      <use xlink:href="#ArialMT-55"/>
      <use x="72.216797" xlink:href="#ArialMT-6e"/>
      <use x="127.832031" xlink:href="#ArialMT-65"/>
      <use x="183.447266" xlink:href="#ArialMT-6d"/>
      <use x="266.748047" xlink:href="#ArialMT-70"/>
      <use x="322.363281" xlink:href="#ArialMT-6c"/>
      <use x="344.580078" xlink:href="#ArialMT-6f"/>
      <use x="400.195312" xlink:href="#ArialMT-79"/>
      <use x="450.195312" xlink:href="#ArialMT-6d"/>
      <use x="533.496094" xlink:href="#ArialMT-65"/>
      <use x="589.111328" xlink:href="#ArialMT-6e"/>
      <use x="644.726562" xlink:href="#ArialMT-74"/>
      <use x="672.509766" xlink:href="#ArialMT-20"/>
      <use x="700.292969" xlink:href="#ArialMT-52"/>
      <use x="772.509766" xlink:href="#ArialMT-61"/>
      <use x="828.125" xlink:href="#ArialMT-74"/>
      <use x="855.908203" xlink:href="#ArialMT-65"/>
     </g>
    </g>
   </g>
   <g id="PathCollection_1">
    <defs>
     <path d="M 0 3.5 
C 0.928211 3.5 1.81853 3.131218 2.474874 2.474874 
C 3.131218 1.81853 3.5 0.928211 3.5 0 
C 3.5 -0.928211 3.131218 -1.81853 2.474874 -2.474874 
C 1.81853 -3.131218 0.928211 -3.5 0 -3.5 
C -0.928211 -3.5 -1.81853 -3.131218 -2.474874 -2.474874 
C -3.131218 -1.81853 -3.5 -0.928211 -3.5 0 
C -3.5 0.928211 -3.131218 1.81853 -2.474874 2.474874 
C -1.81853 3.131218 -0.928211 3.5 0 3.5 
z
" id="mfc9ea033c0"/>
    </defs>
    <g clip-path="url(#p5f4d1d1106)">
     <use style="fill:#4c72b0;fill-opacity:0.8;" x="78.549596" xlink:href="#mfc9ea033c0" y="192.678645"/>
     <use style="fill:#4c72b0;fill-opacity:0.8;" x="278.385011" xlink:href="#mfc9ea033c0" y="169.144329"/>
     <use style="fill:#4c72b0;fill-opacity:0.8;" x="341.81521" xlink:href="#mfc9ea033c0" y="121.637376"/>
     <use style="fill:#4c72b0;fill-opacity:0.8;" x="228.134108" xlink:href="#mfc9ea033c0" y="196.050325"/>
     <use style="fill:#4c72b0;fill-opacity:0.8;" x="249.655374" xlink:href="#mfc9ea033c0" y="152.328083"/>
     <use style="fill:#4c72b0;fill-opacity:0.8;" x="210.230002" xlink:href="#mfc9ea033c0" y="189.829577"/>
    </g>
   </g>
   <g id="PolyCollection_1">
    <path clip-path="url(#p5f4d1d1106)" d="M 65.272306 192.965916 
L 65.272306 303.332528 
L 68.199783 301.420767 
L 71.127259 299.509005 
L 74.054736 297.480976 
L 76.982213 295.286909 
L 79.90969 293.212818 
L 82.837166 291.224237 
L 85.764643 289.2597 
L 88.69212 287.343555 
L 91.619596 285.427411 
L 94.547073 283.511267 
L 97.47455 281.595122 
L 100.402026 279.678978 
L 103.329503 277.762834 
L 106.25698 275.846689 
L 109.184457 273.930545 
L 112.111933 272.014044 
L 115.03941 270.092439 
L 117.966887 268.170834 
L 120.894363 266.249229 
L 123.82184 264.212351 
L 126.749317 262.10498 
L 129.676794 260.236885 
L 132.60427 258.36879 
L 135.531747 256.500695 
L 138.459224 254.6326 
L 141.3867 252.764504 
L 144.314177 250.896409 
L 147.241654 249.000604 
L 150.16913 246.861021 
L 153.096607 244.541067 
L 156.024084 242.221113 
L 158.951561 239.892514 
L 161.879037 237.55247 
L 164.806514 235.474404 
L 167.733991 232.831287 
L 170.661467 230.136719 
L 173.588944 228.001527 
L 176.516421 225.866336 
L 179.443898 223.735731 
L 182.371374 221.605543 
L 185.298851 219.475354 
L 188.226328 217.345165 
L 191.153804 215.214976 
L 194.081281 213.084787 
L 197.008758 210.955534 
L 199.936235 208.83449 
L 202.863711 206.905966 
L 205.791188 205.20684 
L 208.718665 203.507715 
L 211.646141 201.808589 
L 214.573618 199.502803 
L 217.501095 197.73687 
L 220.428571 195.969233 
L 223.356048 194.659217 
L 226.283525 194.673021 
L 229.211002 194.717993 
L 232.138478 194.259367 
L 235.065955 192.454238 
L 237.993432 190.908851 
L 240.920908 189.168641 
L 243.848385 187.917569 
L 246.775862 187.199361 
L 249.703339 185.22309 
L 252.630815 184.252511 
L 255.558292 183.677525 
L 258.485769 183.444608 
L 261.413245 183.21169 
L 264.340722 182.978773 
L 267.268199 182.745856 
L 270.195675 182.512938 
L 273.123152 182.280021 
L 276.050629 182.047104 
L 278.978106 181.821685 
L 281.905582 181.626336 
L 284.833059 181.430987 
L 287.760536 181.23468 
L 290.688012 181.038062 
L 293.615489 180.841445 
L 296.542966 180.644827 
L 299.470443 181.506782 
L 302.397919 182.403261 
L 305.325396 182.247278 
L 308.252873 182.091295 
L 311.180349 181.935312 
L 314.107826 181.779329 
L 317.035303 181.623346 
L 319.96278 181.467364 
L 322.890256 181.311381 
L 325.817733 181.155398 
L 328.74521 180.999415 
L 331.672686 180.843432 
L 334.600163 180.68745 
L 337.52764 180.531467 
L 340.455116 180.375484 
L 343.382593 180.219501 
L 346.31007 180.063518 
L 349.237547 179.907536 
L 352.165023 179.751553 
L 355.0925 179.59557 
L 355.0925 108.468248 
L 355.0925 108.468248 
L 352.165023 110.072578 
L 349.237547 111.676908 
L 346.31007 113.281239 
L 343.382593 114.885569 
L 340.455116 116.43064 
L 337.52764 118.123867 
L 334.600163 119.818614 
L 331.672686 121.512602 
L 328.74521 123.206589 
L 325.817733 124.900576 
L 322.890256 126.594564 
L 319.96278 127.899161 
L 317.035303 129.354396 
L 314.107826 130.873452 
L 311.180349 132.046028 
L 308.252873 132.995542 
L 305.325396 134.338515 
L 302.397919 135.426902 
L 299.470443 136.978242 
L 296.542966 138.528181 
L 293.615489 139.706409 
L 290.688012 140.919064 
L 287.760536 141.806537 
L 284.833059 143.064727 
L 281.905582 143.851148 
L 278.978106 144.637568 
L 276.050629 145.587845 
L 273.123152 146.567973 
L 270.195675 147.358215 
L 267.268199 148.155372 
L 264.340722 148.86495 
L 261.413245 149.723329 
L 258.485769 150.52099 
L 255.558292 151.316829 
L 252.630815 152.286135 
L 249.703339 152.881696 
L 246.775862 153.594537 
L 243.848385 154.307166 
L 240.920908 155.181862 
L 237.993432 155.905794 
L 235.065955 156.629725 
L 232.138478 157.355222 
L 229.211002 158.080999 
L 226.283525 158.806775 
L 223.356048 159.578347 
L 220.428571 160.363212 
L 217.501095 161.148077 
L 214.573618 161.932943 
L 211.646141 162.717808 
L 208.718665 163.503874 
L 205.791188 164.291008 
L 202.863711 165.078143 
L 199.936235 165.865277 
L 197.008758 166.652412 
L 194.081281 167.439546 
L 191.153804 168.22668 
L 188.226328 168.998084 
L 185.298851 169.716269 
L 182.371374 170.426442 
L 179.443898 171.098667 
L 176.516421 171.772152 
L 173.588944 172.445637 
L 170.661467 173.119122 
L 167.733991 173.790264 
L 164.806514 174.047274 
L 161.879037 174.739999 
L 158.951561 175.46422 
L 156.024084 176.188442 
L 153.096607 176.912236 
L 150.16913 177.615796 
L 147.241654 178.173769 
L 144.314177 178.737887 
L 141.3867 179.302005 
L 138.459224 179.959338 
L 135.531747 180.668159 
L 132.60427 181.379928 
L 129.676794 181.904493 
L 126.749317 182.304296 
L 123.82184 182.95689 
L 120.894363 183.758173 
L 117.966887 184.559457 
L 115.03941 185.196336 
L 112.111933 185.733993 
L 109.184457 186.271649 
L 106.25698 186.809306 
L 103.329503 187.346962 
L 100.402026 187.884618 
L 97.47455 188.433697 
L 94.547073 189.215173 
L 91.619596 189.75375 
L 88.69212 190.286812 
L 85.764643 190.975803 
L 82.837166 191.663894 
L 79.90969 192.128553 
L 76.982213 192.20229 
L 74.054736 192.509516 
L 71.127259 192.745822 
L 68.199783 192.902576 
L 65.272306 192.965916 
z
" style="fill:#4c72b0;fill-opacity:0.15;"/>
   </g>
   <g id="PathCollection_2">
    <defs>
     <path d="M 0 3.5 
C 0.928211 3.5 1.81853 3.131218 2.474874 2.474874 
C 3.131218 1.81853 3.5 0.928211 3.5 0 
C 3.5 -0.928211 3.131218 -1.81853 2.474874 -2.474874 
C 1.81853 -3.131218 0.928211 -3.5 0 -3.5 
C -0.928211 -3.5 -1.81853 -3.131218 -2.474874 -2.474874 
C -3.131218 -1.81853 -3.5 -0.928211 -3.5 0 
C -3.5 0.928211 -3.131218 1.81853 -2.474874 2.474874 
C -1.81853 3.131218 -0.928211 3.5 0 3.5 
z
" id="mef25fd63df"/>
    </defs>
    <g clip-path="url(#p5f4d1d1106)">
     <use style="fill:#55a868;fill-opacity:0.8;" x="342.066155" xlink:href="#mef25fd63df" y="159.59405"/>
    </g>
   </g>
   <g id="PolyCollection_2">
    <path clip-path="url(#p5f4d1d1106)" d="M 65.272306 199.82403 
L 65.272306 199.82403 
L 68.199783 199.398543 
L 71.127259 198.973055 
L 74.054736 198.547568 
L 76.982213 198.12208 
L 79.90969 197.696593 
L 82.837166 197.271105 
L 85.764643 196.845618 
L 88.69212 196.42013 
L 91.619596 195.994643 
L 94.547073 195.569155 
L 97.47455 195.143668 
L 100.402026 194.71818 
L 103.329503 194.292693 
L 106.25698 193.867205 
L 109.184457 193.441717 
L 112.111933 193.01623 
L 115.03941 192.590742 
L 117.966887 192.165255 
L 120.894363 191.739767 
L 123.82184 191.31428 
L 126.749317 190.888792 
L 129.676794 190.463305 
L 132.60427 190.037817 
L 135.531747 189.61233 
L 138.459224 189.186842 
L 141.3867 188.761355 
L 144.314177 188.335867 
L 147.241654 187.91038 
L 150.16913 187.484892 
L 153.096607 187.059405 
L 156.024084 186.633917 
L 158.951561 186.20843 
L 161.879037 185.782942 
L 164.806514 185.357455 
L 167.733991 184.931967 
L 170.661467 184.506479 
L 173.588944 184.080992 
L 176.516421 183.655504 
L 179.443898 183.230017 
L 182.371374 182.804529 
L 185.298851 182.379042 
L 188.226328 181.953554 
L 191.153804 181.528067 
L 194.081281 181.102579 
L 197.008758 180.677092 
L 199.936235 180.251604 
L 202.863711 179.826117 
L 205.791188 179.400629 
L 208.718665 178.975142 
L 211.646141 178.549654 
L 214.573618 178.124167 
L 217.501095 177.698679 
L 220.428571 177.273192 
L 223.356048 176.847704 
L 226.283525 176.422217 
L 229.211002 175.996729 
L 232.138478 175.571241 
L 235.065955 175.145754 
L 237.993432 174.720266 
L 240.920908 174.294779 
L 243.848385 173.869291 
L 246.775862 173.443804 
L 249.703339 173.018316 
L 252.630815 172.592829 
L 255.558292 172.167341 
L 258.485769 171.741854 
L 261.413245 171.316366 
L 264.340722 170.890879 
L 267.268199 170.465391 
L 270.195675 170.039904 
L 273.123152 169.614416 
L 276.050629 169.188929 
L 278.978106 168.763441 
L 281.905582 168.337954 
L 284.833059 167.912466 
L 287.760536 167.486979 
L 290.688012 167.061491 
L 293.615489 166.636003 
L 296.542966 166.210516 
L 299.470443 165.785028 
L 302.397919 165.359541 
L 305.325396 164.934053 
L 308.252873 164.508566 
L 311.180349 164.083078 
L 314.107826 163.657591 
L 317.035303 163.232103 
L 319.96278 162.806616 
L 322.890256 162.381128 
L 325.817733 161.955641 
L 328.74521 161.530153 
L 331.672686 161.104666 
L 334.600163 160.679178 
L 337.52764 160.253691 
L 340.455116 159.828203 
L 343.382593 159.402716 
L 346.31007 158.977228 
L 349.237547 158.551741 
L 352.165023 158.126253 
L 355.0925 157.700765 
L 355.0925 157.700765 
L 355.0925 157.700765 
L 352.165023 158.126253 
L 349.237547 158.551741 
L 346.31007 158.977228 
L 343.382593 159.402716 
L 340.455116 159.828203 
L 337.52764 160.253691 
L 334.600163 160.679178 
L 331.672686 161.104666 
L 328.74521 161.530153 
L 325.817733 161.955641 
L 322.890256 162.381128 
L 319.96278 162.806616 
L 317.035303 163.232103 
L 314.107826 163.657591 
L 311.180349 164.083078 
L 308.252873 164.508566 
L 305.325396 164.934053 
L 302.397919 165.359541 
L 299.470443 165.785028 
L 296.542966 166.210516 
L 293.615489 166.636003 
L 290.688012 167.061491 
L 287.760536 167.486979 
L 284.833059 167.912466 
L 281.905582 168.337954 
L 278.978106 168.763441 
L 276.050629 169.188929 
L 273.123152 169.614416 
L 270.195675 170.039904 
L 267.268199 170.465391 
L 264.340722 170.890879 
L 261.413245 171.316366 
L 258.485769 171.741854 
L 255.558292 172.167341 
L 252.630815 172.592829 
L 249.703339 173.018316 
L 246.775862 173.443804 
L 243.848385 173.869291 
L 240.920908 174.294779 
L 237.993432 174.720266 
L 235.065955 175.145754 
L 232.138478 175.571241 
L 229.211002 175.996729 
L 226.283525 176.422217 
L 223.356048 176.847704 
L 220.428571 177.273192 
L 217.501095 177.698679 
L 214.573618 178.124167 
L 211.646141 178.549654 
L 208.718665 178.975142 
L 205.791188 179.400629 
L 202.863711 179.826117 
L 199.936235 180.251604 
L 197.008758 180.677092 
L 194.081281 181.102579 
L 191.153804 181.528067 
L 188.226328 181.953554 
L 185.298851 182.379042 
L 182.371374 182.804529 
L 179.443898 183.230017 
L 176.516421 183.655504 
L 173.588944 184.080992 
L 170.661467 184.506479 
L 167.733991 184.931967 
L 164.806514 185.357455 
L 161.879037 185.782942 
L 158.951561 186.20843 
L 156.024084 186.633917 
L 153.096607 187.059405 
L 150.16913 187.484892 
L 147.241654 187.91038 
L 144.314177 188.335867 
L 141.3867 188.761355 
L 138.459224 189.186842 
L 135.531747 189.61233 
L 132.60427 190.037817 
L 129.676794 190.463305 
L 126.749317 190.888792 
L 123.82184 191.31428 
L 120.894363 191.739767 
L 117.966887 192.165255 
L 115.03941 192.590742 
L 112.111933 193.01623 
L 109.184457 193.441717 
L 106.25698 193.867205 
L 103.329503 194.292693 
L 100.402026 194.71818 
L 97.47455 195.143668 
L 94.547073 195.569155 
L 91.619596 195.994643 
L 88.69212 196.42013 
L 85.764643 196.845618 
L 82.837166 197.271105 
L 79.90969 197.696593 
L 76.982213 198.12208 
L 74.054736 198.547568 
L 71.127259 198.973055 
L 68.199783 199.398543 
L 65.272306 199.82403 
z
" style="fill:#55a868;fill-opacity:0.15;"/>
   </g>
   <g id="PathCollection_3">
    <defs>
     <path d="M 0 3.5 
C 0.928211 3.5 1.81853 3.131218 2.474874 2.474874 
C 3.131218 1.81853 3.5 0.928211 3.5 0 
C 3.5 -0.928211 3.131218 -1.81853 2.474874 -2.474874 
C 1.81853 -3.131218 0.928211 -3.5 0 -3.5 
C -0.928211 -3.5 -1.81853 -3.131218 -2.474874 -2.474874 
C -3.131218 -1.81853 -3.5 -0.928211 -3.5 0 
C -3.5 0.928211 -3.131218 1.81853 -2.474874 2.474874 
C -1.81853 3.131218 -0.928211 3.5 0 3.5 
z
" id="m533ca7f553"/>
    </defs>
    <g clip-path="url(#p5f4d1d1106)">
     <use style="fill:#c44e52;fill-opacity:0.8;" x="234.953072" xlink:href="#m533ca7f553" y="118.687162"/>
     <use style="fill:#c44e52;fill-opacity:0.8;" x="79.406293" xlink:href="#m533ca7f553" y="174.657024"/>
     <use style="fill:#c44e52;fill-opacity:0.8;" x="401.256138" xlink:href="#m533ca7f553" y="182.749053"/>
     <use style="fill:#c44e52;fill-opacity:0.8;" x="379.907947" xlink:href="#m533ca7f553" y="187.671703"/>
     <use style="fill:#c44e52;fill-opacity:0.8;" x="434.30388" xlink:href="#m533ca7f553" y="107.56905"/>
     <use style="fill:#c44e52;fill-opacity:0.8;" x="466.321859" xlink:href="#m533ca7f553" y="167.475349"/>
     <use style="fill:#c44e52;fill-opacity:0.8;" x="264.271138" xlink:href="#m533ca7f553" y="98.457086"/>
    </g>
   </g>
   <g id="PolyCollection_3">
    <path clip-path="url(#p5f4d1d1106)" d="M 65.272306 30.120597 
L 65.272306 201.192359 
L 68.199783 200.829822 
L 71.127259 200.467285 
L 74.054736 200.104749 
L 76.982213 199.74117 
L 79.90969 199.376722 
L 82.837166 199.012275 
L 85.764643 198.647828 
L 88.69212 198.28338 
L 91.619596 197.918933 
L 94.547073 197.554486 
L 97.47455 197.190038 
L 100.402026 196.825591 
L 103.329503 196.461144 
L 106.25698 196.096696 
L 109.184457 195.732249 
L 112.111933 195.367802 
L 115.03941 195.003354 
L 117.966887 194.638907 
L 120.894363 194.27446 
L 123.82184 193.910012 
L 126.749317 193.545565 
L 129.676794 193.181117 
L 132.60427 192.81667 
L 135.531747 192.452223 
L 138.459224 192.087775 
L 141.3867 191.723328 
L 144.314177 191.358881 
L 147.241654 190.994433 
L 150.16913 190.629986 
L 153.096607 190.265539 
L 156.024084 189.901091 
L 158.951561 189.536644 
L 161.879037 189.172197 
L 164.806514 188.807749 
L 167.733991 188.443302 
L 170.661467 188.078855 
L 173.588944 187.714407 
L 176.516421 187.34996 
L 179.443898 186.985512 
L 182.371374 186.621065 
L 185.298851 186.256618 
L 188.226328 185.89217 
L 191.153804 185.527723 
L 194.081281 185.163276 
L 197.008758 184.798828 
L 199.936235 184.434381 
L 202.863711 184.069934 
L 205.791188 183.705486 
L 208.718665 183.341039 
L 211.646141 182.976592 
L 214.573618 182.612144 
L 217.501095 182.247697 
L 220.428571 181.883249 
L 223.356048 181.518802 
L 226.283525 181.154355 
L 229.211002 180.789907 
L 232.138478 180.521377 
L 235.065955 180.490304 
L 237.993432 180.45923 
L 240.920908 180.428157 
L 243.848385 180.397084 
L 246.775862 180.36601 
L 249.703339 180.334937 
L 252.630815 180.303864 
L 255.558292 180.27279 
L 258.485769 180.252749 
L 261.413245 180.319922 
L 264.340722 180.387096 
L 267.268199 180.454269 
L 270.195675 180.521443 
L 273.123152 180.588616 
L 276.050629 180.65579 
L 278.978106 180.722964 
L 281.905582 180.790137 
L 284.833059 180.857311 
L 287.760536 180.924484 
L 290.688012 180.991658 
L 293.615489 181.058831 
L 296.542966 181.126005 
L 299.470443 181.193179 
L 302.397919 181.260352 
L 305.325396 181.327526 
L 308.252873 181.394699 
L 311.180349 181.461873 
L 314.107826 181.02223 
L 317.035303 180.503377 
L 319.96278 180.549289 
L 322.890256 180.5952 
L 325.817733 180.641112 
L 328.74521 180.687024 
L 331.672686 180.732936 
L 334.600163 180.778848 
L 337.52764 180.824759 
L 340.455116 180.870671 
L 343.382593 180.903871 
L 346.31007 180.387263 
L 349.237547 180.16466 
L 352.165023 180.189039 
L 355.0925 180.227067 
L 355.0925 114.3859 
L 355.0925 114.3859 
L 352.165023 114.070429 
L 349.237547 113.754959 
L 346.31007 113.59149 
L 343.382593 113.867724 
L 340.455116 114.314376 
L 337.52764 113.990566 
L 334.600163 114.409853 
L 331.672686 114.019748 
L 328.74521 113.457863 
L 325.817733 112.910401 
L 322.890256 113.176716 
L 319.96278 113.621073 
L 317.035303 114.06543 
L 314.107826 113.65154 
L 311.180349 113.218767 
L 308.252873 113.131416 
L 305.325396 112.973002 
L 302.397919 112.328555 
L 299.470443 112.428267 
L 296.542966 112.683553 
L 293.615489 112.409186 
L 290.688012 112.196997 
L 287.760536 111.59894 
L 284.833059 110.872751 
L 281.905582 110.137056 
L 278.978106 109.401362 
L 276.050629 108.400805 
L 273.123152 107.592716 
L 270.195675 106.936105 
L 267.268199 105.55919 
L 264.340722 104.65686 
L 261.413245 103.871972 
L 258.485769 103.198469 
L 255.558292 102.529267 
L 252.630815 101.656846 
L 249.703339 100.806689 
L 246.775862 99.91954 
L 243.848385 98.974332 
L 240.920908 98.04428 
L 237.993432 97.121592 
L 235.065955 96.188874 
L 232.138478 95.100361 
L 229.211002 93.786415 
L 226.283525 92.164804 
L 223.356048 90.561813 
L 220.428571 89.424045 
L 217.501095 88.059116 
L 214.573618 87.030926 
L 211.646141 86.111792 
L 208.718665 85.307443 
L 205.791188 84.380666 
L 202.863711 82.914284 
L 199.936235 81.872458 
L 197.008758 80.830633 
L 194.081281 79.803955 
L 191.153804 78.57154 
L 188.226328 77.644446 
L 185.298851 76.301838 
L 182.371374 75.333097 
L 179.443898 74.091733 
L 176.516421 73.296492 
L 173.588944 72.236849 
L 170.661467 70.725214 
L 167.733991 69.213391 
L 164.806514 67.686123 
L 161.879037 66.158855 
L 158.951561 64.886811 
L 156.024084 63.860679 
L 153.096607 62.840415 
L 150.16913 61.823097 
L 147.241654 60.794617 
L 144.314177 59.667118 
L 141.3867 58.09977 
L 138.459224 56.559148 
L 135.531747 55.48144 
L 132.60427 54.450724 
L 129.676794 53.73776 
L 126.749317 53.024795 
L 123.82184 52.311831 
L 120.894363 51.564179 
L 117.966887 50.422414 
L 115.03941 48.961593 
L 112.111933 47.500771 
L 109.184457 46.039949 
L 106.25698 44.93139 
L 103.329503 43.866699 
L 100.402026 42.802008 
L 97.47455 41.744316 
L 94.547073 40.687615 
L 91.619596 39.630913 
L 88.69212 38.574211 
L 85.764643 37.517509 
L 82.837166 36.460807 
L 79.90969 35.404106 
L 76.982213 34.347404 
L 74.054736 33.290702 
L 71.127259 32.234 
L 68.199783 31.177298 
L 65.272306 30.120597 
z
" style="fill:#c44e52;fill-opacity:0.15;"/>
   </g>
   <g id="line2d_15">
    <path clip-path="url(#p5f4d1d1106)" d="M 65.272306 211.893182 
L 68.199783 211.158645 
L 71.127259 210.424108 
L 74.054736 209.689571 
L 76.982213 208.955034 
L 79.90969 208.220497 
L 82.837166 207.48596 
L 85.764643 206.751423 
L 88.69212 206.016886 
L 91.619596 205.282349 
L 94.547073 204.547812 
L 97.47455 203.813275 
L 100.402026 203.078737 
L 103.329503 202.3442 
L 106.25698 201.609663 
L 109.184457 200.875126 
L 112.111933 200.140589 
L 115.03941 199.406052 
L 117.966887 198.671515 
L 120.894363 197.936978 
L 123.82184 197.202441 
L 126.749317 196.467904 
L 129.676794 195.733367 
L 132.60427 194.99883 
L 135.531747 194.264293 
L 138.459224 193.529756 
L 141.3867 192.795219 
L 144.314177 192.060682 
L 147.241654 191.326145 
L 150.16913 190.591607 
L 153.096607 189.85707 
L 156.024084 189.122533 
L 158.951561 188.387996 
L 161.879037 187.653459 
L 164.806514 186.918922 
L 167.733991 186.184385 
L 170.661467 185.449848 
L 173.588944 184.715311 
L 176.516421 183.980774 
L 179.443898 183.246237 
L 182.371374 182.5117 
L 185.298851 181.777163 
L 188.226328 181.042626 
L 191.153804 180.308089 
L 194.081281 179.573552 
L 197.008758 178.839015 
L 199.936235 178.104477 
L 202.863711 177.36994 
L 205.791188 176.635403 
L 208.718665 175.900866 
L 211.646141 175.166329 
L 214.573618 174.431792 
L 217.501095 173.697255 
L 220.428571 172.962718 
L 223.356048 172.228181 
L 226.283525 171.493644 
L 229.211002 170.759107 
L 232.138478 170.02457 
L 235.065955 169.290033 
L 237.993432 168.555496 
L 240.920908 167.820959 
L 243.848385 167.086422 
L 246.775862 166.351885 
L 249.703339 165.617347 
L 252.630815 164.88281 
L 255.558292 164.148273 
L 258.485769 163.413736 
L 261.413245 162.679199 
L 264.340722 161.944662 
L 267.268199 161.210125 
L 270.195675 160.475588 
L 273.123152 159.741051 
L 276.050629 159.006514 
L 278.978106 158.271977 
L 281.905582 157.53744 
L 284.833059 156.802903 
L 287.760536 156.068366 
L 290.688012 155.333829 
L 293.615489 154.599292 
L 296.542966 153.864755 
L 299.470443 153.130217 
L 302.397919 152.39568 
L 305.325396 151.661143 
L 308.252873 150.926606 
L 311.180349 150.192069 
L 314.107826 149.457532 
L 317.035303 148.722995 
L 319.96278 147.988458 
L 322.890256 147.253921 
L 325.817733 146.519384 
L 328.74521 145.784847 
L 331.672686 145.05031 
L 334.600163 144.315773 
L 337.52764 143.581236 
L 340.455116 142.846699 
L 343.382593 142.112162 
L 346.31007 141.377625 
L 349.237547 140.643087 
L 352.165023 139.90855 
L 355.0925 139.174013 
" style="fill:none;stroke:#4c72b0;stroke-linecap:round;stroke-width:2.625;"/>
   </g>
   <g id="line2d_16">
    <path clip-path="url(#p5f4d1d1106)" d="M 65.272306 199.82403 
L 68.199783 199.398543 
L 71.127259 198.973055 
L 74.054736 198.547568 
L 76.982213 198.12208 
L 79.90969 197.696593 
L 82.837166 197.271105 
L 85.764643 196.845618 
L 88.69212 196.42013 
L 91.619596 195.994643 
L 94.547073 195.569155 
L 97.47455 195.143668 
L 100.402026 194.71818 
L 103.329503 194.292693 
L 106.25698 193.867205 
L 109.184457 193.441717 
L 112.111933 193.01623 
L 115.03941 192.590742 
L 117.966887 192.165255 
L 120.894363 191.739767 
L 123.82184 191.31428 
L 126.749317 190.888792 
L 129.676794 190.463305 
L 132.60427 190.037817 
L 135.531747 189.61233 
L 138.459224 189.186842 
L 141.3867 188.761355 
L 144.314177 188.335867 
L 147.241654 187.91038 
L 150.16913 187.484892 
L 153.096607 187.059405 
L 156.024084 186.633917 
L 158.951561 186.20843 
L 161.879037 185.782942 
L 164.806514 185.357455 
L 167.733991 184.931967 
L 170.661467 184.506479 
L 173.588944 184.080992 
L 176.516421 183.655504 
L 179.443898 183.230017 
L 182.371374 182.804529 
L 185.298851 182.379042 
L 188.226328 181.953554 
L 191.153804 181.528067 
L 194.081281 181.102579 
L 197.008758 180.677092 
L 199.936235 180.251604 
L 202.863711 179.826117 
L 205.791188 179.400629 
L 208.718665 178.975142 
L 211.646141 178.549654 
L 214.573618 178.124167 
L 217.501095 177.698679 
L 220.428571 177.273192 
L 223.356048 176.847704 
L 226.283525 176.422217 
L 229.211002 175.996729 
L 232.138478 175.571241 
L 235.065955 175.145754 
L 237.993432 174.720266 
L 240.920908 174.294779 
L 243.848385 173.869291 
L 246.775862 173.443804 
L 249.703339 173.018316 
L 252.630815 172.592829 
L 255.558292 172.167341 
L 258.485769 171.741854 
L 261.413245 171.316366 
L 264.340722 170.890879 
L 267.268199 170.465391 
L 270.195675 170.039904 
L 273.123152 169.614416 
L 276.050629 169.188929 
L 278.978106 168.763441 
L 281.905582 168.337954 
L 284.833059 167.912466 
L 287.760536 167.486979 
L 290.688012 167.061491 
L 293.615489 166.636003 
L 296.542966 166.210516 
L 299.470443 165.785028 
L 302.397919 165.359541 
L 305.325396 164.934053 
L 308.252873 164.508566 
L 311.180349 164.083078 
L 314.107826 163.657591 
L 317.035303 163.232103 
L 319.96278 162.806616 
L 322.890256 162.381128 
L 325.817733 161.955641 
L 328.74521 161.530153 
L 331.672686 161.104666 
L 334.600163 160.679178 
L 337.52764 160.253691 
L 340.455116 159.828203 
L 343.382593 159.402716 
L 346.31007 158.977228 
L 349.237547 158.551741 
L 352.165023 158.126253 
L 355.0925 157.700765 
" style="fill:none;stroke:#55a868;stroke-linecap:round;stroke-width:2.625;"/>
   </g>
   <g id="line2d_17">
    <path clip-path="url(#p5f4d1d1106)" d="M 65.272306 143.008427 
L 68.199783 143.067199 
L 71.127259 143.125971 
L 74.054736 143.184743 
L 76.982213 143.243516 
L 79.90969 143.302288 
L 82.837166 143.36106 
L 85.764643 143.419832 
L 88.69212 143.478604 
L 91.619596 143.537376 
L 94.547073 143.596149 
L 97.47455 143.654921 
L 100.402026 143.713693 
L 103.329503 143.772465 
L 106.25698 143.831237 
L 109.184457 143.890009 
L 112.111933 143.948782 
L 115.03941 144.007554 
L 117.966887 144.066326 
L 120.894363 144.125098 
L 123.82184 144.18387 
L 126.749317 144.242642 
L 129.676794 144.301415 
L 132.60427 144.360187 
L 135.531747 144.418959 
L 138.459224 144.477731 
L 141.3867 144.536503 
L 144.314177 144.595275 
L 147.241654 144.654048 
L 150.16913 144.71282 
L 153.096607 144.771592 
L 156.024084 144.830364 
L 158.951561 144.889136 
L 161.879037 144.947908 
L 164.806514 145.00668 
L 167.733991 145.065453 
L 170.661467 145.124225 
L 173.588944 145.182997 
L 176.516421 145.241769 
L 179.443898 145.300541 
L 182.371374 145.359313 
L 185.298851 145.418086 
L 188.226328 145.476858 
L 191.153804 145.53563 
L 194.081281 145.594402 
L 197.008758 145.653174 
L 199.936235 145.711946 
L 202.863711 145.770719 
L 205.791188 145.829491 
L 208.718665 145.888263 
L 211.646141 145.947035 
L 214.573618 146.005807 
L 217.501095 146.064579 
L 220.428571 146.123352 
L 223.356048 146.182124 
L 226.283525 146.240896 
L 229.211002 146.299668 
L 232.138478 146.35844 
L 235.065955 146.417212 
L 237.993432 146.475985 
L 240.920908 146.534757 
L 243.848385 146.593529 
L 246.775862 146.652301 
L 249.703339 146.711073 
L 252.630815 146.769845 
L 255.558292 146.828618 
L 258.485769 146.88739 
L 261.413245 146.946162 
L 264.340722 147.004934 
L 267.268199 147.063706 
L 270.195675 147.122478 
L 273.123152 147.181251 
L 276.050629 147.240023 
L 278.978106 147.298795 
L 281.905582 147.357567 
L 284.833059 147.416339 
L 287.760536 147.475111 
L 290.688012 147.533883 
L 293.615489 147.592656 
L 296.542966 147.651428 
L 299.470443 147.7102 
L 302.397919 147.768972 
L 305.325396 147.827744 
L 308.252873 147.886516 
L 311.180349 147.945289 
L 314.107826 148.004061 
L 317.035303 148.062833 
L 319.96278 148.121605 
L 322.890256 148.180377 
L 325.817733 148.239149 
L 328.74521 148.297922 
L 331.672686 148.356694 
L 334.600163 148.415466 
L 337.52764 148.474238 
L 340.455116 148.53301 
L 343.382593 148.591782 
L 346.31007 148.650555 
L 349.237547 148.709327 
L 352.165023 148.768099 
L 355.0925 148.826871 
" style="fill:none;stroke:#c44e52;stroke-linecap:round;stroke-width:2.625;"/>
   </g>
   <g id="patch_3">
    <path d="M 65.272306 316.993125 
L 65.272306 16.46 
" style="fill:none;stroke:#262626;stroke-linecap:square;stroke-linejoin:miter;stroke-width:1.25;"/>
   </g>
   <g id="patch_4">
    <path d="M 65.272306 316.993125 
L 355.0925 316.993125 
" style="fill:none;stroke:#262626;stroke-linecap:square;stroke-linejoin:miter;stroke-width:1.25;"/>
   </g>
  </g>
  <g id="legend_1">
   <g id="text_17">
    <!-- income_group -->
    <defs>
     <path d="M 4.984375 -4.296875 
L 13.53125 -5.5625 
Q 14.0625 -9.515625 16.5 -11.328125 
Q 19.78125 -13.765625 25.4375 -13.765625 
Q 31.546875 -13.765625 34.859375 -11.328125 
Q 38.1875 -8.890625 39.359375 -4.5 
Q 40.046875 -1.8125 39.984375 6.78125 
Q 34.234375 0 25.640625 0 
Q 14.9375 0 9.078125 7.71875 
Q 3.21875 15.4375 3.21875 26.21875 
Q 3.21875 33.640625 5.90625 39.90625 
Q 8.59375 46.1875 13.6875 49.609375 
Q 18.796875 53.03125 25.6875 53.03125 
Q 34.859375 53.03125 40.828125 45.609375 
L 40.828125 51.859375 
L 48.921875 51.859375 
L 48.921875 7.03125 
Q 48.921875 -5.078125 46.453125 -10.125 
Q 44 -15.1875 38.640625 -18.109375 
Q 33.296875 -21.046875 25.484375 -21.046875 
Q 16.21875 -21.046875 10.5 -16.875 
Q 4.78125 -12.703125 4.984375 -4.296875 
z
M 12.25 26.859375 
Q 12.25 16.65625 16.296875 11.96875 
Q 20.359375 7.28125 26.46875 7.28125 
Q 32.515625 7.28125 36.609375 11.9375 
Q 40.71875 16.609375 40.71875 26.5625 
Q 40.71875 36.078125 36.5 40.90625 
Q 32.28125 45.75 26.3125 45.75 
Q 20.453125 45.75 16.34375 40.984375 
Q 12.25 36.234375 12.25 26.859375 
z
" id="ArialMT-67"/>
     <path d="M 40.578125 0 
L 40.578125 7.625 
Q 34.515625 -1.171875 24.125 -1.171875 
Q 19.53125 -1.171875 15.546875 0.578125 
Q 11.578125 2.34375 9.640625 5 
Q 7.71875 7.671875 6.9375 11.53125 
Q 6.390625 14.109375 6.390625 19.734375 
L 6.390625 51.859375 
L 15.1875 51.859375 
L 15.1875 23.09375 
Q 15.1875 16.21875 15.71875 13.8125 
Q 16.546875 10.359375 19.234375 8.375 
Q 21.921875 6.390625 25.875 6.390625 
Q 29.828125 6.390625 33.296875 8.421875 
Q 36.765625 10.453125 38.203125 13.9375 
Q 39.65625 17.4375 39.65625 24.078125 
L 39.65625 51.859375 
L 48.4375 51.859375 
L 48.4375 0 
z
" id="ArialMT-75"/>
    </defs>
    <g style="fill:#262626;" transform="translate(390.884484 161.144367)scale(0.0935 -0.0935)">
     <use xlink:href="#ArialMT-69"/>
     <use x="22.216797" xlink:href="#ArialMT-6e"/>
     <use x="77.832031" xlink:href="#ArialMT-63"/>
     <use x="127.832031" xlink:href="#ArialMT-6f"/>
     <use x="183.447266" xlink:href="#ArialMT-6d"/>
     <use x="266.748047" xlink:href="#ArialMT-65"/>
     <use x="322.363281" xlink:href="#ArialMT-5f"/>
     <use x="377.978516" xlink:href="#ArialMT-67"/>
     <use x="433.59375" xlink:href="#ArialMT-72"/>
     <use x="466.894531" xlink:href="#ArialMT-6f"/>
     <use x="522.509766" xlink:href="#ArialMT-75"/>
     <use x="578.125" xlink:href="#ArialMT-70"/>
    </g>
   </g>
   <g id="PathCollection_4">
    <g>
     <use style="fill:#4c72b0;fill-opacity:0.8;" x="369.26875" xlink:href="#mfc9ea033c0" y="172.645062"/>
    </g>
   </g>
   <g id="text_18">
    <!-- Low income -->
    <defs>
     <path d="M 7.328125 0 
L 7.328125 71.578125 
L 16.796875 71.578125 
L 16.796875 8.453125 
L 52.046875 8.453125 
L 52.046875 0 
z
" id="ArialMT-4c"/>
     <path d="M 16.15625 0 
L 0.296875 51.859375 
L 9.375 51.859375 
L 17.625 21.921875 
L 20.703125 10.796875 
Q 20.90625 11.625 23.390625 21.484375 
L 31.640625 51.859375 
L 40.671875 51.859375 
L 48.4375 21.78125 
L 51.03125 11.859375 
L 54 21.875 
L 62.890625 51.859375 
L 71.4375 51.859375 
L 55.21875 0 
L 46.09375 0 
L 37.84375 31.0625 
L 35.84375 39.890625 
L 25.34375 0 
z
" id="ArialMT-77"/>
    </defs>
    <g style="fill:#262626;" transform="translate(387.26875 175.270062)scale(0.1 -0.1)">
     <use xlink:href="#ArialMT-4c"/>
     <use x="55.615234" xlink:href="#ArialMT-6f"/>
     <use x="111.230469" xlink:href="#ArialMT-77"/>
     <use x="183.447266" xlink:href="#ArialMT-20"/>
     <use x="211.230469" xlink:href="#ArialMT-69"/>
     <use x="233.447266" xlink:href="#ArialMT-6e"/>
     <use x="289.0625" xlink:href="#ArialMT-63"/>
     <use x="339.0625" xlink:href="#ArialMT-6f"/>
     <use x="394.677734" xlink:href="#ArialMT-6d"/>
     <use x="477.978516" xlink:href="#ArialMT-65"/>
    </g>
   </g>
   <g id="PathCollection_5">
    <g>
     <use style="fill:#55a868;fill-opacity:0.8;" x="369.26875" xlink:href="#mef25fd63df" y="186.790375"/>
    </g>
   </g>
   <g id="text_19">
    <!-- Upper middle income -->
    <defs>
     <path d="M 40.234375 0 
L 40.234375 6.546875 
Q 35.296875 -1.171875 25.734375 -1.171875 
Q 19.53125 -1.171875 14.328125 2.25 
Q 9.125 5.671875 6.265625 11.796875 
Q 3.421875 17.921875 3.421875 25.875 
Q 3.421875 33.640625 6 39.96875 
Q 8.59375 46.296875 13.765625 49.65625 
Q 18.953125 53.03125 25.34375 53.03125 
Q 30.03125 53.03125 33.6875 51.046875 
Q 37.359375 49.078125 39.65625 45.90625 
L 39.65625 71.578125 
L 48.390625 71.578125 
L 48.390625 0 
z
M 12.453125 25.875 
Q 12.453125 15.921875 16.640625 10.984375 
Q 20.84375 6.0625 26.5625 6.0625 
Q 32.328125 6.0625 36.34375 10.765625 
Q 40.375 15.484375 40.375 25.140625 
Q 40.375 35.796875 36.265625 40.765625 
Q 32.171875 45.75 26.171875 45.75 
Q 20.3125 45.75 16.375 40.96875 
Q 12.453125 36.1875 12.453125 25.875 
z
" id="ArialMT-64"/>
    </defs>
    <g style="fill:#262626;" transform="translate(387.26875 189.415375)scale(0.1 -0.1)">
     <use xlink:href="#ArialMT-55"/>
     <use x="72.216797" xlink:href="#ArialMT-70"/>
     <use x="127.832031" xlink:href="#ArialMT-70"/>
     <use x="183.447266" xlink:href="#ArialMT-65"/>
     <use x="239.0625" xlink:href="#ArialMT-72"/>
     <use x="272.363281" xlink:href="#ArialMT-20"/>
     <use x="300.146484" xlink:href="#ArialMT-6d"/>
     <use x="383.447266" xlink:href="#ArialMT-69"/>
     <use x="405.664062" xlink:href="#ArialMT-64"/>
     <use x="461.279297" xlink:href="#ArialMT-64"/>
     <use x="516.894531" xlink:href="#ArialMT-6c"/>
     <use x="539.111328" xlink:href="#ArialMT-65"/>
     <use x="594.726562" xlink:href="#ArialMT-20"/>
     <use x="622.509766" xlink:href="#ArialMT-69"/>
     <use x="644.726562" xlink:href="#ArialMT-6e"/>
     <use x="700.341797" xlink:href="#ArialMT-63"/>
     <use x="750.341797" xlink:href="#ArialMT-6f"/>
     <use x="805.957031" xlink:href="#ArialMT-6d"/>
     <use x="889.257812" xlink:href="#ArialMT-65"/>
    </g>
   </g>
   <g id="PathCollection_6">
    <g>
     <use style="fill:#c44e52;fill-opacity:0.8;" x="369.26875" xlink:href="#m533ca7f553" y="200.935688"/>
    </g>
   </g>
   <g id="text_20">
    <!-- Lower middle income -->
    <g style="fill:#262626;" transform="translate(387.26875 203.560688)scale(0.1 -0.1)">
     <use xlink:href="#ArialMT-4c"/>
     <use x="55.615234" xlink:href="#ArialMT-6f"/>
     <use x="111.230469" xlink:href="#ArialMT-77"/>
     <use x="183.447266" xlink:href="#ArialMT-65"/>
     <use x="239.0625" xlink:href="#ArialMT-72"/>
     <use x="272.363281" xlink:href="#ArialMT-20"/>
     <use x="300.146484" xlink:href="#ArialMT-6d"/>
     <use x="383.447266" xlink:href="#ArialMT-69"/>
     <use x="405.664062" xlink:href="#ArialMT-64"/>
     <use x="461.279297" xlink:href="#ArialMT-64"/>
     <use x="516.894531" xlink:href="#ArialMT-6c"/>
     <use x="539.111328" xlink:href="#ArialMT-65"/>
     <use x="594.726562" xlink:href="#ArialMT-20"/>
     <use x="622.509766" xlink:href="#ArialMT-69"/>
     <use x="644.726562" xlink:href="#ArialMT-6e"/>
     <use x="700.341797" xlink:href="#ArialMT-63"/>
     <use x="750.341797" xlink:href="#ArialMT-6f"/>
     <use x="805.957031" xlink:href="#ArialMT-6d"/>
     <use x="889.257812" xlink:href="#ArialMT-65"/>
    </g>
   </g>
  </g>
 </g>
 <defs>
  <clipPath id="p5f4d1d1106">
   <rect height="300.533125" width="289.820194" x="65.272306" y="16.46"/>
  </clipPath>
 </defs>
</svg>
