<?xml version="1.0" encoding="utf-8" standalone="no"?>
<!DOCTYPE svg PUBLIC "-//W3C//DTD SVG 1.1//EN"
  "http://www.w3.org/Graphics/SVG/1.1/DTD/svg11.dtd">
<!-- Created with matplotlib (http://matplotlib.org/) -->
<svg height="360pt" version="1.1" viewBox="0 0 490.75 360" width="490.75pt" xmlns="http://www.w3.org/2000/svg" xmlns:xlink="http://www.w3.org/1999/xlink">
 <defs>
  <style type="text/css">
*{stroke-linecap:butt;stroke-linejoin:round;}
  </style>
 </defs>
 <g id="figure_1">
  <g id="patch_1">
   <path d="M 0 360 
L 490.75 360 
L 490.75 0 
L 0 0 
z
" style="fill:#ffffff;"/>
  </g>
  <g id="axes_1">
   <g id="patch_2">
    <path d="M 65.272306 316.993125 
L 355.0925 316.993125 
L 355.0925 16.46 
L 65.272306 16.46 
z
" style="fill:#ffffff;"/>
   </g>
   <g id="matplotlib.axis_1">
    <g id="xtick_1">
     <g id="line2d_1"/>
     <g id="text_1">
      <!-- 40 -->
      <defs>
       <path d="M 32.328125 0 
L 32.328125 17.140625 
L 1.265625 17.140625 
L 1.265625 25.203125 
L 33.9375 71.578125 
L 41.109375 71.578125 
L 41.109375 25.203125 
L 50.78125 25.203125 
L 50.78125 17.140625 
L 41.109375 17.140625 
L 41.109375 0 
z
M 32.328125 25.203125 
L 32.328125 57.46875 
L 9.90625 25.203125 
z
" id="ArialMT-34"/>
       <path d="M 4.15625 35.296875 
Q 4.15625 48 6.765625 55.734375 
Q 9.375 63.484375 14.515625 67.671875 
Q 19.671875 71.875 27.484375 71.875 
Q 33.25 71.875 37.59375 69.546875 
Q 41.9375 67.234375 44.765625 62.859375 
Q 47.609375 58.5 49.21875 52.21875 
Q 50.828125 45.953125 50.828125 35.296875 
Q 50.828125 22.703125 48.234375 14.96875 
Q 45.65625 7.234375 40.5 3 
Q 35.359375 -1.21875 27.484375 -1.21875 
Q 17.140625 -1.21875 11.234375 6.203125 
Q 4.15625 15.140625 4.15625 35.296875 
z
M 13.1875 35.296875 
Q 13.1875 17.671875 17.3125 11.828125 
Q 21.4375 6 27.484375 6 
Q 33.546875 6 37.671875 11.859375 
Q 41.796875 17.71875 41.796875 35.296875 
Q 41.796875 52.984375 37.671875 58.78125 
Q 33.546875 64.59375 27.390625 64.59375 
Q 21.34375 64.59375 17.71875 59.46875 
Q 13.1875 52.9375 13.1875 35.296875 
z
" id="ArialMT-30"/>
      </defs>
      <g style="fill:#262626;" transform="translate(81.765625 331.150937)scale(0.1 -0.1)">
       <use xlink:href="#ArialMT-34"/>
       <use x="55.615234" xlink:href="#ArialMT-30"/>
      </g>
     </g>
    </g>
    <g id="xtick_2">
     <g id="line2d_2"/>
     <g id="text_2">
      <!-- 50 -->
      <defs>
       <path d="M 4.15625 18.75 
L 13.375 19.53125 
Q 14.40625 12.796875 18.140625 9.390625 
Q 21.875 6 27.15625 6 
Q 33.5 6 37.890625 10.78125 
Q 42.28125 15.578125 42.28125 23.484375 
Q 42.28125 31 38.0625 35.34375 
Q 33.84375 39.703125 27 39.703125 
Q 22.75 39.703125 19.328125 37.765625 
Q 15.921875 35.84375 13.96875 32.765625 
L 5.71875 33.84375 
L 12.640625 70.609375 
L 48.25 70.609375 
L 48.25 62.203125 
L 19.671875 62.203125 
L 15.828125 42.96875 
Q 22.265625 47.46875 29.34375 47.46875 
Q 38.71875 47.46875 45.15625 40.96875 
Q 51.609375 34.46875 51.609375 24.265625 
Q 51.609375 14.546875 45.953125 7.46875 
Q 39.0625 -1.21875 27.15625 -1.21875 
Q 17.390625 -1.21875 11.203125 4.25 
Q 5.03125 9.71875 4.15625 18.75 
z
" id="ArialMT-35"/>
      </defs>
      <g style="fill:#262626;" transform="translate(131.573396 331.150937)scale(0.1 -0.1)">
       <use xlink:href="#ArialMT-35"/>
       <use x="55.615234" xlink:href="#ArialMT-30"/>
      </g>
     </g>
    </g>
    <g id="xtick_3">
     <g id="line2d_3"/>
     <g id="text_3">
      <!-- 60 -->
      <defs>
       <path d="M 49.75 54.046875 
L 41.015625 53.375 
Q 39.84375 58.546875 37.703125 60.890625 
Q 34.125 64.65625 28.90625 64.65625 
Q 24.703125 64.65625 21.53125 62.3125 
Q 17.390625 59.28125 14.984375 53.46875 
Q 12.59375 47.65625 12.5 36.921875 
Q 15.671875 41.75 20.265625 44.09375 
Q 24.859375 46.4375 29.890625 46.4375 
Q 38.671875 46.4375 44.84375 39.96875 
Q 51.03125 33.5 51.03125 23.25 
Q 51.03125 16.5 48.125 10.71875 
Q 45.21875 4.9375 40.140625 1.859375 
Q 35.0625 -1.21875 28.609375 -1.21875 
Q 17.625 -1.21875 10.6875 6.859375 
Q 3.765625 14.9375 3.765625 33.5 
Q 3.765625 54.25 11.421875 63.671875 
Q 18.109375 71.875 29.4375 71.875 
Q 37.890625 71.875 43.28125 67.140625 
Q 48.6875 62.40625 49.75 54.046875 
z
M 13.875 23.1875 
Q 13.875 18.65625 15.796875 14.5 
Q 17.71875 10.359375 21.1875 8.171875 
Q 24.65625 6 28.46875 6 
Q 34.03125 6 38.03125 10.484375 
Q 42.046875 14.984375 42.046875 22.703125 
Q 42.046875 30.125 38.078125 34.390625 
Q 34.125 38.671875 28.125 38.671875 
Q 22.171875 38.671875 18.015625 34.390625 
Q 13.875 30.125 13.875 23.1875 
z
" id="ArialMT-36"/>
      </defs>
      <g style="fill:#262626;" transform="translate(181.381167 331.150937)scale(0.1 -0.1)">
       <use xlink:href="#ArialMT-36"/>
       <use x="55.615234" xlink:href="#ArialMT-30"/>
      </g>
     </g>
    </g>
    <g id="xtick_4">
     <g id="line2d_4"/>
     <g id="text_4">
      <!-- 70 -->
      <defs>
       <path d="M 4.734375 62.203125 
L 4.734375 70.65625 
L 51.078125 70.65625 
L 51.078125 63.8125 
Q 44.234375 56.546875 37.515625 44.484375 
Q 30.8125 32.421875 27.15625 19.671875 
Q 24.515625 10.6875 23.78125 0 
L 14.75 0 
Q 14.890625 8.453125 18.0625 20.40625 
Q 21.234375 32.375 27.171875 43.484375 
Q 33.109375 54.59375 39.796875 62.203125 
z
" id="ArialMT-37"/>
      </defs>
      <g style="fill:#262626;" transform="translate(231.188938 331.150937)scale(0.1 -0.1)">
       <use xlink:href="#ArialMT-37"/>
       <use x="55.615234" xlink:href="#ArialMT-30"/>
      </g>
     </g>
    </g>
    <g id="xtick_5">
     <g id="line2d_5"/>
     <g id="text_5">
      <!-- 80 -->
      <defs>
       <path d="M 17.671875 38.8125 
Q 12.203125 40.828125 9.5625 44.53125 
Q 6.9375 48.25 6.9375 53.421875 
Q 6.9375 61.234375 12.546875 66.546875 
Q 18.171875 71.875 27.484375 71.875 
Q 36.859375 71.875 42.578125 66.421875 
Q 48.296875 60.984375 48.296875 53.171875 
Q 48.296875 48.1875 45.671875 44.5 
Q 43.0625 40.828125 37.75 38.8125 
Q 44.34375 36.671875 47.78125 31.875 
Q 51.21875 27.09375 51.21875 20.453125 
Q 51.21875 11.28125 44.71875 5.03125 
Q 38.234375 -1.21875 27.640625 -1.21875 
Q 17.046875 -1.21875 10.546875 5.046875 
Q 4.046875 11.328125 4.046875 20.703125 
Q 4.046875 27.6875 7.59375 32.390625 
Q 11.140625 37.109375 17.671875 38.8125 
z
M 15.921875 53.71875 
Q 15.921875 48.640625 19.1875 45.40625 
Q 22.46875 42.1875 27.6875 42.1875 
Q 32.765625 42.1875 36.015625 45.375 
Q 39.265625 48.578125 39.265625 53.21875 
Q 39.265625 58.0625 35.90625 61.359375 
Q 32.5625 64.65625 27.59375 64.65625 
Q 22.5625 64.65625 19.234375 61.421875 
Q 15.921875 58.203125 15.921875 53.71875 
z
M 13.09375 20.65625 
Q 13.09375 16.890625 14.875 13.375 
Q 16.65625 9.859375 20.171875 7.921875 
Q 23.6875 6 27.734375 6 
Q 34.03125 6 38.125 10.046875 
Q 42.234375 14.109375 42.234375 20.359375 
Q 42.234375 26.703125 38.015625 30.859375 
Q 33.796875 35.015625 27.4375 35.015625 
Q 21.234375 35.015625 17.15625 30.90625 
Q 13.09375 26.8125 13.09375 20.65625 
z
" id="ArialMT-38"/>
      </defs>
      <g style="fill:#262626;" transform="translate(280.996709 331.150937)scale(0.1 -0.1)">
       <use xlink:href="#ArialMT-38"/>
       <use x="55.615234" xlink:href="#ArialMT-30"/>
      </g>
     </g>
    </g>
    <g id="xtick_6">
     <g id="line2d_6"/>
     <g id="text_6">
      <!-- 90 -->
      <defs>
       <path d="M 5.46875 16.546875 
L 13.921875 17.328125 
Q 14.984375 11.375 18.015625 8.6875 
Q 21.046875 6 25.78125 6 
Q 29.828125 6 32.875 7.859375 
Q 35.9375 9.71875 37.890625 12.8125 
Q 39.84375 15.921875 41.15625 21.1875 
Q 42.484375 26.46875 42.484375 31.9375 
Q 42.484375 32.515625 42.4375 33.6875 
Q 39.796875 29.5 35.234375 26.875 
Q 30.671875 24.265625 25.34375 24.265625 
Q 16.453125 24.265625 10.296875 30.703125 
Q 4.15625 37.15625 4.15625 47.703125 
Q 4.15625 58.59375 10.578125 65.234375 
Q 17 71.875 26.65625 71.875 
Q 33.640625 71.875 39.421875 68.109375 
Q 45.21875 64.359375 48.21875 57.390625 
Q 51.21875 50.4375 51.21875 37.25 
Q 51.21875 23.53125 48.234375 15.40625 
Q 45.265625 7.28125 39.375 3.03125 
Q 33.5 -1.21875 25.59375 -1.21875 
Q 17.1875 -1.21875 11.859375 3.4375 
Q 6.546875 8.109375 5.46875 16.546875 
z
M 41.453125 48.140625 
Q 41.453125 55.71875 37.421875 60.15625 
Q 33.40625 64.59375 27.734375 64.59375 
Q 21.875 64.59375 17.53125 59.8125 
Q 13.1875 55.03125 13.1875 47.40625 
Q 13.1875 40.578125 17.3125 36.296875 
Q 21.4375 32.03125 27.484375 32.03125 
Q 33.59375 32.03125 37.515625 36.296875 
Q 41.453125 40.578125 41.453125 48.140625 
z
" id="ArialMT-39"/>
      </defs>
      <g style="fill:#262626;" transform="translate(330.80448 331.150937)scale(0.1 -0.1)">
       <use xlink:href="#ArialMT-39"/>
       <use x="55.615234" xlink:href="#ArialMT-30"/>
      </g>
     </g>
    </g>
    <g id="text_7">
     <!-- pct_agriculture_employment -->
     <defs>
      <path d="M 6.59375 -19.875 
L 6.59375 51.859375 
L 14.59375 51.859375 
L 14.59375 45.125 
Q 17.4375 49.078125 21 51.046875 
Q 24.5625 53.03125 29.640625 53.03125 
Q 36.28125 53.03125 41.359375 49.609375 
Q 46.4375 46.1875 49.015625 39.953125 
Q 51.609375 33.734375 51.609375 26.3125 
Q 51.609375 18.359375 48.75 11.984375 
Q 45.90625 5.609375 40.453125 2.21875 
Q 35.015625 -1.171875 29 -1.171875 
Q 24.609375 -1.171875 21.109375 0.6875 
Q 17.625 2.546875 15.375 5.375 
L 15.375 -19.875 
z
M 14.546875 25.640625 
Q 14.546875 15.625 18.59375 10.84375 
Q 22.65625 6.0625 28.421875 6.0625 
Q 34.28125 6.0625 38.453125 11.015625 
Q 42.625 15.96875 42.625 26.375 
Q 42.625 36.28125 38.546875 41.203125 
Q 34.46875 46.140625 28.8125 46.140625 
Q 23.1875 46.140625 18.859375 40.890625 
Q 14.546875 35.640625 14.546875 25.640625 
z
" id="ArialMT-70"/>
      <path d="M 40.4375 19 
L 49.078125 17.875 
Q 47.65625 8.9375 41.8125 3.875 
Q 35.984375 -1.171875 27.484375 -1.171875 
Q 16.84375 -1.171875 10.375 5.78125 
Q 3.90625 12.75 3.90625 25.734375 
Q 3.90625 34.125 6.6875 40.421875 
Q 9.46875 46.734375 15.15625 49.875 
Q 20.84375 53.03125 27.546875 53.03125 
Q 35.984375 53.03125 41.359375 48.75 
Q 46.734375 44.484375 48.25 36.625 
L 39.703125 35.296875 
Q 38.484375 40.53125 35.375 43.15625 
Q 32.28125 45.796875 27.875 45.796875 
Q 21.234375 45.796875 17.078125 41.03125 
Q 12.9375 36.28125 12.9375 25.984375 
Q 12.9375 15.53125 16.9375 10.796875 
Q 20.953125 6.0625 27.390625 6.0625 
Q 32.5625 6.0625 36.03125 9.234375 
Q 39.5 12.40625 40.4375 19 
z
" id="ArialMT-63"/>
      <path d="M 25.78125 7.859375 
L 27.046875 0.09375 
Q 23.34375 -0.6875 20.40625 -0.6875 
Q 15.625 -0.6875 12.984375 0.828125 
Q 10.359375 2.34375 9.28125 4.8125 
Q 8.203125 7.28125 8.203125 15.1875 
L 8.203125 45.015625 
L 1.765625 45.015625 
L 1.765625 51.859375 
L 8.203125 51.859375 
L 8.203125 64.703125 
L 16.9375 69.96875 
L 16.9375 51.859375 
L 25.78125 51.859375 
L 25.78125 45.015625 
L 16.9375 45.015625 
L 16.9375 14.703125 
Q 16.9375 10.9375 17.40625 9.859375 
Q 17.875 8.796875 18.921875 8.15625 
Q 19.96875 7.515625 21.921875 7.515625 
Q 23.390625 7.515625 25.78125 7.859375 
z
" id="ArialMT-74"/>
      <path d="M -1.515625 -19.875 
L -1.515625 -13.53125 
L 56.734375 -13.53125 
L 56.734375 -19.875 
z
" id="ArialMT-5f"/>
      <path d="M 40.4375 6.390625 
Q 35.546875 2.25 31.03125 0.53125 
Q 26.515625 -1.171875 21.34375 -1.171875 
Q 12.796875 -1.171875 8.203125 3 
Q 3.609375 7.171875 3.609375 13.671875 
Q 3.609375 17.484375 5.34375 20.625 
Q 7.078125 23.78125 9.890625 25.6875 
Q 12.703125 27.59375 16.21875 28.5625 
Q 18.796875 29.25 24.03125 29.890625 
Q 34.671875 31.15625 39.703125 32.90625 
Q 39.75 34.71875 39.75 35.203125 
Q 39.75 40.578125 37.25 42.78125 
Q 33.890625 45.75 27.25 45.75 
Q 21.046875 45.75 18.09375 43.578125 
Q 15.140625 41.40625 13.71875 35.890625 
L 5.125 37.0625 
Q 6.296875 42.578125 8.984375 45.96875 
Q 11.671875 49.359375 16.75 51.1875 
Q 21.828125 53.03125 28.515625 53.03125 
Q 35.15625 53.03125 39.296875 51.46875 
Q 43.453125 49.90625 45.40625 47.53125 
Q 47.359375 45.171875 48.140625 41.546875 
Q 48.578125 39.3125 48.578125 33.453125 
L 48.578125 21.734375 
Q 48.578125 9.46875 49.140625 6.21875 
Q 49.703125 2.984375 51.375 0 
L 42.1875 0 
Q 40.828125 2.734375 40.4375 6.390625 
z
M 39.703125 26.03125 
Q 34.90625 24.078125 25.34375 22.703125 
Q 19.921875 21.921875 17.671875 20.9375 
Q 15.4375 19.96875 14.203125 18.09375 
Q 12.984375 16.21875 12.984375 13.921875 
Q 12.984375 10.40625 15.640625 8.0625 
Q 18.3125 5.71875 23.4375 5.71875 
Q 28.515625 5.71875 32.46875 7.9375 
Q 36.421875 10.15625 38.28125 14.015625 
Q 39.703125 17 39.703125 22.796875 
z
" id="ArialMT-61"/>
      <path d="M 4.984375 -4.296875 
L 13.53125 -5.5625 
Q 14.0625 -9.515625 16.5 -11.328125 
Q 19.78125 -13.765625 25.4375 -13.765625 
Q 31.546875 -13.765625 34.859375 -11.328125 
Q 38.1875 -8.890625 39.359375 -4.5 
Q 40.046875 -1.8125 39.984375 6.78125 
Q 34.234375 0 25.640625 0 
Q 14.9375 0 9.078125 7.71875 
Q 3.21875 15.4375 3.21875 26.21875 
Q 3.21875 33.640625 5.90625 39.90625 
Q 8.59375 46.1875 13.6875 49.609375 
Q 18.796875 53.03125 25.6875 53.03125 
Q 34.859375 53.03125 40.828125 45.609375 
L 40.828125 51.859375 
L 48.921875 51.859375 
L 48.921875 7.03125 
Q 48.921875 -5.078125 46.453125 -10.125 
Q 44 -15.1875 38.640625 -18.109375 
Q 33.296875 -21.046875 25.484375 -21.046875 
Q 16.21875 -21.046875 10.5 -16.875 
Q 4.78125 -12.703125 4.984375 -4.296875 
z
M 12.25 26.859375 
Q 12.25 16.65625 16.296875 11.96875 
Q 20.359375 7.28125 26.46875 7.28125 
Q 32.515625 7.28125 36.609375 11.9375 
Q 40.71875 16.609375 40.71875 26.5625 
Q 40.71875 36.078125 36.5 40.90625 
Q 32.28125 45.75 26.3125 45.75 
Q 20.453125 45.75 16.34375 40.984375 
Q 12.25 36.234375 12.25 26.859375 
z
" id="ArialMT-67"/>
      <path d="M 6.5 0 
L 6.5 51.859375 
L 14.40625 51.859375 
L 14.40625 44 
Q 17.4375 49.515625 20 51.265625 
Q 22.5625 53.03125 25.640625 53.03125 
Q 30.078125 53.03125 34.671875 50.203125 
L 31.640625 42.046875 
Q 28.421875 43.953125 25.203125 43.953125 
Q 22.3125 43.953125 20.015625 42.21875 
Q 17.71875 40.484375 16.75 37.40625 
Q 15.28125 32.71875 15.28125 27.15625 
L 15.28125 0 
z
" id="ArialMT-72"/>
      <path d="M 6.640625 61.46875 
L 6.640625 71.578125 
L 15.4375 71.578125 
L 15.4375 61.46875 
z
M 6.640625 0 
L 6.640625 51.859375 
L 15.4375 51.859375 
L 15.4375 0 
z
" id="ArialMT-69"/>
      <path d="M 40.578125 0 
L 40.578125 7.625 
Q 34.515625 -1.171875 24.125 -1.171875 
Q 19.53125 -1.171875 15.546875 0.578125 
Q 11.578125 2.34375 9.640625 5 
Q 7.71875 7.671875 6.9375 11.53125 
Q 6.390625 14.109375 6.390625 19.734375 
L 6.390625 51.859375 
L 15.1875 51.859375 
L 15.1875 23.09375 
Q 15.1875 16.21875 15.71875 13.8125 
Q 16.546875 10.359375 19.234375 8.375 
Q 21.921875 6.390625 25.875 6.390625 
Q 29.828125 6.390625 33.296875 8.421875 
Q 36.765625 10.453125 38.203125 13.9375 
Q 39.65625 17.4375 39.65625 24.078125 
L 39.65625 51.859375 
L 48.4375 51.859375 
L 48.4375 0 
z
" id="ArialMT-75"/>
      <path d="M 6.390625 0 
L 6.390625 71.578125 
L 15.1875 71.578125 
L 15.1875 0 
z
" id="ArialMT-6c"/>
      <path d="M 42.09375 16.703125 
L 51.171875 15.578125 
Q 49.03125 7.625 43.21875 3.21875 
Q 37.40625 -1.171875 28.375 -1.171875 
Q 17 -1.171875 10.328125 5.828125 
Q 3.65625 12.84375 3.65625 25.484375 
Q 3.65625 38.578125 10.390625 45.796875 
Q 17.140625 53.03125 27.875 53.03125 
Q 38.28125 53.03125 44.875 45.953125 
Q 51.46875 38.875 51.46875 26.03125 
Q 51.46875 25.25 51.421875 23.6875 
L 12.75 23.6875 
Q 13.234375 15.140625 17.578125 10.59375 
Q 21.921875 6.0625 28.421875 6.0625 
Q 33.25 6.0625 36.671875 8.59375 
Q 40.09375 11.140625 42.09375 16.703125 
z
M 13.234375 30.90625 
L 42.1875 30.90625 
Q 41.609375 37.453125 38.875 40.71875 
Q 34.671875 45.796875 27.984375 45.796875 
Q 21.921875 45.796875 17.796875 41.75 
Q 13.671875 37.703125 13.234375 30.90625 
z
" id="ArialMT-65"/>
      <path d="M 6.59375 0 
L 6.59375 51.859375 
L 14.453125 51.859375 
L 14.453125 44.578125 
Q 16.890625 48.390625 20.9375 50.703125 
Q 25 53.03125 30.171875 53.03125 
Q 35.9375 53.03125 39.625 50.640625 
Q 43.3125 48.25 44.828125 43.953125 
Q 50.984375 53.03125 60.84375 53.03125 
Q 68.5625 53.03125 72.703125 48.75 
Q 76.859375 44.484375 76.859375 35.59375 
L 76.859375 0 
L 68.109375 0 
L 68.109375 32.671875 
Q 68.109375 37.9375 67.25 40.25 
Q 66.40625 42.578125 64.15625 43.984375 
Q 61.921875 45.40625 58.890625 45.40625 
Q 53.421875 45.40625 49.796875 41.765625 
Q 46.1875 38.140625 46.1875 30.125 
L 46.1875 0 
L 37.40625 0 
L 37.40625 33.6875 
Q 37.40625 39.546875 35.25 42.46875 
Q 33.109375 45.40625 28.21875 45.40625 
Q 24.515625 45.40625 21.359375 43.453125 
Q 18.21875 41.5 16.796875 37.734375 
Q 15.375 33.984375 15.375 26.90625 
L 15.375 0 
z
" id="ArialMT-6d"/>
      <path d="M 3.328125 25.921875 
Q 3.328125 40.328125 11.328125 47.265625 
Q 18.015625 53.03125 27.640625 53.03125 
Q 38.328125 53.03125 45.109375 46.015625 
Q 51.90625 39.015625 51.90625 26.65625 
Q 51.90625 16.65625 48.90625 10.90625 
Q 45.90625 5.171875 40.15625 2 
Q 34.421875 -1.171875 27.640625 -1.171875 
Q 16.75 -1.171875 10.03125 5.8125 
Q 3.328125 12.796875 3.328125 25.921875 
z
M 12.359375 25.921875 
Q 12.359375 15.96875 16.703125 11.015625 
Q 21.046875 6.0625 27.640625 6.0625 
Q 34.1875 6.0625 38.53125 11.03125 
Q 42.875 16.015625 42.875 26.21875 
Q 42.875 35.84375 38.5 40.796875 
Q 34.125 45.75 27.640625 45.75 
Q 21.046875 45.75 16.703125 40.8125 
Q 12.359375 35.890625 12.359375 25.921875 
z
" id="ArialMT-6f"/>
      <path d="M 6.203125 -19.96875 
L 5.21875 -11.71875 
Q 8.109375 -12.5 10.25 -12.5 
Q 13.1875 -12.5 14.9375 -11.515625 
Q 16.703125 -10.546875 17.828125 -8.796875 
Q 18.65625 -7.46875 20.515625 -2.25 
Q 20.75 -1.515625 21.296875 -0.09375 
L 1.609375 51.859375 
L 11.078125 51.859375 
L 21.875 21.828125 
Q 23.96875 16.109375 25.640625 9.8125 
Q 27.15625 15.875 29.25 21.625 
L 40.328125 51.859375 
L 49.125 51.859375 
L 29.390625 -0.875 
Q 26.21875 -9.421875 24.46875 -12.640625 
Q 22.125 -17 19.09375 -19.015625 
Q 16.0625 -21.046875 11.859375 -21.046875 
Q 9.328125 -21.046875 6.203125 -19.96875 
z
" id="ArialMT-79"/>
      <path d="M 6.59375 0 
L 6.59375 51.859375 
L 14.5 51.859375 
L 14.5 44.484375 
Q 20.21875 53.03125 31 53.03125 
Q 35.6875 53.03125 39.625 51.34375 
Q 43.5625 49.65625 45.515625 46.921875 
Q 47.46875 44.1875 48.25 40.4375 
Q 48.734375 37.984375 48.734375 31.890625 
L 48.734375 0 
L 39.9375 0 
L 39.9375 31.546875 
Q 39.9375 36.921875 38.90625 39.578125 
Q 37.890625 42.234375 35.28125 43.8125 
Q 32.671875 45.40625 29.15625 45.40625 
Q 23.53125 45.40625 19.453125 41.84375 
Q 15.375 38.28125 15.375 28.328125 
L 15.375 0 
z
" id="ArialMT-6e"/>
     </defs>
     <g style="fill:#262626;" transform="translate(141.096387 345.012031)scale(0.11 -0.11)">
      <use xlink:href="#ArialMT-70"/>
      <use x="55.615234" xlink:href="#ArialMT-63"/>
      <use x="105.615234" xlink:href="#ArialMT-74"/>
      <use x="133.398438" xlink:href="#ArialMT-5f"/>
      <use x="189.013672" xlink:href="#ArialMT-61"/>
      <use x="244.628906" xlink:href="#ArialMT-67"/>
      <use x="300.244141" xlink:href="#ArialMT-72"/>
      <use x="333.544922" xlink:href="#ArialMT-69"/>
      <use x="355.761719" xlink:href="#ArialMT-63"/>
      <use x="405.761719" xlink:href="#ArialMT-75"/>
      <use x="461.376953" xlink:href="#ArialMT-6c"/>
      <use x="483.59375" xlink:href="#ArialMT-74"/>
      <use x="511.376953" xlink:href="#ArialMT-75"/>
      <use x="566.992188" xlink:href="#ArialMT-72"/>
      <use x="600.292969" xlink:href="#ArialMT-65"/>
      <use x="655.908203" xlink:href="#ArialMT-5f"/>
      <use x="711.523438" xlink:href="#ArialMT-65"/>
      <use x="767.138672" xlink:href="#ArialMT-6d"/>
      <use x="850.439453" xlink:href="#ArialMT-70"/>
      <use x="906.054688" xlink:href="#ArialMT-6c"/>
      <use x="928.271484" xlink:href="#ArialMT-6f"/>
      <use x="983.886719" xlink:href="#ArialMT-79"/>
      <use x="1033.886719" xlink:href="#ArialMT-6d"/>
      <use x="1117.1875" xlink:href="#ArialMT-65"/>
      <use x="1172.802734" xlink:href="#ArialMT-6e"/>
      <use x="1228.417969" xlink:href="#ArialMT-74"/>
     </g>
    </g>
   </g>
   <g id="matplotlib.axis_2">
    <g id="ytick_1">
     <g id="line2d_7"/>
     <g id="text_8">
      <!-- −5 -->
      <defs>
       <path d="M 52.828125 31.203125 
L 5.5625 31.203125 
L 5.5625 39.40625 
L 52.828125 39.40625 
z
" id="ArialMT-2212"/>
      </defs>
      <g style="fill:#262626;" transform="translate(46.870743 292.144209)scale(0.1 -0.1)">
       <use xlink:href="#ArialMT-2212"/>
       <use x="58.398438" xlink:href="#ArialMT-35"/>
      </g>
     </g>
    </g>
    <g id="ytick_2">
     <g id="line2d_8"/>
     <g id="text_9">
      <!-- 0 -->
      <g style="fill:#262626;" transform="translate(52.711368 244.035176)scale(0.1 -0.1)">
       <use xlink:href="#ArialMT-30"/>
      </g>
     </g>
    </g>
    <g id="ytick_3">
     <g id="line2d_9"/>
     <g id="text_10">
      <!-- 5 -->
      <g style="fill:#262626;" transform="translate(52.711368 195.926142)scale(0.1 -0.1)">
       <use xlink:href="#ArialMT-35"/>
      </g>
     </g>
    </g>
    <g id="ytick_4">
     <g id="line2d_10"/>
     <g id="text_11">
      <!-- 10 -->
      <defs>
       <path d="M 37.25 0 
L 28.46875 0 
L 28.46875 56 
Q 25.296875 52.984375 20.140625 49.953125 
Q 14.984375 46.921875 10.890625 45.40625 
L 10.890625 53.90625 
Q 18.265625 57.375 23.78125 62.296875 
Q 29.296875 67.234375 31.59375 71.875 
L 37.25 71.875 
z
" id="ArialMT-31"/>
      </defs>
      <g style="fill:#262626;" transform="translate(47.150431 147.817108)scale(0.1 -0.1)">
       <use xlink:href="#ArialMT-31"/>
       <use x="55.615234" xlink:href="#ArialMT-30"/>
      </g>
     </g>
    </g>
    <g id="ytick_5">
     <g id="line2d_11"/>
     <g id="text_12">
      <!-- 15 -->
      <g style="fill:#262626;" transform="translate(47.150431 99.708074)scale(0.1 -0.1)">
       <use xlink:href="#ArialMT-31"/>
       <use x="55.615234" xlink:href="#ArialMT-35"/>
      </g>
     </g>
    </g>
    <g id="ytick_6">
     <g id="line2d_12"/>
     <g id="text_13">
      <!-- 20 -->
      <defs>
       <path d="M 50.34375 8.453125 
L 50.34375 0 
L 3.03125 0 
Q 2.9375 3.171875 4.046875 6.109375 
Q 5.859375 10.9375 9.828125 15.625 
Q 13.8125 20.3125 21.34375 26.46875 
Q 33.015625 36.03125 37.109375 41.625 
Q 41.21875 47.21875 41.21875 52.203125 
Q 41.21875 57.421875 37.46875 61 
Q 33.734375 64.59375 27.734375 64.59375 
Q 21.390625 64.59375 17.578125 60.78125 
Q 13.765625 56.984375 13.71875 50.25 
L 4.6875 51.171875 
Q 5.609375 61.28125 11.65625 66.578125 
Q 17.71875 71.875 27.9375 71.875 
Q 38.234375 71.875 44.234375 66.15625 
Q 50.25 60.453125 50.25 52 
Q 50.25 47.703125 48.484375 43.546875 
Q 46.734375 39.40625 42.65625 34.8125 
Q 38.578125 30.21875 29.109375 22.21875 
Q 21.1875 15.578125 18.9375 13.203125 
Q 16.703125 10.84375 15.234375 8.453125 
z
" id="ArialMT-32"/>
      </defs>
      <g style="fill:#262626;" transform="translate(47.150431 51.59904)scale(0.1 -0.1)">
       <use xlink:href="#ArialMT-32"/>
       <use x="55.615234" xlink:href="#ArialMT-30"/>
      </g>
     </g>
    </g>
    <g id="text_14">
     <!-- Unemployment Rate -->
     <defs>
      <path d="M 54.6875 71.578125 
L 64.15625 71.578125 
L 64.15625 30.21875 
Q 64.15625 19.4375 61.71875 13.078125 
Q 59.28125 6.734375 52.90625 2.75 
Q 46.53125 -1.21875 36.1875 -1.21875 
Q 26.125 -1.21875 19.71875 2.25 
Q 13.328125 5.71875 10.59375 12.28125 
Q 7.859375 18.84375 7.859375 30.21875 
L 7.859375 71.578125 
L 17.328125 71.578125 
L 17.328125 30.28125 
Q 17.328125 20.953125 19.0625 16.53125 
Q 20.796875 12.109375 25.015625 9.71875 
Q 29.25 7.328125 35.359375 7.328125 
Q 45.796875 7.328125 50.234375 12.0625 
Q 54.6875 16.796875 54.6875 30.28125 
z
" id="ArialMT-55"/>
      <path id="ArialMT-20"/>
      <path d="M 7.859375 0 
L 7.859375 71.578125 
L 39.59375 71.578125 
Q 49.171875 71.578125 54.140625 69.640625 
Q 59.125 67.71875 62.109375 62.828125 
Q 65.09375 57.953125 65.09375 52.046875 
Q 65.09375 44.4375 60.15625 39.203125 
Q 55.21875 33.984375 44.921875 32.5625 
Q 48.6875 30.765625 50.640625 29 
Q 54.78125 25.203125 58.5 19.484375 
L 70.953125 0 
L 59.03125 0 
L 49.5625 14.890625 
Q 45.40625 21.34375 42.71875 24.75 
Q 40.046875 28.171875 37.921875 29.53125 
Q 35.796875 30.90625 33.59375 31.453125 
Q 31.984375 31.78125 28.328125 31.78125 
L 17.328125 31.78125 
L 17.328125 0 
z
M 17.328125 39.984375 
L 37.703125 39.984375 
Q 44.1875 39.984375 47.84375 41.328125 
Q 51.515625 42.671875 53.421875 45.625 
Q 55.328125 48.578125 55.328125 52.046875 
Q 55.328125 57.125 51.640625 60.390625 
Q 47.953125 63.671875 39.984375 63.671875 
L 17.328125 63.671875 
z
" id="ArialMT-52"/>
     </defs>
     <g style="fill:#262626;" transform="translate(40.555587 216.857344)rotate(-90)scale(0.11 -0.11)">
      <use xlink:href="#ArialMT-55"/>
      <use x="72.216797" xlink:href="#ArialMT-6e"/>
      <use x="127.832031" xlink:href="#ArialMT-65"/>
      <use x="183.447266" xlink:href="#ArialMT-6d"/>
      <use x="266.748047" xlink:href="#ArialMT-70"/>
      <use x="322.363281" xlink:href="#ArialMT-6c"/>
      <use x="344.580078" xlink:href="#ArialMT-6f"/>
      <use x="400.195312" xlink:href="#ArialMT-79"/>
      <use x="450.195312" xlink:href="#ArialMT-6d"/>
      <use x="533.496094" xlink:href="#ArialMT-65"/>
      <use x="589.111328" xlink:href="#ArialMT-6e"/>
      <use x="644.726562" xlink:href="#ArialMT-74"/>
      <use x="672.509766" xlink:href="#ArialMT-20"/>
      <use x="700.292969" xlink:href="#ArialMT-52"/>
      <use x="772.509766" xlink:href="#ArialMT-61"/>
      <use x="828.125" xlink:href="#ArialMT-74"/>
      <use x="855.908203" xlink:href="#ArialMT-65"/>
     </g>
    </g>
   </g>
   <g id="PathCollection_1">
    <defs>
     <path d="M 0 3.5 
C 0.928211 3.5 1.81853 3.131218 2.474874 2.474874 
C 3.131218 1.81853 3.5 0.928211 3.5 0 
C 3.5 -0.928211 3.131218 -1.81853 2.474874 -2.474874 
C 1.81853 -3.131218 0.928211 -3.5 0 -3.5 
C -0.928211 -3.5 -1.81853 -3.131218 -2.474874 -2.474874 
C -3.131218 -1.81853 -3.5 -0.928211 -3.5 0 
C -3.5 0.928211 -3.131218 1.81853 -2.474874 2.474874 
C -1.81853 3.131218 -0.928211 3.5 0 3.5 
z
" id="m84f86332fb"/>
    </defs>
    <g clip-path="url(#p2694799834)">
     <use style="fill:#4c72b0;fill-opacity:0.8;" x="341.859199" xlink:href="#m84f86332fb" y="225.350032"/>
     <use style="fill:#4c72b0;fill-opacity:0.8;" x="161.953555" xlink:href="#m84f86332fb" y="198.485948"/>
     <use style="fill:#4c72b0;fill-opacity:0.8;" x="78.505607" xlink:href="#m84f86332fb" y="144.257444"/>
     <use style="fill:#4c72b0;fill-opacity:0.8;" x="229.044628" xlink:href="#m84f86332fb" y="229.198756"/>
     <use style="fill:#4c72b0;fill-opacity:0.8;" x="155.433708" xlink:href="#m84f86332fb" y="179.290445"/>
     <use style="fill:#4c72b0;fill-opacity:0.8;" x="244.455123" xlink:href="#m84f86332fb" y="222.097862"/>
    </g>
   </g>
   <g id="PolyCollection_1">
    <path clip-path="url(#p2694799834)" d="M 65.272306 134.07217 
L 65.272306 203.201888 
L 68.199783 203.481504 
L 71.127259 203.761119 
L 74.054736 204.040735 
L 76.982213 204.320351 
L 79.90969 204.599966 
L 82.837166 204.879582 
L 85.764643 205.159197 
L 88.69212 205.438813 
L 91.619596 205.718429 
L 94.547073 205.998044 
L 97.47455 206.27766 
L 100.402026 206.557275 
L 103.329503 206.836891 
L 106.25698 207.116507 
L 109.184457 207.396122 
L 112.111933 207.675738 
L 115.03941 207.955353 
L 117.966887 208.27697 
L 120.894363 208.614411 
L 123.82184 208.951852 
L 126.749317 209.289294 
L 129.676794 209.626735 
L 132.60427 209.964176 
L 135.531747 210.301618 
L 138.459224 210.639059 
L 141.3867 210.9765 
L 144.314177 211.313942 
L 147.241654 211.651383 
L 150.16913 211.988824 
L 153.096607 212.326266 
L 156.024084 212.663707 
L 158.951561 213.001148 
L 161.879037 213.33859 
L 164.806514 213.676031 
L 167.733991 214.013472 
L 170.661467 214.350914 
L 173.588944 214.688355 
L 176.516421 215.025797 
L 179.443898 215.363238 
L 182.371374 215.700679 
L 185.298851 216.038121 
L 188.226328 216.375562 
L 191.153804 216.713003 
L 194.081281 217.050445 
L 197.008758 217.394484 
L 199.936235 217.733203 
L 202.863711 218.40327 
L 205.791188 220.116358 
L 208.718665 220.904678 
L 211.646141 222.47236 
L 214.573618 224.119708 
L 217.501095 225.424649 
L 220.428571 226.927261 
L 223.356048 227.73712 
L 226.283525 229.414676 
L 229.211002 231.094627 
L 232.138478 232.774579 
L 235.065955 234.45453 
L 237.993432 236.134481 
L 240.920908 237.814432 
L 243.848385 239.494383 
L 246.775862 241.174335 
L 249.703339 242.854286 
L 252.630815 244.534237 
L 255.558292 246.214188 
L 258.485769 247.894139 
L 261.413245 249.57409 
L 264.340722 251.255386 
L 267.268199 252.938544 
L 270.195675 254.619245 
L 273.123152 256.297639 
L 276.050629 257.976033 
L 278.978106 259.654428 
L 281.905582 261.333749 
L 284.833059 263.0137 
L 287.760536 264.693651 
L 290.688012 266.373602 
L 293.615489 268.053554 
L 296.542966 269.733505 
L 299.470443 271.413456 
L 302.397919 273.093407 
L 305.325396 274.773358 
L 308.252873 276.453309 
L 311.180349 278.133261 
L 314.107826 279.813212 
L 317.035303 281.493163 
L 319.96278 283.173114 
L 322.890256 284.853065 
L 325.817733 286.533017 
L 328.74521 288.212968 
L 331.672686 289.892919 
L 334.600163 291.57287 
L 337.52764 293.252821 
L 340.455116 294.932772 
L 343.382593 296.612724 
L 346.31007 298.292675 
L 349.237547 299.972626 
L 352.165023 301.652577 
L 355.0925 303.332528 
L 355.0925 228.10369 
L 355.0925 228.10369 
L 352.165023 227.645751 
L 349.237547 227.084419 
L 346.31007 226.447911 
L 343.382593 225.81799 
L 340.455116 225.267554 
L 337.52764 224.900221 
L 334.600163 224.372466 
L 331.672686 224.104608 
L 328.74521 223.39986 
L 325.817733 222.740743 
L 322.890256 222.053161 
L 319.96278 221.458692 
L 317.035303 220.86589 
L 314.107826 220.173832 
L 311.180349 219.548468 
L 308.252873 218.92361 
L 305.325396 218.293165 
L 302.397919 217.660986 
L 299.470443 216.87089 
L 296.542966 215.969826 
L 293.615489 215.068998 
L 290.688012 214.397374 
L 287.760536 213.632281 
L 284.833059 212.783555 
L 281.905582 211.934829 
L 278.978106 211.086104 
L 276.050629 210.237378 
L 273.123152 209.388652 
L 270.195675 209.248617 
L 267.268199 208.404463 
L 264.340722 207.560308 
L 261.413245 206.716154 
L 258.485769 205.872 
L 255.558292 205.027846 
L 252.630815 204.183692 
L 249.703339 203.339538 
L 246.775862 202.495383 
L 243.848385 201.651229 
L 240.920908 200.807075 
L 237.993432 199.966568 
L 235.065955 199.19077 
L 232.138478 198.414971 
L 229.211002 197.641371 
L 226.283525 196.790089 
L 223.356048 195.838555 
L 220.428571 194.897996 
L 217.501095 194.053842 
L 214.573618 193.252876 
L 211.646141 192.422233 
L 208.718665 191.521379 
L 205.791188 190.677225 
L 202.863711 189.833071 
L 199.936235 188.988916 
L 197.008758 188.144762 
L 194.081281 187.300148 
L 191.153804 186.452009 
L 188.226328 185.603869 
L 185.298851 184.755729 
L 182.371374 183.907589 
L 179.443898 183.059449 
L 176.516421 182.214309 
L 173.588944 181.242956 
L 170.661467 180.201304 
L 167.733991 179.159651 
L 164.806514 178.117999 
L 161.879037 177.137076 
L 158.951561 176.288351 
L 156.024084 175.439625 
L 153.096607 174.590899 
L 150.16913 173.742174 
L 147.241654 172.893448 
L 144.314177 172.044722 
L 141.3867 171.091544 
L 138.459224 170.058539 
L 135.531747 168.982063 
L 132.60427 167.978309 
L 129.676794 166.507565 
L 126.749317 165.490753 
L 123.82184 164.089356 
L 120.894363 162.681631 
L 117.966887 161.426776 
L 115.03941 160.184046 
L 112.111933 158.984603 
L 109.184457 157.269975 
L 106.25698 155.70101 
L 103.329503 154.463518 
L 100.402026 152.947836 
L 97.47455 151.432153 
L 94.547073 149.914019 
L 91.619596 148.395568 
L 88.69212 146.877118 
L 85.764643 145.358668 
L 82.837166 143.840217 
L 79.90969 142.194074 
L 76.982213 140.629185 
L 74.054736 139.019232 
L 71.127259 137.371031 
L 68.199783 135.721601 
L 65.272306 134.07217 
z
" style="fill:#4c72b0;fill-opacity:0.15;"/>
   </g>
   <g id="PathCollection_2">
    <defs>
     <path d="M 0 3.5 
C 0.928211 3.5 1.81853 3.131218 2.474874 2.474874 
C 3.131218 1.81853 3.5 0.928211 3.5 0 
C 3.5 -0.928211 3.131218 -1.81853 2.474874 -2.474874 
C 1.81853 -3.131218 0.928211 -3.5 0 -3.5 
C -0.928211 -3.5 -1.81853 -3.131218 -2.474874 -2.474874 
C -3.131218 -1.81853 -3.5 -0.928211 -3.5 0 
C -3.5 0.928211 -3.131218 1.81853 -2.474874 2.474874 
C -1.81853 3.131218 -0.928211 3.5 0 3.5 
z
" id="mf0cab66a11"/>
    </defs>
    <g clip-path="url(#p2694799834)">
     <use style="fill:#55a868;fill-opacity:0.8;" x="161.853937" xlink:href="#mf0cab66a11" y="187.584442"/>
    </g>
   </g>
   <g id="PolyCollection_2">
    <path clip-path="url(#p2694799834)" d="M 65.272306 206.231382 
L 65.272306 206.231382 
L 68.199783 205.666176 
L 71.127259 205.100971 
L 74.054736 204.535765 
L 76.982213 203.97056 
L 79.90969 203.405354 
L 82.837166 202.840148 
L 85.764643 202.274943 
L 88.69212 201.709737 
L 91.619596 201.144531 
L 94.547073 200.579326 
L 97.47455 200.01412 
L 100.402026 199.448914 
L 103.329503 198.883709 
L 106.25698 198.318503 
L 109.184457 197.753298 
L 112.111933 197.188092 
L 115.03941 196.622886 
L 117.966887 196.057681 
L 120.894363 195.492475 
L 123.82184 194.927269 
L 126.749317 194.362064 
L 129.676794 193.796858 
L 132.60427 193.231652 
L 135.531747 192.666447 
L 138.459224 192.101241 
L 141.3867 191.536036 
L 144.314177 190.97083 
L 147.241654 190.405624 
L 150.16913 189.840419 
L 153.096607 189.275213 
L 156.024084 188.710007 
L 158.951561 188.144802 
L 161.879037 187.579596 
L 164.806514 187.01439 
L 167.733991 186.449185 
L 170.661467 185.883979 
L 173.588944 185.318774 
L 176.516421 184.753568 
L 179.443898 184.188362 
L 182.371374 183.623157 
L 185.298851 183.057951 
L 188.226328 182.492745 
L 191.153804 181.92754 
L 194.081281 181.362334 
L 197.008758 180.797128 
L 199.936235 180.231923 
L 202.863711 179.666717 
L 205.791188 179.101512 
L 208.718665 178.536306 
L 211.646141 177.9711 
L 214.573618 177.405895 
L 217.501095 176.840689 
L 220.428571 176.275483 
L 223.356048 175.710278 
L 226.283525 175.145072 
L 229.211002 174.579866 
L 232.138478 174.014661 
L 235.065955 173.449455 
L 237.993432 172.88425 
L 240.920908 172.319044 
L 243.848385 171.753838 
L 246.775862 171.188633 
L 249.703339 170.623427 
L 252.630815 170.058221 
L 255.558292 169.493016 
L 258.485769 168.92781 
L 261.413245 168.362604 
L 264.340722 167.797399 
L 267.268199 167.232193 
L 270.195675 166.666988 
L 273.123152 166.101782 
L 276.050629 165.536576 
L 278.978106 164.971371 
L 281.905582 164.406165 
L 284.833059 163.840959 
L 287.760536 163.275754 
L 290.688012 162.710548 
L 293.615489 162.145342 
L 296.542966 161.580137 
L 299.470443 161.014931 
L 302.397919 160.449726 
L 305.325396 159.88452 
L 308.252873 159.319314 
L 311.180349 158.754109 
L 314.107826 158.188903 
L 317.035303 157.623697 
L 319.96278 157.058492 
L 322.890256 156.493286 
L 325.817733 155.92808 
L 328.74521 155.362875 
L 331.672686 154.797669 
L 334.600163 154.232464 
L 337.52764 153.667258 
L 340.455116 153.102052 
L 343.382593 152.536847 
L 346.31007 151.971641 
L 349.237547 151.406435 
L 352.165023 150.84123 
L 355.0925 150.276024 
L 355.0925 150.276024 
L 355.0925 150.276024 
L 352.165023 150.84123 
L 349.237547 151.406435 
L 346.31007 151.971641 
L 343.382593 152.536847 
L 340.455116 153.102052 
L 337.52764 153.667258 
L 334.600163 154.232464 
L 331.672686 154.797669 
L 328.74521 155.362875 
L 325.817733 155.92808 
L 322.890256 156.493286 
L 319.96278 157.058492 
L 317.035303 157.623697 
L 314.107826 158.188903 
L 311.180349 158.754109 
L 308.252873 159.319314 
L 305.325396 159.88452 
L 302.397919 160.449726 
L 299.470443 161.014931 
L 296.542966 161.580137 
L 293.615489 162.145342 
L 290.688012 162.710548 
L 287.760536 163.275754 
L 284.833059 163.840959 
L 281.905582 164.406165 
L 278.978106 164.971371 
L 276.050629 165.536576 
L 273.123152 166.101782 
L 270.195675 166.666988 
L 267.268199 167.232193 
L 264.340722 167.797399 
L 261.413245 168.362604 
L 258.485769 168.92781 
L 255.558292 169.493016 
L 252.630815 170.058221 
L 249.703339 170.623427 
L 246.775862 171.188633 
L 243.848385 171.753838 
L 240.920908 172.319044 
L 237.993432 172.88425 
L 235.065955 173.449455 
L 232.138478 174.014661 
L 229.211002 174.579866 
L 226.283525 175.145072 
L 223.356048 175.710278 
L 220.428571 176.275483 
L 217.501095 176.840689 
L 214.573618 177.405895 
L 211.646141 177.9711 
L 208.718665 178.536306 
L 205.791188 179.101512 
L 202.863711 179.666717 
L 199.936235 180.231923 
L 197.008758 180.797128 
L 194.081281 181.362334 
L 191.153804 181.92754 
L 188.226328 182.492745 
L 185.298851 183.057951 
L 182.371374 183.623157 
L 179.443898 184.188362 
L 176.516421 184.753568 
L 173.588944 185.318774 
L 170.661467 185.883979 
L 167.733991 186.449185 
L 164.806514 187.01439 
L 161.879037 187.579596 
L 158.951561 188.144802 
L 156.024084 188.710007 
L 153.096607 189.275213 
L 150.16913 189.840419 
L 147.241654 190.405624 
L 144.314177 190.97083 
L 141.3867 191.536036 
L 138.459224 192.101241 
L 135.531747 192.666447 
L 132.60427 193.231652 
L 129.676794 193.796858 
L 126.749317 194.362064 
L 123.82184 194.927269 
L 120.894363 195.492475 
L 117.966887 196.057681 
L 115.03941 196.622886 
L 112.111933 197.188092 
L 109.184457 197.753298 
L 106.25698 198.318503 
L 103.329503 198.883709 
L 100.402026 199.448914 
L 97.47455 200.01412 
L 94.547073 200.579326 
L 91.619596 201.144531 
L 88.69212 201.709737 
L 85.764643 202.274943 
L 82.837166 202.840148 
L 79.90969 203.405354 
L 76.982213 203.97056 
L 74.054736 204.535765 
L 71.127259 205.100971 
L 68.199783 205.666176 
L 65.272306 206.231382 
z
" style="fill:#55a868;fill-opacity:0.15;"/>
   </g>
   <g id="PathCollection_3">
    <defs>
     <path d="M 0 3.5 
C 0.928211 3.5 1.81853 3.131218 2.474874 2.474874 
C 3.131218 1.81853 3.5 0.928211 3.5 0 
C 3.5 -0.928211 3.131218 -1.81853 2.474874 -2.474874 
C 1.81853 -3.131218 0.928211 -3.5 0 -3.5 
C -0.928211 -3.5 -1.81853 -3.131218 -2.474874 -2.474874 
C -3.131218 -1.81853 -3.5 -0.928211 -3.5 0 
C -3.5 0.928211 -3.131218 1.81853 -2.474874 2.474874 
C -1.81853 3.131218 -0.928211 3.5 0 3.5 
z
" id="m57cc7c94b2"/>
    </defs>
    <g clip-path="url(#p2694799834)">
     <use style="fill:#c44e52;fill-opacity:0.8;" x="230.050724" xlink:href="#m57cc7c94b2" y="140.889817"/>
     <use style="fill:#c44e52;fill-opacity:0.8;" x="293.27671" xlink:href="#m57cc7c94b2" y="204.77861"/>
     <use style="fill:#c44e52;fill-opacity:0.8;" x="139.002125" xlink:href="#m57cc7c94b2" y="214.015545"/>
     <use style="fill:#c44e52;fill-opacity:0.8;" x="110.835837" xlink:href="#m57cc7c94b2" y="219.634679"/>
     <use style="fill:#c44e52;fill-opacity:0.8;" x="75.566948" xlink:href="#m57cc7c94b2" y="128.198651"/>
     <use style="fill:#c44e52;fill-opacity:0.8;" x="71.288455" xlink:href="#m57cc7c94b2" y="196.580831"/>
     <use style="fill:#c44e52;fill-opacity:0.8;" x="153.849817" xlink:href="#m57cc7c94b2" y="117.797475"/>
    </g>
   </g>
   <g id="PolyCollection_3">
    <path clip-path="url(#p2694799834)" d="M 65.272306 118.08491 
L 65.272306 227.741873 
L 68.199783 226.858151 
L 71.127259 225.974429 
L 74.054736 225.077105 
L 76.982213 223.882842 
L 79.90969 222.170008 
L 82.837166 221.567555 
L 85.764643 220.304774 
L 88.69212 219.784897 
L 91.619596 218.774678 
L 94.547073 217.258914 
L 97.47455 216.340611 
L 100.402026 214.525766 
L 103.329503 213.636006 
L 106.25698 213.148477 
L 109.184457 212.377011 
L 112.111933 210.849112 
L 115.03941 210.767716 
L 117.966887 210.367344 
L 120.894363 210.239754 
L 123.82184 210.067434 
L 126.749317 209.238528 
L 129.676794 209.360561 
L 132.60427 209.923986 
L 135.531747 210.162609 
L 138.459224 210.175221 
L 141.3867 209.749028 
L 144.314177 210.178357 
L 147.241654 210.123107 
L 150.16913 210.067857 
L 153.096607 210.012607 
L 156.024084 209.957357 
L 158.951561 209.902107 
L 161.879037 209.846857 
L 164.806514 209.791607 
L 167.733991 209.77489 
L 170.661467 209.812173 
L 173.588944 209.849457 
L 176.516421 209.88674 
L 179.443898 209.924024 
L 182.371374 209.961308 
L 185.298851 209.998591 
L 188.226328 210.033852 
L 191.153804 210.068239 
L 194.081281 210.199796 
L 197.008758 210.66477 
L 199.936235 210.879902 
L 202.863711 210.826945 
L 205.791188 210.796599 
L 208.718665 210.901487 
L 211.646141 210.677693 
L 214.573618 210.626115 
L 217.501095 210.901747 
L 220.428571 211.039515 
L 223.356048 211.268197 
L 226.283525 211.187539 
L 229.211002 211.106882 
L 232.138478 211.669904 
L 235.065955 212.429962 
L 237.993432 213.19002 
L 240.920908 213.950078 
L 243.848385 214.536762 
L 246.775862 214.971876 
L 249.703339 215.878084 
L 252.630815 216.784362 
L 255.558292 217.458924 
L 258.485769 217.963322 
L 261.413245 218.476525 
L 264.340722 219.214393 
L 267.268199 220.065771 
L 270.195675 220.915832 
L 273.123152 221.765892 
L 276.050629 222.615953 
L 278.978106 223.466014 
L 281.905582 224.316075 
L 284.833059 225.166136 
L 287.760536 226.016197 
L 290.688012 226.866258 
L 293.615489 227.716319 
L 296.542966 228.545051 
L 299.470443 229.31547 
L 302.397919 230.118167 
L 305.325396 231.124637 
L 308.252873 231.981944 
L 311.180349 232.839252 
L 314.107826 233.69656 
L 317.035303 234.553868 
L 319.96278 235.411176 
L 322.890256 236.266507 
L 325.817733 237.115912 
L 328.74521 237.965316 
L 331.672686 238.814721 
L 334.600163 239.664125 
L 337.52764 240.51353 
L 340.455116 241.362934 
L 343.382593 242.212339 
L 346.31007 243.061743 
L 349.237547 243.911148 
L 352.165023 244.760552 
L 355.0925 245.605468 
L 355.0925 30.120597 
L 355.0925 30.120597 
L 352.165023 31.660734 
L 349.237547 33.204931 
L 346.31007 34.756121 
L 343.382593 36.297789 
L 340.455116 37.839457 
L 337.52764 39.381125 
L 334.600163 40.922793 
L 331.672686 42.464461 
L 328.74521 44.006129 
L 325.817733 45.547797 
L 322.890256 47.149714 
L 319.96278 48.994067 
L 317.035303 51.263258 
L 314.107826 53.53245 
L 311.180349 55.603262 
L 308.252873 56.962537 
L 305.325396 58.321813 
L 302.397919 59.99534 
L 299.470443 61.834116 
L 296.542966 63.739083 
L 293.615489 65.858559 
L 290.688012 67.984711 
L 287.760536 70.170916 
L 284.833059 72.220386 
L 281.905582 74.329994 
L 278.978106 76.168639 
L 276.050629 77.604358 
L 273.123152 79.045724 
L 270.195675 80.487508 
L 267.268199 82.033471 
L 264.340722 83.859412 
L 261.413245 85.685353 
L 258.485769 87.511293 
L 255.558292 89.338377 
L 252.630815 91.168362 
L 249.703339 92.998348 
L 246.775862 94.828333 
L 243.848385 96.658319 
L 240.920908 98.214518 
L 237.993432 99.575307 
L 235.065955 100.936095 
L 232.138478 102.296884 
L 229.211002 103.657672 
L 226.283525 105.018461 
L 223.356048 106.37925 
L 220.428571 107.740038 
L 217.501095 109.100827 
L 214.573618 110.461616 
L 211.646141 111.822404 
L 208.718665 113.194294 
L 205.791188 115.431713 
L 202.863711 117.977419 
L 199.936235 120.531695 
L 197.008758 123.085972 
L 194.081281 124.704424 
L 191.153804 126.083422 
L 188.226328 128.369465 
L 185.298851 128.995863 
L 182.371374 128.004594 
L 179.443898 129.122804 
L 176.516421 128.654561 
L 173.588944 130.62223 
L 170.661467 130.928307 
L 167.733991 132.143579 
L 164.806514 132.085607 
L 161.879037 132.31701 
L 158.951561 133.408069 
L 156.024084 132.468341 
L 153.096607 131.85311 
L 150.16913 133.218688 
L 147.241654 132.540829 
L 144.314177 133.598899 
L 141.3867 133.756732 
L 138.459224 134.546595 
L 135.531747 133.751725 
L 132.60427 133.404132 
L 129.676794 134.42913 
L 126.749317 133.992691 
L 123.82184 135.431646 
L 120.894363 135.281566 
L 117.966887 134.496619 
L 115.03941 133.522255 
L 112.111933 132.40173 
L 109.184457 131.288248 
L 106.25698 130.171955 
L 103.329503 129.047255 
L 100.402026 127.922556 
L 97.47455 126.846589 
L 94.547073 126.240395 
L 91.619596 125.78514 
L 88.69212 124.736867 
L 85.764643 123.678652 
L 82.837166 122.620436 
L 79.90969 121.828517 
L 76.982213 121.079587 
L 74.054736 120.330656 
L 71.127259 119.581725 
L 68.199783 118.832795 
L 65.272306 118.08491 
z
" style="fill:#c44e52;fill-opacity:0.15;"/>
   </g>
   <g id="line2d_13">
    <path clip-path="url(#p2694799834)" d="M 65.272306 155.985902 
L 68.199783 156.924435 
L 71.127259 157.862969 
L 74.054736 158.801502 
L 76.982213 159.740035 
L 79.90969 160.678568 
L 82.837166 161.617101 
L 85.764643 162.555634 
L 88.69212 163.494167 
L 91.619596 164.432701 
L 94.547073 165.371234 
L 97.47455 166.309767 
L 100.402026 167.2483 
L 103.329503 168.186833 
L 106.25698 169.125366 
L 109.184457 170.063899 
L 112.111933 171.002432 
L 115.03941 171.940966 
L 117.966887 172.879499 
L 120.894363 173.818032 
L 123.82184 174.756565 
L 126.749317 175.695098 
L 129.676794 176.633631 
L 132.60427 177.572164 
L 135.531747 178.510697 
L 138.459224 179.449231 
L 141.3867 180.387764 
L 144.314177 181.326297 
L 147.241654 182.26483 
L 150.16913 183.203363 
L 153.096607 184.141896 
L 156.024084 185.080429 
L 158.951561 186.018962 
L 161.879037 186.957496 
L 164.806514 187.896029 
L 167.733991 188.834562 
L 170.661467 189.773095 
L 173.588944 190.711628 
L 176.516421 191.650161 
L 179.443898 192.588694 
L 182.371374 193.527228 
L 185.298851 194.465761 
L 188.226328 195.404294 
L 191.153804 196.342827 
L 194.081281 197.28136 
L 197.008758 198.219893 
L 199.936235 199.158426 
L 202.863711 200.096959 
L 205.791188 201.035493 
L 208.718665 201.974026 
L 211.646141 202.912559 
L 214.573618 203.851092 
L 217.501095 204.789625 
L 220.428571 205.728158 
L 223.356048 206.666691 
L 226.283525 207.605224 
L 229.211002 208.543758 
L 232.138478 209.482291 
L 235.065955 210.420824 
L 237.993432 211.359357 
L 240.920908 212.29789 
L 243.848385 213.236423 
L 246.775862 214.174956 
L 249.703339 215.113489 
L 252.630815 216.052023 
L 255.558292 216.990556 
L 258.485769 217.929089 
L 261.413245 218.867622 
L 264.340722 219.806155 
L 267.268199 220.744688 
L 270.195675 221.683221 
L 273.123152 222.621754 
L 276.050629 223.560288 
L 278.978106 224.498821 
L 281.905582 225.437354 
L 284.833059 226.375887 
L 287.760536 227.31442 
L 290.688012 228.252953 
L 293.615489 229.191486 
L 296.542966 230.13002 
L 299.470443 231.068553 
L 302.397919 232.007086 
L 305.325396 232.945619 
L 308.252873 233.884152 
L 311.180349 234.822685 
L 314.107826 235.761218 
L 317.035303 236.699751 
L 319.96278 237.638285 
L 322.890256 238.576818 
L 325.817733 239.515351 
L 328.74521 240.453884 
L 331.672686 241.392417 
L 334.600163 242.33095 
L 337.52764 243.269483 
L 340.455116 244.208016 
L 343.382593 245.14655 
L 346.31007 246.085083 
L 349.237547 247.023616 
L 352.165023 247.962149 
L 355.0925 248.900682 
" style="fill:none;stroke:#4c72b0;stroke-linecap:round;stroke-width:2.625;"/>
   </g>
   <g id="line2d_14">
    <path clip-path="url(#p2694799834)" d="M 65.272306 206.231382 
L 68.199783 205.666176 
L 71.127259 205.100971 
L 74.054736 204.535765 
L 76.982213 203.97056 
L 79.90969 203.405354 
L 82.837166 202.840148 
L 85.764643 202.274943 
L 88.69212 201.709737 
L 91.619596 201.144531 
L 94.547073 200.579326 
L 97.47455 200.01412 
L 100.402026 199.448914 
L 103.329503 198.883709 
L 106.25698 198.318503 
L 109.184457 197.753298 
L 112.111933 197.188092 
L 115.03941 196.622886 
L 117.966887 196.057681 
L 120.894363 195.492475 
L 123.82184 194.927269 
L 126.749317 194.362064 
L 129.676794 193.796858 
L 132.60427 193.231652 
L 135.531747 192.666447 
L 138.459224 192.101241 
L 141.3867 191.536036 
L 144.314177 190.97083 
L 147.241654 190.405624 
L 150.16913 189.840419 
L 153.096607 189.275213 
L 156.024084 188.710007 
L 158.951561 188.144802 
L 161.879037 187.579596 
L 164.806514 187.01439 
L 167.733991 186.449185 
L 170.661467 185.883979 
L 173.588944 185.318774 
L 176.516421 184.753568 
L 179.443898 184.188362 
L 182.371374 183.623157 
L 185.298851 183.057951 
L 188.226328 182.492745 
L 191.153804 181.92754 
L 194.081281 181.362334 
L 197.008758 180.797128 
L 199.936235 180.231923 
L 202.863711 179.666717 
L 205.791188 179.101512 
L 208.718665 178.536306 
L 211.646141 177.9711 
L 214.573618 177.405895 
L 217.501095 176.840689 
L 220.428571 176.275483 
L 223.356048 175.710278 
L 226.283525 175.145072 
L 229.211002 174.579866 
L 232.138478 174.014661 
L 235.065955 173.449455 
L 237.993432 172.88425 
L 240.920908 172.319044 
L 243.848385 171.753838 
L 246.775862 171.188633 
L 249.703339 170.623427 
L 252.630815 170.058221 
L 255.558292 169.493016 
L 258.485769 168.92781 
L 261.413245 168.362604 
L 264.340722 167.797399 
L 267.268199 167.232193 
L 270.195675 166.666988 
L 273.123152 166.101782 
L 276.050629 165.536576 
L 278.978106 164.971371 
L 281.905582 164.406165 
L 284.833059 163.840959 
L 287.760536 163.275754 
L 290.688012 162.710548 
L 293.615489 162.145342 
L 296.542966 161.580137 
L 299.470443 161.014931 
L 302.397919 160.449726 
L 305.325396 159.88452 
L 308.252873 159.319314 
L 311.180349 158.754109 
L 314.107826 158.188903 
L 317.035303 157.623697 
L 319.96278 157.058492 
L 322.890256 156.493286 
L 325.817733 155.92808 
L 328.74521 155.362875 
L 331.672686 154.797669 
L 334.600163 154.232464 
L 337.52764 153.667258 
L 340.455116 153.102052 
L 343.382593 152.536847 
L 346.31007 151.971641 
L 349.237547 151.406435 
L 352.165023 150.84123 
L 355.0925 150.276024 
" style="fill:none;stroke:#55a868;stroke-linecap:round;stroke-width:2.625;"/>
   </g>
   <g id="line2d_15">
    <path clip-path="url(#p2694799834)" d="M 65.272306 172.511494 
L 68.199783 172.579419 
L 71.127259 172.647344 
L 74.054736 172.715269 
L 76.982213 172.783194 
L 79.90969 172.851119 
L 82.837166 172.919044 
L 85.764643 172.986969 
L 88.69212 173.054894 
L 91.619596 173.122819 
L 94.547073 173.190744 
L 97.47455 173.258669 
L 100.402026 173.326593 
L 103.329503 173.394518 
L 106.25698 173.462443 
L 109.184457 173.530368 
L 112.111933 173.598293 
L 115.03941 173.666218 
L 117.966887 173.734143 
L 120.894363 173.802068 
L 123.82184 173.869993 
L 126.749317 173.937918 
L 129.676794 174.005843 
L 132.60427 174.073768 
L 135.531747 174.141693 
L 138.459224 174.209617 
L 141.3867 174.277542 
L 144.314177 174.345467 
L 147.241654 174.413392 
L 150.16913 174.481317 
L 153.096607 174.549242 
L 156.024084 174.617167 
L 158.951561 174.685092 
L 161.879037 174.753017 
L 164.806514 174.820942 
L 167.733991 174.888867 
L 170.661467 174.956792 
L 173.588944 175.024717 
L 176.516421 175.092641 
L 179.443898 175.160566 
L 182.371374 175.228491 
L 185.298851 175.296416 
L 188.226328 175.364341 
L 191.153804 175.432266 
L 194.081281 175.500191 
L 197.008758 175.568116 
L 199.936235 175.636041 
L 202.863711 175.703966 
L 205.791188 175.771891 
L 208.718665 175.839816 
L 211.646141 175.907741 
L 214.573618 175.975665 
L 217.501095 176.04359 
L 220.428571 176.111515 
L 223.356048 176.17944 
L 226.283525 176.247365 
L 229.211002 176.31529 
L 232.138478 176.383215 
L 235.065955 176.45114 
L 237.993432 176.519065 
L 240.920908 176.58699 
L 243.848385 176.654915 
L 246.775862 176.72284 
L 249.703339 176.790765 
L 252.630815 176.858689 
L 255.558292 176.926614 
L 258.485769 176.994539 
L 261.413245 177.062464 
L 264.340722 177.130389 
L 267.268199 177.198314 
L 270.195675 177.266239 
L 273.123152 177.334164 
L 276.050629 177.402089 
L 278.978106 177.470014 
L 281.905582 177.537939 
L 284.833059 177.605864 
L 287.760536 177.673789 
L 290.688012 177.741713 
L 293.615489 177.809638 
L 296.542966 177.877563 
L 299.470443 177.945488 
L 302.397919 178.013413 
L 305.325396 178.081338 
L 308.252873 178.149263 
L 311.180349 178.217188 
L 314.107826 178.285113 
L 317.035303 178.353038 
L 319.96278 178.420963 
L 322.890256 178.488888 
L 325.817733 178.556812 
L 328.74521 178.624737 
L 331.672686 178.692662 
L 334.600163 178.760587 
L 337.52764 178.828512 
L 340.455116 178.896437 
L 343.382593 178.964362 
L 346.31007 179.032287 
L 349.237547 179.100212 
L 352.165023 179.168137 
L 355.0925 179.236062 
" style="fill:none;stroke:#c44e52;stroke-linecap:round;stroke-width:2.625;"/>
   </g>
   <g id="patch_3">
    <path d="M 65.272306 316.993125 
L 65.272306 16.46 
" style="fill:none;stroke:#262626;stroke-linecap:square;stroke-linejoin:miter;stroke-width:1.25;"/>
   </g>
   <g id="patch_4">
    <path d="M 65.272306 316.993125 
L 355.0925 316.993125 
" style="fill:none;stroke:#262626;stroke-linecap:square;stroke-linejoin:miter;stroke-width:1.25;"/>
   </g>
  </g>
  <g id="legend_1">
   <g id="text_15">
    <!-- income_group -->
    <g style="fill:#262626;" transform="translate(390.884484 161.144367)scale(0.0935 -0.0935)">
     <use xlink:href="#ArialMT-69"/>
     <use x="22.216797" xlink:href="#ArialMT-6e"/>
     <use x="77.832031" xlink:href="#ArialMT-63"/>
     <use x="127.832031" xlink:href="#ArialMT-6f"/>
     <use x="183.447266" xlink:href="#ArialMT-6d"/>
     <use x="266.748047" xlink:href="#ArialMT-65"/>
     <use x="322.363281" xlink:href="#ArialMT-5f"/>
     <use x="377.978516" xlink:href="#ArialMT-67"/>
     <use x="433.59375" xlink:href="#ArialMT-72"/>
     <use x="466.894531" xlink:href="#ArialMT-6f"/>
     <use x="522.509766" xlink:href="#ArialMT-75"/>
     <use x="578.125" xlink:href="#ArialMT-70"/>
    </g>
   </g>
   <g id="PathCollection_4">
    <g>
     <use style="fill:#4c72b0;fill-opacity:0.8;" x="369.26875" xlink:href="#m84f86332fb" y="172.645062"/>
    </g>
   </g>
   <g id="text_16">
    <!-- Low income -->
    <defs>
     <path d="M 7.328125 0 
L 7.328125 71.578125 
L 16.796875 71.578125 
L 16.796875 8.453125 
L 52.046875 8.453125 
L 52.046875 0 
z
" id="ArialMT-4c"/>
     <path d="M 16.15625 0 
L 0.296875 51.859375 
L 9.375 51.859375 
L 17.625 21.921875 
L 20.703125 10.796875 
Q 20.90625 11.625 23.390625 21.484375 
L 31.640625 51.859375 
L 40.671875 51.859375 
L 48.4375 21.78125 
L 51.03125 11.859375 
L 54 21.875 
L 62.890625 51.859375 
L 71.4375 51.859375 
L 55.21875 0 
L 46.09375 0 
L 37.84375 31.0625 
L 35.84375 39.890625 
L 25.34375 0 
z
" id="ArialMT-77"/>
    </defs>
    <g style="fill:#262626;" transform="translate(387.26875 175.270062)scale(0.1 -0.1)">
     <use xlink:href="#ArialMT-4c"/>
     <use x="55.615234" xlink:href="#ArialMT-6f"/>
     <use x="111.230469" xlink:href="#ArialMT-77"/>
     <use x="183.447266" xlink:href="#ArialMT-20"/>
     <use x="211.230469" xlink:href="#ArialMT-69"/>
     <use x="233.447266" xlink:href="#ArialMT-6e"/>
     <use x="289.0625" xlink:href="#ArialMT-63"/>
     <use x="339.0625" xlink:href="#ArialMT-6f"/>
     <use x="394.677734" xlink:href="#ArialMT-6d"/>
     <use x="477.978516" xlink:href="#ArialMT-65"/>
    </g>
   </g>
   <g id="PathCollection_5">
    <g>
     <use style="fill:#55a868;fill-opacity:0.8;" x="369.26875" xlink:href="#mf0cab66a11" y="186.790375"/>
    </g>
   </g>
   <g id="text_17">
    <!-- Upper middle income -->
    <defs>
     <path d="M 40.234375 0 
L 40.234375 6.546875 
Q 35.296875 -1.171875 25.734375 -1.171875 
Q 19.53125 -1.171875 14.328125 2.25 
Q 9.125 5.671875 6.265625 11.796875 
Q 3.421875 17.921875 3.421875 25.875 
Q 3.421875 33.640625 6 39.96875 
Q 8.59375 46.296875 13.765625 49.65625 
Q 18.953125 53.03125 25.34375 53.03125 
Q 30.03125 53.03125 33.6875 51.046875 
Q 37.359375 49.078125 39.65625 45.90625 
L 39.65625 71.578125 
L 48.390625 71.578125 
L 48.390625 0 
z
M 12.453125 25.875 
Q 12.453125 15.921875 16.640625 10.984375 
Q 20.84375 6.0625 26.5625 6.0625 
Q 32.328125 6.0625 36.34375 10.765625 
Q 40.375 15.484375 40.375 25.140625 
Q 40.375 35.796875 36.265625 40.765625 
Q 32.171875 45.75 26.171875 45.75 
Q 20.3125 45.75 16.375 40.96875 
Q 12.453125 36.1875 12.453125 25.875 
z
" id="ArialMT-64"/>
    </defs>
    <g style="fill:#262626;" transform="translate(387.26875 189.415375)scale(0.1 -0.1)">
     <use xlink:href="#ArialMT-55"/>
     <use x="72.216797" xlink:href="#ArialMT-70"/>
     <use x="127.832031" xlink:href="#ArialMT-70"/>
     <use x="183.447266" xlink:href="#ArialMT-65"/>
     <use x="239.0625" xlink:href="#ArialMT-72"/>
     <use x="272.363281" xlink:href="#ArialMT-20"/>
     <use x="300.146484" xlink:href="#ArialMT-6d"/>
     <use x="383.447266" xlink:href="#ArialMT-69"/>
     <use x="405.664062" xlink:href="#ArialMT-64"/>
     <use x="461.279297" xlink:href="#ArialMT-64"/>
     <use x="516.894531" xlink:href="#ArialMT-6c"/>
     <use x="539.111328" xlink:href="#ArialMT-65"/>
     <use x="594.726562" xlink:href="#ArialMT-20"/>
     <use x="622.509766" xlink:href="#ArialMT-69"/>
     <use x="644.726562" xlink:href="#ArialMT-6e"/>
     <use x="700.341797" xlink:href="#ArialMT-63"/>
     <use x="750.341797" xlink:href="#ArialMT-6f"/>
     <use x="805.957031" xlink:href="#ArialMT-6d"/>
     <use x="889.257812" xlink:href="#ArialMT-65"/>
    </g>
   </g>
   <g id="PathCollection_6">
    <g>
     <use style="fill:#c44e52;fill-opacity:0.8;" x="369.26875" xlink:href="#m57cc7c94b2" y="200.935688"/>
    </g>
   </g>
   <g id="text_18">
    <!-- Lower middle income -->
    <g style="fill:#262626;" transform="translate(387.26875 203.560688)scale(0.1 -0.1)">
     <use xlink:href="#ArialMT-4c"/>
     <use x="55.615234" xlink:href="#ArialMT-6f"/>
     <use x="111.230469" xlink:href="#ArialMT-77"/>
     <use x="183.447266" xlink:href="#ArialMT-65"/>
     <use x="239.0625" xlink:href="#ArialMT-72"/>
     <use x="272.363281" xlink:href="#ArialMT-20"/>
     <use x="300.146484" xlink:href="#ArialMT-6d"/>
     <use x="383.447266" xlink:href="#ArialMT-69"/>
     <use x="405.664062" xlink:href="#ArialMT-64"/>
     <use x="461.279297" xlink:href="#ArialMT-64"/>
     <use x="516.894531" xlink:href="#ArialMT-6c"/>
     <use x="539.111328" xlink:href="#ArialMT-65"/>
     <use x="594.726562" xlink:href="#ArialMT-20"/>
     <use x="622.509766" xlink:href="#ArialMT-69"/>
     <use x="644.726562" xlink:href="#ArialMT-6e"/>
     <use x="700.341797" xlink:href="#ArialMT-63"/>
     <use x="750.341797" xlink:href="#ArialMT-6f"/>
     <use x="805.957031" xlink:href="#ArialMT-6d"/>
     <use x="889.257812" xlink:href="#ArialMT-65"/>
    </g>
   </g>
  </g>
 </g>
 <defs>
  <clipPath id="p2694799834">
   <rect height="300.533125" width="289.820194" x="65.272306" y="16.46"/>
  </clipPath>
 </defs>
</svg>
